<svg width="38" height="38" viewBox="0 0 38 38" fill="none" xmlns="http://www.w3.org/2000/svg">
<path fill-rule="evenodd" clip-rule="evenodd" d="M26.8922 19.6728C24.7936 20.5214 22.5284 21.0448 20.1592 21.1804C19.7506 21.2038 19.3389 21.2156 18.9244 21.2156C18.51 21.2156 18.0983 21.2038 17.6897 21.1804C15.3199 21.0447 13.0541 20.5211 10.9552 19.6722C6.55034 17.8906 2.87993 14.6763 0.523438 10.6078C4.19644 4.26645 11.0615 0 18.9244 0C26.7873 0 33.6524 4.26645 37.3254 10.6078C34.9687 14.6767 31.2977 17.8913 26.8922 19.6728Z" fill="white"/>
<path d="M10.9551 21.3236C10.4477 21.1184 9.94998 20.8941 9.4629 20.6517C7.87997 21.7654 6.54181 23.1524 5.53418 24.7349C7.24688 27.4246 9.91454 29.5498 13.116 30.7276C14.6415 31.2889 16.2882 31.635 18.0106 31.7247H19.8055C21.5274 31.6351 24.554 33.3388 20.1591 37.6383C23.361 36.4606 30.569 27.4249 32.2819 24.7349C31.2771 23.1569 29.9437 21.7733 28.3667 20.6613C27.8853 20.9002 27.3935 21.1215 26.8921 21.3242C24.7936 22.1728 22.5284 22.6962 20.1591 22.8318C19.7505 22.8552 19.3388 22.8671 18.9244 22.8671C18.5099 22.8671 18.0982 22.8552 17.6896 22.8318C15.3198 22.6962 13.0541 22.1726 10.9551 21.3236Z" fill="white"/>
<rect x="10.0513" y="7.89429" width="17.7848" height="6.34354" rx="3.17177" fill="#298B97"/>
<ellipse cx="23.8481" cy="11.0308" rx="1.16448" ry="1.16298" fill="white"/>
<ellipse cx="18.9076" cy="26.6781" rx="1.16448" ry="1.16298" fill="#162550"/>
<ellipse cx="14.2504" cy="11.0308" rx="1.16448" ry="1.16298" fill="white"/>
<ellipse cx="14.2504" cy="26.6781" rx="1.16448" ry="1.16298" fill="#162550"/>
<ellipse cx="23.5663" cy="26.6781" rx="1.16448" ry="1.16298" fill="#162550"/>
</svg>
