<svg width="19" height="19" viewBox="0 0 19 19" fill="none" xmlns="http://www.w3.org/2000/svg">
<path d="M18.1578 5.18794V3.24246C18.1578 2.72649 17.9528 2.23165 17.588 1.8668C17.2231 1.50195 16.7283 1.29698 16.2123 1.29698H13.6183V0.648492C13.6183 0.476501 13.55 0.311555 13.4284 0.189939C13.3068 0.0683231 13.1418 0 12.9698 0C12.7979 0 12.6329 0.0683231 12.5113 0.189939C12.3897 0.311555 12.3214 0.476501 12.3214 0.648492V1.29698H5.83643V0.648492C5.83643 0.476501 5.76811 0.311555 5.64649 0.189939C5.52488 0.0683231 5.35993 0 5.18794 0C5.01595 0 4.851 0.0683231 4.72939 0.189939C4.60777 0.311555 4.53945 0.476501 4.53945 0.648492V1.29698H1.94548C1.4295 1.29698 0.934665 1.50195 0.569817 1.8668C0.204969 2.23165 0 2.72649 0 3.24246V5.18794H18.1578ZM0 6.48492V16.2123C0 16.7283 0.204969 17.2231 0.569817 17.588C0.934665 17.9528 1.4295 18.1578 1.94548 18.1578H16.2123C16.7283 18.1578 17.2231 17.9528 17.588 17.588C17.9528 17.2231 18.1578 16.7283 18.1578 16.2123V6.48492H0ZM12.7429 10.2196L8.20343 14.1105C8.07935 14.2166 7.91982 14.272 7.7567 14.2656C7.59357 14.2593 7.43885 14.1916 7.32342 14.0762L5.37795 12.1307C5.25982 12.0084 5.19445 11.8446 5.19593 11.6745C5.19741 11.5045 5.26561 11.3419 5.38585 11.2216C5.50608 11.1014 5.66873 11.0332 5.83877 11.0317C6.0088 11.0302 6.17261 11.0956 6.29492 11.2137L7.81628 12.7351L11.9018 9.23323C11.9661 9.17528 12.0413 9.13078 12.1231 9.10237C12.2049 9.07396 12.2915 9.0622 12.3779 9.0678C12.4643 9.07339 12.5486 9.09623 12.6261 9.13495C12.7035 9.17367 12.7724 9.22751 12.8286 9.29327C12.8849 9.35904 12.9275 9.43541 12.9538 9.51788C12.9801 9.60035 12.9896 9.68725 12.9818 9.77346C12.974 9.85967 12.949 9.94345 12.9083 10.0198C12.8676 10.0962 12.812 10.1637 12.7448 10.2183L12.7429 10.2196Z" fill="#298B97"/>
</svg>
