<svg width="13" height="11" viewBox="0 0 13 11" fill="none" xmlns="http://www.w3.org/2000/svg">
<path d="M8 2.4C7.85855 2.4 7.7229 2.34381 7.62288 2.24379C7.52286 2.14377 7.46667 2.00812 7.46667 1.86667V1.06667H5.33333V1.86667C5.33333 2.00812 5.27714 2.14377 5.17712 2.24379C5.0771 2.34381 4.94145 2.4 4.8 2.4C4.65855 2.4 4.5229 2.34381 4.42288 2.24379C4.32286 2.14377 4.26667 2.00812 4.26667 1.86667V1.06667C4.26667 0.4784 4.74507 0 5.33333 0H7.46667C8.05493 0 8.53333 0.4784 8.53333 1.06667V1.86667C8.53333 2.00812 8.47714 2.14377 8.37712 2.24379C8.2771 2.34381 8.14145 2.4 8 2.4ZM6.77867 7.136C6.52228 7.22412 6.24324 7.22034 5.98933 7.12533L0 5.13067V9.2C0 10.0107 0.656 10.6667 1.46667 10.6667H11.3333C12.144 10.6667 12.8 10.0107 12.8 9.2V5.13067L6.77867 7.136Z" fill="#A0A0A0"/>
<path d="M12.8 3.06667V4.28801L6.528 6.37867C6.48533 6.39467 6.44267 6.40001 6.4 6.40001C6.35733 6.40001 6.31467 6.39467 6.272 6.37867L0 4.28801V3.06667C0 2.25601 0.656 1.60001 1.46667 1.60001H11.3333C12.144 1.60001 12.8 2.25601 12.8 3.06667Z" fill="#A0A0A0"/>
</svg>
