<svg width="24" height="20" viewBox="0 0 24 20" fill="none" xmlns="http://www.w3.org/2000/svg">
<path d="M15 4.5C14.7348 4.5 14.4804 4.39464 14.2929 4.20711C14.1054 4.01957 14 3.76522 14 3.5V2H10V3.5C10 3.76522 9.89464 4.01957 9.70711 4.20711C9.51957 4.39464 9.26522 4.5 9 4.5C8.73478 4.5 8.48043 4.39464 8.29289 4.20711C8.10536 4.01957 8 3.76522 8 3.5V2C8 0.897 8.897 0 10 0H14C15.103 0 16 0.897 16 2V3.5C16 3.76522 15.8946 4.01957 15.7071 4.20711C15.5196 4.39464 15.2652 4.5 15 4.5ZM12.71 13.38C12.2293 13.5452 11.7061 13.5381 11.23 13.36L0 9.62V17.25C0 18.77 1.23 20 2.75 20H21.25C22.77 20 24 18.77 24 17.25V9.62L12.71 13.38Z" fill="#A0A0A0"/>
<path d="M24 5.74994V8.03994L12.24 11.9599C12.16 11.9899 12.08 11.9999 12 11.9999C11.92 11.9999 11.84 11.9899 11.76 11.9599L0 8.03994V5.74994C0 4.22994 1.23 2.99994 2.75 2.99994H21.25C22.77 2.99994 24 4.22994 24 5.74994Z" fill="#A0A0A0"/>
</svg>
