<svg width="10" height="10" viewBox="0 0 10 10" fill="none" xmlns="http://www.w3.org/2000/svg">
<g clip-path="url(#clip0_884_2435)">
<path d="M7.91683 2.08334H7.50016V1.25001C7.50016 1.1395 7.45626 1.03352 7.37812 0.955382C7.29998 0.877242 7.194 0.833344 7.0835 0.833344C6.97299 0.833344 6.86701 0.877242 6.78887 0.955382C6.71073 1.03352 6.66683 1.1395 6.66683 1.25001V2.08334H3.3335V1.25001C3.3335 1.1395 3.2896 1.03352 3.21146 0.955382C3.13332 0.877242 3.02734 0.833344 2.91683 0.833344C2.80632 0.833344 2.70034 0.877242 2.6222 0.955382C2.54406 1.03352 2.50016 1.1395 2.50016 1.25001V2.08334H2.0835C1.75198 2.08334 1.43403 2.21504 1.19961 2.44946C0.965192 2.68388 0.833496 3.00182 0.833496 3.33334V3.75001H9.16683V3.33334C9.16683 3.00182 9.03513 2.68388 8.80071 2.44946C8.56629 2.21504 8.24835 2.08334 7.91683 2.08334ZM0.833496 7.91668C0.833496 8.2482 0.965192 8.56614 1.19961 8.80056C1.43403 9.03498 1.75198 9.16668 2.0835 9.16668H7.91683C8.24835 9.16668 8.56629 9.03498 8.80071 8.80056C9.03513 8.56614 9.16683 8.2482 9.16683 7.91668V4.58334H0.833496V7.91668Z" fill="white"/>
</g>
<defs>
<clipPath id="clip0_884_2435">
<rect width="10" height="10" fill="white"/>
</clipPath>
</defs>
</svg>
