<svg width="17" height="15" viewBox="0 0 17 15" fill="none" xmlns="http://www.w3.org/2000/svg">
<path d="M0.47124 11.3271H12.8052C12.9158 11.3271 13.0227 11.2884 13.1075 11.2178C13.226 11.1186 15.9283 8.79391 16.0931 3.7757H2.84672C2.68257 8.33089 0.19382 10.472 0.167957 10.4933C0.0163312 10.6214 -0.0394547 10.8307 0.0287595 11.0169C0.0965018 11.2027 0.273047 11.3271 0.47124 11.3271ZM15.6369 0.943924H13.2771V0.471962C13.2771 0.207663 13.0695 0 12.8052 0C12.5409 0 12.3332 0.207663 12.3332 0.471962V0.943924H9.94191V0.471962C9.94191 0.207663 9.73425 0 9.46995 0C9.20565 0 8.99799 0.207663 8.99799 0.471962V0.943924H6.63818V0.471962C6.63818 0.207663 6.43052 0 6.16622 0C5.90192 0 5.69426 0.207663 5.69426 0.471962V0.943924H3.33444C3.07015 0.943924 2.86248 1.15159 2.86248 1.41589V2.83177H16.1089V1.41589C16.1089 1.15159 15.9012 0.943924 15.6369 0.943924Z" fill="#A0A0A0"/>
<path d="M13.7124 11.9419C13.4562 12.1552 13.1345 12.2714 12.804 12.2714H2.86133V13.6873C2.86133 13.9482 3.07242 14.1593 3.33329 14.1593H15.6358C15.8966 14.1593 16.1077 13.9482 16.1077 13.6873V8.39673C15.1978 10.6291 13.928 11.7614 13.7124 11.9419Z" fill="#A0A0A0"/>
</svg>
