<svg width="13" height="13" viewBox="0 0 13 13" fill="none" xmlns="http://www.w3.org/2000/svg">
<path d="M12.25 3.5V2.1875C12.25 1.8394 12.1117 1.50556 11.8656 1.25942C11.6194 1.01328 11.2856 0.875 10.9375 0.875H9.1875V0.4375C9.1875 0.321468 9.14141 0.210188 9.05936 0.128141C8.97731 0.0460936 8.86603 0 8.75 0C8.63397 0 8.52269 0.0460936 8.44064 0.128141C8.35859 0.210188 8.3125 0.321468 8.3125 0.4375V0.875H3.9375V0.4375C3.9375 0.321468 3.89141 0.210188 3.80936 0.128141C3.72731 0.0460936 3.61603 0 3.5 0C3.38397 0 3.27269 0.0460936 3.19064 0.128141C3.10859 0.210188 3.0625 0.321468 3.0625 0.4375V0.875H1.3125C0.964403 0.875 0.630564 1.01328 0.384422 1.25942C0.138281 1.50556 0 1.8394 0 2.1875V3.5H12.25ZM0 4.375V10.9375C0 11.2856 0.138281 11.6194 0.384422 11.8656C0.630564 12.1117 0.964403 12.25 1.3125 12.25H10.9375C11.2856 12.25 11.6194 12.1117 11.8656 11.8656C12.1117 11.6194 12.25 11.2856 12.25 10.9375V4.375H0ZM8.59688 6.89456L5.53437 9.51956C5.45067 9.59113 5.34304 9.6285 5.23299 9.6242C5.12294 9.6199 5.01856 9.57426 4.94069 9.49638L3.62819 8.18388C3.54849 8.10136 3.5044 7.99085 3.50539 7.87614C3.50639 7.76143 3.5524 7.6517 3.63352 7.57058C3.71463 7.48946 3.82436 7.44345 3.93907 7.44246C4.05379 7.44146 4.1643 7.48556 4.24681 7.56525L5.27319 8.59163L8.02944 6.22913C8.07282 6.19003 8.12358 6.16001 8.17875 6.14084C8.23391 6.12167 8.29235 6.11374 8.35063 6.11751C8.40891 6.12129 8.46584 6.13669 8.51807 6.16282C8.5703 6.18894 8.61677 6.22526 8.65474 6.26963C8.69271 6.314 8.72142 6.36552 8.73916 6.42116C8.75691 6.4768 8.76334 6.53542 8.75806 6.59358C8.75279 6.65175 8.73593 6.70826 8.70847 6.7598C8.68102 6.81135 8.64352 6.85687 8.59819 6.89369L8.59688 6.89456Z" fill="#949494"/>
</svg>
