<svg width="16" height="17" viewBox="0 0 16 17" fill="none" xmlns="http://www.w3.org/2000/svg">
<path d="M11.8386 9.43466C13.6179 10.4992 14.5562 11.303 15.7641 12.5851C15.6985 13.0047 15.5586 13.4174 15.353 13.8082C14.9134 14.6389 14.1755 15.3666 13.2083 15.8248C12.9193 15.9623 12.6174 16.0712 12.3071 16.15C9.70275 15.8703 6.74917 14.4029 4.27261 11.9263C1.53986 9.19377 0.03706 5.88149 0 3.09485C0 3.09485 -1.58325e-09 3.09145 0.0017 3.08975C0.0794 2.86746 0.172268 2.65077 0.27965 2.4412C0.77486 1.48427 1.53646 0.7667 2.39224 0.35887C2.77491 0.173835 3.18527 0.0526129 3.60706 0C4.84534 1.25171 5.61527 2.21714 6.61776 4.03155C5.85446 5.09473 5.14522 5.83423 4.27414 6.53344C4.91436 7.57469 5.71455 8.59044 6.66145 9.53734C7.48867 10.3646 8.36825 11.0789 9.27282 11.6736C9.99719 10.8346 10.7554 10.1573 11.8386 9.43466Z" fill="#949494"/>
</svg>
