<svg width="25" height="24" viewBox="0 0 25 24" fill="none" xmlns="http://www.w3.org/2000/svg">
<path d="M18.7305 17.7959C17.1422 17.7944 15.8534 19.0807 15.8519 20.669C15.8503 22.2572 17.1366 23.546 18.7249 23.5476C20.3132 23.5491 21.602 22.2628 21.6036 20.6745V20.6718C21.6021 19.0852 20.317 17.799 18.7305 17.7959ZM23.8313 4.02478C23.7625 4.01145 23.6925 4.00469 23.6225 4.00458H6.11224L5.83492 2.14926C5.66213 0.917121 4.60819 0.000379155 3.36397 0H1.1093C0.496638 0 0 0.496638 0 1.1093C0 1.72196 0.496638 2.2186 1.1093 2.2186H3.36673C3.43487 2.2181 3.5008 2.24271 3.55195 2.28773C3.6031 2.33275 3.63588 2.39502 3.64405 2.46266L5.35236 14.1713C5.58657 15.6591 6.86633 16.7567 8.37244 16.7615H19.9119C21.3619 16.7634 22.6129 15.7443 22.9042 14.3238L24.7096 5.32463C24.826 4.72313 24.4328 4.14118 23.8313 4.02478ZM11.6854 20.5486C11.6178 19.0069 10.3455 17.7933 8.80229 17.7986C7.21531 17.8628 5.98078 19.2013 6.04491 20.7883C6.10645 22.311 7.34514 23.5213 8.86886 23.5476H8.93819C10.525 23.4781 11.7549 22.1354 11.6854 20.5486Z" fill="#A0A0A0"/>
</svg>
