<svg width="43" height="43" viewBox="0 0 43 43" fill="none" xmlns="http://www.w3.org/2000/svg">
<path d="M9.20996 18.3025C9.82117 18.5253 11.9174 22.5049 20.0113 25.1941C23.6524 26.4038 30.7645 24.5249 30.7645 24.5249L42.5924 41.1829C42.5924 41.1829 39.1239 42.6653 34.4248 42.9174C23.4899 43.504 19.1852 40.1096 19.1852 40.1096L16.4123 37.5839L9.20996 18.3025Z" fill="#CCF2D7"/>
<path d="M13.8662 23.4092C13.8662 23.4092 18.3508 26.2789 21.677 26.5377C24.4031 26.7498 30.4026 25.6863 30.4026 25.6863L40.5827 40.3177C40.5827 40.3177 32.73 42.2955 28.8876 41.7005C16.8771 39.8404 16.46 37.2755 16.46 37.2755L15.9089 36.1971C15.9089 36.1971 21.1734 39.8925 28.5199 40.5274C34.2327 41.0212 38.6954 39.4842 38.6954 39.4842L29.9683 26.7606C29.9683 26.7606 24.8784 27.7485 21.8735 27.5075C18.8685 27.2663 13.8806 24.6069 13.8806 24.6069L13.8662 23.4092Z" fill="#639334"/>
<path d="M11.5078 23.8293C13.1097 24.7165 16.1817 26.1395 17.8812 28.1564C19.0424 29.5345 21.0842 33.5039 20.7937 35.1454C20.5957 36.2638 19.5677 37.5794 17.358 36.5218C15.1483 35.4643 13.041 34.0033 13.041 34.0033L11.5078 23.8293Z" fill="#639334"/>
<path d="M14.693 27.2055L14.5004 26.5414L15.5886 26.8489L15.7758 27.6121C16.273 27.8674 16.7291 28.1905 17.0146 28.4812C17.7314 29.2111 19.0815 31.401 17.9048 31.7442C16.8888 32.0406 14.9135 31.1515 15.6864 32.9384C16.0565 33.7942 17.6435 34.3875 18.1288 33.9056C18.4917 33.5452 18.4051 33.0282 18.4051 33.0282L19.4038 33.0708C19.4038 33.0708 19.968 35.4999 17.6982 35.4561C17.696 35.456 17.6937 35.4558 17.6915 35.4558L17.8877 36.2555L16.8569 35.9874L16.6397 35.2386C15.4608 34.7932 14.3655 33.7274 13.9693 32.6391C13.5071 31.3697 14.5289 30.6013 15.3651 30.6847C16.2013 30.7681 17.2139 30.9389 17.0335 30.1882C16.8531 29.4374 16.0957 28.5442 15.2946 28.4339C14.4934 28.3238 14.3096 29.2138 14.3096 29.2138L13.1107 28.7964C13.1107 28.7964 12.9362 27.5415 13.7963 27.2178C14.0427 27.1252 14.3558 27.1323 14.693 27.2055Z" fill="#A8C469"/>
<path d="M2.11606 0L17.3326 14.8417C17.3326 14.8417 14.8143 22.4591 15.1112 26.5984C15.8414 36.7803 19.2074 40.1265 19.2074 40.1265C19.2074 40.1265 15.3473 37.9601 11.0116 31.9432C4.4068 22.7775 0.709957 14.9336 0.709957 14.9336C0.709957 14.9336 -0.212369 11.873 0.0455014 8.74359C0.303371 5.61419 2.11606 0 2.11606 0Z" fill="#CCF2D7"/>
<path d="M17.2518 38.7136C17.2518 38.7136 14.3458 34.9306 13.7215 28.5318C13.3569 24.7953 15.772 15.5399 15.772 15.5399L2.64633 2.10767C2.64633 2.10767 1.42856 6.23359 1.01595 8.77859C0.39238 12.6247 1.26887 16.1203 1.26887 16.1203L2.27726 18.0347C2.27726 18.0347 1.54556 15.5049 2.01589 10.4773C2.19645 8.54742 3.38575 4.56159 3.42169 4.65728C3.45763 4.75303 14.4268 16.0137 14.4268 16.0137C14.4268 16.0137 12.6515 24.8734 12.7393 27.847C12.9098 33.6159 15.7206 37.4351 15.7206 37.4351L17.2518 38.7136Z" fill="#6BA638"/>
<path d="M13.2737 34.8223C13.2737 34.8223 12.8772 33.3897 11.0576 29.573C9.6541 26.6291 7.11882 24.0314 6.41576 23.897C5.95677 23.8093 5.81306 23.9438 5.76855 24.0479C7.23364 26.4409 9.00158 29.1552 11.0492 31.9967C11.8116 33.0547 12.5592 33.9933 13.2737 34.8223Z" fill="#6BA638"/>
<path d="M29.5439 35.1823C28.9574 35.592 28.0137 35.2461 27.436 34.4097C26.8583 33.5734 26.8654 32.5633 27.4519 32.1537C28.0384 31.7441 28.9821 32.09 29.5598 32.9263C30.1374 33.7627 30.1303 34.7727 29.5439 35.1823Z" fill="#639334"/>
<path d="M8.67221 18.1713C8.08392 18.6852 7.0686 18.4785 6.40451 17.7098C5.74041 16.9411 5.67896 15.9013 6.26725 15.3874C6.85554 14.8735 7.87086 15.0801 8.53495 15.8488C9.1991 16.6176 9.2605 17.6573 8.67221 18.1713Z" fill="#6BA638"/>
</svg>
