<svg width="61" height="18" viewBox="0 0 61 18" fill="none" xmlns="http://www.w3.org/2000/svg">
<path d="M52.1117 14.3244C48.9367 12.8276 45.713 11.3226 43.1274 9.93521L38.8872 7.68127L25.2349 2.85815L36.6257 13.5481C36.6257 13.5481 42.6059 16.2109 50.9309 17.1141C56.6544 17.7349 60.1872 17.1585 60.1872 17.1585C60.1872 17.1585 55.1326 15.7485 52.1117 14.3244Z" fill="#9EAF61"/>
<path d="M48.7061 16.3891C47.1236 16.1738 45.3698 15.8607 43.6679 15.4053C39.9308 14.4055 37.1025 13.3839 37.1025 13.3839C37.1025 13.3839 35.1395 11.7509 34.1412 10.8473C33.2423 10.0337 31.0254 7.80301 30.9512 7.70708L31.518 7.29565C31.5356 7.31853 33.8845 9.43221 34.7261 10.194C35.6116 10.9954 37.2144 12.3353 37.5418 12.6083C37.9916 12.7682 40.5275 13.6555 43.8927 14.5558C46.8282 15.3412 51.3366 15.9758 53.3929 16.1341C51.2742 15.5373 47.5056 13.8608 46.1349 13.2035C42.9309 11.667 37.4341 8.22348 37.3789 8.18889L37.8417 7.44311C37.8965 7.47743 43.3519 10.895 46.5112 12.41C48.7818 13.4989 54.4691 15.9908 54.5263 16.0159L56.5205 16.8893L54.3457 16.8584C54.3088 16.8578 51.8453 16.8162 48.7061 16.3891Z" fill="#639334"/>
<path d="M31.4106 7.68141C31.8869 8.1837 33.4594 9.02654 35.1671 9.06745C36.8747 9.10836 39.0248 8.68996 38.1091 8.01848C37.1932 7.34701 31.4106 7.68141 31.4106 7.68141Z" fill="#639334"/>
<path d="M0 3.99119C0 3.99119 6.59229 1.01647 9.49337 0.519469C18.03 -0.942994 25.366 1.13625 26.1194 1.23872C28.5511 1.56958 43.197 9.97106 43.197 9.97106C43.197 9.97106 36.2479 5.77934 26.1976 9.30465C21.1562 11.0731 16.5675 13.1908 16.5675 13.1908L0 3.99119Z" fill="#CCF2D7"/>
<path d="M38.2518 7.2039C37.4699 6.77167 37.2112 6.6155 36.3568 6.15238C34.4461 6.06059 30.9972 5.86117 27.468 6.72401C23.9441 7.58554 18.0609 10.05 16.8069 10.5828L3.9395 3.96184C4.6616 3.64454 5.74362 3.20245 7.04432 2.7755C9.24843 2.052 12.7375 1.11781 15.958 1.03114C21.0059 0.895289 25.6651 1.62058 29.209 2.52928C29.1021 2.42334 28.8572 2.26591 27.8783 1.83738C24.2339 0.99933 19.8463 0.280518 15.8233 0.322025C12.4318 0.357051 8.98971 1.00984 6.69502 1.76444C4.21638 2.57956 2.55267 3.42508 2.48306 3.46065L1.55322 3.93608L16.7657 11.7638L16.9952 11.6651C17.0641 11.6354 23.9284 8.69077 27.7194 7.76393C31.3993 6.86422 34.3277 6.82075 36.1364 6.94266C37.0251 7.00252 37.7372 7.10711 38.2518 7.2039Z" fill="#6BA638"/>
<path d="M28.4844 2.14266C27.0995 1.92689 25.3687 1.85548 26.8315 3.31228C29.1253 5.59678 34.5196 6.60042 35.919 6.70877C37.3185 6.81717 37.9254 6.95438 37.8186 6.93989C37.7118 6.92535 35.7106 5.83281 33.4301 4.59286C31.1496 3.35292 28.4844 2.14266 28.4844 2.14266Z" fill="#6BA638"/>
<path d="M17.1809 3.97826C17.9599 4.45728 18.4056 5.15104 18.1765 5.52782C17.9474 5.90466 17.1301 5.82181 16.3512 5.34283C15.5721 4.86386 15.1264 4.17011 15.3556 3.79327C15.5846 3.41643 16.4019 3.49928 17.1809 3.97826Z" fill="#6BA638"/>
<path d="M41.0584 11.92C41.9221 12.2178 42.5551 12.6566 42.4721 12.8999C42.3891 13.1433 41.6216 13.0992 40.7579 12.8013C39.8942 12.5035 39.2612 12.0647 39.3442 11.8213C39.4273 11.578 40.1948 11.6221 41.0584 11.92Z" fill="#639334"/>
</svg>
