<svg width="18" height="16" viewBox="0 0 18 16" fill="none" xmlns="http://www.w3.org/2000/svg">
<path d="M9.00002 0C4.03767 0 6.1738e-05 3.53249 6.1738e-05 7.87497C6.1738e-05 9.65471 0.679559 11.3625 1.92718 12.7349L0.136186 14.8207C0.0658011 14.9021 0.0204008 15.0021 0.00543438 15.1086C-0.00953208 15.2152 0.00657122 15.3238 0.0518115 15.4214C0.096491 15.5194 0.168392 15.6024 0.258947 15.6607C0.349501 15.7189 0.454892 15.7499 0.562559 15.7499H9.00002C13.9624 15.7499 18 12.2175 18 7.87497C18 3.53249 13.9624 0 9.00002 0Z" fill="#949494"/>
<path d="M9 9C9.62132 9 10.125 8.49632 10.125 7.875C10.125 7.25368 9.62132 6.75 9 6.75C8.37868 6.75 7.875 7.25368 7.875 7.875C7.875 8.49632 8.37868 9 9 9Z" fill="#FAFAFA"/>
<path d="M4.5 9C5.12132 9 5.625 8.49632 5.625 7.875C5.625 7.25368 5.12132 6.75 4.5 6.75C3.87868 6.75 3.375 7.25368 3.375 7.875C3.375 8.49632 3.87868 9 4.5 9Z" fill="#FAFAFA"/>
<path d="M13.5 9C14.1213 9 14.625 8.49632 14.625 7.875C14.625 7.25368 14.1213 6.75 13.5 6.75C12.8787 6.75 12.375 7.25368 12.375 7.875C12.375 8.49632 12.8787 9 13.5 9Z" fill="#FAFAFA"/>
</svg>
