<svg width="49" height="50" viewBox="0 0 49 50" fill="none" xmlns="http://www.w3.org/2000/svg">
<path d="M28.3213 24.4873C28.7243 24.5969 29.5984 24.7576 29.8202 25.1485C29.8796 25.2532 29.8576 25.3663 29.8402 25.4794C29.557 25.124 29.0655 25.0482 28.6501 24.9158C28.5266 24.7842 28.4259 24.6339 28.3213 24.4873Z" fill="#A1D768"/>
<path d="M32.6499 33.3829C33.2589 33.0809 34.6382 33.1242 35.3151 33.211C35.4355 33.2375 35.5327 33.2677 35.6407 33.3277C35.382 33.5039 33.6757 33.5053 33.272 33.4956C33.0566 33.4865 32.8536 33.4551 32.6499 33.3829Z" fill="#F56652"/>
<path d="M32.7676 35.6976C32.7372 35.4463 32.7272 35.1897 32.7091 34.9369C32.6939 34.7251 32.5691 33.4766 32.6503 33.3828C32.8539 33.455 33.057 33.4864 33.2724 33.4956C33.3831 33.5124 33.4903 33.523 33.6022 33.5265C33.6156 33.9271 33.6201 35.4766 33.7082 35.7666L33.7861 35.793C33.5982 35.8217 33.404 35.7843 33.2206 35.8374C33.0879 35.8328 32.9343 35.8121 32.8051 35.8438L32.765 35.892L32.7676 35.6976Z" fill="#DB3B15"/>
<path d="M35.6411 33.3276L35.715 33.3874C35.7226 33.5223 35.619 33.6039 35.534 33.6989C35.3137 33.9455 34.8355 34.3302 34.7134 34.6094C34.7335 34.6759 34.7436 34.6738 34.8029 34.7124C34.9756 34.7302 35.0995 34.6567 35.231 34.5504C35.3727 34.436 35.4922 34.2944 35.6086 34.1552C35.4887 34.4017 35.0484 35.2209 35.1425 35.4565C35.1568 35.4924 35.1919 35.5303 35.2166 35.5602C34.7463 35.7051 34.2774 35.7704 33.7862 35.793L33.7083 35.7666C33.6202 35.4766 33.6157 33.9271 33.6023 33.5265C33.4904 33.5231 33.3832 33.5124 33.2725 33.4956C33.6761 33.5052 35.3824 33.5038 35.6411 33.3276Z" fill="#E74C31"/>
<path d="M35.315 33.2113C35.33 33.2092 35.345 33.2074 35.36 33.2051C35.5359 33.1785 35.6963 33.0744 35.8725 33.0441C36.2669 32.9763 36.6148 33.1866 36.9929 33.2277C37.0594 33.7647 37.134 34.3781 37.3922 34.8604C37.294 34.9098 36.8802 35.0811 36.8483 35.1707L36.8538 35.1877C36.6957 35.3199 36.4445 35.6302 36.2435 35.649C36.2037 35.616 36.1867 35.6063 36.1838 35.5495C36.1778 35.4318 36.2793 35.3165 36.25 35.2C36.1929 35.2234 36.1671 35.2397 36.1351 35.2978C36.0415 35.4675 36.213 35.8206 35.9919 35.9065C35.9306 35.9303 35.851 35.9138 35.8022 35.8714C35.7331 35.8115 35.7024 35.6959 35.6729 35.613C35.6433 35.3983 35.654 35.181 35.6743 34.9661C35.5458 35.1756 35.4682 35.4791 35.2161 35.5605C35.1914 35.5306 35.1563 35.4927 35.142 35.4567C35.0478 35.2212 35.4882 34.402 35.608 34.1555C35.4917 34.2947 35.3722 34.4362 35.2305 34.5507C35.099 34.657 34.975 34.7305 34.8024 34.7126C34.743 34.674 34.7329 34.6762 34.7129 34.6096C34.835 34.3305 35.3132 33.9458 35.5335 33.6992C35.6184 33.6042 35.722 33.5225 35.7145 33.3877L35.6406 33.3279C35.5326 33.2679 35.4354 33.2377 35.315 33.2113Z" fill="#F2AB4E"/>
<path d="M31.8681 27.9259C31.7828 27.6494 31.6302 27.2541 31.7707 26.9737C31.8051 26.9052 31.8166 26.9029 31.885 26.8857C32.1306 26.9805 32.4181 27.7941 32.6102 28.0718C32.6288 27.9832 32.6466 27.8936 32.6712 27.8065C32.724 27.6194 32.8991 27.4965 33.0669 27.4118C33.136 27.3769 33.1913 27.3586 33.2662 27.3835C33.3619 27.5229 33.2082 27.8584 33.1969 28.027C33.1882 28.1569 33.2125 28.3669 33.3066 28.4652C33.3151 28.4741 33.3243 28.4822 33.3332 28.4908C33.3286 28.9054 33.2117 29.2871 32.9122 29.5885C32.6695 29.8328 32.3835 29.9154 32.0456 29.9118C32.0193 29.9115 31.9929 29.9107 31.9666 29.91C31.7603 29.635 31.1084 29.8666 30.82 29.7804C30.755 29.761 30.698 29.7408 30.6631 29.6791C30.6804 29.4427 31.0989 29.4408 31.2274 29.2854C31.2109 29.0178 30.3022 28.9721 30.1263 28.7173C30.0944 28.6711 30.1027 28.6919 30.1112 28.6314C30.3623 28.3899 30.7688 28.5731 31.0788 28.5117L31.0943 28.4722C30.9161 28.2414 30.5983 28.2327 30.3945 28.0493C30.3245 27.9863 30.2502 27.871 30.2536 27.7742C30.255 27.7355 30.2619 27.743 30.2951 27.7142C30.5839 27.6663 31.047 27.9825 31.2979 28.1185C31.1591 27.8964 30.6777 27.5079 30.6862 27.2603C30.6887 27.1887 30.699 27.1651 30.7519 27.1187C31.0972 27.0922 31.6218 27.7182 31.8681 27.9259Z" fill="#F2AB4E"/>
<path d="M24.1655 24.4297C24.2061 24.0947 24.3104 23.8359 24.5849 23.6198C25.0154 23.2808 25.6792 23.2324 26.2034 23.3073C26.7938 23.3917 27.3904 23.6855 27.8416 24.0707C27.9916 24.1987 28.1557 24.3864 28.3218 24.4868C28.4264 24.6334 28.5271 24.7837 28.6506 24.9153C28.7037 25.0591 28.7717 25.2051 28.6995 25.3557C28.6451 25.4691 28.4903 25.5589 28.3724 25.5873C28.1128 25.6497 27.8294 25.5089 27.617 25.3707C27.3406 25.1911 27.1605 25.0009 26.8073 25.0778C26.6618 25.1095 26.489 25.1903 26.3451 25.128C25.7433 24.8103 25.2468 25.1268 24.6171 25.0301C24.5794 25.0125 24.5416 24.9954 24.5056 24.9746C24.2988 24.8554 24.2281 24.6453 24.1655 24.4297Z" fill="#F2AB4E"/>
<path d="M25.0964 23.6435C25.4423 23.6146 25.8983 23.5984 26.2385 23.6587C26.2263 23.691 26.2145 23.7268 26.1981 23.7575C26.1269 23.8904 25.9539 23.9214 25.8202 23.9608L25.7395 23.9748C25.4879 24.0156 24.941 24.1544 24.7282 24.0012C24.7039 23.9333 24.7029 23.9224 24.7405 23.8544C24.8035 23.7404 24.9784 23.6735 25.0964 23.6435Z" fill="#ECBB38"/>
<path d="M24.1653 24.4302C24.2279 24.6457 24.2986 24.8558 24.5054 24.975C24.5415 24.9959 24.5791 25.013 24.6169 25.0305C25.2466 25.1273 25.7431 24.8107 26.3449 25.1285C26.4887 25.1908 26.6615 25.1099 26.8071 25.0783C27.1603 25.0014 27.3404 25.1915 27.6168 25.3712C27.8292 25.5093 28.1126 25.6501 28.3722 25.5877C28.4901 25.5594 28.6449 25.4696 28.6993 25.3561C28.7715 25.2056 28.7035 25.0596 28.6504 24.9157C29.0658 25.0482 29.5573 25.124 29.8405 25.4793C29.8274 25.5918 29.8135 25.7006 29.7867 25.8109C29.5832 25.9465 29.3765 26.0525 29.1454 26.1332C28.0888 26.5023 25.8627 26.3282 24.7636 26.0597C24.3859 25.9674 24.0419 25.838 23.6921 25.6692C23.6476 25.6212 23.6021 25.5727 23.5653 25.5184C23.4857 25.4007 23.4519 25.2626 23.4821 25.1225C23.5534 24.7919 23.9024 24.5975 24.1653 24.4302Z" fill="#78B960"/>
<path d="M31.9668 29.9099C31.9931 29.9107 32.0195 29.9114 32.0457 29.9118C32.3836 29.9153 32.6696 29.8328 32.9124 29.5885C33.2119 29.287 33.3287 28.9054 33.3334 28.4907C34.0931 28.9986 34.9572 29.4158 35.8953 29.2262C36.1886 29.1669 36.4424 29.0496 36.698 28.8976C36.7791 29.087 36.713 29.7427 36.7299 29.9962C36.7682 30.5688 36.8781 31.1386 36.9128 31.7087C36.2074 32.0535 35.5507 32.1316 34.788 31.9199C33.8647 31.6637 32.4407 30.7511 31.9668 29.9099Z" fill="#085856"/>
<path d="M35.6742 34.9658C35.6539 35.1807 35.6432 35.398 35.6728 35.6128C35.7023 35.6956 35.733 35.8113 35.8021 35.8712C35.8509 35.9135 35.9305 35.9301 35.9918 35.9063C36.2129 35.8203 36.0414 35.4673 36.135 35.2975C36.167 35.2394 36.1929 35.2232 36.2499 35.1998C36.2792 35.3162 36.1777 35.4316 36.1837 35.5493C36.1866 35.606 36.2036 35.6157 36.2434 35.6487C36.4444 35.6299 36.6956 35.3197 36.8538 35.1875C36.8585 35.4298 36.8652 35.6722 36.8626 35.9146C37.0849 35.9333 37.2829 35.946 37.4756 36.0708L37.3763 38.0196C37.3576 38.0884 37.3616 38.1306 37.295 38.1686C36.8377 38.43 34.8543 38.4828 34.2706 38.4722C33.7632 38.5114 33.1941 38.4856 32.6888 38.4269C32.3594 38.4098 32.0327 38.3519 31.7079 38.2971C31.6376 38.2736 31.5333 38.2482 31.4739 38.2059C31.4042 38.1563 31.4068 38.1315 31.3948 38.0528C31.5098 37.6446 31.1836 36.2057 31.372 35.9459C31.8523 35.8426 32.2674 35.7153 32.7671 35.6977L32.7644 35.8921L32.8046 35.8439C32.9337 35.8121 33.0873 35.8329 33.22 35.8374C33.4034 35.7844 33.5976 35.8218 33.7856 35.7931C34.2768 35.7704 34.7457 35.7051 35.216 35.5602C35.4681 35.4788 35.5457 35.1753 35.6742 34.9658Z" fill="#E74C31"/>
<path d="M32.7672 35.6973L32.7645 35.8917C32.8204 36.0046 32.8713 36.0488 32.9901 36.0907C33.559 36.2911 36.2019 36.2662 36.7462 35.9858C36.7868 35.9649 36.8251 35.9399 36.8627 35.9142C37.085 35.9329 37.283 35.9456 37.4757 36.0704C37.2562 36.1263 37.0368 36.1802 36.8155 36.2283C35.4352 36.4969 33.9633 36.3768 32.5744 36.2384C32.1279 36.2557 31.7661 36.1353 31.3721 35.9455C31.8524 35.8422 32.2675 35.7149 32.7672 35.6973Z" fill="#F56652"/>
<path d="M31.6372 35.9478C31.8389 35.9734 32.3187 35.9717 32.4659 36.0956L32.4651 36.1577C32.2382 36.1698 31.9611 36.1408 31.7475 36.0602L31.7332 36.0028L31.6372 35.9478Z" fill="#E74C31"/>
<path d="M35.6745 34.9658C35.6541 35.1807 35.6434 35.398 35.673 35.6128C35.7025 35.6956 35.7332 35.8113 35.8024 35.8712C35.8511 35.9135 35.9307 35.9301 35.9921 35.9063C36.2131 35.8203 36.0416 35.4673 36.1352 35.2975C36.1672 35.2394 36.1931 35.2232 36.2502 35.1998C36.2795 35.3162 36.178 35.4316 36.1839 35.5493C36.1868 35.606 36.2038 35.6157 36.2436 35.6487C36.4446 35.6299 36.6958 35.3197 36.854 35.1875C36.8587 35.4298 36.8655 35.6722 36.8629 35.9146C36.8252 35.9404 36.7869 35.9653 36.7463 35.9863C36.202 36.2666 33.5591 36.2915 32.9903 36.0911C32.8714 36.0492 32.8205 36.005 32.7646 35.8921L32.8048 35.8439C32.934 35.8121 33.0875 35.8329 33.2203 35.8374C33.4036 35.7844 33.5979 35.8218 33.7858 35.7931C34.277 35.7705 34.7459 35.7051 35.2162 35.5602C35.4683 35.4788 35.5459 35.1753 35.6745 34.9658Z" fill="#9D3821"/>
<path d="M35.6749 34.9658C35.6545 35.1807 35.6438 35.398 35.6734 35.6128C35.6646 35.6237 35.6558 35.6346 35.6471 35.6456C35.6206 35.6795 35.6045 35.7115 35.586 35.75C35.562 35.7997 35.5475 35.8296 35.4936 35.8526C35.2218 35.9685 33.4881 35.9765 33.2434 35.8521C33.2354 35.848 33.2282 35.8423 33.2207 35.8374C33.4041 35.7844 33.5983 35.8218 33.7862 35.7931C34.2774 35.7705 34.7464 35.7051 35.2166 35.5602C35.4687 35.4788 35.5463 35.1753 35.6749 34.9658Z" fill="#D42C24"/>
<path d="M37.4756 36.0708L37.3762 38.0196C37.3576 38.0884 37.3615 38.1305 37.295 38.1686C36.8377 38.4299 34.8542 38.4828 34.2705 38.4722C34.4125 38.381 34.6311 38.3453 34.794 38.2971C35.2428 38.1645 35.6527 37.9595 36.0119 37.6565C36.4429 37.2931 36.7663 36.7996 36.8154 36.2287C37.0367 36.1806 37.2561 36.1267 37.4756 36.0708Z" fill="#DB3B15"/>
<path d="M31.372 35.9458C31.7661 36.1356 32.1278 36.256 32.5743 36.2387C32.648 36.3027 32.649 36.3352 32.6546 36.4318C32.6927 37.0888 32.6838 37.7677 32.6888 38.4268C32.3594 38.4096 32.0327 38.3518 31.7079 38.297C31.6376 38.2734 31.5333 38.2481 31.4739 38.2058C31.4042 38.1562 31.4068 38.1314 31.3948 38.0527C31.5098 37.6445 31.1836 36.2056 31.372 35.9458Z" fill="#DB3B15"/>
<path d="M37.3763 38.0195C37.6196 38.0328 37.826 38.0912 38.0552 38.1711C38.1091 38.4041 37.9512 40.1044 37.9263 40.4452C37.9123 40.5485 37.8897 40.6258 37.8029 40.6919C37.7007 40.7696 37.5302 40.7938 37.4065 40.8243C36.2416 41.0748 35.0039 41.1006 33.8167 41.0833C33.3592 41.0901 32.8949 41.045 32.4389 41.0122L31.9803 40.9637C31.6576 40.8852 31.2444 40.9005 30.9597 40.717C30.8684 40.6581 30.8646 40.5993 30.8421 40.4997L30.8391 40.4724C30.7966 40.0408 30.675 38.6853 30.7165 38.303C30.7243 38.2315 30.7364 38.2134 30.7801 38.1596C30.9989 38.1216 31.1613 38.0325 31.3949 38.0527C31.4068 38.1314 31.4043 38.1562 31.4739 38.2058C31.5333 38.2481 31.6377 38.2735 31.708 38.297C32.0327 38.3518 32.3595 38.4097 32.6889 38.4269C33.1941 38.4856 33.7633 38.5113 34.2706 38.4721C34.8543 38.4828 36.8378 38.4299 37.2951 38.1685C37.3616 38.1305 37.3577 38.0883 37.3763 38.0195Z" fill="#F2AB4E"/>
<path d="M30.7803 38.1597C30.9991 38.1216 31.1615 38.0325 31.3951 38.0528C31.407 38.1314 31.4044 38.1563 31.4741 38.2059C31.5335 38.2481 31.6379 38.2735 31.7082 38.297L31.7003 38.3297C31.9027 38.3761 32.0986 38.4131 32.3061 38.4261C32.0265 38.4592 31.7476 38.3401 31.4738 38.3918C31.2282 38.3645 30.9859 38.2992 30.7803 38.1597Z" fill="#F2AB4E"/>
<path d="M30.7801 38.1597C30.9857 38.2992 31.228 38.3645 31.4736 38.3918C31.7579 38.4653 32.0704 38.4793 32.3627 38.5076C32.3838 39.3376 32.3685 40.186 32.4389 41.0122L31.9803 40.9637C31.6576 40.8852 31.2444 40.9005 30.9597 40.717C30.8684 40.6581 30.8646 40.5994 30.8421 40.4997L30.8391 40.4724C30.7966 40.0408 30.675 38.6853 30.7165 38.303C30.7243 38.2315 30.7364 38.2134 30.7801 38.1597Z" fill="#EE811F"/>
<path d="M38.0553 38.1709C38.1091 38.4039 37.9513 40.1041 37.9264 40.445C37.9123 40.5482 37.8898 40.6256 37.803 40.6916C37.7007 40.7694 37.5303 40.7936 37.4066 40.8241C36.2416 41.0746 35.004 41.1004 33.8167 41.0831L33.7861 41.0433C33.879 40.9717 34.3858 40.9448 34.5538 40.9026C34.923 40.8099 35.2987 40.681 35.6338 40.4997C36.4781 40.0429 36.9042 39.3623 37.1698 38.4632C37.4864 38.3915 37.765 38.3211 38.0553 38.1709Z" fill="#EE811F"/>
<path d="M8.90597 16.0119C8.79153 15.8626 8.69208 15.7187 8.61335 15.5472C8.42261 15.132 8.37825 14.6724 8.54539 14.2404C8.9098 13.2983 9.68011 13.1454 10.4923 12.7853C10.5843 12.7444 10.7176 12.6867 10.7826 12.61C11.0814 12.2575 10.1762 11.257 10.5576 10.3158C10.7697 9.79252 11.2925 9.43522 11.7955 9.22537C12.7489 8.82769 13.8364 8.88256 14.783 9.2706C14.9411 9.57846 15.1639 9.9917 15.0512 10.3462C15.0122 10.4689 14.9212 10.5473 14.8085 10.6032C14.1569 10.9264 13.584 10.6407 13.238 11.6142C12.9812 12.3369 13.1532 13.1801 12.763 13.8647C12.3126 14.655 11.0414 14.4118 10.6684 15.8096C10.6335 15.9405 10.5653 16.1781 10.6106 16.3066C10.2991 16.4761 9.98958 16.6519 9.69319 16.8467C9.48048 16.6216 9.31603 16.3446 9.21506 16.052C9.10155 15.7231 9.08459 15.3782 9.13811 15.0356C9.38845 13.4339 10.8523 13.9287 11.272 12.9337C11.5871 12.1869 11.0765 11.428 11.5033 10.5604C11.8315 9.89306 12.4723 9.65273 13.1332 9.42624C13.0302 9.43534 12.9273 9.44542 12.8254 9.46361C12.2877 9.56 11.6136 9.80788 11.2974 10.2816C10.8919 10.8891 11.1669 11.5352 11.2963 12.1724C11.5804 13.5723 9.63982 13.331 9.06433 14.2228C8.72902 14.7425 8.78013 15.4377 8.90597 16.0119Z" fill="#742826"/>
<path d="M38.1535 26.7957C38.3784 26.791 38.614 26.8301 38.8407 26.8383C39.4299 26.8596 40.2018 26.8322 40.7425 26.5718C40.7657 26.7051 40.7734 26.8315 40.7758 26.9662C40.9955 26.903 41.4677 27.0321 41.6958 27.0926C42.081 27.2431 42.4636 27.3988 42.8178 27.615C42.8079 27.6212 42.7985 27.6281 42.7883 27.6335C42.6467 27.7088 42.3383 27.7227 42.1252 27.8191C41.2628 28.2092 40.8256 29.1778 40.5257 30.0172C40.2092 30.9028 40.0213 31.8906 39.0948 32.338C38.4477 32.6506 37.7583 32.7068 37.077 32.8903C37.0338 32.4958 36.9777 32.1001 36.9131 31.7086C36.8784 31.1385 36.7685 30.5687 36.7302 29.9961C36.7133 29.7426 36.7794 29.0869 36.6982 28.8975C36.7195 28.8639 36.713 28.8795 36.7236 28.8397C36.7882 28.5937 36.8584 28.3399 36.96 28.1062C37.1195 27.7391 37.3784 27.5084 37.7482 27.3657C37.8453 27.3329 37.9767 27.3464 38.0794 27.3449C38.1061 27.1621 38.1293 26.9788 38.1535 26.7957Z" fill="#0F7C70"/>
<path d="M38.153 26.7957C38.3779 26.791 38.6135 26.8301 38.8402 26.8383C39.4293 26.8596 40.2013 26.8322 40.742 26.5718C40.7652 26.7051 40.7729 26.8315 40.7753 26.9662C40.995 26.903 41.4672 27.0321 41.6953 27.0926C41.407 27.8058 40.7515 28.3067 40.0601 28.6041C39.5632 28.8179 38.8841 28.9666 38.3602 28.7651C38.1164 28.6714 37.8999 28.4777 37.7929 28.2376C37.6396 27.8935 37.8021 27.5271 37.7477 27.3657C37.8448 27.3329 37.9762 27.3464 38.0789 27.3449C38.1056 27.1621 38.1288 26.9788 38.153 26.7957Z" fill="#91DAD9"/>
<path d="M38.3101 27.9956C38.5503 27.8846 38.8287 27.8135 39.0789 27.7216C39.6618 27.5075 40.2178 27.2834 40.7681 26.9932C40.7378 27.2451 40.5374 27.4549 40.3452 27.6065C39.8909 27.9651 39.284 28.203 38.6992 28.1228C38.557 28.1033 38.4346 28.0676 38.3101 27.9956Z" fill="#F2AB4E"/>
<path d="M38.1533 26.7957C38.3783 26.791 38.6139 26.8301 38.8406 26.8383C39.4297 26.8596 40.2017 26.8322 40.7424 26.5718C40.7656 26.7051 40.7733 26.8315 40.7757 26.9662L40.7686 26.9931C40.2183 27.2833 39.6623 27.5074 39.0794 27.7216C38.8292 27.8135 38.5508 27.8846 38.3106 27.9955C38.2714 27.9693 38.2726 27.9736 38.2455 27.9461C38.077 27.7746 38.0714 27.5702 38.0793 27.3449C38.1059 27.1621 38.1291 26.9788 38.1533 26.7957Z" fill="#EE811F"/>
<path d="M37.3925 34.8599L37.5116 35.1335C37.7809 35.1282 38.0614 35.0917 38.3288 35.1082C38.3718 35.3618 38.41 35.6174 38.4604 35.8696C38.5175 36.1836 38.5701 36.4985 38.7009 36.7918C38.8109 36.8537 38.9275 36.911 39.0259 36.9905C39.1286 37.2887 39.3034 37.556 39.407 37.8476C39.4137 37.8545 39.4205 37.8614 39.4272 37.8684C39.6166 38.0665 39.7643 38.3025 39.9463 38.5083C40.5139 39.1502 41.2576 39.6033 42.1075 39.7476C42.0273 40.1265 41.9145 40.5097 41.908 40.8991C41.8921 41.8487 42.7004 43.7153 43.0167 44.6868C42.5367 44.8299 42.0322 44.8926 41.5334 44.9239C41.3226 44.9371 41.1012 44.9334 40.8926 44.962C40.8215 44.9528 40.7549 44.9392 40.6854 44.9226C40.534 44.8003 40.2371 43.7536 40.1401 43.4853C39.8772 43.5838 38.9483 43.302 38.5862 43.3084C38.5837 42.4487 38.5855 41.5896 38.6019 40.73C38.4403 40.5668 38.1501 40.6025 37.9464 40.5168L37.9266 40.445C37.9515 40.1042 38.1094 38.4039 38.0555 38.1709C37.8263 38.091 37.6199 38.0326 37.3766 38.0193L37.476 36.0705C37.2833 35.9457 37.0853 35.9331 36.863 35.9143C36.8656 35.6719 36.8589 35.4295 36.8541 35.1872L36.8486 35.1702C36.8805 35.0806 37.2943 34.9092 37.3925 34.8599Z" fill="#9D3821"/>
<path d="M37.3925 34.8599L37.5116 35.1335C37.7809 35.1282 38.0614 35.0917 38.3288 35.1082C38.3719 35.3618 38.41 35.6174 38.4604 35.8696C38.5175 36.1836 38.5701 36.4985 38.7009 36.7918C38.811 36.8537 38.9275 36.911 39.0259 36.9905C39.1286 37.2887 39.3034 37.556 39.407 37.8476C39.3625 38.4354 39.3657 39.0285 39.352 39.6176C39.3406 40.1088 39.2757 40.6562 39.3666 41.1379C39.4413 41.5336 39.6091 41.9245 39.7419 42.3042C39.879 42.6963 39.9987 43.0949 40.1401 43.4853C39.8772 43.5838 38.9483 43.302 38.5862 43.3084C38.5837 42.4487 38.5855 41.5896 38.6019 40.73C38.4403 40.5668 38.1501 40.6025 37.9464 40.5168L37.9266 40.445C37.9515 40.1042 38.1094 38.4039 38.0555 38.1709C37.8263 38.091 37.6199 38.0326 37.3766 38.0193L37.476 36.0705C37.2833 35.9457 37.0853 35.9331 36.863 35.9143C36.8656 35.6719 36.8589 35.4295 36.8541 35.1872L36.8486 35.1702C36.8805 35.0806 37.2943 34.9092 37.3925 34.8599Z" fill="white"/>
<path d="M37.4065 40.8244C37.5302 40.7939 37.7006 40.7697 37.8029 40.6919C37.8897 40.6259 37.9122 40.5485 37.9263 40.4453L37.946 40.517C38.1498 40.6028 38.4399 40.5671 38.6016 40.7302C38.5852 41.5898 38.5834 42.449 38.5859 43.3087L38.5902 43.3368C38.5816 43.4446 38.5766 43.5539 38.5619 43.661C38.0032 44.0786 35.2488 44.1635 34.4636 44.1303C33.9475 44.1996 32.4411 44.1245 31.9129 44.0351L31.6071 44.0047C31.4488 43.9811 31.2913 43.9618 31.1319 43.9469C30.8504 43.8986 30.3929 43.8744 30.169 43.6825C30.093 43.6173 30.0914 43.5314 30.0792 43.4383L30.0802 42.776C30.1016 42.1047 30.0382 41.4346 30.0511 40.7644C30.2997 40.653 30.5404 40.5924 30.8093 40.554L30.842 40.4997C30.8646 40.5994 30.8683 40.6582 30.9597 40.717C31.2444 40.9006 31.6576 40.8853 31.9803 40.9638L32.4389 41.0122C32.8949 41.0451 33.3591 41.0902 33.8166 41.0834C35.0039 41.1007 36.2415 41.0749 37.4065 40.8244Z" fill="#F3CC63"/>
<path d="M30.0511 40.7642C30.5633 41.0322 31.334 41.0657 31.9051 41.0594C31.9128 41.2022 31.9162 41.3471 31.9288 41.4894C31.9274 41.8859 31.9756 43.8376 31.9128 44.0348L31.6071 44.0044C31.4488 43.9808 31.2913 43.9615 31.1319 43.9466C30.8504 43.8983 30.3929 43.8741 30.169 43.6822C30.093 43.617 30.0914 43.5311 30.0792 43.438L30.0802 42.7757C30.1016 42.1045 30.0382 41.4343 30.0511 40.7642Z" fill="#ECBB38"/>
<path d="M37.4894 40.9449C37.8301 40.9888 38.2953 40.8821 38.6018 40.73C38.5854 41.5896 38.5836 42.4487 38.5862 43.3084L38.5905 43.3366C38.5818 43.4443 38.5768 43.5537 38.5621 43.6607C38.0034 44.0784 35.249 44.1632 34.4639 44.13C34.6174 44.0167 34.8746 43.9451 35.0523 43.8689C35.3443 43.7438 35.6166 43.607 35.8809 43.4292C36.7273 42.8596 37.2943 41.9372 37.4894 40.9449Z" fill="#ECBB38"/>
<path d="M42.8178 27.6152C43.4375 27.9543 43.8377 28.4023 44.0349 29.0901C44.1055 29.3364 44.1392 29.589 44.1513 29.8447C44.1581 29.985 44.1421 30.1462 44.1774 30.2819C44.0518 30.6174 43.9436 30.9565 43.8003 31.2855C43.1597 32.756 42.1723 33.898 40.6996 34.5716C39.9895 34.8965 39.1157 35.1376 38.3289 35.1085C38.0615 35.0921 37.781 35.1286 37.5117 35.1339L37.3926 34.8602C37.1344 34.378 37.0598 33.7646 36.9933 33.2275C36.9847 33.1579 36.9689 33.0797 36.9777 33.01C36.9871 32.935 37.0182 32.9313 37.077 32.8905C37.7583 32.707 38.4476 32.6507 39.0948 32.3382C40.0213 31.8908 40.2092 30.903 40.5257 30.0174C40.8256 29.178 41.2628 28.2094 42.1252 27.8193C42.3383 27.7229 42.6467 27.7089 42.7883 27.6337C42.7985 27.6283 42.8079 27.6214 42.8178 27.6152Z" fill="#138D7E"/>
<path d="M46.5495 35.7856C46.9478 36.9562 46.8572 38.0529 46.3155 39.1604C46.055 39.6933 45.7301 40.086 45.3627 40.5434C45.8882 41.4723 45.82 43.7339 45.7705 44.8124L45.693 44.8396C45.4588 44.9349 45.2246 45.0097 44.9823 45.0801C44.3901 45.2054 43.8071 45.306 43.2027 45.3472C43.0875 45.1866 43.0433 44.8822 43.0167 44.6867C42.7003 43.7152 41.892 41.8486 41.9079 40.899C41.9145 40.5096 42.0272 40.1264 42.1075 39.7475C42.1546 39.5206 42.1999 39.29 42.2965 39.0778C42.7678 38.043 44.4768 37.0661 45.4383 36.4429C45.7218 36.2591 46.1072 35.9517 46.4192 35.8389C46.4635 35.8229 46.5062 35.8041 46.5495 35.7856Z" fill="#E74C31"/>
<path d="M44.1771 30.2817L44.2776 30.4843C44.9904 31.9702 45.6631 33.4782 46.4492 34.9273C46.4072 35.0158 46.3688 35.0995 46.3085 35.1772C46.3946 35.3761 46.4862 35.5784 46.5494 35.7859C46.5061 35.8044 46.4634 35.8232 46.4191 35.8392C46.1071 35.952 45.7217 36.2594 45.4382 36.4432C44.4767 37.0663 42.7676 38.0433 42.2964 39.0781C42.1998 39.2903 42.1545 39.5209 42.1073 39.7478C41.2575 39.6035 40.5138 39.1504 39.9461 38.5085C39.7642 38.3027 39.6165 38.0666 39.4271 37.8685C39.4204 37.8615 39.4135 37.8547 39.4068 37.8478C39.3032 37.5562 39.1284 37.2889 39.0257 36.9907C38.9273 36.9111 38.8108 36.8539 38.7007 36.792C38.5699 36.4987 38.5174 36.1837 38.4602 35.8698C38.4098 35.6176 38.3717 35.362 38.3286 35.1084C39.1154 35.1374 39.9892 34.8963 40.6993 34.5714C42.172 33.8978 43.1594 32.7558 43.8 31.2853C43.9433 30.9563 44.0515 30.6172 44.1771 30.2817Z" fill="#138D7E"/>
<path d="M44.1771 30.2817L44.2776 30.4843C44.2687 30.5003 44.2594 30.516 44.251 30.5322C44.1198 30.7868 44.0684 31.4271 43.9973 31.7417C43.5925 33.5323 42.7051 34.8986 40.922 35.549C40.3207 35.7684 39.094 36.0152 38.4602 35.8698C38.4098 35.6176 38.3717 35.362 38.3286 35.1084C39.1154 35.1374 39.9892 34.8963 40.6993 34.5714C42.172 33.8978 43.1594 32.7558 43.8 31.2853C43.9433 30.9563 44.0515 30.6172 44.1771 30.2817Z" fill="#0F7C70"/>
<path d="M46.3087 35.1768C46.3947 35.3756 46.4864 35.578 46.5496 35.7855C46.5063 35.8039 46.4636 35.8227 46.4193 35.8388C46.1072 35.9516 45.7219 36.259 45.4384 36.4428C44.4769 37.0659 42.7678 38.0429 42.2965 39.0777C42.1999 39.2898 42.1546 39.5205 42.1075 39.7474C41.2577 39.603 40.5139 39.1499 39.9463 38.508C39.7644 38.3023 39.6166 38.0662 39.4273 37.8681C39.4205 37.8611 39.4137 37.8543 39.407 37.8473C39.3034 37.5558 39.1286 37.2885 39.0259 36.9902C39.8167 37.2803 40.5674 37.42 41.4131 37.3855C42.851 37.3269 44.3894 36.8706 45.5199 35.957C45.8097 35.7228 46.0567 35.4498 46.3087 35.1768Z" fill="#DB3B15"/>
<path d="M23.6919 25.6689C24.0417 25.8378 24.3858 25.9672 24.7634 26.0595C25.8626 26.328 28.0887 26.502 29.1453 26.133C29.3764 26.0523 29.583 25.9463 29.7865 25.8107C29.6394 26.6326 29.5788 27.4732 29.4187 28.2915L29.0645 30.8947C29.007 31.3514 28.9827 31.831 28.8898 32.2809C28.8712 32.3707 28.8607 32.4593 28.7854 32.5207C28.515 32.7412 27.8594 32.8234 27.5195 32.8225C26.5183 32.9144 25.4368 32.8218 24.4911 32.476C24.0221 32.3045 23.9326 32.1821 23.7246 31.7313C23.1433 31.8811 22.6056 32.3615 22.0786 32.6491C21.5541 32.047 21.3596 31.1951 20.9412 30.5248L20.7886 30.1178C21.2473 29.9574 21.9273 29.7061 22.3281 29.4505C22.671 29.2318 22.8435 28.7115 22.932 28.3271C23.0205 28.1989 23.0823 28.0401 23.1597 27.9033C23.312 27.6344 23.4894 27.4105 23.6909 27.1781C23.6722 26.6749 23.7224 26.1715 23.6919 25.6689Z" fill="#F2AB4E"/>
<path d="M27.5981 27.856L27.6799 27.9395C27.3171 28.2345 26.2778 28.7675 25.8081 28.8067C25.993 28.6637 26.2879 28.6016 26.5036 28.4951C26.8821 28.3082 27.2472 28.0904 27.5981 27.856Z" fill="#C27330"/>
<path d="M28.3256 29.3657C28.3961 29.4191 28.4383 29.4308 28.5253 29.4468C27.9265 29.8735 27.1483 30.1458 26.417 30.1907C26.7895 30.0304 27.2063 29.9643 27.5834 29.7988C27.842 29.6854 28.0783 29.5037 28.3256 29.3657Z" fill="#C27330"/>
<path d="M23.6919 25.6689C24.0417 25.8378 24.3857 25.9672 24.7634 26.0595C25.8625 26.328 28.0886 26.502 29.1452 26.133C29.3763 26.0523 29.5829 25.9463 29.7864 25.8107C29.6394 26.6326 29.5787 27.4732 29.4186 28.2915L29.3646 28.197C29.3567 28.1738 29.354 28.1618 29.3394 28.1396C29.2832 28.0542 29.1047 27.971 29.0033 27.9583C28.9328 27.9494 28.8783 27.9668 28.8251 28.0118C28.8126 28.0224 28.8005 28.0337 28.7883 28.0446L28.7726 28.0267C28.8544 27.7977 29.1737 27.6037 29.3096 27.3844C29.3458 27.326 29.3629 27.2614 29.3402 27.1939C29.2875 27.0374 29.0812 26.9769 28.9437 26.9209C28.7183 27.0594 28.5235 27.2799 28.3246 27.4562C28.1222 27.6357 27.9056 27.7908 27.6799 27.9394L27.5981 27.8558C27.8787 27.6159 28.2095 27.3755 28.4403 27.0858C28.5305 26.9726 28.5743 26.8759 28.5534 26.7289C28.5411 26.6422 28.5111 26.5509 28.4326 26.5028C28.3508 26.4526 28.2424 26.5208 28.1726 26.5643C27.9063 26.7302 27.6597 26.9267 27.3902 27.089C26.8498 27.4144 26.2174 27.6646 25.6162 27.8544C25.3215 27.9474 24.371 28.1967 24.1112 28.0441C23.8469 27.8889 23.7543 27.4541 23.6908 27.1782C23.6721 26.6749 23.7223 26.1715 23.6919 25.6689Z" fill="#A1D768"/>
<path d="M29.3647 28.1968L29.4188 28.2912L29.0646 30.8945C29.007 31.3511 28.9828 31.8308 28.8898 32.2806C28.8712 32.3704 28.8608 32.4591 28.7855 32.5205C28.515 32.7409 27.8595 32.8232 27.5196 32.8223C26.5184 32.9142 25.4369 32.8215 24.4912 32.4758C24.0222 32.3043 23.9326 32.1819 23.7246 31.7311C24.4341 31.7096 25.1566 31.691 25.8535 31.5465C26.7795 31.3546 27.5479 30.9256 28.223 30.2637C28.3701 30.1194 28.5426 29.9597 28.6522 29.7839C28.7062 29.6973 28.7221 29.6359 28.698 29.5368C28.6406 29.4752 28.6035 29.467 28.5251 29.4463C28.4381 29.4303 28.3958 29.4187 28.3253 29.3653C28.7498 29.011 29.0467 28.6442 29.3647 28.1968Z" fill="#78B960"/>
<path d="M35.5793 17.292C36.5799 16.0512 37.4056 15.3795 39.0472 15.2027C40.7057 15.024 42.3413 15.3825 43.677 16.4044C43.6309 16.1861 43.5393 15.772 43.6722 15.5748C43.713 15.5141 43.729 15.5123 43.7957 15.5C43.8961 15.5421 43.9438 15.6145 43.9865 15.7119C44.0922 15.9528 44.0861 16.2173 44.0718 16.474C44.3023 16.3415 44.6338 16.2517 44.8997 16.3202C44.9747 16.3395 45.0433 16.3737 45.0836 16.4427C45.1061 16.4811 45.1065 16.5267 45.0958 16.5697C45.0593 16.718 44.8372 16.8391 44.7114 16.8937C44.6299 16.929 44.5458 16.9577 44.4607 16.9829C45.3399 17.6526 45.8127 18.6638 45.9576 19.7431C46.0383 20.3434 45.9978 20.9524 45.9119 21.5496C46.1403 21.6213 46.4278 21.7495 46.5633 21.9535C46.5697 22.0199 46.5756 22.0492 46.5295 22.1053C46.3614 22.3102 45.8851 22.1508 45.7798 22.2549C45.7195 22.3146 45.6761 22.489 45.6475 22.5723C45.757 22.687 46.0176 22.9089 46.0187 23.0806C46.0192 23.1523 46.002 23.1876 45.9476 23.2345C45.8137 23.3497 45.4617 23.3353 45.2945 23.3472C44.576 24.6077 43.5652 25.8419 42.1052 26.2425C42.0014 26.2709 41.8966 26.2954 41.7917 26.3192C41.7369 26.314 41.6851 26.3045 41.6313 26.2931C42.0882 25.9885 42.4102 25.7766 42.6912 25.2943C42.8092 25.3409 42.934 25.3686 43.0567 25.4003C43.4318 25.3043 43.7351 25.0807 43.9418 24.7525C44.1115 24.4831 44.1905 24.157 44.1115 23.8435C44.0708 23.6821 43.9835 23.5358 43.8357 23.4519C43.6181 23.3284 43.3778 23.3693 43.1496 23.4309C43.1779 23.1134 43.1938 22.8026 43.1517 22.4853C43.1044 22.1285 42.9963 21.7892 42.8931 21.4458C42.6088 20.4998 42.4629 19.6979 42.7141 18.7255C42.6166 18.84 42.5094 18.9429 42.3864 19.0297C41.9342 19.3488 41.4516 19.3842 40.9205 19.2948C41.3118 18.9269 41.4799 18.6422 41.6463 18.1374C41.3791 18.43 41.0811 18.6579 40.731 18.8449C40.2198 19.1179 39.1845 19.2969 38.6291 19.0992C38.5547 19.0728 38.5213 19.04 38.4907 18.969L38.508 18.9323C38.8783 18.6871 39.1264 18.4318 39.3808 18.0675C38.7125 18.5104 36.888 18.7781 36.0493 18.7935C35.7564 19.5342 35.3848 20.2415 35.123 20.9951C34.7933 20.4163 34.7171 19.7675 34.7929 19.1097C34.6359 19.0797 34.4903 19.0506 34.3786 18.9286C34.3558 18.8584 34.3569 18.8524 34.3778 18.7814C34.5028 18.6575 34.6592 18.5829 34.799 18.4779C35.0264 18.3071 35.1949 18.0089 35.3419 17.7731C35.1255 17.7081 34.9423 17.6249 34.8298 17.413C34.764 17.2893 34.7182 17.1327 34.7623 16.9961C34.819 16.9598 34.8432 16.9522 34.9103 16.9709C35.1187 17.0289 35.2915 17.1927 35.5004 17.2652C35.5168 17.2709 35.5331 17.2769 35.5495 17.2825C35.5593 17.2858 35.5693 17.2888 35.5793 17.292Z" fill="#9D3821"/>
<path d="M39.3811 18.0679C39.1268 18.4322 38.8787 18.6875 38.5083 18.9327L38.491 18.9694C38.5217 19.0404 38.555 19.0731 38.6294 19.0996C39.1849 19.2973 40.2202 19.1183 40.7313 18.8453C41.0814 18.6583 41.3794 18.4304 41.6466 18.1378C41.4803 18.6426 41.3122 18.9273 40.9208 19.2952C41.452 19.3845 41.9346 19.3492 42.3868 19.0301C42.5098 18.9433 42.6169 18.8404 42.7145 18.7259C42.4633 19.6983 42.6092 20.5001 42.8935 21.4462C42.9967 21.7896 43.1048 22.1289 43.1521 22.4857C43.1941 22.803 43.1783 23.1138 43.1499 23.4313C43.3782 23.3697 43.6184 23.3288 43.8361 23.4523C43.9839 23.5362 44.0711 23.6824 44.1119 23.8439C44.1909 24.1573 44.1118 24.4834 43.9422 24.7529C43.7355 25.0811 43.4322 25.3047 43.057 25.4007C42.9344 25.3689 42.8095 25.3413 42.6916 25.2947C42.4106 25.777 42.0886 25.9889 41.6317 26.2935C41.6855 26.3049 41.7373 26.3144 41.7921 26.3196L41.738 26.3243C41.6916 26.3282 41.6528 26.3261 41.6068 26.3218C41.384 26.301 40.9265 26.4552 40.7427 26.5718C40.202 26.8323 39.4301 26.8597 38.8409 26.8384C38.6142 26.8302 38.3787 26.7911 38.1537 26.7958C38.0517 26.7963 37.9466 26.7887 37.845 26.779C36.8771 26.6867 35.8146 26.2787 35.1847 25.5103C34.3981 24.5508 34.5501 24.0236 34.7837 22.9135C34.9163 22.2835 35.0572 21.6357 35.1234 20.9954C35.3851 20.2419 35.7568 19.5346 36.0497 18.7939C36.8884 18.7785 38.7129 18.5108 39.3811 18.0679Z" fill="#F2AB4E"/>
<path d="M35.7604 21.7723C35.7559 21.7408 35.7528 21.7334 35.7584 21.6986C35.7697 21.6282 35.8396 21.5503 35.8981 21.5141C35.9896 21.4574 36.1118 21.4486 36.215 21.4721C36.3306 21.4983 36.3968 21.5533 36.4617 21.6492C36.3003 21.5986 36.139 21.5365 35.9757 21.6192C35.8969 21.6591 35.8264 21.7141 35.7604 21.7723Z" fill="#EE811F"/>
<path d="M36.1889 20.114C36.2601 20.1083 36.3687 20.0884 36.4361 20.1152C36.53 20.1526 36.577 20.2095 36.6176 20.2989C36.6121 20.3766 36.6054 20.3851 36.5589 20.4483C36.4701 20.5038 36.3925 20.4912 36.2909 20.486C36.1947 20.4791 36.0545 20.4861 35.9669 20.4523C35.899 20.4261 35.8858 20.406 35.8652 20.3433C35.9286 20.22 36.0698 20.1701 36.1889 20.114Z" fill="#9D3821"/>
<path d="M40.0012 20.3275C40.0922 20.3211 40.1919 20.3127 40.2779 20.3486C40.4629 20.426 40.5782 20.6416 40.6374 20.8247C40.6583 20.8893 40.6729 20.9287 40.6426 20.9922L40.5909 20.982C40.3999 20.8504 40.1889 20.7748 39.9982 20.6494C39.9238 20.6005 39.8939 20.5658 39.877 20.4788C39.8993 20.4029 39.9421 20.3743 40.0012 20.3275Z" fill="#9D3821"/>
<path d="M37.1533 22.9754C37.2341 22.9175 37.3149 22.8659 37.4202 22.8872C37.5069 22.9047 37.594 22.9817 37.6309 23.061C37.6624 23.1288 37.6674 23.1659 37.6475 23.2371C37.5137 23.3298 37.3064 23.1303 37.257 23.4244C37.2482 23.4768 37.2581 23.5048 37.2785 23.5513C37.3621 23.6177 37.5372 23.6624 37.5858 23.7458C37.5597 23.8031 37.5497 23.8333 37.4846 23.8569C37.3686 23.8988 37.2057 23.8485 37.1068 23.7848C37.0196 23.7287 36.945 23.645 36.925 23.5408C36.9054 23.4389 36.9452 23.3228 37.0059 23.2411C37.0341 23.2032 37.0694 23.1696 37.1033 23.1369C37.1053 23.0645 37.1115 23.0349 37.1533 22.9754Z" fill="#EE811F"/>
<path d="M37.1035 23.1368C37.1055 23.0644 37.1117 23.0347 37.1535 22.9752C37.2628 22.9721 37.3652 22.9673 37.4605 23.0297C37.3811 23.1249 37.2163 23.1006 37.1035 23.1368Z" fill="#F2A26E"/>
<path d="M36.7915 24.522L36.8377 24.5481C36.9822 24.6315 37.1083 24.7573 37.264 24.8189C37.5731 24.9412 37.9249 24.8881 38.2379 25.0098C38.1577 25.109 38.0611 25.1767 37.9451 25.2298C37.761 25.3142 37.5614 25.3296 37.3704 25.2547C37.057 25.1318 36.9169 24.8095 36.7915 24.522Z" fill="#E74C31"/>
<path d="M39.4151 24.0211C39.5106 24.0185 39.6084 24.0141 39.7037 24.0224C39.895 24.0392 40.1863 24.1034 40.3146 24.2544C40.3214 24.2912 40.3346 24.3132 40.3151 24.3481C40.2546 24.4561 40.1021 24.4898 39.9915 24.5257C39.8691 24.5364 39.7471 24.5394 39.6247 24.5288C39.4505 24.5137 39.1395 24.4473 39.0299 24.2982C39.0033 24.262 39.0162 24.2426 39.0213 24.2013C39.1221 24.0916 39.2755 24.0581 39.4151 24.0211Z" fill="#F8B4B8"/>
<path d="M35.4805 23.2944C35.612 23.3002 35.7304 23.3255 35.846 23.3904C35.9471 23.4472 36.0691 23.5498 36.088 23.6725C36.0999 23.7502 36.0865 23.8056 36.0414 23.8697C35.9517 23.997 35.7523 24.0138 35.6115 24.0329C35.488 24.0254 35.3643 24.0127 35.2511 23.9585C35.1549 23.9123 35.0667 23.8346 35.0339 23.7302C35.0114 23.6586 35.0231 23.5854 35.0602 23.5215C35.1459 23.3742 35.3274 23.3316 35.4805 23.2944Z" fill="#EE811F"/>
<path d="M36.7914 24.5225L36.7402 24.436L36.7637 24.4138C36.8816 24.4376 36.9981 24.4845 37.1155 24.5016C37.5626 24.5668 38.0786 24.4574 38.4914 24.2881C38.4454 24.5648 38.3829 24.7689 38.2378 25.0104C37.9248 24.8887 37.5731 24.9418 37.2639 24.8195C37.1082 24.7579 36.9821 24.632 36.8377 24.5487L36.7914 24.5225Z" fill="#D42C24"/>
<path d="M43.3543 23.7241C43.3986 23.7211 43.4428 23.718 43.4872 23.7166C43.6054 23.713 43.6967 23.7389 43.7814 23.8245C43.8808 23.9248 43.9219 24.056 43.9115 24.1956C43.9012 24.3358 43.8361 24.4593 43.7247 24.5455C43.5757 24.6608 43.423 24.6314 43.2489 24.6138C43.1218 24.6075 42.9305 24.6205 42.8099 24.5858C42.7441 24.5669 42.7339 24.5399 42.697 24.4863C42.69 24.4344 42.6905 24.3956 42.7093 24.3467C42.8153 24.0718 43.0926 23.8388 43.3543 23.7241Z" fill="#F56652"/>
<path d="M35.7606 21.772C35.8265 21.7139 35.897 21.6589 35.9758 21.619C36.1392 21.5362 36.3004 21.5983 36.4618 21.649C36.5027 21.7124 36.5389 21.774 36.5727 21.8413C36.6958 22.085 36.769 22.3241 36.6824 22.5962C36.6448 22.7145 36.5755 22.8211 36.4585 22.8722C36.2981 22.9421 36.0739 22.908 35.9178 22.8421C35.7495 22.7712 35.6072 22.6303 35.5484 22.4558C35.5182 22.3661 35.4959 22.2294 35.5445 22.1437C35.5715 22.096 35.6016 22.0682 35.6445 22.0358L35.6231 22.0061C35.6416 21.9123 35.7039 21.8461 35.7606 21.772Z" fill="#020000"/>
<path d="M35.6445 22.0356C35.8187 22.2506 35.6461 22.3716 35.7239 22.5711C35.7535 22.6469 35.8294 22.7103 35.8994 22.7476C36.0097 22.8064 36.1365 22.8151 36.2546 22.7735C36.3854 22.7275 36.4936 22.6278 36.5458 22.4988C36.5905 22.3881 36.5931 22.2541 36.5426 22.1448C36.4929 22.0375 36.3989 21.9801 36.2921 21.9398C36.2298 21.9163 36.1779 21.8931 36.1206 21.8593L36.1095 21.8102C36.1335 21.7541 36.1389 21.7208 36.2057 21.7048C36.3393 21.6729 36.4751 21.7634 36.5727 21.8411C36.6958 22.0848 36.769 22.3239 36.6824 22.596C36.6448 22.7143 36.5755 22.8209 36.4585 22.872C36.2981 22.9419 36.0739 22.9078 35.9178 22.8419C35.7495 22.771 35.6072 22.6301 35.5484 22.4556C35.5182 22.3659 35.4959 22.2292 35.5445 22.1435C35.5714 22.0958 35.6016 22.068 35.6445 22.0356Z" fill="white"/>
<path d="M39.4038 21.896C39.4165 21.8952 39.4293 21.8942 39.4421 21.8936C39.6808 21.8817 39.8968 21.9402 40.0735 22.1079C40.2297 22.2562 40.3104 22.4566 40.3132 22.6706C40.3154 22.8412 40.2693 23.0089 40.1463 23.1323C40.0046 23.2745 39.8722 23.2864 39.6795 23.2849C39.4763 23.2423 39.1733 23.2822 38.9963 23.2062C38.8998 23.1648 38.8212 23.0907 38.7798 22.9937C38.7091 22.8284 38.7637 22.6064 38.8272 22.4475C38.9435 22.1566 39.1257 22.011 39.4038 21.896Z" fill="white"/>
<path d="M39.8449 22.9106C39.8379 22.9235 39.8311 22.9364 39.8237 22.9491C39.7557 23.0661 39.6226 23.1734 39.4888 23.2014C39.3748 23.2252 39.2589 23.1947 39.1658 23.126C39.0373 23.0313 38.9625 22.8787 38.9486 22.7213C38.9317 22.5305 38.9928 22.3679 39.1125 22.2227C39.1152 22.2371 39.1182 22.2515 39.1204 22.2661C39.1288 22.3215 39.1175 22.3635 39.1048 22.4172C39.0686 22.569 39.0903 22.7823 39.1808 22.9139C39.2204 22.9715 39.2815 23.013 39.3512 23.0231C39.5334 23.0496 39.687 22.9919 39.8449 22.9106Z" fill="#353F6D"/>
<path d="M39.1123 22.2232C39.2424 22.1234 39.3744 22.0527 39.5441 22.0764C39.6713 22.0941 39.7557 22.1607 39.8375 22.2545C39.93 22.3973 39.9593 22.5412 39.9215 22.7087C39.9049 22.7823 39.8809 22.8453 39.8447 22.9111C39.6868 22.9925 39.5331 23.0501 39.351 23.0236C39.2813 23.0135 39.2202 22.972 39.1806 22.9144C39.09 22.7828 39.0684 22.5695 39.1045 22.4177C39.1173 22.364 39.1286 22.322 39.1202 22.2666C39.118 22.252 39.1149 22.2377 39.1123 22.2232Z" fill="#020000"/>
<path d="M39.553 22.4697C39.5352 22.4119 39.5134 22.3591 39.5274 22.298C39.5371 22.2562 39.5656 22.2478 39.5979 22.224C39.69 22.2129 39.7497 22.227 39.8377 22.2542C39.8412 22.2831 39.8505 22.33 39.8463 22.3603C39.8363 22.4321 39.816 22.4462 39.7652 22.4921C39.6811 22.508 39.6318 22.4945 39.553 22.4697Z" fill="white"/>
<path d="M22.0787 32.6493C22.6057 32.3616 23.1434 31.8813 23.7246 31.7314C23.9327 32.1823 24.0222 32.3047 24.4912 32.4761C25.4369 32.8219 26.5184 32.9146 27.5196 32.8227C27.5251 33.1301 27.5499 33.4484 27.4808 33.7501C27.0044 35.8284 24.5007 38.8896 23.0854 40.543C22.7192 40.9548 22.3601 41.3843 21.9587 41.7621C21.7085 41.5273 21.4769 41.2662 21.2325 41.0244C20.7111 40.5086 20.1753 40.0296 19.5892 39.5885C19.3747 39.427 19.1576 39.2513 18.9201 39.125C18.7943 39.0551 18.1082 38.6258 18.0518 38.5444C17.7504 38.4025 17.4685 38.1919 17.1713 38.0339C16.3544 37.5997 15.5348 37.2544 14.6528 36.9746C14.3038 36.8639 13.9474 36.7624 13.5864 36.6998C13.3351 36.6561 13.0166 36.65 12.7815 36.5692C12.7691 36.565 12.7569 36.5603 12.7446 36.5559C12.9167 36.4146 13.0636 36.2524 13.2015 36.0783C13.6833 36.1117 14.181 36.0541 14.6585 35.9879C16.6973 35.7052 18.6301 34.9815 20.442 34.0209C20.9465 33.7534 21.4624 33.4722 21.9313 33.1464L21.8131 32.8475C21.8813 32.7681 21.9923 32.7085 22.0787 32.6493Z" fill="#353F6D"/>
<path d="M21.3171 35.8724C21.525 35.6872 22.5702 34.8858 22.7732 34.8467L22.8064 34.8693C22.7845 34.9192 22.8019 34.8997 22.7562 34.9261C22.3493 35.1615 21.9356 35.5196 21.5921 35.8413C21.5173 35.8738 21.4553 35.9043 21.3908 35.9545C21.0323 36.3001 20.6651 36.6437 20.3374 37.0192C20.2108 37.1643 20.0305 37.4693 19.8726 37.5631C19.825 37.5356 19.8455 37.5543 19.813 37.5049L19.8152 37.4841C20.0383 36.8878 20.8213 36.2583 21.3171 35.8724Z" fill="#24284E"/>
<path d="M18.0518 38.5443C18.4732 38.3941 18.92 38.0885 19.2885 37.835C19.4489 37.7246 19.6353 37.5473 19.8153 37.4839L19.8131 37.5047C19.473 38.0196 19.1661 38.5584 18.92 39.1249C18.7942 39.0549 18.1081 38.6257 18.0518 38.5443Z" fill="white"/>
<path d="M1.44209 35.894C1.45031 35.8981 1.45887 35.9015 1.46674 35.9062C1.57884 35.973 1.67749 36.1081 1.7761 36.1966C1.95973 36.3613 2.15563 36.5129 2.36037 36.6505C3.43143 37.3702 4.76883 37.7883 6.02993 38.0234C6.48049 38.0299 6.93384 38.1456 7.39167 38.1505C9.30984 38.1709 11.1293 37.5654 12.7448 36.556C12.7571 36.5604 12.7694 36.565 12.7817 36.5693C13.0168 36.65 13.3354 36.6562 13.5866 36.6998C13.9476 36.7624 14.3041 36.8639 14.653 36.9746C15.535 37.2544 16.3546 37.5997 17.1715 38.034C17.4687 38.192 17.7506 38.4025 18.052 38.5445C18.1084 38.6258 18.7945 39.0551 18.9203 39.1251C19.1578 39.2513 19.3749 39.427 19.5894 39.5885C20.1755 40.0296 20.7113 40.5087 21.2327 41.0244C21.4771 41.2662 21.7087 41.5273 21.959 41.7622C22.2454 42.0731 22.5016 42.3977 22.7575 42.7334C23.2014 43.422 23.5209 44.1146 23.3386 44.9515C23.2022 45.5771 22.7789 46.105 22.2431 46.4421C21.8366 46.6977 21.3729 46.845 20.9025 46.9295C20.0818 47.0768 19.2098 47.0933 18.3781 47.1206C16.5687 47.1799 14.7493 47.1545 12.9428 47.0364C12.2565 46.9916 11.5302 46.9609 10.8571 46.8149C10.8238 46.8077 10.805 46.7966 10.78 46.7739C10.1171 46.6473 9.46605 46.4676 8.80477 46.3363C8.80181 45.9682 8.80693 45.6053 8.84898 45.2392C8.87304 44.9972 8.91666 44.7379 8.98102 44.5035C8.08442 44.381 7.20786 44.3037 6.33006 44.0689C4.63731 43.5725 3.18455 42.811 2.21327 41.2827C1.17314 39.6462 1.03399 37.7514 1.44209 35.894Z" fill="#55679B"/>
<path d="M8.98114 44.5034C9.60498 44.5617 10.228 44.6033 10.8545 44.6164C10.7661 45.3542 10.7402 46.0297 10.7801 46.7738C10.1173 46.6472 9.46616 46.4675 8.80489 46.3362C8.80193 45.9681 8.80704 45.6052 8.84909 45.2391C8.87316 44.9971 8.91678 44.7378 8.98114 44.5034Z" fill="white"/>
<path d="M1.44209 35.894C1.4503 35.8981 1.45887 35.9015 1.46674 35.9062C1.57884 35.973 1.67749 36.1081 1.7761 36.1966C1.95973 36.3613 2.15563 36.5129 2.36037 36.6505C3.43143 37.3702 4.76883 37.7883 6.02993 38.0234C5.59859 38.2593 3.60369 38.0046 3.13553 37.8632C3.04598 37.8361 2.95906 37.8023 2.87134 37.77C2.79148 38.911 3.16331 39.9616 3.91483 40.8225C7.58537 45.0275 15.6692 42.3937 20.4973 45.3807L20.4638 45.3951C18.478 44.4926 16.6343 44.2597 14.4746 44.4128C13.7855 44.4617 13.0994 44.5498 12.4094 44.5882C11.8911 44.6169 11.3733 44.6161 10.8543 44.6165C10.2279 44.6035 9.60487 44.5619 8.98103 44.5036C8.08444 44.381 7.20788 44.3038 6.33007 44.0689C4.63732 43.5725 3.18456 42.811 2.21329 41.2828C1.17314 39.6462 1.03399 37.7514 1.44209 35.894Z" fill="#353F6D"/>
<path d="M22.7571 42.7335C23.5755 42.6648 24.3825 42.6699 25.2027 42.6709C26.0381 42.6719 26.8733 42.6724 27.7085 42.6899L29.2776 42.7345C29.5403 42.7444 29.82 42.7401 30.0802 42.776L30.0792 43.4383C30.0915 43.5314 30.093 43.6173 30.1691 43.6825C30.3929 43.8744 30.8504 43.8986 31.1319 43.9469C31.2913 43.9618 31.4488 43.9811 31.6072 44.0047L31.9129 44.0351C32.4411 44.1245 33.9475 44.1996 34.4637 44.1303C35.2488 44.1635 38.0032 44.0787 38.5619 43.661C38.5766 43.5539 38.5816 43.4446 38.5903 43.3368L38.586 43.3087C38.948 43.3023 39.8769 43.584 40.1398 43.4856C40.2368 43.754 40.5337 44.8006 40.6851 44.9229C40.7546 44.9395 40.8212 44.9531 40.8923 44.9623C41.1009 44.9337 41.3223 44.9373 41.5331 44.9242C42.0319 44.8929 42.5364 44.8302 43.0164 44.6871C43.0431 44.8826 43.0873 45.187 43.2025 45.3476C43.8069 45.3064 44.3899 45.2058 44.982 45.0805C45.2243 45.0101 45.4585 44.9353 45.6927 44.84L45.7703 44.8127C46.4716 44.911 47.8294 45.3046 48.3718 45.7473C48.4938 45.8468 48.6219 45.9855 48.6281 46.1522C48.6335 46.2982 48.5522 46.4237 48.4515 46.5222C47.9331 47.0288 46.333 47.4553 45.5978 47.6319C44.0577 48.0017 42.4982 48.2384 40.9289 48.4434C39.1569 48.6748 37.3863 48.8559 35.6037 48.9851C31.2648 49.2994 26.9239 49.4173 22.5741 49.3992C18.7209 49.3832 14.8652 49.1949 11.0283 48.8426C8.26496 48.5889 5.4517 48.2733 2.7484 47.6291C1.92779 47.4335 0.505335 47.1221 -0.08332 46.5084C-0.185443 46.4019 -0.281117 46.284 -0.269557 46.1274C-0.256673 45.9528 -0.122075 45.8111 0.00380442 45.7034C0.870595 44.9618 4.04811 44.3972 5.27944 44.2359C5.55697 44.1996 5.92148 44.1061 6.19321 44.1382C6.2092 44.1401 6.22514 44.1426 6.24108 44.1448L6.32966 44.069C7.20747 44.3039 8.08403 44.3811 8.98062 44.5037C8.91627 44.738 8.87265 44.9974 8.84858 45.2393C8.80653 45.6055 8.8014 45.9683 8.80437 46.3365C9.46565 46.4678 10.1167 46.6474 10.7796 46.774C10.8046 46.7967 10.8234 46.8078 10.8567 46.815C11.5298 46.9611 12.2561 46.9917 12.9424 47.0366C14.7489 47.1547 16.5683 47.18 18.3777 47.1207C19.2094 47.0934 20.0814 47.0769 20.9021 46.9296C21.3725 46.8452 21.8362 46.6979 22.2427 46.4422C22.7785 46.1051 23.2018 45.5772 23.3382 44.9516C23.5205 44.1147 23.201 43.4221 22.7571 42.7335Z" fill="#F5E0BE" fill-opacity="0.43"/>
<path d="M45.6931 44.8398C45.748 45.1212 45.5949 45.9215 45.4323 46.1487C45.3873 46.2116 45.3281 46.2625 45.2508 46.2773C45.3442 46.0346 45.3924 45.7257 45.3637 45.4663C45.3499 45.3425 45.3201 45.2449 45.2205 45.165C45.1517 45.1486 45.082 45.1347 45.0192 45.1009C45.0068 45.0943 44.9947 45.0872 44.9824 45.0803C45.2247 45.0099 45.4589 44.9352 45.6931 44.8398Z" fill="white"/>
<path d="M43.0165 44.6865C43.0431 44.882 43.0873 45.1864 43.2025 45.347C43.0511 45.6166 42.7871 45.7991 42.5338 45.9645C41.95 46.1814 41.0325 46.5403 40.423 46.5398C40.2449 46.5397 40.0248 46.5168 39.8967 46.377C39.8154 46.2882 39.7818 46.1507 39.791 46.0327C39.824 45.6095 40.566 45.2456 40.8641 44.9865L40.8924 44.9617C41.101 44.9332 41.3224 44.9368 41.5332 44.9236C42.032 44.8923 42.5365 44.8296 43.0165 44.6865Z" fill="#D36566"/>
<path d="M43.2027 45.3472C43.8071 45.306 44.3901 45.2054 44.9823 45.0801C44.9945 45.087 45.0066 45.094 45.019 45.1007C45.0819 45.1345 45.1516 45.1484 45.2204 45.1647C45.3199 45.2447 45.3498 45.3422 45.3635 45.4661C45.3922 45.7254 45.344 46.0344 45.2506 46.2771C44.9688 46.5388 43.9132 46.8452 43.5055 46.9504C43.1739 47.0361 42.6566 47.1213 42.3492 46.9258C42.2701 46.8756 42.217 46.8029 42.2001 46.7099C42.1499 46.4327 42.3719 46.2222 42.5065 46.0087L42.534 45.9647C42.7873 45.7993 43.0513 45.6168 43.2027 45.3472Z" fill="#F8B4B8"/>
<path d="M29.6143 43.7768L29.6219 43.6829C29.7134 43.5177 29.9113 43.4898 30.0792 43.438C30.0915 43.5311 30.093 43.617 30.1691 43.6822C30.3929 43.8741 30.8504 43.8983 31.1319 43.9467C31.2913 43.9615 31.4488 43.9808 31.6072 44.0044C31.623 45.0688 31.6395 46.1479 31.6017 47.2113C30.9491 47.1285 30.2031 47.0559 29.6443 46.6857C29.6168 46.3399 29.628 45.9873 29.6265 45.6403L29.6143 43.7768Z" fill="#1486AB"/>
<path d="M29.6143 43.7768L29.6219 43.6829C29.7134 43.5177 29.9113 43.4898 30.0792 43.438C30.0915 43.5311 30.093 43.617 30.1691 43.6822C30.3929 43.8741 30.8504 43.8983 31.1319 43.9467C31.1256 43.9513 31.1198 43.9568 31.113 43.9607C30.9376 44.0595 29.8518 43.8341 29.6143 43.7768Z" fill="#1D9FCF"/>
<path d="M38.5903 43.3364C38.719 43.3846 38.8722 43.4303 38.9356 43.565C38.9495 43.5946 38.9553 43.6375 38.9616 43.6686C38.9469 43.9547 38.9907 44.2586 39.0145 44.5443C39.0713 45.2258 39.1573 45.9231 39.157 46.6066C38.3129 47.3116 35.1315 47.3611 33.9919 47.3534C33.9322 47.3129 33.9507 47.3407 33.937 47.2694C34.0342 47.1635 34.7282 46.9769 34.9117 46.9036C35.2763 46.7582 35.6284 46.5736 35.954 46.3543C36.7467 45.8204 37.5 44.9637 37.6894 44.0047C38.129 43.9459 38.4626 43.8564 38.8649 43.662L38.8544 43.6043L38.8023 43.577C38.7086 43.5839 38.6447 43.618 38.562 43.6606C38.5767 43.5536 38.5817 43.4442 38.5903 43.3364Z" fill="#1486AB"/>
<path d="M6.33007 44.0688C7.20788 44.3037 8.08444 44.3809 8.98103 44.5035C8.91668 44.7378 8.87306 44.9972 8.84899 45.2391C8.80694 45.6053 8.80182 45.9681 8.80479 46.3363C8.08735 46.1916 7.25193 45.9605 6.51888 46.0171C5.66693 46.0829 4.42451 46.8826 3.68203 46.8452C3.57213 46.8397 3.41704 46.8167 3.34665 46.7209C3.31375 46.6762 3.30739 46.62 3.31478 46.5663C3.33373 46.4283 3.43222 46.2633 3.52625 46.1638C3.83151 45.8407 4.36124 45.5563 4.73275 45.3043C5.14997 45.0212 5.55347 44.7199 5.95233 44.4117C6.05104 44.3252 6.14598 44.2346 6.24151 44.1446L6.33007 44.0688Z" fill="#EE811F"/>
<path d="M6.3299 44.0688C7.20771 44.3037 8.08427 44.3809 8.98086 44.5035C8.91651 44.7378 8.87289 44.9972 8.84882 45.2391C7.81658 45.1626 6.87115 44.8811 5.95215 44.4117C6.05086 44.3252 6.14579 44.2346 6.24132 44.1446L6.3299 44.0688Z" fill="#C27330"/>
<path d="M38.5623 43.6608C38.645 43.6181 38.7088 43.5841 38.8025 43.5771L38.8547 43.6044L38.8652 43.6621C38.4628 43.8566 38.1293 43.9461 37.6897 44.0048C37.5002 44.9638 36.747 45.8205 35.9543 46.3544C35.6287 46.5737 35.2766 46.7583 34.912 46.9038C34.7284 46.9771 34.0344 47.1637 33.9373 47.2696C33.951 47.3409 33.9325 47.313 33.9922 47.3535C33.1924 47.3315 32.3977 47.3013 31.6021 47.2114C31.6399 46.148 31.6234 45.0688 31.6075 44.0045L31.9132 44.0349C32.4415 44.1243 33.9479 44.1994 34.464 44.1301C35.2492 44.1633 38.0036 44.0784 38.5623 43.6608Z" fill="#1D9FCF"/>
<path d="M15.0886 8.38748C15.0145 8.07999 14.9679 7.7695 14.9425 7.45427C14.7884 5.54779 15.2871 3.76483 16.5372 2.298C17.6414 1.00249 19.1486 0.141826 20.8604 0.0154541C22.5796 -0.111463 24.2467 0.552704 25.5372 1.66343C25.6437 1.76877 25.7543 1.87183 25.8535 1.98406C25.8608 1.99175 25.8679 1.99963 25.8753 2.00714C26.1382 2.27177 26.5277 2.41902 26.819 2.66445C27.8588 3.54064 28.3842 4.97174 28.4036 6.30462C28.4236 7.68462 27.9264 9.179 27.0513 10.2505C26.9614 10.362 26.7332 10.6153 26.7412 10.7589C26.7433 10.7956 26.7666 10.8344 26.7835 10.866L26.9123 10.8625L26.9385 10.8901C26.8445 10.9643 26.7223 10.9889 26.6058 11.0023L26.5935 11.035C26.4483 11.4264 26.3607 11.8417 26.2082 12.2346C25.568 13.8842 24.476 15.6891 22.8254 16.469C22.266 16.7333 21.7079 16.8263 21.1158 16.611C20.646 16.4402 19.879 15.902 19.585 15.5096C19.4207 15.8618 19.2247 16.2015 19.0697 16.5572C19.0428 16.5617 19.0439 16.5652 19.0176 16.5549C18.8809 16.5011 18.6961 16.2649 18.5937 16.1598C17.606 15.1457 16.9051 13.8986 16.3215 12.6159C16.0045 13.1703 15.0642 14.7064 14.5085 14.9045C13.6939 15.062 12.8392 15.4719 12.0513 15.674C11.5611 15.865 11.0828 16.0751 10.6102 16.3065C10.565 16.1779 10.6331 15.9403 10.6681 15.8094C11.0411 14.4116 12.3123 14.6548 12.7627 13.8645C13.1529 13.1799 12.9809 12.3367 13.2377 11.614C13.5837 10.6405 14.1566 10.9262 14.8082 10.603C14.9208 10.5471 15.0119 10.4687 15.0509 10.3461C15.1636 9.99152 14.9407 9.57828 14.7827 9.27042C14.8529 9.08566 14.9754 8.94005 15.061 8.76498C15.1332 8.61748 15.1389 8.54504 15.0886 8.38748Z" fill="#742826"/>
<path d="M27.3452 8.47499C27.349 8.46831 27.3529 8.46169 27.3566 8.45485C27.5077 8.17468 27.3091 7.57894 27.2187 7.29418C26.9901 6.57395 26.5613 5.90481 26.0302 5.36955C25.88 5.21807 25.6087 5.01726 25.5171 4.83691L25.5551 4.90255L25.5671 4.8592C26.4555 5.47956 27.2693 6.35826 27.4623 7.46713C27.5087 7.73385 27.5887 8.49867 27.4541 8.7279L27.4135 8.74411C27.3815 8.69317 27.3748 8.65526 27.36 8.59716L27.3452 8.47499Z" fill="#4C1210"/>
<path d="M22.3955 2.2541C23.0924 1.73448 23.9009 1.48857 24.7732 1.55648C25.0206 1.57574 25.2609 1.67141 25.5096 1.66512C25.5189 1.66489 25.5282 1.66424 25.5374 1.6638C25.6439 1.76914 25.7546 1.87219 25.8538 1.98442C25.8203 2.00111 25.7948 2.01201 25.7559 2.01445C25.5549 2.02704 25.2874 1.94659 25.0807 1.92037C24.7639 1.88017 24.4438 1.87001 24.1245 1.87725C23.5302 1.89075 22.9432 2.03005 22.3955 2.2541Z" fill="#4C1210"/>
<path d="M23.9516 3.02442C24.5432 2.94096 25.2654 3.09787 25.7946 3.36512C26.7911 3.8684 27.4623 4.81158 27.8036 5.8542C28.0265 6.53501 28.0534 7.26645 27.9696 7.97345C27.9541 8.10366 27.948 8.27242 27.8883 8.39051C27.8774 8.34313 27.8775 8.3085 27.8846 8.261L27.8928 8.20861C28.0064 7.12521 27.7922 6.09389 27.1538 5.20225C26.4816 4.26366 25.539 3.57519 24.4217 3.27051C24.1168 3.18737 23.7994 3.14568 23.4878 3.09426C23.6416 3.06545 23.7967 3.04564 23.9516 3.02442Z" fill="#4C1210"/>
<path d="M20.2793 1.06641C20.9056 1.17058 21.518 1.4718 22.0145 1.86239C22.6944 2.39715 23.6868 3.46222 23.795 4.34406L23.7504 4.36673C23.5732 4.29619 22.8933 3.24849 22.6895 3.00919C22.4135 3.28533 22.184 3.81644 21.9726 4.16221C21.3953 5.10646 20.5208 5.94097 19.416 6.20073C18.5816 6.39696 17.9016 6.16137 17.1951 5.72444C16.9915 5.5861 16.8044 5.43424 16.6291 5.26101C16.4517 5.08567 15.7073 4.26108 15.7056 4.01762C15.8903 4.2111 16.048 4.42893 16.2302 4.62478C16.6071 5.03016 17.1436 5.32762 17.6685 5.49148C19.2034 5.97068 20.3921 5.04022 21.4096 4.00044C21.7989 3.60266 22.154 3.17144 22.655 2.91188C21.978 2.13637 21.2349 1.47167 20.2793 1.06641Z" fill="#4C1210"/>
<path d="M15.2455 4.69723C15.3869 4.85081 15.4618 5.07854 15.5475 5.26771C15.8515 5.9384 16.2358 6.41992 16.8653 6.8141C17.6372 7.29751 18.5766 7.42001 19.4583 7.21054C21.0346 6.83597 22.374 5.51272 23.1981 4.17188C22.9987 4.75705 22.7468 5.31456 22.48 5.87158C22.0177 6.6077 21.5735 7.04949 20.9172 7.60284C20.3301 7.9528 19.7835 8.10245 19.1071 8.16335C18.8503 8.18646 18.5299 8.17326 18.2964 8.28806C18.1516 8.35925 18.0741 8.50335 18.0361 8.65419C18.0022 8.78866 18.0059 8.92414 18.0084 9.0614C17.8363 8.56567 17.7702 7.90891 17.2544 7.64392C17.0293 7.52825 16.7762 7.52592 16.5414 7.61387C16.2504 7.72292 16.0231 7.9495 15.9062 8.23631C15.6789 8.79376 15.8568 9.47948 16.0903 10.0052C16.2552 10.3764 16.4688 10.7117 16.722 11.0282C16.698 11.6847 16.625 12.033 16.3215 12.616C16.0045 13.1704 15.0642 14.7065 14.5085 14.9046C13.6939 15.0621 12.8392 15.4719 12.0513 15.6741C11.5611 15.8651 11.0828 16.0752 10.6102 16.3065C10.565 16.178 10.6331 15.9404 10.6681 15.8095C11.0411 14.4117 12.3123 14.6549 12.7627 13.8646C13.1529 13.18 12.9809 12.3368 13.2377 11.6141C13.5837 10.6406 14.1566 10.9263 14.8082 10.6031C14.9208 10.5472 15.0119 10.4688 15.0509 10.3461C15.1636 9.99161 14.9407 9.57837 14.7827 9.27051C14.8529 9.08575 14.9754 8.94014 15.061 8.76507C15.1331 8.61753 15.1389 8.5451 15.0886 8.38754C15.2024 8.26131 15.275 8.04074 15.3795 7.89288C15.6751 7.47448 16.056 7.28062 16.5489 7.1936C15.8381 6.53134 15.473 5.62355 15.2455 4.69723Z" fill="#4C1210"/>
<path d="M23.7245 4.55371C23.9924 4.72479 24.2582 4.90314 24.5337 5.06183C25.4947 5.61535 26.1353 5.96085 26.7677 6.92804C26.996 7.27715 27.1822 7.65247 27.2725 8.0619C27.3026 8.19808 27.3238 8.33718 27.3448 8.47503L27.3596 8.59722C27.3651 9.03717 27.3044 9.42978 27.1818 9.85255C27.1432 9.98556 27.0837 10.1172 27.0511 10.2506C26.9613 10.362 26.733 10.6153 26.7411 10.759C26.7431 10.7957 26.7664 10.8345 26.7833 10.8661L26.9122 10.8626L26.9383 10.8901C26.8443 10.9644 26.7221 10.9889 26.6056 11.0024L26.5934 11.035C26.4481 11.4265 26.3605 11.8418 26.208 12.2346C25.5678 13.8843 24.4758 15.6892 22.8252 16.4691C22.2658 16.7334 21.7078 16.8264 21.1156 16.6111C20.6458 16.4403 19.8788 15.9021 19.5848 15.5097C19.4205 15.8619 19.2245 16.2016 19.0695 16.5573C19.0426 16.5618 19.0437 16.5653 19.0175 16.5549C18.8807 16.5011 18.696 16.265 18.5935 16.1598C17.6058 15.1458 16.9049 13.8987 16.3213 12.616C16.6249 12.033 16.6978 11.6847 16.7219 11.0282C16.4686 10.7117 16.255 10.3764 16.0901 10.0051C15.8567 9.47946 15.6787 8.79374 15.906 8.23629C16.023 7.94949 16.2502 7.72289 16.5412 7.61385C16.776 7.52592 17.0292 7.52823 17.2543 7.6439C17.77 7.90889 17.8362 8.56563 18.0083 9.06138C18.0057 8.92412 18.0021 8.78863 18.0359 8.65417C18.074 8.50335 18.1514 8.35924 18.2962 8.28804C18.5297 8.17323 18.8501 8.18643 19.1069 8.16333C19.7834 8.10243 20.3299 7.95278 20.9171 7.60282C21.5734 7.04947 22.0175 6.60769 22.4798 5.87156L22.599 5.88476C22.9346 5.39355 23.3366 4.99732 23.7245 4.55371Z" fill="#F2AB4E"/>
<path d="M22.4798 5.87158L22.599 5.88478C22.2821 6.44852 21.6575 7.39569 21.0075 7.58799C20.9771 7.59698 20.9484 7.59994 20.917 7.60285C21.5733 7.04948 22.0175 6.60771 22.4798 5.87158Z" fill="#DB3B15"/>
<path d="M25.9021 8.80799C26.1759 8.78177 26.4152 8.80546 26.6492 8.9634C26.86 9.10566 27.0523 9.35773 27.0989 9.6105L27.0789 9.62989L26.9438 9.52757C26.5939 9.26096 25.8524 9.16156 25.7368 9.0454C25.7063 9.01487 25.7167 8.98863 25.716 8.94884C25.7609 8.87337 25.8272 8.84693 25.9021 8.80799Z" fill="#4C1210"/>
<path d="M22.4207 7.65401C22.8164 7.62751 23.1816 7.71308 23.487 7.97705C23.5861 8.06278 23.7261 8.20618 23.7283 8.34709C23.7289 8.38909 23.7084 8.3954 23.6813 8.42292C23.4783 8.46266 23.2625 8.28259 23.0887 8.18495C22.5498 7.92044 22.0905 7.8548 21.5024 7.9724C21.8041 7.80198 22.077 7.70064 22.4207 7.65401Z" fill="#4C1210"/>
<path d="M16.7502 7.91309C16.8931 7.9238 17.0157 7.94045 17.1123 8.05627C17.2655 8.23995 17.2607 8.5092 17.2314 8.7329C17.1971 8.99396 17.0981 9.61894 16.8667 9.7723C16.8266 9.79885 16.8134 9.78603 16.7698 9.77838C16.643 9.64839 16.6672 9.45104 16.6631 9.28173C16.6429 9.12665 16.5909 9.00462 16.5206 8.86725C16.6149 8.82961 16.7117 8.7953 16.7846 8.72169C16.8655 8.64 16.938 8.45362 16.9204 8.34055C16.9101 8.27501 16.8821 8.21691 16.8289 8.1762C16.7933 8.14895 16.803 8.15967 16.749 8.1685C16.6407 8.25999 16.5827 8.42197 16.5101 8.5441L16.4699 8.55402C16.4642 8.54438 16.4577 8.53516 16.4529 8.52515C16.4142 8.44572 16.4141 8.34998 16.4393 8.26629C16.4907 8.09487 16.5958 7.99348 16.7502 7.91309Z" fill="#C27330"/>
<path d="M24.7054 10.1689C24.7239 10.4263 24.5609 10.8139 24.5528 11.1116C24.5395 11.5962 24.6467 12.0712 24.6365 12.5512L24.6354 12.59C24.5431 12.7694 24.4275 12.8989 24.2346 12.9733C23.9803 13.0714 23.7291 13.0145 23.491 12.9037C23.4307 12.8621 23.3575 12.8155 23.3095 12.7603C23.264 12.7079 23.2542 12.6731 23.2597 12.6062C23.4692 12.3829 23.9757 12.6595 24.257 12.5098C24.3184 12.4771 24.3453 12.4391 24.3648 12.3725C24.4409 12.1113 24.3287 11.5841 24.3775 11.265C24.4344 10.8925 24.5845 10.5245 24.7054 10.1689Z" fill="#C27330"/>
<path d="M25.1783 10.4952C25.1902 10.3972 25.2131 10.339 25.291 10.2746C25.4476 10.1451 25.7509 10.1147 25.9442 10.1431C26.1633 10.1752 26.3158 10.3076 26.4379 10.4851C26.4963 10.5698 26.617 10.8509 26.695 10.8648C26.7158 10.8685 26.7618 10.8666 26.7838 10.866L26.9126 10.8625L26.9388 10.89C26.8448 10.9643 26.7226 10.9888 26.6061 11.0023C26.5971 10.9959 26.5872 10.9905 26.5789 10.9831C26.4708 10.8857 26.3983 10.6453 26.3224 10.5155C26.3148 10.5665 26.3197 10.5885 26.3272 10.6386C26.3558 10.8276 26.3426 11.0451 26.2234 11.203C26.1263 11.3316 25.9576 11.4065 25.8002 11.4237C25.722 11.4322 25.6498 11.4223 25.5729 11.4092C25.4962 11.4321 25.387 11.423 25.3136 11.3858C25.2213 11.339 25.1585 11.2567 25.124 11.1601C25.0325 10.9047 25.0696 10.7305 25.1783 10.4952Z" fill="#020000"/>
<path d="M25.1783 10.4952C25.3762 10.3261 25.5427 10.2597 25.806 10.2778C25.8814 10.283 25.9574 10.296 26.032 10.3074L26.0358 10.328C25.8384 10.3173 25.6159 10.3117 25.4604 10.458C25.4514 10.4665 25.4438 10.4764 25.4355 10.4856C25.4388 10.5271 25.4312 10.5085 25.4547 10.5379C25.5019 10.5973 25.5271 10.6346 25.5413 10.7116C25.5227 10.7824 25.5204 10.7915 25.4669 10.8407C25.3979 10.8295 25.3617 10.8031 25.3048 10.7651C25.2545 10.8436 25.2443 10.9453 25.2649 11.0365C25.3039 11.2092 25.4265 11.3219 25.5729 11.4092C25.4962 11.432 25.387 11.423 25.3136 11.3858C25.2213 11.339 25.1585 11.2567 25.124 11.16C25.0325 10.9046 25.0696 10.7305 25.1783 10.4952Z" fill="white"/>
<path d="M21.5188 9.36269C21.5114 9.35726 21.5039 9.35187 21.4966 9.34632C21.3905 9.26631 21.3561 9.20992 21.3364 9.07815C21.3929 9.08111 21.46 9.10244 21.5148 9.09732C21.6262 9.08688 21.7287 9.01957 21.8337 8.98429C22.1632 8.87368 22.5315 8.93626 22.7708 9.19812C22.88 9.31772 22.9607 9.4838 22.947 9.64955C22.9436 9.69112 22.9419 9.69214 22.9327 9.72682C22.9237 9.67125 22.9215 9.59575 22.8964 9.5461L22.8998 9.5789C22.9181 9.77055 22.9034 9.94966 22.7753 10.1034C22.6628 10.2383 22.4723 10.3241 22.2981 10.3335C22.1879 10.3394 22.1 10.301 21.9954 10.278C21.9638 10.2709 21.9243 10.2642 21.8946 10.2498C21.6956 10.1534 21.5304 9.89946 21.4765 9.69068C21.4429 9.56054 21.4529 9.47831 21.5188 9.36269Z" fill="#020000"/>
<path d="M22.0753 9.32471C22.1454 9.35971 22.1882 9.37975 22.2291 9.45072C22.224 9.53866 22.2079 9.55179 22.158 9.62115C22.075 9.59444 22.035 9.58502 21.9819 9.51452C21.9846 9.42939 22.0249 9.38809 22.0753 9.32471Z" fill="white"/>
<path d="M21.519 9.36262C21.7705 9.20161 22.0733 9.05779 22.3826 9.11556C22.4157 9.12175 22.4198 9.12573 22.4457 9.1391C22.4028 9.14233 22.3349 9.12607 22.2973 9.13646C22.1857 9.16754 21.9811 9.35084 21.9078 9.43667C21.8166 9.54345 21.7556 9.67349 21.7734 9.81636C21.795 9.98916 21.8863 10.1464 21.9957 10.2779C21.9641 10.2708 21.9246 10.2641 21.8949 10.2497C21.6958 10.1533 21.5307 9.89939 21.4768 9.69061C21.4432 9.56047 21.4532 9.47824 21.519 9.36262Z" fill="white"/>
<path d="M24.1987 13.9C23.9677 14.2403 23.7221 14.6682 23.3635 14.8867C23.1198 15.0353 22.8138 15.0718 22.5396 15.0008C22.1425 14.8978 21.8206 14.6076 21.6163 14.2596C21.4169 13.9198 21.2089 13.2126 21.3075 12.8311L21.3583 12.812C22.1365 13.137 22.9219 13.4391 23.7308 13.6783C23.8586 13.7161 24.145 13.7636 24.2241 13.8747L24.1987 13.9Z" fill="#E74C31"/>
<path d="M21.3984 12.9683C21.9801 13.3447 22.6305 13.6884 23.3159 13.8254C23.5516 13.8726 23.8524 13.8416 24.0703 13.9341C23.9875 13.9954 23.9006 14.0388 23.803 14.0727C23.3327 14.2355 22.7438 14.0762 22.3174 13.8575C21.9549 13.6717 21.5297 13.3692 21.3984 12.9683Z" fill="white"/>
<path d="M16.7223 11.0283C17.1075 11.3989 17.4895 12.331 17.7478 12.8272C17.9631 13.2409 18.1921 13.6537 18.4407 14.0485C18.7755 14.5802 19.2168 15.0092 19.5853 15.5098C19.421 15.862 19.225 16.2017 19.07 16.5574C19.0431 16.5619 19.0442 16.5654 19.0179 16.555C18.8812 16.5013 18.6964 16.2651 18.594 16.16C17.6063 15.1459 16.9053 13.8988 16.3218 12.6161C16.6253 12.0331 16.6982 11.6848 16.7223 11.0283Z" fill="#C27330"/>
<path d="M16.3217 12.6157C16.9053 13.8984 17.6063 15.1456 18.594 16.1596C18.6964 16.2648 18.8812 16.5009 19.0179 16.5547C19.0442 16.565 19.043 16.5615 19.07 16.557L19.1221 16.6139C19.5248 16.9081 19.8872 17.2883 20.0983 17.7454C20.1987 17.8645 20.3047 17.9812 20.3909 18.1111C20.6243 18.4662 20.8237 18.827 20.9726 19.2259C21.2071 19.8538 21.3258 20.5341 21.4481 21.1911C21.6661 22.3625 21.8252 23.5453 22.0737 24.711C22.3319 25.9221 22.7053 27.1103 22.9323 28.327C22.8437 28.7114 22.6712 29.2317 22.3284 29.4503C21.9276 29.706 21.2476 29.9573 20.7888 30.1177L20.9414 30.5247C21.3599 31.195 21.5544 32.0469 22.0789 32.649C21.9924 32.7082 21.8815 32.7679 21.8133 32.8472L21.9314 33.1461C21.4625 33.472 20.9467 33.7532 20.4422 34.0207C18.6302 34.9813 16.6975 35.705 14.6587 35.9876C14.1811 36.0539 13.6834 36.1115 13.2016 36.078C13.0748 36.0348 12.9604 35.9822 12.8417 35.9211C12.3071 36.2656 11.5868 36.5053 10.9727 36.6675C8.44176 37.3364 5.48231 37.0112 3.21131 35.6856C2.53743 35.2923 1.83102 34.7261 1.625 33.9398C1.62658 33.8973 1.63112 33.8564 1.6389 33.8146C1.79229 32.9883 2.62618 32.0223 3.07147 31.3142C3.34034 30.8866 3.57421 30.42 3.75734 29.9488C4.25502 28.6683 4.3974 27.3079 4.69572 25.9753C5.42624 22.7119 6.83446 18.8523 9.69312 16.8464C9.98951 16.6516 10.299 16.4758 10.6105 16.3063C11.0831 16.075 11.5613 15.8649 12.0516 15.6739C12.8395 15.4717 13.6941 15.0619 14.5088 14.9044C15.0644 14.7063 16.0047 13.1701 16.3217 12.6157Z" fill="#F56652"/>
<path d="M12.0515 15.6739C12.8394 15.4716 13.694 15.0618 14.5087 14.9043C14.4992 14.9123 14.4898 14.9203 14.4801 14.9282C14.4165 14.9802 14.3408 15.0125 14.2743 15.0604C13.9761 15.2751 13.8525 15.5787 13.8087 15.9333C13.6413 17.2901 14.5267 19.0645 15.3511 20.106C15.8015 20.6751 16.3783 21.3068 17.0944 21.5278C17.2255 22.0112 17.368 22.4911 17.5102 22.9713C17.2405 22.9832 16.9765 22.9669 16.7123 22.9097C15.2827 22.6005 14.1651 21.3612 13.4055 20.1797C12.5828 18.8999 11.7147 17.2288 12.0515 15.6739Z" fill="white"/>
<path d="M16.3216 12.6157C16.9052 13.8984 17.6061 15.1456 18.5939 16.1596C18.6963 16.2648 18.881 16.5009 19.0178 16.5547C19.044 16.565 19.0429 16.5615 19.0698 16.557L19.122 16.6139C19.5246 16.9081 19.8871 17.2883 20.0981 17.7454C20.1986 17.8645 20.3045 17.9812 20.3908 18.1111C20.3275 18.1743 20.2792 18.2275 20.2369 18.3066L20.1412 18.2204C20.15 19.6949 19.7721 21.3056 18.7161 22.3912C18.3336 22.6976 17.9955 22.8866 17.5101 22.9713C17.3679 22.4912 17.2255 22.0113 17.0943 21.5278C16.3782 21.3069 15.8014 20.6751 15.3511 20.1061C14.5267 19.0645 13.6412 17.2901 13.8086 15.9333C13.8524 15.5787 13.9761 15.2751 14.2743 15.0604C14.3408 15.0125 14.4164 14.9802 14.4801 14.9282C14.4897 14.9204 14.4992 14.9123 14.5087 14.9043C15.0643 14.7063 16.0046 13.1701 16.3216 12.6157Z" fill="#F2AB4E"/>
<path d="M19.1219 16.6143C19.5246 16.9084 19.887 17.2886 20.0981 17.7457C20.1985 17.8648 20.3045 17.9815 20.3907 18.1114C20.3274 18.1746 20.2792 18.2279 20.2368 18.307L20.1411 18.2207C20.1499 19.6952 19.7721 21.3059 18.716 22.3915C18.3335 22.6979 17.9955 22.8869 17.5101 22.9717C17.3678 22.4915 17.2254 22.0116 17.0942 21.5282C17.2929 21.5619 17.47 21.5686 17.6677 21.527C18.1073 21.4345 18.4665 21.1444 18.7041 20.7715C19.4674 19.5741 19.4089 17.9456 19.1219 16.6143Z" fill="#F5E0BE"/>
<path d="M20.0982 17.7456C20.1986 17.8647 20.3046 17.9814 20.3908 18.1113C20.3275 18.1745 20.2793 18.2277 20.237 18.3068L20.1413 18.2206C20.133 18.0609 20.0926 17.9065 20.0982 17.7456Z" fill="#F56652"/>
<path d="M20.391 18.1113C20.6244 18.4664 20.8238 18.8272 20.9727 19.2261C21.2072 19.8541 21.3259 20.5343 21.4482 21.1914C21.6663 22.3627 21.8253 23.5456 22.0738 24.7112C22.332 25.9223 22.7054 27.1105 22.9324 28.3272C22.8438 28.7116 22.6714 29.2319 22.3285 29.4506C21.9277 29.7063 21.2477 29.9575 20.7889 30.1179C20.7377 30.0838 20.7523 30.0792 20.6853 30.0922C20.1533 30.1959 19.6421 30.4594 19.1047 30.5474C18.5788 30.6843 15.1926 31.6352 14.9793 31.532L14.971 31.502C14.743 30.55 14.6054 29.3289 14.4707 28.3434C14.5979 28.364 14.7289 28.4249 14.856 28.4565C15.1773 28.5363 15.5011 28.5828 15.8323 28.5895C16.7804 28.6086 17.9312 28.3277 18.6314 27.6516C19.3782 26.9305 19.5056 25.9664 19.2578 24.9952C19.1223 24.4643 18.9096 23.9509 18.7947 23.4151C18.7207 23.0701 18.7105 22.7433 18.7164 22.3914C19.7724 21.3058 20.1502 19.6952 20.1415 18.2207L20.2372 18.3069C20.2795 18.2277 20.3277 18.1745 20.391 18.1113Z" fill="#EE811F"/>
<path d="M20.141 18.2207L20.2367 18.3069C20.7154 20.0033 20.1012 22.1158 19.4101 23.6778C19.4744 24.1414 19.5682 24.603 19.6089 25.0693C19.7128 26.262 19.4113 27.3765 18.6854 28.3335C18.6286 28.4085 18.5662 28.4789 18.5029 28.5483C18.7406 29.2012 18.8785 29.8894 19.1042 30.5474C18.5783 30.6843 15.1922 31.6353 14.9788 31.532L14.9705 31.502C14.7425 30.55 14.6049 29.3289 14.4702 28.3434C14.5975 28.3641 14.7284 28.4249 14.8555 28.4565C15.1768 28.5364 15.5006 28.5829 15.8319 28.5895C16.7799 28.6086 17.9307 28.3277 18.6309 27.6517C19.3777 26.9305 19.5051 25.9664 19.2573 24.9953C19.1218 24.4643 18.9091 23.9509 18.7942 23.4151C18.7202 23.0701 18.71 22.7434 18.7159 22.3914C19.7719 21.3059 20.1497 19.6952 20.141 18.2207Z" fill="#E74C31"/>
<path d="M14.9707 31.502C15.2455 31.1078 15.767 30.3035 16.117 30.0237C16.3869 29.8081 16.7699 29.7092 17.0809 29.5619C17.6194 29.3069 18.069 28.9505 18.5031 28.5483C18.7409 29.2013 18.8787 29.8894 19.1044 30.5474C18.5785 30.6843 15.1924 31.6353 14.979 31.532L14.9707 31.502Z" fill="white"/>
<path d="M12.8417 35.9216C12.5852 35.7315 12.3153 35.5006 12.1439 35.2281C11.7303 34.5704 11.4674 33.7979 11.1855 33.0758C10.5391 31.4206 9.9905 29.7257 9.47915 28.0245C9.08572 26.7155 8.70641 25.3947 8.43879 24.0535C8.16356 22.6743 7.76513 20.7174 8.60642 19.4719C8.99612 18.895 9.53203 18.5572 10.2148 18.429C10.809 18.3174 11.3835 18.41 11.8839 18.7595C12.583 19.248 13.0012 20.06 13.2707 20.8472C13.5517 21.6682 13.6261 22.529 13.7533 23.3824C13.9994 25.0332 14.1901 26.6988 14.4705 28.3436C14.6052 29.3291 14.7428 30.5502 14.9708 31.5022L14.9791 31.5322C15.1925 31.6355 18.5786 30.6845 19.1045 30.5476C19.6419 30.4596 20.1531 30.1961 20.6851 30.0925C20.7521 30.0794 20.7375 30.084 20.7888 30.1182L20.9414 30.5252C21.3598 31.1954 21.5543 32.0474 22.0788 32.6495C21.9923 32.7087 21.8814 32.7683 21.8132 32.8477L21.9313 33.1466C21.4624 33.4724 20.9466 33.7536 20.4421 34.0211C18.6302 34.9817 16.6974 35.7054 14.6586 35.9881C14.181 36.0543 13.6833 36.1119 13.2015 36.0785C13.0747 36.0352 12.9603 35.9827 12.8417 35.9216Z" fill="#F2AB4E"/>
<path d="M20.9414 30.5249C21.3599 31.1952 21.5544 32.0471 22.0789 32.6492C21.9924 32.7084 21.8815 32.7681 21.8132 32.8474C21.8106 32.6856 21.3217 31.6936 21.2198 31.4306C21.1048 31.134 21.0039 30.8372 20.9414 30.5249Z" fill="#EE811F"/>
<path d="M14.79 31.5544C14.8273 31.553 14.8645 31.5583 14.9017 31.5616C14.8341 31.6827 14.5645 31.7893 14.4427 31.8745C13.9308 32.2327 13.6496 33.1015 13.5024 33.6794C13.4975 33.0221 13.6778 32.5431 14.0844 32.0309L14.1081 31.9821L14.0743 31.9665C13.5215 32.1709 13.1138 32.5802 12.6909 32.9702C13.2896 32.0521 13.7565 31.8794 14.79 31.5544Z" fill="#C27330"/>
</svg>
