<svg width="12" height="12" viewBox="0 0 12 12" fill="none" xmlns="http://www.w3.org/2000/svg">
<g clip-path="url(#clip0_702_1174)">
<path d="M5.62549 0.468781C4.60568 0.468781 3.60877 0.771189 2.76083 1.33777C1.91289 1.90434 1.252 2.70964 0.861737 3.65182C0.471472 4.594 0.369361 5.63075 0.568317 6.63097C0.767272 7.63118 1.25836 8.54994 1.97947 9.27105C2.70059 9.99217 3.61934 10.4833 4.61956 10.6822C5.61977 10.8812 6.65652 10.779 7.5987 10.3888C8.54088 9.99852 9.34618 9.33763 9.91276 8.48969C10.4793 7.64175 10.7817 6.64484 10.7817 5.62503C10.7801 4.258 10.2364 2.94743 9.26973 1.98079C8.30309 1.01416 6.99252 0.470393 5.62549 0.468781ZM7.36315 7.36269C7.27524 7.45056 7.15604 7.49993 7.03174 7.49993C6.90745 7.49993 6.78824 7.45056 6.70034 7.36269L5.29409 5.95644C5.20617 5.86855 5.15677 5.74934 5.15674 5.62503V2.81253C5.15674 2.68821 5.20613 2.56898 5.29403 2.48107C5.38194 2.39317 5.50117 2.34378 5.62549 2.34378C5.74981 2.34378 5.86904 2.39317 5.95695 2.48107C6.04486 2.56898 6.09424 2.68821 6.09424 2.81253V5.43097L7.36315 6.69988C7.45102 6.78778 7.50039 6.90699 7.50039 7.03128C7.50039 7.15558 7.45102 7.27478 7.36315 7.36269Z" fill="white"/>
</g>
<defs>
<clipPath id="clip0_702_1174">
<rect width="11.25" height="11.25" fill="white"/>
</clipPath>
</defs>
</svg>
