<svg width="14" height="14" viewBox="0 0 14 14" fill="none" xmlns="http://www.w3.org/2000/svg">
<path d="M11.9522 2.04807C9.22088 -0.682691 4.77896 -0.682691 2.04762 2.04807C-0.68254 4.77884 -0.68254 9.22191 2.04762 11.9527C3.41329 13.3178 5.20674 14 7.00022 14C8.7937 14 10.5866 13.3177 11.9522 11.9527C14.683 9.22194 14.683 4.77884 11.9522 2.04807ZM9.88854 9.06376C10.1167 9.29194 10.1167 9.6608 9.88854 9.88899C9.83441 9.94326 9.77009 9.9863 9.69928 10.0156C9.62847 10.045 9.55256 10.0601 9.47591 10.06C9.39926 10.0601 9.32335 10.045 9.25254 10.0156C9.18173 9.9863 9.11741 9.94326 9.06328 9.88899L7.00019 7.8253L4.93768 9.88838C4.82823 9.99781 4.67983 10.0593 4.52506 10.0594C4.44841 10.0595 4.3725 10.0444 4.30169 10.015C4.23088 9.9857 4.16656 9.94265 4.11243 9.88838C3.88424 9.6602 3.88424 9.29077 4.11243 9.06316L6.17494 7.00007L4.11185 4.93699C3.88367 4.7088 3.88367 4.33937 4.11185 4.11176C4.33947 3.88357 4.7089 3.88357 4.93708 4.11176L7.00017 6.17484L9.06325 4.11176C9.29144 3.88357 9.6603 3.88357 9.88848 4.11176C10.1167 4.33937 10.1167 4.7088 9.88848 4.93699L7.8254 7.00007L9.88854 9.06376Z" fill="#949494"/>
</svg>
