<svg width="30" height="30" viewBox="0 0 30 30" fill="none" xmlns="http://www.w3.org/2000/svg">
<path d="M14.8571 11.9235C16.8107 11.9235 18.3944 10.3398 18.3944 8.38619C18.3944 6.43259 16.8107 4.84888 14.8571 4.84888C12.9035 4.84888 11.3198 6.43259 11.3198 8.38619C11.3198 10.3398 12.9035 11.9235 14.8571 11.9235Z" fill="#A0A0A0"/>
<path d="M4.92834 14.7395C6.8819 14.7395 8.46557 13.1558 8.46557 11.2023C8.46557 9.24872 6.8819 7.66504 4.92834 7.66504C2.97478 7.66504 1.39111 9.24872 1.39111 11.2023C1.39111 13.1558 2.97478 14.7395 4.92834 14.7395Z" fill="#A0A0A0"/>
<path d="M24.7377 14.7395C26.6912 14.7395 28.2749 13.1558 28.2749 11.2023C28.2749 9.24872 26.6912 7.66504 24.7377 7.66504C22.7841 7.66504 21.2004 9.24872 21.2004 11.2023C21.2004 13.1558 22.7841 14.7395 24.7377 14.7395Z" fill="#A0A0A0"/>
<path fill-rule="evenodd" clip-rule="evenodd" d="M7.38662 16.3175C7.05589 16.2183 6.71244 16.168 6.36716 16.1682H3.53731C2.59916 16.1682 1.69943 16.5409 1.03605 17.2043C0.37268 17.8677 0 18.7674 0 19.7055V25.3652C0 25.5529 0.074536 25.7328 0.207211 25.8655C0.339886 25.9982 0.519832 26.0727 0.707462 26.0727H7.19631C7.11568 25.8456 7.07453 25.6063 7.07462 25.3652V18.2906C7.07462 17.6015 7.18428 16.9387 7.38662 16.3175ZM21.2239 18.2906V25.3652C21.2242 25.4582 21.206 25.5503 21.1706 25.6363C21.1351 25.7223 21.083 25.8004 21.0173 25.8661C20.9515 25.9319 20.8734 25.984 20.7875 26.0194C20.7015 26.0549 20.6094 26.073 20.5164 26.0727H9.19701C9.10403 26.073 9.01191 26.0549 8.92595 26.0194C8.83999 25.984 8.76189 25.9319 8.69614 25.8661C8.63039 25.8004 8.57829 25.7223 8.54283 25.6363C8.50738 25.5503 8.48927 25.4582 8.48955 25.3652V18.2906C8.48955 16.9772 9.0113 15.7176 9.94003 14.7889C10.8688 13.8601 12.1284 13.3384 13.4418 13.3384H16.2716C16.922 13.3384 17.5659 13.4665 18.1668 13.7153C18.7676 13.9642 19.3135 14.329 19.7734 14.7889C20.2333 15.2487 20.598 15.7946 20.8469 16.3955C21.0958 16.9963 21.2239 17.6403 21.2239 18.2906ZM22.5171 26.0727H29.006C29.1936 26.0727 29.3735 25.9982 29.5062 25.8655C29.6389 25.7328 29.7134 25.5529 29.7134 25.3652V19.7055C29.7134 18.7674 29.3407 17.8677 28.6774 17.2043C28.014 16.5409 27.1143 16.1682 26.1761 16.1682H23.3463C22.9918 16.1682 22.6501 16.2206 22.3268 16.3175C22.5291 16.9387 22.6388 17.6015 22.6388 18.2906V25.3652C22.6388 25.6086 22.5971 25.8477 22.5171 26.0727Z" fill="#A0A0A0"/>
</svg>
