<svg width="30" height="22" viewBox="0 0 30 22" fill="none" xmlns="http://www.w3.org/2000/svg">
<path d="M14.8571 7.07462C16.8107 7.07462 18.3944 5.49092 18.3944 3.53731C18.3944 1.58371 16.8107 0 14.8571 0C12.9035 0 11.3198 1.58371 11.3198 3.53731C11.3198 5.49092 12.9035 7.07462 14.8571 7.07462Z" fill="#298B97"/>
<path d="M4.92834 9.89063C6.8819 9.89063 8.46557 8.30696 8.46557 6.3534C8.46557 4.39984 6.8819 2.81616 4.92834 2.81616C2.97478 2.81616 1.39111 4.39984 1.39111 6.3534C1.39111 8.30696 2.97478 9.89063 4.92834 9.89063Z" fill="#298B97"/>
<path d="M24.7379 9.89063C26.6915 9.89063 28.2751 8.30696 28.2751 6.3534C28.2751 4.39984 26.6915 2.81616 24.7379 2.81616C22.7844 2.81616 21.2007 4.39984 21.2007 6.3534C21.2007 8.30696 22.7844 9.89063 24.7379 9.89063Z" fill="#298B97"/>
<path fill-rule="evenodd" clip-rule="evenodd" d="M7.38662 11.4686C7.05589 11.3694 6.71244 11.3192 6.36716 11.3194H3.53731C2.59916 11.3194 1.69943 11.692 1.03605 12.3554C0.37268 13.0188 0 13.9185 0 14.8567V20.5164C0 20.704 0.074536 20.8839 0.207211 21.0166C0.339886 21.1493 0.519832 21.2238 0.707462 21.2238H7.19631C7.11568 20.9967 7.07453 20.7574 7.07462 20.5164V13.4417C7.07462 12.7527 7.18428 12.0898 7.38662 11.4686ZM21.2239 13.4417V20.5164C21.2242 20.6093 21.206 20.7015 21.1706 20.7874C21.1351 20.8734 21.083 20.9515 21.0173 21.0172C20.9515 21.083 20.8734 21.1351 20.7875 21.1705C20.7015 21.206 20.6094 21.2241 20.5164 21.2238H9.19701C9.10403 21.2241 9.01191 21.206 8.92595 21.1705C8.83999 21.1351 8.76189 21.083 8.69614 21.0172C8.63039 20.9515 8.57829 20.8734 8.54283 20.7874C8.50738 20.7015 8.48927 20.6093 8.48955 20.5164V13.4417C8.48955 12.1283 9.0113 10.8687 9.94003 9.93998C10.8688 9.01125 12.1284 8.4895 13.4418 8.4895H16.2716C16.922 8.4895 17.5659 8.61759 18.1668 8.86647C18.7676 9.11534 19.3135 9.48012 19.7734 9.93998C20.2333 10.3998 20.598 10.9458 20.8469 11.5466C21.0958 12.1474 21.2239 12.7914 21.2239 13.4417ZM22.5171 21.2238H29.006C29.1936 21.2238 29.3735 21.1493 29.5062 21.0166C29.6389 20.8839 29.7134 20.704 29.7134 20.5164V14.8567C29.7134 13.9185 29.3407 13.0188 28.6774 12.3554C28.014 11.692 27.1143 11.3194 26.1761 11.3194H23.3463C22.9918 11.3194 22.6501 11.3717 22.3268 11.4686C22.5291 12.0898 22.6388 12.7527 22.6388 13.4417V20.5164C22.6388 20.7597 22.5971 20.9989 22.5171 21.2238Z" fill="#298B97"/>
</svg>
