<svg width="21" height="21" viewBox="0 0 21 21" fill="none" xmlns="http://www.w3.org/2000/svg">
<g clip-path="url(#clip0_1150_9060)">
<path d="M12.9609 14.7632C13.3007 14.7632 13.5762 14.4877 13.5762 14.1479C13.5762 13.8082 13.3007 13.5327 12.9609 13.5327C12.6212 13.5327 12.3457 13.8082 12.3457 14.1479C12.3457 14.4877 12.6212 14.7632 12.9609 14.7632Z" fill="#298B97"/>
<path d="M8.03906 7.38037C8.37885 7.38037 8.6543 7.10492 8.6543 6.76514C8.6543 6.42535 8.37885 6.1499 8.03906 6.1499C7.69928 6.1499 7.42383 6.42535 7.42383 6.76514C7.42383 7.10492 7.69928 7.38037 8.03906 7.38037Z" fill="#298B97"/>
<path d="M20.0397 9.06903C19.3416 8.6124 19.0796 7.63369 19.4551 6.88806C19.7838 6.23739 19.8186 5.67863 19.5579 5.22742C19.2972 4.77621 18.7961 4.52688 18.0679 4.48541C17.2346 4.43853 16.5184 3.72235 16.4715 2.88842C16.43 2.16085 16.1807 1.65976 15.7295 1.39902C15.2783 1.14009 14.7195 1.17372 14.0689 1.50177C13.3232 1.87427 12.3439 1.61534 11.8873 0.917172C11.0882 -0.302469 9.91184 -0.302469 9.11277 0.917172C8.65557 1.61472 7.67743 1.87608 6.93123 1.50177C6.27994 1.17372 5.72119 1.14009 5.27059 1.39902C4.81938 1.65976 4.57004 2.16085 4.52858 2.88904C4.4817 3.72235 3.76552 4.43853 2.93159 4.48541C2.20402 4.52688 1.70293 4.77621 1.44219 5.22742C1.18146 5.67863 1.21628 6.23739 1.54494 6.88806C1.92043 7.63369 1.65851 8.6124 0.959725 9.0696C0.350438 9.46979 0 9.93602 0 10.4569C0 10.9778 0.350438 11.4447 0.960258 11.8442C1.65838 12.3014 1.92035 13.2801 1.54485 14.0257C1.2162 14.6764 1.18137 15.2352 1.44211 15.6864C1.70285 16.1376 2.20393 16.3869 2.93212 16.4284C3.76544 16.4753 4.48161 17.1914 4.52849 18.0254C4.56996 18.7529 4.81929 19.254 5.27051 19.5148C5.72234 19.7749 6.27986 19.7401 6.93115 19.412C7.67677 19.0371 8.65487 19.2979 9.11269 19.9972C9.51284 20.6065 9.97906 20.9979 10.5 20.9979C11.0209 20.9979 11.4871 20.6064 11.8878 19.9966C12.3439 19.2973 13.3208 19.0341 14.0688 19.412C14.7195 19.7401 15.28 19.7749 15.7295 19.5148C16.1807 19.254 16.43 18.7529 16.4715 18.0247C16.5183 17.1914 17.2345 16.4753 18.0684 16.4284C18.796 16.3869 19.2971 16.1376 19.5578 15.6864C19.8186 15.2352 19.7838 14.6764 19.4551 14.0257C19.0796 13.2801 19.3415 12.3014 20.0397 11.8442C20.6496 11.4447 21 10.9778 21 10.4569C21 9.93602 20.6496 9.46979 20.0397 9.06903ZM8.03906 4.9198C9.05682 4.9198 9.88477 5.74775 9.88477 6.76551C9.88477 7.78327 9.05682 8.61121 8.03906 8.61121C7.0213 8.61121 6.19336 7.78327 6.19336 6.76551C6.19336 5.74775 7.0213 4.9198 8.03906 4.9198ZM7.30066 15.7477L6.31653 15.0099L13.6993 5.16614L14.6835 5.90393L7.30066 15.7477ZM12.9609 15.994C11.9432 15.994 11.1152 15.1661 11.1152 14.1483C11.1152 13.1306 11.9432 12.3026 12.9609 12.3026C13.9787 12.3026 14.8066 13.1306 14.8066 14.1483C14.8066 15.1661 13.9787 15.994 12.9609 15.994Z" fill="#298B97"/>
</g>
<defs>
<clipPath id="clip0_1150_9060">
<rect width="21" height="21" fill="white"/>
</clipPath>
</defs>
</svg>
