<svg width="32" height="57" viewBox="0 0 32 57" fill="none" xmlns="http://www.w3.org/2000/svg">
<path d="M13.9352 53.8795L13.6888 51.8149H10.5303L10.6074 54.3262L13.9352 53.8795Z" fill="#DC8B6B"/>
<path d="M14.2892 53.314L18.1877 54.9744C18.1877 54.9744 18.7175 55.1661 18.9526 55.6531C19.0619 55.8799 18.9007 56.1439 18.6489 56.1439H10.709C10.5213 56.1439 10.3692 55.9912 10.3701 55.8034L10.3815 53.3678C10.3815 53.3678 10.7578 53.1525 11.361 53.7839C11.9644 54.4153 13.1802 52.8417 14.2892 53.314Z" fill="#F8F4E3"/>
<path d="M10.3721 55.3486H18.74" stroke="#1B2031" stroke-width="0.112349" stroke-miterlimit="10" stroke-linecap="round" stroke-linejoin="round"/>
<path d="M14.8926 53.5718L18.3072 54.9926C18.3072 54.9926 18.873 55.3288 18.9526 55.6538C19.0321 55.9791 18.8955 56.0962 18.6489 56.1446" stroke="#1B2031" stroke-width="0.112349" stroke-miterlimit="10" stroke-linecap="round" stroke-linejoin="round"/>
<path d="M23.6466 53.8795L23.9936 51.8149H20.6868L20.3188 54.3262L23.6466 53.8795Z" fill="#DC8B6B"/>
<path d="M24.0004 53.314L26.8606 54.9744C26.8606 54.9744 27.3904 55.1661 27.6254 55.6531C27.7349 55.8799 27.5734 56.1439 27.3218 56.1439H20.4204C20.2327 56.1439 20.0806 55.9912 20.0815 55.8034L20.2414 53.3678C20.2414 53.3678 20.4692 53.1525 21.0726 53.7839C21.6757 54.4153 22.8915 52.8417 24.0004 53.314Z" fill="white"/>
<path d="M20.0835 55.3486H27.413" stroke="#1B2031" stroke-width="0.112349" stroke-miterlimit="10" stroke-linecap="round" stroke-linejoin="round"/>
<path d="M16.2873 53.8795L16.6342 51.8149H13.3274L12.9595 54.3262L16.2873 53.8795Z" fill="#DC8B6B"/>
<path d="M16.6396 53.314L19.4997 54.9744C19.4997 54.9744 20.0296 55.1661 20.2646 55.6531C20.3739 55.8799 20.2128 56.1439 19.9609 56.1439H13.0596C12.8719 56.1439 12.7198 55.9912 12.7207 55.8034L12.8805 53.3678C12.8805 53.3678 13.1084 53.1525 13.7118 53.7839C14.3149 54.4153 15.5306 52.8417 16.6396 53.314Z" fill="white"/>
<path d="M12.7227 55.3486H20.0522" stroke="#1B2031" stroke-width="0.112349" stroke-miterlimit="10" stroke-linecap="round" stroke-linejoin="round"/>
<path d="M13.2755 52.1611L13.126 53.1817" stroke="#1B2031" stroke-width="0.112349" stroke-miterlimit="10" stroke-linecap="round" stroke-linejoin="round"/>
<path d="M3.76823 53.8798L4.11516 51.8153L1.22225 50.3726L0.291992 54.3265L3.76823 53.8798Z" fill="#DC8B6B"/>
<path d="M3.97373 53.314L7.87226 54.9744C7.87226 54.9744 8.40209 55.1661 8.63713 55.6531C8.74648 55.8799 8.58515 56.1439 8.33349 56.1439H0.393538C0.20584 56.1439 0.0537927 55.9912 0.0546915 55.8034L0.197901 53.62C0.210184 53.4321 0.411514 53.3161 0.578241 53.4039C0.699129 53.4674 0.853271 53.5827 1.04561 53.7841C1.649 54.4153 2.86477 52.8417 3.97373 53.314Z" fill="#F8F4E3"/>
<path d="M0.0561523 55.3486H8.42408" stroke="#1B2031" stroke-width="0.112349" stroke-miterlimit="10" stroke-linecap="round" stroke-linejoin="round"/>
<path d="M4.57666 53.5703L7.99133 54.9912C7.99133 54.9912 8.55712 55.3273 8.63666 55.6524C8.71621 55.9776 8.57959 56.0947 8.33302 56.1431" stroke="#1B2031" stroke-width="0.112349" stroke-miterlimit="10" stroke-linecap="round" stroke-linejoin="round"/>
<path d="M12.1596 6.25527C12.2135 7.43598 11.4453 8.63243 9.7863 8.40578V10.1078C9.7863 10.1078 9.21018 10.6609 7.94962 10.634C6.59873 10.6054 6.22678 9.98662 6.22678 9.98662L6.42197 6.12809C6.31591 6.1576 6.19697 6.15161 6.19697 6.15161C6.19697 6.15161 5.38446 6.12809 5.60122 4.91936C5.80524 3.78209 6.42197 4.11239 6.42197 4.11239L6.52098 3.22364C6.52098 3.22364 6.7325 1.46484 9.44746 1.46484C11.5502 1.46484 11.8872 3.24146 11.8872 3.24146C11.8872 3.24146 12.1143 5.26135 12.1596 6.25527Z" fill="#DC8B6B"/>
<path d="M9.78596 9.35891C9.78596 9.35891 7.92935 9.61387 7.0752 7.29348C7.0752 7.29348 11.4934 8.94007 12.1592 6.25537C12.1592 6.25537 12.349 8.75986 9.78596 8.40589V9.35891Z" fill="#BF6D51"/>
<mask id="mask0_1150_20999" style="mask-type:luminance" maskUnits="userSpaceOnUse" x="10" y="3" width="2" height="2">
<path d="M11.8869 3.2417C11.8869 3.2417 11.8869 3.2417 11.9789 4.10559C11.9789 4.10559 10.9501 4.34063 10.8584 3.92973C10.8584 3.92973 10.8749 3.25159 11.8869 3.2417Z" fill="white"/>
</mask>
<g mask="url(#mask0_1150_20999)">
<path d="M12.754 4.10748C12.6751 3.97655 12.5806 3.88503 12.4687 3.80384C12.358 3.72369 12.2324 3.66827 12.1028 3.63022C11.9724 3.59981 11.8376 3.58318 11.7059 3.59427C11.6392 3.59636 11.5759 3.61254 11.5107 3.62168C11.4476 3.63831 11.3855 3.65718 11.324 3.67845C11.2223 3.71381 11.1665 3.83275 11.1994 3.9442C11.2304 4.04921 11.3293 4.11003 11.4259 4.08696L11.4413 4.08321C11.5432 4.05849 11.6425 4.02988 11.7429 4.01835C11.8431 4.00187 11.9426 4.00202 12.0423 4.01041C12.1422 4.0182 12.2398 4.04606 12.3364 4.08321C12.4311 4.11976 12.5298 4.17893 12.6071 4.23825L12.6208 4.24889C12.6638 4.28184 12.723 4.27076 12.753 4.22402C12.7756 4.18837 12.7747 4.14208 12.754 4.10748Z" fill="#1B2031"/>
</g>
<mask id="mask1_1150_20999" style="mask-type:luminance" maskUnits="userSpaceOnUse" x="10" y="4" width="3" height="2">
<path d="M11.9882 4.19281C11.9882 4.19281 12.0631 4.83155 12.1336 5.81079C12.1336 5.81079 11.272 5.96478 10.9102 5.63178C10.743 5.47794 10.6884 5.17909 10.6494 4.73643C10.6496 4.73643 10.9274 4.12121 11.9882 4.19281Z" fill="white"/>
</mask>
<g mask="url(#mask1_1150_20999)">
<path d="M12.7927 4.95406C12.7927 4.95406 11.785 3.93063 10.9277 5.08124C10.9277 5.08124 11.2372 5.61213 11.8602 5.63819C12.4832 5.66426 12.7927 4.95406 12.7927 4.95406Z" fill="white"/>
<mask id="mask2_1150_20999" style="mask-type:luminance" maskUnits="userSpaceOnUse" x="10" y="4" width="3" height="2">
<path d="M12.7927 4.95406C12.7927 4.95406 11.785 3.93063 10.9277 5.08124C10.9277 5.08124 11.2372 5.61213 11.8602 5.63819C12.4832 5.66426 12.7927 4.95406 12.7927 4.95406Z" fill="white"/>
</mask>
<g mask="url(#mask2_1150_20999)">
<path d="M12.4954 5.27431C12.4954 5.60327 12.2288 5.86991 11.8998 5.86991C11.5708 5.86991 11.3042 5.60327 11.3042 5.27431C11.3042 4.94535 11.5708 4.67871 11.8998 4.67871C12.2288 4.67871 12.4954 4.94535 12.4954 5.27431Z" fill="#1B2031"/>
</g>
<path d="M10.9066 5.0471C11.1031 4.45944 11.8739 4.18306 12.3958 4.5252C12.5634 4.62137 12.7006 4.75859 12.8101 4.91423C12.8185 4.92621 12.8155 4.94284 12.8035 4.95123C12.7962 4.95632 12.7872 4.95722 12.7794 4.95438C12.6895 4.92172 12.6095 4.88037 12.53 4.84218C11.9395 4.56669 11.4691 4.62946 10.9499 5.07481C10.9315 5.09429 10.8964 5.07242 10.9066 5.0471Z" fill="#1B2031"/>
</g>
<path d="M10.7749 4.98975C10.8243 5.56557 11.0287 5.66205 11.1515 5.73949C11.1515 5.73949 11.2779 5.81589 11.2276 5.97183C11.1851 6.1032 11.0487 6.22933 10.9293 6.21915" stroke="#1B2031" stroke-width="0.112349" stroke-miterlimit="10" stroke-linecap="round" stroke-linejoin="round"/>
<path d="M10.6375 6.13118C10.6375 6.13118 10.5608 6.03172 10.4419 6.13778" stroke="#1B2031" stroke-width="0.112349" stroke-miterlimit="10" stroke-linecap="round" stroke-linejoin="round"/>
<path d="M10.2872 6.20088C9.98187 5.98397 10.3083 5.74609 10.3083 5.74609" stroke="#1B2031" stroke-width="0.112349" stroke-miterlimit="10" stroke-linecap="round" stroke-linejoin="round"/>
<path d="M9.78567 8.9524C8.55672 8.9524 7.62842 7.62158 7.62842 7.62158C8.02598 7.85452 8.57365 8.19576 9.78567 8.40608V8.9524Z" fill="#1B2031"/>
<path d="M6.4468 5.6934C6.4468 5.6934 6.23798 5.55244 6.30539 5.37343C6.3728 5.19442 6.53024 5.24924 6.53638 5.05615" stroke="#1B2031" stroke-width="0.112349" stroke-miterlimit="10" stroke-linecap="round" stroke-linejoin="round"/>
<path d="M6.35659 4.43925C6.35659 4.43925 6.00831 4.27851 5.93506 4.93493" stroke="#1B2031" stroke-width="0.112349" stroke-miterlimit="10" stroke-linecap="round" stroke-linejoin="round"/>
<path d="M6.65672 6.01807C6.65672 6.01807 6.54377 6.10779 6.42139 6.12862" stroke="#1B2031" stroke-width="0.112349" stroke-miterlimit="10" stroke-linecap="round" stroke-linejoin="round"/>
<path d="M8.42179 4.10718C8.49984 3.9764 8.59346 3.88473 8.70431 3.80354C8.81382 3.72339 8.9383 3.66812 9.06653 3.63007C9.19565 3.59981 9.32928 3.58318 9.45975 3.59427C9.52581 3.59637 9.58843 3.61254 9.65314 3.62168C9.71561 3.63846 9.77717 3.65718 9.83799 3.6786C9.93881 3.71396 9.99408 3.8329 9.96158 3.94435C9.93087 4.04936 9.8329 4.11018 9.73733 4.08711L9.72205 4.08336C9.62123 4.05865 9.52282 4.03003 9.4235 4.0185C9.32433 4.00202 9.22576 4.00217 9.12705 4.01056C9.02803 4.01835 8.93156 4.04606 8.83584 4.08321C8.74206 4.11976 8.64424 4.17878 8.5677 4.23825L8.55406 4.24889C8.51152 4.28185 8.45295 4.27076 8.42329 4.22402C8.40037 4.18792 8.40127 4.14163 8.42179 4.10718Z" fill="#1B2031"/>
<path d="M8.25586 4.95308C8.25586 4.95308 9.26356 3.92966 10.1209 5.08026C10.1209 5.08026 9.81137 5.61115 9.18836 5.63722C8.56535 5.66328 8.25586 4.95308 8.25586 4.95308Z" fill="white"/>
<mask id="mask3_1150_20999" style="mask-type:luminance" maskUnits="userSpaceOnUse" x="8" y="4" width="3" height="2">
<path d="M8.25586 4.95308C8.25586 4.95308 9.26356 3.92966 10.1209 5.08026C10.1209 5.08026 9.81137 5.61115 9.18836 5.63722C8.56535 5.66328 8.25586 4.95308 8.25586 4.95308Z" fill="white"/>
</mask>
<g mask="url(#mask3_1150_20999)">
<path d="M8.77881 5.27431C8.77881 5.60327 9.04545 5.86991 9.37441 5.86991C9.70337 5.86991 9.97001 5.60327 9.97001 5.27431C9.97001 4.94535 9.70337 4.67871 9.37441 4.67871C9.04545 4.67871 8.77881 4.94535 8.77881 5.27431Z" fill="#1B2031"/>
</g>
<path d="M10.0987 5.0748C9.5792 4.6293 9.10928 4.56698 8.51862 4.84231C8.43923 4.88051 8.35923 4.92186 8.26935 4.95451C8.25557 4.95961 8.24044 4.95242 8.23535 4.93879C8.51278 4.40925 9.319 4.17825 9.8 4.58571C9.95594 4.70914 10.0774 4.86523 10.1423 5.04739C10.1519 5.07285 10.1177 5.09442 10.0987 5.0748Z" fill="#1B2031"/>
<path d="M9.89062 6.70166C9.89062 6.70166 10.5903 7.37606 11.2862 6.70166" stroke="#1B2031" stroke-width="0.112349" stroke-miterlimit="10" stroke-linecap="round" stroke-linejoin="round"/>
<path d="M6.42163 4.11235C6.42163 4.11235 6.65787 4.24657 6.66236 4.42169C6.66685 4.5968 6.58132 4.83723 7.21452 4.95437C7.55142 5.01669 7.5619 5.03961 7.68728 4.31967C7.79139 3.72213 8.3133 3.88945 8.33352 3.33864C8.34251 3.09447 8.54234 2.90078 8.78681 2.90003C9.48742 2.89778 10.7484 2.87052 11.5424 2.71742C11.5424 2.71742 11.7822 2.86363 11.8638 3.14974C11.8638 3.14974 11.9217 2.63908 11.9217 2.44839C11.9217 2.44839 12.7174 1.71527 12.2801 1.09435C11.843 0.473584 11.3759 0.577395 11.1631 0.70757C11.1631 0.70757 10.5952 -0.144188 9.73159 0.0213403C8.868 0.187018 8.25547 0.672068 8.25547 0.672068C8.25547 0.672068 7.55336 0.19316 7.11041 1.11937C7.11041 1.11937 6.1481 1.06964 5.93509 2.03973C5.72222 3.00983 6.35662 3.41519 6.42163 4.11235Z" fill="#1B2031"/>
<path d="M9.78596 9.93593L6.24561 9.60742C6.24561 9.60742 8.17457 11.8977 9.43303 11.7244C10.6915 11.5512 9.78596 9.93593 9.78596 9.93593Z" fill="#DC8B6B"/>
<path d="M9.1167 11.3567C9.58048 11.684 9.78585 9.93506 9.78585 9.93506C11.2993 10.461 13.6366 11.6249 14.0833 13.8833C14.7544 17.2764 15.0107 19.1408 12.9226 19.551C10.8346 19.9611 9.1167 11.3567 9.1167 11.3567Z" fill="#8EC8E4"/>
<path d="M11.0729 11.0134C10.2756 10.0275 10.2282 12.6576 9.11746 11.3575L6.24626 9.60742C4.92698 9.83946 1.41719 10.8141 1.8549 14.5849C2.39253 19.2161 2.791 17.2614 2.98139 22.779C2.98139 22.779 6.96275 24.4208 12.7231 24.1221C12.7231 24.1221 12.4448 20.3477 12.2466 18.1109C12.0481 15.874 12.0627 12.2371 11.0729 11.0134Z" fill="#8EC8E4"/>
<path d="M6.61202 14.4336C6.61202 14.4336 7.26948 16.1293 7.80187 19.7144C7.80187 19.7144 9.52651 20.6213 10.7511 21.4481C10.7511 21.4481 4.70462 21.7577 3.6024 21.7577C2.50018 21.7577 3.39119 19.5621 2.62272 17.0733C1.85425 14.5846 5.01995 11.9872 6.61202 14.4336Z" fill="#6DADD8"/>
<path d="M11.52 12.1162C11.52 12.1162 12.2367 14.3455 12.364 19.421C12.364 19.421 12.6588 19.7793 13.5434 19.3565C13.5434 19.3565 12.8454 14.7017 11.52 12.1162Z" fill="#6DADD8"/>
<path d="M11.3374 11.4429C11.3374 11.4429 12.1433 14.0934 12.1379 16.5537" stroke="#1B2031" stroke-width="0.112349" stroke-miterlimit="10" stroke-linecap="round" stroke-linejoin="round"/>
<path d="M5.71484 9.71875C5.71484 9.71875 7.24414 11.0401 9.66085 12.116C9.66085 12.116 10.0094 11.6363 10.1543 10.0703" stroke="#1B2031" stroke-width="0.112349" stroke-miterlimit="10" stroke-linecap="round" stroke-linejoin="round"/>
<path d="M3.09089 20.8462C3.09089 20.8462 1.35786 35.3575 0.0537109 50.8445C0.0537109 50.8445 0.896032 51.6407 5.58055 52.2775C5.58055 52.2775 7.59954 40.7832 8.5632 31.7484L9.40746 52.2775C9.40746 52.2775 10.8271 52.7225 14.6378 52.2775C14.6378 52.2775 15.1527 36.3786 12.5131 21.2093C12.5131 21.2093 7.25395 22.547 3.09089 20.8462Z" fill="#8EC8E4"/>
<path d="M8.56348 31.7485L9.40774 52.2776C9.40774 52.2776 10.042 52.4765 11.6008 52.4753C11.6008 52.4753 10.1178 42.594 8.56348 31.7485Z" fill="#6DADD8"/>
<path d="M13.4673 27.0996C12.4563 28.3415 9.12193 25.9709 9.12193 25.9709C5.1951 24.9148 2.80176 23.3559 2.80176 23.3559C2.93343 22.172 2.85599 21.0938 2.85599 21.0938L13.4673 27.0996Z" fill="#6DADD8"/>
<path d="M7.36621 41.0551C7.36621 41.0551 8.44147 32.3538 9.00441 27.9351" stroke="#1B2031" stroke-width="0.112349" stroke-miterlimit="10" stroke-linecap="round" stroke-linejoin="round"/>
<path d="M12.5129 21.2093C12.5129 21.2093 10.4125 21.9901 3.09082 20.8462" stroke="#1B2031" stroke-width="0.112349" stroke-miterlimit="10" stroke-linecap="round" stroke-linejoin="round"/>
<path d="M2.14209 51.6432C2.14209 51.6432 5.0771 27.5736 5.92002 21.2271" stroke="#1B2031" stroke-width="0.112349" stroke-miterlimit="10" stroke-linecap="round" stroke-linejoin="round"/>
<path d="M11.8984 21.3418C11.8984 21.3418 13.1159 37.4196 13.5438 52.3874" stroke="#1B2031" stroke-width="0.112349" stroke-miterlimit="10" stroke-linecap="round" stroke-linejoin="round"/>
<path d="M14.0196 27.4595C14.0196 27.4595 12.7998 32.2679 13.4876 38.6107C14.1754 44.9535 12.647 51.9076 12.647 51.9076C12.647 51.9076 15.1688 52.7483 17.5378 52.8247C17.5378 52.8247 19.6775 43.3547 19.9832 40.1421C20.289 36.9295 19.9832 29.9753 19.9832 29.9753C19.9832 29.9753 21.5116 38.2345 21.9702 40.1421C22.4287 42.0496 20.2126 52.8247 20.2126 52.8247C20.2126 52.8247 21.5608 53.143 24.2458 53.1063C24.2458 53.1063 26.3936 45.5673 27.1612 40.8335C27.9289 36.0997 25.6259 28.2314 25.6259 28.2314L14.0196 27.4595Z" fill="#4476B8"/>
<path d="M26.9755 34.509C26.4812 31.1544 25.6257 28.2315 25.6257 28.2315L14.0194 27.4595C14.0194 27.4595 13.395 29.9207 13.2915 33.6441C13.2915 33.6441 16.481 34.5614 20.1111 34.7788C20.0823 32.2384 19.9829 29.9753 19.9829 29.9753C19.9829 29.9753 20.4215 32.3452 20.8992 34.8393C20.8992 34.8393 24.0803 35.2162 26.9755 34.509Z" fill="#3053A0"/>
<path d="M20.6479 50.6069C20.6479 50.6069 22.8972 51.1961 24.7578 51.2476" stroke="#1B2031" stroke-width="0.112349" stroke-miterlimit="10" stroke-linecap="round" stroke-linejoin="round"/>
<path d="M13.0649 49.5625C13.0649 49.5625 15.7865 50.4887 18.026 50.6073" stroke="#1B2031" stroke-width="0.112349" stroke-miterlimit="10" stroke-linecap="round" stroke-linejoin="round"/>
<path d="M26.246 14.7573C26.246 14.7573 30.0477 15.1777 31.3591 23.8559C31.3591 23.8559 27.8273 25.4186 25.8216 26.3442C25.8216 26.3442 26.3452 24.0873 25.5737 22.0045C24.8022 19.9217 23.4084 14.7032 26.246 14.7573Z" fill="#4476B8"/>
<path d="M30.7545 24.1196C30.7545 24.1196 31.1493 28.4911 30.4401 33.1708C30.4401 33.1708 27.3465 36.9243 27.5157 33.7947C27.6291 31.6956 27.9178 29.5133 27.0391 25.7845L30.7545 24.1196Z" fill="#E7A78E"/>
<path d="M27.6741 34.833C27.6741 34.833 26.2661 34.744 26.2661 35.7776C26.2661 36.8112 27.3158 36.9711 28.4177 36.9711C29.5196 36.9711 28.6257 34.7948 27.6741 34.833Z" fill="#1B2031"/>
<path d="M28.7613 56.1435H28.0995L27.8027 35.9849H28.9096L28.7613 56.1435Z" fill="#1B2031"/>
<path d="M28.0221 33.2487C28.0221 33.2487 26.9062 34.3529 26.7653 34.9636C26.6243 35.5743 27.235 35.9855 27.235 35.9855C27.235 35.9855 26.8592 36.7138 27.4818 37.0543C28.1043 37.395 28.3822 36.9289 28.3822 36.9289C28.3822 36.9289 29.1027 37.3009 29.5725 36.655C29.5725 36.655 30.2067 37.1718 30.5239 36.103C30.841 35.0341 30.4451 33.0942 30.4451 33.0942L28.0221 33.2487Z" fill="#E7A78E"/>
<path d="M27.2349 35.9852C27.2349 35.9852 27.391 35.5298 27.4883 35.3228" stroke="#1B2031" stroke-width="0.112349" stroke-miterlimit="10" stroke-linecap="round" stroke-linejoin="round"/>
<path d="M28.3198 37.0542C28.3198 37.0542 28.5845 36.6268 28.6211 35.7598" stroke="#1B2031" stroke-width="0.112349" stroke-miterlimit="10" stroke-linecap="round" stroke-linejoin="round"/>
<path d="M29.5723 36.6546C29.5723 36.6546 29.8627 36.1141 29.9358 35.4688" stroke="#1B2031" stroke-width="0.112349" stroke-miterlimit="10" stroke-linecap="round" stroke-linejoin="round"/>
<path d="M26.1641 26.1867L28.6082 25.0813C28.6082 25.0813 27.9202 22.2222 27.4251 21.6284C27.4251 21.6284 27.0311 23.4753 26.6973 24.1567C26.3636 24.8382 26.1641 26.1867 26.1641 26.1867Z" fill="#3053A0"/>
<path d="M30.29 24.3281C30.29 24.3281 28.8046 27.2634 27.5565 28.8178C27.5565 28.8178 27.2498 26.6654 27.0391 25.7849L30.29 24.3281Z" fill="#DC8B6B"/>
<path d="M29.0578 24.8745L27.2471 26.8469L27.0391 25.7844L29.0578 24.8745Z" fill="#1B2031"/>
<path d="M21.7572 14.0963C21.7572 14.0963 19.6462 14.0514 17.4004 15.5786C15.1546 17.1058 13.7173 28.6041 13.7173 30.3109C13.7173 30.3109 18.82 34.9466 27.0397 32.0719C27.0397 32.0719 25.1708 28.7837 26.6978 24.1574C28.2249 19.5312 28.9436 14.9947 25.3504 14.5456C21.7572 14.0963 21.7572 14.0963 21.7572 14.0963Z" fill="#4476B8"/>
<path d="M26.4443 24.9957C26.4443 24.9957 27.1055 23.0005 27.3586 21.9428C27.6114 20.885 27.8391 18.4087 27.8391 18.4087" stroke="#1B2031" stroke-width="0.112349" stroke-miterlimit="10" stroke-linecap="round" stroke-linejoin="round"/>
<path d="M15.5418 31.6226C15.5418 31.6226 16.4263 29.8961 15.3508 27.3543L19.4039 19.8301L14.5904 21.2265L13.1353 29.5801C13.1353 29.5801 13.5535 30.79 15.5418 31.6226Z" fill="#3053A0"/>
<path d="M17.6313 21.3018L15.1491 25.0859L13.3867 28.1331L14.5898 21.2271L17.6313 21.3018Z" fill="#1B2031"/>
<path d="M20.5098 14.2451C20.5098 14.2451 20.6715 16.0171 21.9321 17.2959C21.9321 17.2959 22.8821 16.6018 23.9051 16.5835C23.9051 16.5835 24.686 16.9488 25.3369 17.7709C25.3369 17.7709 26.6085 16.944 26.6452 14.9826" stroke="#1B2031" stroke-width="0.112349" stroke-miterlimit="10" stroke-linecap="round" stroke-linejoin="round"/>
<path d="M23.9057 16.5835C23.9057 16.5835 23.5116 20.1692 22.8874 22.4246C22.2632 24.6801 20.4683 28.9535 21.284 32.9621" stroke="#1B2031" stroke-width="0.112349" stroke-miterlimit="10" stroke-linecap="round" stroke-linejoin="round"/>
<path d="M28.1552 12.8164C27.9712 13.9839 26.9788 15.0019 25.3989 14.4472L25.1818 15.5076C25.1818 15.5076 24.5613 16.231 23.3318 15.9521C22.0142 15.6531 21.7188 14.6752 21.7188 14.6752L22.5596 11.5411C22.4498 11.5488 22.3344 11.5191 22.3344 11.5191C22.3344 11.5191 21.543 11.333 21.998 10.1923C22.426 9.11916 22.9639 9.56631 22.9639 9.56631L23.2391 8.71546C23.2391 8.71546 23.799 7.03486 26.4588 7.57923C28.5189 8.00091 28.4928 9.80899 28.4928 9.80899C28.4928 9.80899 28.3101 11.8335 28.1552 12.8164Z" fill="#E7A78E"/>
<path d="M25.2074 15.3806C25.2074 15.3806 23.3375 15.258 22.9658 12.8135C22.9658 12.8135 26.9641 15.3126 28.1549 12.8159C28.1549 12.8159 27.8386 15.3075 25.3986 14.4467L25.2074 15.3806Z" fill="#DC8B6B"/>
<mask id="mask4_1150_20999" style="mask-type:luminance" maskUnits="userSpaceOnUse" x="27" y="10" width="2" height="2">
<path d="M28.4577 10.1665C28.4577 10.1665 28.4516 10.2292 28.3684 11.094C28.3684 11.094 27.4064 10.9711 27.3989 10.5502C27.3989 10.5502 27.4642 9.97331 28.4577 10.1665Z" fill="white"/>
</mask>
<g mask="url(#mask4_1150_20999)">
<path d="M29.1154 11.0837C29.0643 10.9398 28.9901 10.831 28.8967 10.729C28.8044 10.6282 28.6925 10.5488 28.5731 10.4856C28.4515 10.4297 28.3225 10.3864 28.1914 10.3707C28.1256 10.3593 28.0603 10.3624 27.9946 10.3584C27.9294 10.3621 27.8648 10.368 27.8003 10.3767C27.6935 10.3909 27.615 10.4962 27.6249 10.612C27.6342 10.7212 27.7189 10.8006 27.8181 10.7973L27.834 10.7967C27.9387 10.793 28.0418 10.7849 28.1424 10.7937C28.2438 10.7976 28.3414 10.8178 28.4374 10.846C28.5337 10.8737 28.6237 10.9204 28.7109 10.9763C28.7963 11.031 28.8812 11.1089 28.945 11.1824L28.9564 11.1956C28.9919 11.2365 29.052 11.2376 29.0908 11.1977C29.1203 11.1672 29.1287 11.1218 29.1154 11.0837Z" fill="#F8F4E3"/>
</g>
<mask id="mask5_1150_20999" style="mask-type:luminance" maskUnits="userSpaceOnUse" x="26" y="10" width="3" height="3">
<path d="M28.4002 10.7613C28.4002 10.7613 28.3456 11.4022 28.2182 12.3756C28.2182 12.3756 27.3433 12.3536 27.0556 11.9549C26.9228 11.7707 26.9291 11.4669 26.9797 11.0256C26.9797 11.0256 27.3755 10.4785 28.4002 10.7613Z" fill="white"/>
</mask>
<g mask="url(#mask5_1150_20999)">
<path d="M29.0526 11.6988C28.7422 12.2352 27.9318 12.3513 27.489 11.9115C27.3441 11.7837 27.2371 11.6218 27.1609 11.4473C27.1551 11.4338 27.1612 11.4182 27.1747 11.4124C27.1829 11.4088 27.1919 11.4097 27.1989 11.414C27.2804 11.4641 27.3505 11.5205 27.4208 11.574C27.9441 11.9623 28.4174 11.9951 29.0154 11.663C29.0377 11.6474 29.0677 11.676 29.0526 11.6988Z" fill="#1B2031"/>
</g>
<path d="M27.0528 11.2993C26.9857 11.8733 27.1666 12.0088 27.2715 12.1094C27.2715 12.1094 27.3801 12.2096 27.2994 12.3523C27.2314 12.4724 27.0726 12.5687 26.9575 12.5347" stroke="#1B2031" stroke-width="0.112349" stroke-miterlimit="10" stroke-linecap="round" stroke-linejoin="round"/>
<path d="M26.6881 12.3901C26.6881 12.3901 26.6329 12.2773 26.4951 12.3573" stroke="#1B2031" stroke-width="0.112349" stroke-miterlimit="10" stroke-linecap="round" stroke-linejoin="round"/>
<path d="M26.3326 12.3871C26.0771 12.1134 26.4444 11.9458 26.4444 11.9458" stroke="#1B2031" stroke-width="0.112349" stroke-miterlimit="10" stroke-linecap="round" stroke-linejoin="round"/>
<path d="M25.289 14.9821C24.085 14.7357 23.4424 13.2456 23.4424 13.2456C23.7851 13.5536 24.2532 13.9976 25.3986 14.4467L25.289 14.9821Z" fill="#1B2031"/>
<path d="M22.6716 11.1196C22.6716 11.1196 22.4953 10.9395 22.5971 10.7777C22.699 10.6159 22.8423 10.701 22.887 10.5132" stroke="#1B2031" stroke-width="0.112349" stroke-miterlimit="10" stroke-linecap="round" stroke-linejoin="round"/>
<path d="M22.8346 9.87357C22.8346 9.87357 22.5257 9.64617 22.3223 10.2747" stroke="#1B2031" stroke-width="0.112349" stroke-miterlimit="10" stroke-linecap="round" stroke-linejoin="round"/>
<path d="M22.8128 11.48C22.8128 11.48 22.6842 11.5453 22.5601 11.5411" stroke="#1B2031" stroke-width="0.112349" stroke-miterlimit="10" stroke-linecap="round" stroke-linejoin="round"/>
<path d="M24.8713 10.2153C24.974 10.1028 25.0841 10.0318 25.2091 9.97455C25.3325 9.91792 25.4654 9.88871 25.5988 9.87718C25.7314 9.87343 25.8656 9.88392 25.9912 9.92092C26.0554 9.9362 26.1137 9.96466 26.1751 9.98653C26.2329 10.0154 26.2896 10.0462 26.3448 10.0794C26.4365 10.1342 26.4668 10.2619 26.4126 10.3645C26.3613 10.4612 26.2533 10.5011 26.1642 10.4593L26.15 10.4526C26.0562 10.4081 25.9654 10.3603 25.8704 10.3291C25.7765 10.293 25.6799 10.2734 25.5816 10.2619C25.483 10.2497 25.3828 10.2575 25.2817 10.2746C25.1825 10.2915 25.0748 10.3299 24.988 10.3727L24.9724 10.3804C24.9241 10.4042 24.869 10.3816 24.8492 10.3297C24.8343 10.29 24.8443 10.2449 24.8713 10.2153Z" fill="#F8F4E3"/>
<path d="M24.6135 10.762C25.0332 11.3026 25.481 11.458 26.1148 11.3067C26.2003 11.2852 26.2869 11.2607 26.3814 11.2467C26.396 11.2446 26.4094 11.2545 26.4115 11.2691C26.0336 11.7322 25.1974 11.7968 24.8079 11.3011C24.6799 11.1489 24.5921 10.9716 24.5653 10.7803C24.5611 10.7531 24.5988 10.7391 24.6135 10.762Z" fill="#1B2031"/>
<path d="M25.8428 12.7979C25.8428 12.7979 26.3931 13.5988 27.2098 13.0777" stroke="#1B2031" stroke-width="0.112349" stroke-miterlimit="10" stroke-linecap="round" stroke-linejoin="round"/>
<path d="M25.8142 12.1924C25.8142 12.1924 25.2468 12.3685 24.8613 12.831" stroke="#1B2031" stroke-width="0.112349" stroke-miterlimit="10" stroke-linecap="round" stroke-linejoin="round"/>
<path d="M27.4526 12.5527C27.4526 12.5527 27.7127 12.8678 27.8087 13.2352" stroke="#1B2031" stroke-width="0.112349" stroke-miterlimit="10" stroke-linecap="round" stroke-linejoin="round"/>
<path d="M22.9637 9.5657C22.9637 9.5657 23.1589 9.88298 23.0809 10.1673C23.0028 10.4516 23.6488 10.7 23.7984 10.1964C23.9479 9.69273 24.621 9.8653 24.8136 9.20798C25.0062 8.55066 24.7267 7.7037 23.9548 7.67344C23.1829 7.64318 22.6372 8.05348 22.6063 8.74405C22.5755 9.43463 22.7031 9.22341 22.7573 9.47852C22.7573 9.47852 22.9032 9.50264 22.9637 9.5657Z" fill="#F8F4E3"/>
<path d="M26.2939 9.42773C26.2939 9.42773 27.1803 9.49215 27.9283 9.71295" stroke="#1B2031" stroke-width="0.112349" stroke-miterlimit="10" stroke-linecap="round" stroke-linejoin="round"/>
<path d="M26.8643 8.73713C26.8643 8.73713 27.2966 8.69115 27.7105 8.90266" stroke="#1B2031" stroke-width="0.112349" stroke-miterlimit="10" stroke-linecap="round" stroke-linejoin="round"/>
<path d="M25.6169 8.31879C25.7238 8.43383 25.7174 8.61374 25.6024 8.7207C25.4873 8.82766 25.3616 8.77073 25.2547 8.65569C25.1477 8.54064 25.0999 8.41121 25.215 8.30426C25.3299 8.19715 25.5099 8.20374 25.6169 8.31879Z" fill="#DC8B6B"/>
<path d="M26.4685 8.61804C26.4685 8.74761 26.3633 8.75106 26.2338 8.75106C26.104 8.75106 25.999 8.74761 25.999 8.61804C25.999 8.48846 26.1042 8.3833 26.2338 8.3833C26.3633 8.3833 26.4685 8.48846 26.4685 8.61804Z" fill="#DC8B6B"/>
<path d="M26.0418 8.07072C26.0018 8.13229 25.9089 8.14293 25.8345 8.09454C25.76 8.04615 25.7322 7.95703 25.7722 7.89546C25.8122 7.83389 25.905 7.82326 25.9795 7.87164C26.0539 7.92003 26.082 8.00916 26.0418 8.07072Z" fill="#DC8B6B"/>
<path d="M14.8358 18.1022C13.857 18.7498 13.1203 19.2182 12.6312 19.616C11.9883 20.1388 11.6025 20.911 11.5751 21.7392C11.5297 23.1142 11.5834 25.619 12.2369 28.8948C12.2369 28.8948 12.4744 29.0173 14.0979 28.5972C14.0979 28.5972 14.6658 25.2319 14.9204 22.9018C14.9204 22.9018 16.5417 21.6414 17.4541 20.8457C18.3666 20.0498 16.5546 16.9653 14.8358 18.1022Z" fill="#E7A78E"/>
<path d="M11.5646 22.8106C11.4713 21.0509 11.8798 20.5484 11.8798 20.5484C11.8798 20.5484 14.6208 19.6971 15.1484 22.7005C15.1565 22.7466 14.9203 22.9022 14.9203 22.9022C14.8849 23.2255 14.8436 23.5685 14.7985 23.92C14.7985 23.92 13.5691 22.9235 11.5646 22.8106Z" fill="#DC8B6B"/>
<path d="M11.8802 20.5493C11.716 20.7733 11.6543 21.1615 11.6543 21.1615L13.8665 21.6909C13.8665 21.6909 12.8605 20.7968 11.8802 20.5493Z" fill="#1B2031"/>
<path d="M12.3253 27.9253C12.3253 27.9253 12.0618 28.7745 12.0067 29.1594C11.9515 29.5442 11.8581 30.1822 12.3843 31.8836C12.3843 31.8836 12.6264 32.679 12.9976 32.6641C12.9976 32.6641 13.154 32.638 13.1642 32.4621C13.1642 32.4621 13.447 33.0043 13.6968 32.9726C13.9466 32.941 13.9091 32.7159 13.9091 32.7159C13.9091 32.7159 14.1991 33.2363 14.424 33.1478C14.6869 33.0442 14.6831 32.7303 14.4315 32.1546C14.4315 32.1546 14.7212 32.7957 14.9817 32.7316C15.2422 32.6675 15.214 32.2944 14.9733 31.8204C14.7326 31.3464 14.4759 30.3814 14.4539 30.2066C14.4006 29.7813 14.4839 29.4937 14.6186 30.0158C14.7089 30.366 14.8588 30.8612 15.1235 30.792C15.501 30.6933 15.3066 30.2712 15.2483 29.8472C15.1879 29.4083 14.7778 28.732 14.4974 28.2492C14.3735 28.0357 14.2363 27.8453 14.0194 27.6566C13.7267 27.4016 12.5692 27.2861 12.3253 27.9253Z" fill="#E7A78E"/>
<path d="M14.5486 32.3743C14.5486 32.3743 14.0407 31.6657 13.6812 30.0278" stroke="#1B2031" stroke-width="0.112349" stroke-miterlimit="10" stroke-linecap="round" stroke-linejoin="round"/>
<path d="M13.9085 32.717C13.9085 32.717 13.3739 31.8894 13.0244 30.1611" stroke="#1B2031" stroke-width="0.112349" stroke-miterlimit="10" stroke-linecap="round" stroke-linejoin="round"/>
<path d="M13.164 32.4635C13.164 32.4635 12.8108 31.9668 12.4897 30.3994" stroke="#1B2031" stroke-width="0.112349" stroke-miterlimit="10" stroke-linecap="round" stroke-linejoin="round"/>
<path d="M12.1392 28.5737C12.1392 28.5737 11.8621 29.5324 11.997 30.2149" stroke="#1B2031" stroke-width="0.112349" stroke-miterlimit="10" stroke-linecap="round" stroke-linejoin="round"/>
<path d="M14.836 23.626C14.836 23.626 14.5886 25.5597 14.3433 27.079" stroke="#1B2031" stroke-width="0.112349" stroke-miterlimit="10" stroke-linecap="round" stroke-linejoin="round"/>
<path d="M11.623 24.2935C11.623 24.2935 11.7448 25.9654 11.9056 26.9716" stroke="#1B2031" stroke-width="0.112349" stroke-miterlimit="10" stroke-linecap="round" stroke-linejoin="round"/>
<path d="M15.7146 23.6251C15.7146 23.6251 18.4505 20.6554 20.3146 18.9769C22.1787 17.2984 19.9308 13.6536 16.8549 15.7577C16.8549 15.7577 13.2534 18.2619 11.4189 20.3895C11.4189 20.3895 14.1487 21.396 15.7146 23.6251Z" fill="#4476B8"/>
<path d="M13.8389 21.746C14.2559 22.0979 15.3228 23.0676 15.7144 23.6248C15.7144 23.6248 18.4503 20.6551 20.3144 18.9766C20.3144 18.9766 16.3706 21.1593 13.8389 21.746Z" fill="#3053A0"/>
<path d="M15.7139 23.6248C15.7139 23.6248 18.4498 20.6551 20.3139 18.9766" stroke="#1B2031" stroke-width="0.112349" stroke-miterlimit="10" stroke-linecap="round" stroke-linejoin="round"/>
<path d="M16.8549 15.7588C16.8549 15.7588 14.4502 17.3844 12.7646 19.0217" stroke="#1B2031" stroke-width="0.112349" stroke-miterlimit="10" stroke-linecap="round" stroke-linejoin="round"/>
<path d="M2.74927 21.578C1.96163 18.8817 1.81887 14.4973 1.81887 14.4973C1.72614 10.7718 6.00725 10.8677 6.40197 13.3449C6.79669 15.8222 6.95728 19.9383 6.95728 19.9383C6.95728 19.9383 4.64632 20.7997 2.74927 21.578Z" fill="#8EC8E4"/>
<path d="M4.85924 20.7381C4.18888 20.9984 3.44109 21.2937 2.74842 21.5779C2.40598 20.4054 2.18532 18.9137 2.04541 17.6021C2.04541 17.6021 2.9093 19.7046 4.85924 20.7381Z" fill="#6DADD8"/>
<path d="M6.95667 19.9376C6.95667 19.9376 6.79594 15.8213 6.40137 13.3442" stroke="#1B2031" stroke-width="0.112349" stroke-miterlimit="10" stroke-linecap="round" stroke-linejoin="round"/>
<path d="M1.81836 14.4976C1.81836 14.4976 1.87468 17.3996 2.33187 19.7046" stroke="#1B2031" stroke-width="0.112349" stroke-miterlimit="10" stroke-linecap="round" stroke-linejoin="round"/>
<path d="M6.76151 20.0063C8.57842 21.4874 11.0935 23.7942 11.0935 23.7942C10.5633 25.3852 10.3312 25.5178 10.3312 25.5178C5.49196 23.5954 3.01758 21.4688 3.01758 21.4688C3.01758 21.4688 4.54298 20.8323 6.76151 20.0063Z" fill="#DC8B6B"/>
<path d="M4.85966 22.7724C3.6361 22.0005 3.01758 21.4688 3.01758 21.4688C3.01758 21.4688 4.54313 20.8323 6.76166 20.0063C7.01362 20.2119 7.27906 20.4331 7.54945 20.662C7.54945 20.662 6.04457 21.1516 4.85966 22.7724Z" fill="#BF6D51"/>
<path d="M3.01758 21.469L5.28359 20.5669L3.73916 22.0208C3.73916 22.0208 3.23943 21.6495 3.01758 21.469Z" fill="#1B2031"/>
<path d="M9.56543 24.9166C9.56543 24.9166 10.1348 25.5995 10.4277 25.8552C10.7205 26.1108 11.2051 26.5364 12.9191 27.0199C12.9191 27.0199 13.7183 27.2494 13.9077 26.9298C13.9077 26.9298 13.9709 26.7843 13.8287 26.6802C13.8287 26.6802 14.4375 26.7377 14.5468 26.5109C14.6562 26.2841 14.4468 26.193 14.4468 26.193C14.4468 26.193 15.0412 26.2327 15.0893 25.9959C15.1453 25.7189 14.8799 25.5513 14.2598 25.4494C14.2598 25.4494 14.9555 25.5549 15.0433 25.3014C15.1311 25.048 14.8027 24.8687 14.2741 24.8129C13.7454 24.7572 12.796 24.4477 12.6374 24.371C12.2515 24.1845 12.0554 23.9582 12.5667 24.1291C12.9097 24.2439 13.4069 24.3874 13.4927 24.1275C13.6152 23.757 13.1552 23.6907 12.7677 23.5088C12.3665 23.3206 11.5759 23.2971 11.0183 23.2697C10.7718 23.2576 10.5375 23.2693 10.2611 23.3485C9.8881 23.4558 9.16157 24.3643 9.56543 24.9166Z" fill="#DC8B6B"/>
<path d="M14.2753 24.8128C13.7466 24.757 12.7972 24.4475 12.6386 24.3709C12.2527 24.1844 12.0566 23.958 12.5679 24.1289C12.9109 24.2437 13.4081 24.3872 13.4939 24.1273C13.6164 23.7568 13.1564 23.6905 12.7689 23.5086C12.3677 23.3205 11.5771 23.2969 11.0195 23.2695" stroke="#1B2031" stroke-width="0.112349" stroke-miterlimit="10" stroke-linecap="round" stroke-linejoin="round"/>
<path d="M10.4282 25.8545C10.7211 26.11 11.2057 26.5356 12.9197 27.0192C12.9197 27.0192 13.7189 27.2487 13.9082 26.929C13.9082 26.929 13.9714 26.7835 13.8293 26.6794" stroke="#1B2031" stroke-width="0.112349" stroke-miterlimit="10" stroke-linecap="round" stroke-linejoin="round"/>
<path d="M14.5077 25.4697C14.5077 25.4697 13.6368 25.5105 12.0669 24.9214" stroke="#1B2031" stroke-width="0.112349" stroke-miterlimit="10" stroke-linecap="round" stroke-linejoin="round"/>
<path d="M14.4478 26.1926C14.4478 26.1926 13.4624 26.1911 11.8223 25.5444" stroke="#1B2031" stroke-width="0.112349" stroke-miterlimit="10" stroke-linecap="round" stroke-linejoin="round"/>
<path d="M13.8292 26.6799C13.8292 26.6799 13.2202 26.7061 11.7305 26.123" stroke="#1B2031" stroke-width="0.112349" stroke-miterlimit="10" stroke-linecap="round" stroke-linejoin="round"/>
<path d="M10.0078 25.4243C10.0078 25.4243 10.6615 26.1783 11.3078 26.4362" stroke="#1B2031" stroke-width="0.112349" stroke-miterlimit="10" stroke-linecap="round" stroke-linejoin="round"/>
<path d="M7.32275 20.4697C7.32275 20.4697 8.81101 21.7289 9.95248 22.7611" stroke="#1B2031" stroke-width="0.112349" stroke-miterlimit="10" stroke-linecap="round" stroke-linejoin="round"/>
<path d="M6.13525 23.5298C6.13525 23.5298 7.60448 24.3369 8.53638 24.7493" stroke="#1B2031" stroke-width="0.112349" stroke-miterlimit="10" stroke-linecap="round" stroke-linejoin="round"/>
</svg>
