<svg width="24" height="23" viewBox="0 0 24 23" fill="none" xmlns="http://www.w3.org/2000/svg">
<path fill-rule="evenodd" clip-rule="evenodd" d="M9.39125 0.692217C10.0725 0.241277 10.8786 0 11.704 0C12.5293 0 13.3354 0.241277 14.0167 0.692217L21.6242 5.73018C22.1739 6.09403 22.6236 6.58209 22.9344 7.15207C23.2452 7.72205 23.4078 8.35677 23.4079 9.00124V18.5358C23.4079 19.5872 22.9763 20.5955 22.2081 21.3389C21.4399 22.0823 20.398 22.5 19.3115 22.5H4.09638C3.00996 22.5 1.96802 22.0823 1.1998 21.3389C0.431582 20.5955 0 19.5872 0 18.5358V9.00124C0.000160747 8.35677 0.162683 7.72205 0.473489 7.15207C0.784295 6.58209 1.23401 6.09403 1.78368 5.73018L9.39125 0.692217ZM8.77797 17.4031C8.62276 17.4031 8.47392 17.4628 8.36417 17.569C8.25442 17.6752 8.19277 17.8193 8.19277 17.9695C8.19277 18.1197 8.25442 18.2637 8.36417 18.3699C8.47392 18.4761 8.62276 18.5358 8.77797 18.5358H14.6299C14.7851 18.5358 14.934 18.4761 15.0437 18.3699C15.1535 18.2637 15.2151 18.1197 15.2151 17.9695C15.2151 17.8193 15.1535 17.6752 15.0437 17.569C14.934 17.4628 14.7851 17.4031 14.6299 17.4031H8.77797Z" fill="#298B97"/>
</svg>
