<svg width="16" height="15" viewBox="0 0 16 15" fill="none" xmlns="http://www.w3.org/2000/svg">
<path fill-rule="evenodd" clip-rule="evenodd" d="M6.26084 0.461478C6.71499 0.160851 7.2524 0 7.80264 0C8.35288 0 8.89028 0.160851 9.34444 0.461478L14.4162 3.82012C14.7826 4.06269 15.0824 4.38806 15.2896 4.76805C15.4968 5.14803 15.6052 5.57118 15.6053 6.00083V12.3572C15.6053 13.0581 15.3176 13.7303 14.8054 14.2259C14.2933 14.7216 13.5986 15 12.8744 15H2.73092C2.00664 15 1.31202 14.7216 0.799869 14.2259C0.287721 13.7303 0 13.0581 0 12.3572V6.00083C0.000107165 5.57118 0.108455 5.14803 0.315659 4.76805C0.522864 4.38806 0.822675 4.06269 1.18912 3.82012L6.26084 0.461478ZM5.85198 11.6021C5.74851 11.6021 5.64928 11.6419 5.57611 11.7127C5.50295 11.7835 5.46185 11.8795 5.46185 11.9796C5.46185 12.0798 5.50295 12.1758 5.57611 12.2466C5.64928 12.3174 5.74851 12.3572 5.85198 12.3572H9.7533C9.85677 12.3572 9.956 12.3174 10.0292 12.2466C10.1023 12.1758 10.1434 12.0798 10.1434 11.9796C10.1434 11.8795 10.1023 11.7835 10.0292 11.7127C9.956 11.6419 9.85677 11.6021 9.7533 11.6021H5.85198Z" fill="#298B97"/>
</svg>
