<svg width="13" height="13" viewBox="0 0 13 13" fill="none" xmlns="http://www.w3.org/2000/svg">
<path d="M3.52182 3.47852H3.35881L3.0542 5.00195H3.82643L3.52182 3.47852ZM9.68321 6.52539C9.84766 6.96716 10.0664 7.32476 10.3085 7.62905C10.5506 7.32476 10.7947 6.96714 10.9591 6.52539H9.68321Z" fill="#949494"/>
<path d="M11.8577 2.31055H7.12784L8.11406 10.2243C8.1315 10.548 8.04302 10.8527 7.83177 11.0913L6.16162 13H11.8577C12.4877 13 13.0003 12.4875 13.0003 11.8574V3.47852C13.0003 2.84847 12.4877 2.31055 11.8577 2.31055ZM11.8577 6.52539H11.756C11.5393 7.22066 11.1956 7.76471 10.8384 8.19361C11.1182 8.44939 11.4174 8.65922 11.7149 8.89423C11.8789 9.02553 11.9057 9.26504 11.774 9.42944C11.6429 9.59359 11.4025 9.6202 11.2388 9.48858C10.9156 9.23348 10.6122 9.01994 10.3088 8.74156C10.0055 9.01994 9.72751 9.23348 9.40431 9.48858C9.24062 9.6202 9.00017 9.59359 8.8691 9.42944C8.73742 9.26504 8.76421 9.02553 8.92823 8.89423C9.22569 8.65922 9.49947 8.44939 9.77925 8.19361C9.42211 7.76473 9.10381 7.22069 8.88713 6.52539H8.78541C8.5749 6.52539 8.40455 6.35504 8.40455 6.14453C8.40455 5.93402 8.5749 5.76367 8.78541 5.76367H9.92799V5.38281C9.92799 5.1723 10.0983 5.00195 10.3088 5.00195C10.5194 5.00195 10.6897 5.1723 10.6897 5.38281V5.76367H11.8577C12.0682 5.76367 12.2385 5.93402 12.2385 6.14453C12.2385 6.35504 12.0682 6.52539 11.8577 6.52539Z" fill="#949494"/>
<path d="M6.19948 1.00087C6.12843 0.43032 5.64083 0 5.06584 0H1.14258C0.512535 0 0 0.512535 0 1.14258V9.57227C0 10.2023 0.512535 10.7148 1.14258 10.7148H7.14876C7.25987 10.5878 7.353 10.5083 7.35693 10.3425C7.3579 10.301 6.20463 1.04211 6.19948 1.00087ZM4.67045 7.27967C4.4685 7.32124 4.26392 7.19012 4.22228 6.981L3.97886 5.76367H2.90202L2.6586 6.981C2.6177 7.18705 2.41907 7.32243 2.21043 7.27967C2.00439 7.23839 1.87048 7.03793 1.91176 6.8315L2.67345 3.02291C2.70915 2.84512 2.86538 2.7168 3.04688 2.7168H3.83398C4.01548 2.7168 4.17171 2.84512 4.2074 3.02291L4.96912 6.8315C5.01041 7.03793 4.87652 7.23839 4.67045 7.27967ZM4.44999 11.4766L4.51534 11.9991C4.55891 12.3491 4.79144 12.706 5.17392 12.8841L6.45257 11.4766H4.44999Z" fill="#949494"/>
</svg>
