<svg width="11" height="11" viewBox="0 0 11 11" fill="none" xmlns="http://www.w3.org/2000/svg">
<g clip-path="url(#clip0_702_1156)">
<path d="M5.4001 6.10352e-05C3.1672 6.10352e-05 1.3501 1.82976 1.3501 4.07931C1.3501 7.27566 5.0194 10.576 5.17555 10.7146C5.23727 10.7698 5.31717 10.8004 5.40001 10.8005C5.48285 10.8006 5.56282 10.7701 5.62465 10.715C5.7808 10.576 9.4501 7.27566 9.4501 4.07931C9.4501 1.82976 7.633 6.10352e-05 5.4001 6.10352e-05ZM5.4001 6.30006C4.15945 6.30006 3.1501 5.29071 3.1501 4.05006C3.1501 2.80941 4.15945 1.80006 5.4001 1.80006C6.64075 1.80006 7.6501 2.80941 7.6501 4.05006C7.6501 5.29071 6.64075 6.30006 5.4001 6.30006Z" fill="white"/>
</g>
<defs>
<clipPath id="clip0_702_1156">
<rect width="10.8" height="10.8" fill="white"/>
</clipPath>
</defs>
</svg>
