<svg width="11" height="14" viewBox="0 0 11 14" fill="none" xmlns="http://www.w3.org/2000/svg">
<path d="M5.25003 0C2.35551 0 0 2.37185 0 5.28795C0 9.43139 4.75653 13.7096 4.95894 13.8892C5.03895 13.9609 5.14254 14.0005 5.24992 14.0006C5.3573 14.0007 5.46096 13.9613 5.54111 13.8898C5.74353 13.7096 10.5001 9.43139 10.5001 5.28795C10.5001 2.37185 8.14455 0 5.25003 0ZM5.25003 8.16671C3.64177 8.16671 2.33335 6.85829 2.33335 5.25003C2.33335 3.64177 3.64177 2.33335 5.25003 2.33335C6.85829 2.33335 8.16671 3.64177 8.16671 5.25003C8.16671 6.85829 6.85829 8.16671 5.25003 8.16671Z" fill="#949494"/>
</svg>
