<svg width="52" height="55" viewBox="0 0 52 55" fill="none" xmlns="http://www.w3.org/2000/svg">
<path d="M39.1753 18.3691C39.2553 18.1536 39.4022 17.6198 39.6063 17.5148C39.6137 17.511 39.6218 17.5092 39.6296 17.5065C39.6893 17.5524 39.6999 17.5481 39.7093 17.6221C39.7474 17.9253 39.6493 18.2556 39.52 18.5265C39.7338 18.484 40.1265 18.3634 40.323 18.4867C40.3323 18.4925 40.3401 18.5003 40.3486 18.5071C40.3519 18.5509 40.3638 18.5608 40.3307 18.5962C40.1697 18.7688 39.8697 18.8201 39.6468 18.87C39.3389 18.6083 39.0125 18.5262 38.811 18.1496C38.7764 18.0025 38.6996 17.7002 38.7794 17.5646C38.8141 17.5057 38.8282 17.4957 38.8886 17.4722C38.9859 17.5207 39.0184 17.6337 39.0507 17.7306C39.1207 17.9405 39.1601 18.1482 39.1753 18.3691Z" fill="#89422F"/>
<path d="M27.0806 31.0312C27.2339 30.7363 27.3944 30.4471 27.5976 30.183C28.0526 29.5918 28.5721 29.2668 29.3116 29.1724C28.8155 29.8054 28.2939 30.5845 28.0292 31.3511C27.717 31.2576 27.3706 31.1773 27.0806 31.0312Z" fill="#E2453F"/>
<path d="M34.7222 50.147C35.0713 50.3391 35.4236 50.5229 35.7797 50.7018C35.9919 50.8085 36.2301 50.9063 36.428 51.0361C35.4928 51.4124 34.4175 51.4325 33.4478 51.7078C33.8391 51.1724 34.2822 50.6437 34.7222 50.147Z" fill="#ABD2D8"/>
<path d="M29.3117 29.1718C29.5105 29.1522 29.7027 29.1823 29.8997 29.2072L30.1548 29.2845L30.0516 29.5404L30.0467 29.5624C29.7908 29.9703 29.545 30.3841 29.2914 30.7934C29.1354 31.0453 28.9563 31.2925 28.8194 31.5549C28.5549 31.5006 28.2916 31.4172 28.0293 31.3506C28.294 30.584 28.8156 29.8049 29.3117 29.1718Z" fill="#3972A1"/>
<path d="M44.0347 35.0827C44.1798 34.8643 44.328 34.6534 44.5114 34.465C45.218 33.7392 46.2422 33.6237 47.2054 33.6162L47.224 33.9522C47.2199 34.6751 47.0409 35.293 46.5187 35.8139C46.2018 36.13 45.8437 36.2967 45.4559 36.5025C44.9799 36.6282 44.3865 36.7844 43.9236 36.5354C43.8125 36.671 43.6878 36.7673 43.5488 36.8725C43.6053 36.6988 43.7007 36.5443 43.7907 36.3863C43.6805 35.911 43.8153 35.4975 44.0347 35.0827Z" fill="#16896E"/>
<path d="M43.7907 36.3859C44.0764 36.1082 44.3504 35.818 44.6478 35.5526C44.9386 35.2932 46.1083 34.3282 46.4662 34.3409C46.4765 34.3413 46.4867 34.344 46.497 34.3455C46.5046 34.4116 46.4888 34.4216 46.449 34.4722C46.22 34.7644 45.792 34.9958 45.4891 35.2166C44.9594 35.6029 44.3607 36.0466 43.9236 36.535C43.8125 36.6707 43.6878 36.767 43.5488 36.8722C43.6054 36.6984 43.7007 36.5439 43.7907 36.3859Z" fill="#194D3B"/>
<path d="M34.5056 50.019L34.7222 50.1468C34.2822 50.6435 33.8391 51.1723 33.4478 51.7077C33.287 51.8389 33.1438 52.0366 33.0056 52.1943C32.5978 52.6597 31.6811 53.8189 31.2039 54.0976C30.7038 54.1274 30.1881 54.0814 29.6881 54.0558L27.3056 53.9382L22.6824 53.7511C22.0871 53.7262 21.4881 53.717 20.8935 53.6787C20.8244 53.6743 20.7458 53.6748 20.6899 53.6268C20.634 53.5788 20.6039 53.5209 20.6053 53.4463C20.608 53.3008 20.7691 53.146 20.8685 53.0555C21.3826 52.5878 21.9328 52.1459 22.4597 51.6914C22.7851 51.4107 23.4763 50.744 23.8104 50.5715C24.0015 50.4729 24.2723 50.4305 24.4867 50.442C24.2152 50.6037 23.8942 50.7413 23.7203 51.0155C23.6824 51.0366 23.6631 51.0455 23.6366 51.0809C23.4159 51.32 23.1438 51.5284 22.899 51.7446C22.3399 52.2383 21.7705 52.7228 21.2359 53.2433C22.3127 53.2647 23.3903 53.3333 24.4664 53.3782L29.5052 53.5498C29.851 53.5595 30.9625 53.6595 31.2227 53.5864C31.3352 53.5547 31.4658 53.4087 31.5493 53.3264C31.9394 52.9423 34.3291 50.3825 34.5056 50.019Z" fill="#F1AA3B"/>
<path d="M38.4587 35.9583C38.7736 35.8194 39.1138 35.7122 39.4487 35.6337C40.2919 35.436 41.2413 35.4365 41.9947 35.9128C42.6569 36.3316 43.0221 37.0004 43.1948 37.748C43.2425 37.8569 43.2916 37.9219 43.3801 38.0007L43.3803 38.0511L43.2208 37.9911C42.9307 38.052 42.6428 38.1667 42.3587 38.2539C41.5724 38.4953 40.6914 38.4371 39.9635 38.0459C39.0953 37.5793 38.7314 36.8681 38.4587 35.9583Z" fill="#16896E"/>
<path d="M43.2208 37.9913C43.1099 37.8716 42.8752 37.7827 42.7264 37.7153C42.2676 37.5074 41.7737 37.324 41.2969 37.1629C40.8465 37.0108 39.5027 36.7141 39.2004 36.4311L39.2452 36.4077C39.8159 36.419 42.0357 37.0769 42.5292 37.3786C42.7489 37.5128 42.9828 37.5958 43.1949 37.7481C43.2426 37.857 43.2916 37.922 43.3801 38.0008L43.3804 38.0512L43.2208 37.9913Z" fill="#194D3B"/>
<path d="M2.56506 48.6982C2.76707 48.9028 2.98184 49.0535 3.24078 49.1793C4.955 50.0125 8.6425 50.2574 10.5372 50.2702C10.8712 50.2725 11.2072 50.2797 11.5409 50.2722C11.1844 50.6129 10.7649 50.9878 10.5194 51.4161L10.5099 51.6554C9.81405 51.667 9.10167 51.5959 8.40732 51.5518C6.53027 51.4323 1.95228 51.1519 0.431523 50.3063C0.275121 50.2193 0.0394806 50.0751 0.00394691 49.8859C-0.0108423 49.8071 0.017692 49.7342 0.0601688 49.6693C0.477344 49.0322 1.82111 48.882 2.5196 48.7099L2.56506 48.6982Z" fill="#ABD2D8"/>
<path d="M19.1222 46.8408C19.8217 46.9207 20.5165 47.072 21.209 47.1984C21.5782 47.2657 21.9753 47.3581 22.3512 47.3546C22.7034 47.5278 22.9729 47.9435 23.2119 48.2459C23.4035 48.4447 23.6511 48.6701 23.6423 48.9719C23.6366 49.1698 23.5262 49.3287 23.3879 49.4616C22.1267 50.603 20.7726 51.6302 19.4362 52.6807C19.0501 52.9843 18.2955 53.6527 17.8909 53.8453C17.145 53.829 16.3527 53.5866 15.622 53.4407L10.51 52.3741V51.6558L10.5196 51.4165C11.0934 51.6432 11.7782 51.7258 12.3856 51.8403L15.1352 52.3679C15.842 52.5106 16.707 52.7941 17.3881 52.8629C17.6015 52.8845 17.7964 52.8293 17.9904 52.7455C18.0866 52.704 18.1791 52.6561 18.2767 52.618L20.0866 48.2802C19.8048 47.7707 19.4497 47.3199 19.1222 46.8408Z" fill="#C47440"/>
<path d="M19.1221 46.8408C19.8216 46.9207 20.5164 47.072 21.2088 47.1984C21.5781 47.2657 21.9752 47.3581 22.3511 47.3546C22.7033 47.5278 22.9728 47.9435 23.2118 48.2459C22.8479 48.4456 22.5146 48.8438 22.2054 49.126L19.7235 51.3667C19.3058 51.7464 18.8974 52.1783 18.454 52.5255C18.396 52.5709 18.3455 52.5935 18.2766 52.618L20.0865 48.2802C19.8047 47.7707 19.4496 47.3199 19.1221 46.8408Z" fill="#E68520"/>
<path d="M43.0563 30.1743C43.8898 30.9103 44.59 31.8621 44.6694 33.0052C44.7246 33.8003 44.4588 34.4161 43.9465 35.0057C43.7773 35.1888 43.592 35.3353 43.3996 35.4924C43.4869 36.7084 43.5927 37.9221 43.6635 39.1394C43.9765 39.0309 44.3476 38.9304 44.6364 38.7692L44.6654 38.7483C44.8922 38.0149 45.2464 37.5426 45.8491 37.0774L45.8854 37.0657C46.1151 36.9899 46.3251 36.8698 46.5619 36.8057C47.3797 36.5843 48.3463 36.8112 49.0878 37.1754C49.3578 37.308 49.6155 37.4631 49.8727 37.6186C49.4584 38.3099 48.9353 38.9962 48.204 39.3728C47.5431 39.4249 46.8802 39.3875 46.2183 39.421L45.9838 39.4262C45.6584 39.5101 44.0299 39.4534 43.6034 39.4218L43.5183 39.4221L43.5129 39.3911C43.4373 38.9732 43.5202 38.4419 43.38 38.0512L43.3798 38.0008C43.4269 37.7808 43.2915 35.7904 43.2217 35.5335C43.2123 35.5328 43.2028 35.5328 43.1935 35.5316C42.7226 35.4673 42.1038 34.9655 41.8245 34.593C41.4064 34.0355 41.307 33.3839 41.407 32.7047C41.5517 31.7233 42.2775 30.7566 43.0563 30.1743Z" fill="#16896E"/>
<path d="M44.6534 38.9517C44.7221 39.111 44.798 39.1809 44.9611 39.2436C45.2723 39.3633 45.6531 39.3811 45.9839 39.4263C45.6585 39.5102 44.03 39.4535 43.6035 39.4219C43.63 39.3702 43.6553 39.3217 43.7065 39.2901C43.9616 39.1328 44.3651 39.0541 44.6534 38.9517Z" fill="white"/>
<path d="M44.6658 38.7479C45.591 38.5019 46.5105 38.2457 47.4537 38.0769C47.6624 38.0396 47.8697 37.9795 48.0824 37.9736L48.1249 38.0124C48.119 38.0881 48.1168 38.1238 48.0618 38.1834C48.0348 38.2128 48.0099 38.2226 47.9722 38.2365C47.6805 38.3436 47.294 38.3674 46.9829 38.4343C46.2357 38.5949 45.4661 38.8368 44.7069 38.9136L44.6367 38.7688L44.6658 38.7479Z" fill="#194D3B"/>
<path d="M43.2284 35.5082C43.1794 35.0297 42.8833 32.0197 43.0075 31.77L43.0596 31.7515C43.1563 31.8043 43.2014 31.8736 43.2329 31.9778C43.2949 32.1832 43.2591 32.4923 43.2709 32.7102C43.3207 33.633 43.4021 34.5689 43.3998 35.4922L43.2284 35.5082Z" fill="#194D3B"/>
<path d="M15.3051 18.2109C15.312 18.2236 15.3192 18.236 15.3258 18.2488C15.4692 18.5253 15.421 18.9199 15.5487 19.2149C15.9325 20.1013 16.6818 20.9544 17.5106 21.4514C17.7856 21.6162 18.1091 21.734 18.3719 21.9085L18.3773 21.9828C18.6648 23.5832 18.6793 24.9859 17.7077 26.3847C17.5691 26.5842 17.4121 26.7741 17.2415 26.947L17.2134 26.938C16.9135 26.6397 16.5138 26.397 16.1895 26.0788C14.8441 24.7585 13.1912 22.7396 13.1709 20.783C13.2183 20.7146 13.3336 20.6474 13.3988 20.5886C13.6744 20.3402 13.9922 20.0612 14.1885 19.7455C14.629 19.3489 14.9905 18.7126 15.3051 18.2109Z" fill="#F2A46E"/>
<path d="M8.65796 22.2917C9.7702 21.8915 10.881 21.4897 12.002 21.1143C11.9893 21.5271 12.0047 21.9252 12.0737 22.3331C12.3746 24.111 13.477 26.3752 14.7078 27.6937C14.8587 27.8554 15.016 28.0125 15.1798 28.1611C15.9276 27.844 16.564 27.4202 17.2137 26.9383L17.2417 26.9473C17.7337 27.3805 18.4077 27.6852 19.0194 27.9037C19.031 27.8796 19.0423 27.8553 19.0534 27.8309C19.7679 26.256 19.75 24.0752 19.1491 22.4624C19.475 22.6014 21.0982 23.541 21.3414 23.7529C21.4418 24.9167 21.3469 26.1045 21.2301 27.2634C21.009 27.452 20.8158 27.666 20.5813 27.8401C19.3198 28.7767 17.3401 28.8521 15.8407 28.6202C14.2603 28.3757 12.8425 27.6765 11.5962 26.6913C11.3933 26.5309 11.0806 26.3122 10.9279 26.1049C10.9053 25.8113 10.8558 25.506 10.7962 25.2177C10.5995 24.2649 10.1864 23.2869 9.36753 22.7056C9.15124 22.5521 8.90096 22.4552 8.68086 22.3075C8.67318 22.3023 8.66558 22.2969 8.65796 22.2917Z" fill="#30426B"/>
<path d="M21.3413 23.7529C22.2753 24.9769 23.07 26.3508 23.7717 27.719C23.9637 28.0933 24.9995 30.375 25.1417 30.4804C24.8639 31.2962 24.5713 32.1014 24.2677 32.9079L23.5025 35.0255C23.3845 35.3604 23.2888 35.7628 23.1251 36.0751C22.223 35.2472 21.3918 33.7152 20.7854 32.644C20.8603 32.0085 21.026 31.3938 21.0696 30.7494C21.1343 29.7929 21.0656 28.8378 21.174 27.8799C21.1961 27.6748 21.2117 27.4688 21.23 27.2633C21.3469 26.1045 21.4417 24.9167 21.3413 23.7529Z" fill="#4EB08F"/>
<path d="M21.174 27.8799C21.7822 28.8727 22.4054 29.8571 23.0026 30.8566C23.4086 31.536 23.7779 32.2883 24.2677 32.9079L23.5025 35.0255C23.3845 35.3604 23.2888 35.7628 23.1251 36.0751C22.223 35.2471 21.3918 33.7152 20.7854 32.6439C20.8603 32.0085 21.026 31.3937 21.0696 30.7493C21.1343 29.7928 21.0656 28.8377 21.174 27.8799Z" fill="#16896E"/>
<path d="M26.8147 49.2964C26.8723 49.3491 26.9328 49.3972 26.9935 49.4463C27.4748 49.3696 28.0499 49.4622 28.5414 49.4644C29.5593 49.4689 30.5761 49.5037 31.5937 49.5207C32.359 49.5336 33.1337 49.519 33.8971 49.5651C34.0506 49.7011 34.205 49.8244 34.3733 49.9417L34.5055 50.0191C34.3291 50.3826 31.9394 52.9424 31.5493 53.3265C31.4657 53.4088 31.3352 53.5548 31.2226 53.5865C30.9624 53.6596 29.851 53.5596 29.5052 53.5498L24.4663 53.3783C23.3902 53.3334 22.3126 53.2648 21.2358 53.2434C21.7705 52.7229 22.3399 52.2384 22.899 51.7447C23.1438 51.5285 23.4159 51.3201 23.6366 51.081C23.6631 51.0456 23.6824 51.0367 23.7203 51.0156C23.8942 50.7414 24.2151 50.6038 24.4867 50.4421C24.6675 50.3828 24.8525 50.2681 25.023 50.1818C25.4438 49.9689 25.8568 49.7477 26.2885 49.5571C26.4652 49.4725 26.64 49.385 26.8147 49.2964Z" fill="#F7DBA0"/>
<path d="M28.0801 50.0542C28.2381 50.0257 28.4537 50.1296 28.6174 50.1557C28.9552 50.2097 29.2934 50.2225 29.6348 50.2264C29.4908 50.4642 29.3643 50.4745 29.1717 50.6386C28.8114 50.4356 28.4502 50.239 28.0801 50.0542Z" fill="#F4BB34"/>
<path d="M23.3049 51.9697C23.7681 52.0366 24.2341 52.0557 24.6985 52.1098L24.7005 52.1497L24.7756 52.1801C24.5278 52.3558 24.3043 52.6153 24.0282 52.7413C23.5718 52.6839 23.1124 52.6494 22.6543 52.6096C22.8662 52.3901 23.0821 52.178 23.3049 51.9697Z" fill="#F4BB34"/>
<path d="M31.2544 50.1021C31.3773 50.1088 31.5012 50.1267 31.6237 50.1395C30.846 50.7597 29.463 52.1061 28.9176 52.9025L28.4918 52.8821L28.1296 52.84C28.6042 52.4918 29.0175 52.0514 29.4599 51.6632C30.0573 51.139 30.6803 50.6546 31.2544 50.1021Z" fill="#F4BB34"/>
<path d="M23.6365 51.081C23.663 51.0456 23.6823 51.0367 23.7202 51.0156C23.9102 51.3642 25.711 52.6333 26.1143 52.7606C26.2305 52.7972 26.3433 52.8045 26.4636 52.7898C27.1569 52.3937 27.8585 52.0106 28.5627 51.6342C28.8799 51.4647 29.2147 51.3214 29.5201 51.1318C29.507 51.2613 29.4852 51.2971 29.3861 51.3779C29.0346 51.6645 27.1425 52.8103 26.7466 52.8452C26.6323 52.8992 26.5151 52.9328 26.3875 52.932C26.1213 52.9305 25.8443 52.857 25.5791 52.826C25.1922 52.7806 24.7981 52.7672 24.4094 52.7368C24.5215 52.6173 24.8393 52.4189 24.8599 52.2621L24.7756 52.1801L24.7005 52.1497L24.6985 52.1098C24.432 51.7048 23.7697 51.5875 23.6365 51.081Z" fill="#F4BB34"/>
<path d="M26.9934 49.4459C27.4747 49.3692 28.0498 49.4618 28.5413 49.464C29.5592 49.4685 30.576 49.5033 31.5936 49.5203C32.3589 49.5331 33.1336 49.5185 33.897 49.5647C34.0505 49.7006 34.2049 49.8239 34.3732 49.9413C34.2422 49.9442 34.1049 49.9179 33.973 49.9111C33.6658 49.8953 33.3581 49.8852 33.0506 49.8763C31.2163 49.8228 29.2529 49.6779 27.4357 49.7148C27.2782 49.6396 27.1377 49.5431 26.9934 49.4459Z" fill="#F4BB34"/>
<path d="M26.8146 49.2964C26.8722 49.3491 26.9328 49.3972 26.9935 49.4463C27.1378 49.5436 27.2783 49.64 27.4357 49.7152C27.6279 49.8284 27.8658 49.994 28.08 50.0545C28.4501 50.2392 28.8113 50.4358 29.1716 50.6389C29.2948 50.7053 29.4778 50.7684 29.5531 50.8843C29.5762 50.9818 29.5518 51.0411 29.5202 51.1317C29.2148 51.3214 28.8799 51.4647 28.5627 51.6342C27.8585 52.0106 27.1569 52.3936 26.4636 52.7898C26.3433 52.8045 26.2305 52.7972 26.1144 52.7606C25.711 52.6332 23.9102 51.3642 23.7202 51.0156C23.8941 50.7414 24.2151 50.6038 24.4867 50.4421C24.6675 50.3828 24.8524 50.2681 25.0229 50.1818C25.4438 49.9689 25.8567 49.7477 26.2884 49.5571C26.4651 49.4725 26.64 49.385 26.8146 49.2964Z" fill="#25A6C9"/>
<path d="M26.7172 49.9546C26.7916 49.9802 26.8834 50.0729 26.947 50.1236C26.2717 50.4996 25.5691 50.8291 24.8687 51.155C24.7699 51.1007 24.689 51.0298 24.6033 50.9574C25.3093 50.626 26.0169 50.2979 26.7172 49.9546Z" fill="#3972A1"/>
<path d="M27.3074 50.3691C27.4071 50.4268 27.4948 50.5284 27.5785 50.6077C26.8889 50.9048 26.2133 51.2416 25.547 51.5874C25.4383 51.5131 25.3253 51.4448 25.2136 51.3751C25.935 51.1133 26.6248 50.7181 27.3074 50.3691Z" fill="#3972A1"/>
<path d="M27.9418 50.7703C28.0623 50.7638 28.164 50.8715 28.2541 50.9427C27.6397 51.3554 26.8183 51.7245 26.1454 52.0453C26.0169 51.9727 25.9065 51.889 25.792 51.797C26.463 51.6134 27.3133 51.107 27.9418 50.7703Z" fill="#3972A1"/>
<path d="M11.541 50.273C11.9167 50.0713 12.4823 49.4948 12.823 49.1902L15.713 46.6501C16.2184 46.2147 16.7368 45.7083 17.3013 45.3517C17.4371 45.2659 17.5758 45.1958 17.7391 45.1988C18.0798 45.338 18.8476 46.4937 19.1222 46.8412C19.4497 47.3203 19.8048 47.7711 20.0866 48.2805L18.2767 52.6183C18.1791 52.6565 18.0866 52.7043 17.9904 52.7458C17.7964 52.8296 17.6015 52.8849 17.3881 52.8633C16.707 52.7944 15.842 52.5109 15.1352 52.3682L12.3856 51.8406C11.7781 51.7262 11.0933 51.6436 10.5195 51.4168C10.765 50.9886 11.1845 50.6136 11.541 50.273Z" fill="#F1AA3B"/>
<path d="M17.5815 47.2661L17.6134 47.2668C17.7823 47.4211 18.3012 49.5845 18.4061 49.9746C17.5805 50.2632 16.6917 50.4569 15.8466 50.6886L15.7759 50.6755C15.6571 50.4109 15.6091 50.0651 15.5291 49.7805C15.3683 49.2077 15.1942 48.6444 14.9985 48.0824C15.8423 47.7765 16.7213 47.5233 17.5815 47.2661Z" fill="#E68520"/>
<path d="M46.2184 39.4207C46.8803 39.3872 47.5432 39.4246 48.2042 39.3726C48.1924 40.1553 48.2077 40.9433 48.1745 41.7249L47.5712 41.7274C47.4818 42.5895 47.3206 43.4501 47.2494 44.3127C47.1442 44.9894 47.0595 45.6751 46.9826 46.3556L45.4209 46.3145C43.9149 46.2249 42.3979 46.2386 40.8899 46.1897C40.8212 45.4486 40.6759 44.6993 40.569 43.9615C40.4679 43.2244 40.3686 42.4871 40.2428 41.7536C40.2264 41.6805 40.1776 41.651 40.1235 41.6043C39.932 41.4391 39.7462 40.3846 39.727 40.1022C39.7141 39.9116 39.737 39.6796 39.8779 39.5349C39.9753 39.4349 40.1682 39.4159 40.2988 39.4023C40.6631 39.3644 41.0578 39.3971 41.4247 39.4013L43.5184 39.4218L43.6036 39.4215C44.0301 39.4531 45.6586 39.5098 45.984 39.4259L46.2184 39.4207Z" fill="#C47440"/>
<path d="M46.2185 39.4207C46.8804 39.3872 47.5433 39.4246 48.2042 39.3726C48.1925 40.1553 48.2078 40.9433 48.1746 41.7249L47.5713 41.7274C47.4819 42.5895 47.3207 43.4501 47.2495 44.3127C47.1443 44.9894 47.0596 45.6751 46.9827 46.3556L45.421 46.3145C45.4997 44.8957 45.6321 43.4809 45.7164 42.0632C44.6532 42.0049 43.5922 41.9391 42.5281 41.8935C41.9052 41.867 41.2672 41.8791 40.6479 41.8181C40.5315 41.8066 40.4657 41.8119 40.3745 41.7325C40.8771 41.8392 42.0664 41.744 42.6303 41.7352C43.6855 41.7187 44.7422 41.7277 45.7976 41.7264C45.8025 40.982 45.8543 40.2308 45.893 39.4871C46.0022 39.4704 46.1105 39.444 46.2185 39.4207Z" fill="#89422F"/>
<path d="M29.3074 40.9035C29.3156 40.903 29.3239 40.9026 29.3322 40.9021C29.5266 40.8891 29.7188 40.8235 29.9124 40.8213C30.3787 40.8162 30.953 41.1404 31.2984 41.4339C31.6337 41.7188 32.1846 42.3899 32.3015 42.8152C32.4294 43.0111 32.542 43.2206 32.6606 43.4225C33.0967 43.1699 33.5271 42.8624 33.9069 42.5317L33.9195 42.4587C34.4519 42.5705 34.786 42.8582 35.1426 43.255C36.3808 43.3557 37.6114 43.5232 38.8401 43.7033C39.4052 43.7862 40.0007 43.9343 40.5693 43.9619C40.6761 44.6997 40.8215 45.4489 40.8901 46.19C42.3982 46.2389 43.9151 46.2252 45.4211 46.3148L46.9828 46.356C47.0597 45.6754 47.1444 44.9898 47.2497 44.3131C47.3735 44.4278 48.2474 44.5301 48.4614 44.5739C49.0815 44.7007 50.9915 45.1512 51.035 45.9227C51.0463 46.1233 50.9109 46.3018 50.7786 46.4381C49.6223 47.6285 45.4587 48.5684 43.7953 49.0311C43.2731 50.0187 42.7818 51.023 42.2616 52.0119C42.0676 52.3806 41.8926 52.7759 41.6682 53.1261C41.6031 53.2277 41.5315 53.3446 41.4181 53.3952C41.0238 53.3223 40.3298 52.9242 39.952 52.7425C38.7761 52.177 37.614 51.5809 36.4281 51.0363C36.2302 50.9066 35.9921 50.8087 35.7798 50.702C35.4238 50.5232 35.0715 50.3394 34.7223 50.1472L34.5057 50.0194L34.3734 49.942C34.2051 49.8246 34.0508 49.7013 33.8972 49.5653C33.1338 49.5192 32.3591 49.5338 31.5939 49.521C30.5762 49.5039 29.5594 49.4692 28.5416 49.4647C28.05 49.4625 27.4749 49.3699 26.9936 49.4465C26.9329 49.3975 26.8724 49.3494 26.8148 49.2966C26.6402 49.3852 26.4653 49.4728 26.2886 49.5573C26.1558 49.4816 23.7722 49.4762 23.3879 49.4617C23.5262 49.3288 23.6366 49.1699 23.6424 48.972C23.6512 48.6702 23.4036 48.4448 23.2119 48.246C22.973 47.9435 22.7034 47.5279 22.3513 47.3547C22.846 47.3069 23.3411 47.2829 23.835 47.2214C25.1552 47.0569 26.4671 46.8213 27.7885 46.6652C28.1133 46.5402 28.3898 46.1335 28.6877 45.9337C28.7179 45.5908 28.6646 45.2098 28.6511 44.8628C28.6202 44.0587 28.6059 43.2697 28.7019 42.4698C28.7261 42.2761 28.7647 42.0905 28.8103 41.9008C28.8945 41.5546 29.0349 41.1465 29.3074 40.9035Z" fill="#ABD2D8"/>
<path d="M30.3169 46.4031C30.6767 46.2724 30.9541 46.1559 31.2342 45.8828C31.2285 45.9931 31.2237 46.1033 31.2116 46.213C31.1436 46.7352 30.9712 47.159 30.5486 47.4886C29.9738 47.937 28.9891 48.1658 28.2714 48.072C27.9818 48.0341 27.6851 47.9248 27.5061 47.6819C27.4104 47.552 27.3964 47.4174 27.3882 47.2613C27.495 47.0354 27.6249 46.8527 27.7884 46.6648C28.1133 46.5398 28.3897 46.1331 28.6876 45.9334C28.7738 46.1229 28.931 46.23 29.1222 46.3046C29.4973 46.4511 29.9231 46.4508 30.3169 46.4031Z" fill="#C8282A"/>
<path d="M28.6876 45.9331C28.7738 46.1226 28.931 46.2297 29.1222 46.3043C29.4973 46.4508 29.9231 46.4505 30.3169 46.4029C29.8506 47.008 29.2658 47.4321 28.491 47.5355C28.0397 47.5957 27.7667 47.4888 27.3882 47.261C27.495 47.0351 27.6249 46.8525 27.7884 46.6645C28.1133 46.5396 28.3897 46.1329 28.6876 45.9331Z" fill="#E2453F"/>
<path d="M33.919 42.4585C34.4515 42.5704 34.7856 42.858 35.1421 43.2548C35.631 43.9501 35.907 44.62 36.0113 45.4673L35.7215 45.5144C34.7976 45.6434 33.8789 45.8029 32.9572 45.9456C32.3771 46.0354 31.7863 46.0971 31.2112 46.2132C31.2234 46.1035 31.2281 45.9933 31.2338 45.883C31.7978 44.93 32.0978 43.8959 32.301 42.815C32.4289 43.0109 32.5416 43.2204 32.6602 43.4223C33.0963 43.1698 33.5267 42.8622 33.9064 42.5315L33.919 42.4585Z" fill="#30426B"/>
<path d="M33.9193 42.4585C34.4518 42.5704 34.7859 42.858 35.1424 43.2548C35.6313 43.9501 35.9072 44.62 36.0116 45.4673L35.7218 45.5144C35.4575 44.3247 34.7057 43.406 33.9067 42.5315L33.9193 42.4585Z" fill="#211110"/>
<path d="M29.3072 40.9035C29.3154 40.903 29.3237 40.9026 29.3319 40.9021C29.5264 40.8891 29.7186 40.8235 29.9122 40.8213C30.3785 40.8162 30.9528 41.1404 31.2982 41.4339C31.6335 41.7188 32.1844 42.3899 32.3013 42.8152C32.098 43.896 31.798 44.9302 31.2341 45.8832C30.9539 46.1563 30.6765 46.2728 30.3168 46.4035C29.9229 46.4511 29.4972 46.4514 29.122 46.305C28.9309 46.2303 28.7737 46.1233 28.6875 45.9337C28.7177 45.5908 28.6643 45.2098 28.6509 44.8628C28.62 44.0587 28.6057 43.2698 28.7017 42.4698C28.7259 42.2761 28.7645 42.0906 28.81 41.9009C28.8943 41.5546 29.0347 41.1465 29.3072 40.9035Z" fill="#F5B07E"/>
<path d="M36.4845 45.0249C37.199 45.3267 37.9119 45.6328 38.6353 45.9128C39.3024 46.1711 39.979 46.4038 40.64 46.6779C41.1403 46.8852 41.6294 47.1166 42.1223 47.3403C42.5624 47.5401 43.0911 47.7165 43.4939 47.9827C43.6993 48.1186 43.8494 48.3228 44.0062 48.5101C43.9476 48.6881 43.8697 48.8587 43.7951 49.0306C43.2729 50.0182 42.7816 51.0224 42.2614 52.0114C42.0674 52.3801 41.8924 52.7754 41.668 53.1256C41.6029 53.2272 41.5312 53.3441 41.4179 53.3947C41.0236 53.3218 40.3296 52.9237 39.9518 52.742C38.7759 52.1765 37.6138 51.5803 36.4279 51.0358C36.23 50.906 35.9919 50.8081 35.7796 50.7015C35.4236 50.5226 35.0712 50.3388 34.7221 50.1467L34.5055 50.0189L34.3732 49.9414C34.2049 49.8241 34.0506 49.7008 33.897 49.5648C34.0649 49.0804 34.441 48.602 34.6997 48.1562C35.3018 47.1188 35.9014 46.0731 36.4845 45.0249Z" fill="#30426B"/>
<path d="M43.5423 48.2256C43.567 48.3084 43.5772 48.3614 43.5516 48.4454C43.3813 49.0033 42.8756 49.8398 42.5938 50.3824C42.2821 50.983 41.9999 51.6011 41.6808 52.1972C41.5907 52.3656 41.4826 52.5353 41.3263 52.6483C41.175 52.6872 41.0351 52.6607 40.8887 52.6116C40.2629 52.4018 39.6439 52.0433 39.048 51.7559C37.8796 51.1925 36.7172 50.6395 35.5643 50.0432C35.3596 49.9373 35.1544 49.8285 34.9435 49.7355C34.7738 49.6608 34.5937 49.6026 34.4332 49.509C34.3637 49.4685 34.3111 49.4304 34.2573 49.3709C34.2445 49.3098 34.2462 49.2832 34.2682 49.2247C34.772 49.2985 36.243 50.0892 36.7927 50.3573C37.7147 50.8069 38.6586 51.2105 39.5903 51.6402C40.0276 51.8419 40.4499 52.0829 40.892 52.272C40.9866 52.3125 41.1289 52.379 41.2311 52.3723C41.3218 52.3663 41.428 52.2989 41.4803 52.2281C41.6611 51.9832 41.7719 51.6273 41.8993 51.3499C42.0993 50.9145 43.1793 48.6533 43.3914 48.4211C43.4495 48.3576 43.4963 48.2983 43.5423 48.2256Z" fill="#F7DBA0"/>
<path d="M36.5503 45.0967C37.0295 45.2823 37.4971 45.5173 37.9732 45.7148C38.8551 46.0805 43.1069 47.7132 43.5422 48.2252C43.4963 48.2979 43.4494 48.3572 43.3914 48.4207C43.1792 48.6529 42.0992 50.9141 41.8992 51.3495C41.7719 51.6269 41.661 51.9828 41.4802 52.2277C41.4279 52.2985 41.3217 52.3659 41.231 52.3719C41.1289 52.3786 40.9865 52.3121 40.8919 52.2716C40.4498 52.0825 40.0275 51.8415 39.5902 51.6398C38.6585 51.2101 37.7146 50.8065 36.7926 50.3569C36.2429 50.0888 34.7719 49.2981 34.2681 49.2243C34.8966 47.7987 35.8699 46.4957 36.5503 45.0967Z" fill="white"/>
<path d="M35.573 48.2746C35.636 48.1923 35.6764 48.1017 35.7449 48.0218C35.8423 48.0123 35.8828 48.0562 35.9656 48.1053L36.014 48.1609C35.9535 48.2532 35.9296 48.3161 35.8295 48.3657C35.7346 48.3498 35.6596 48.3155 35.573 48.2746Z" fill="#F1AA3B"/>
<path d="M36.9513 48.5249C37.0538 48.5582 37.1554 48.5924 37.2563 48.6304C37.22 48.7236 37.1904 48.8291 37.1181 48.9002L37.0495 48.9256C36.9693 48.8778 36.8958 48.8607 36.8518 48.7749C36.8751 48.6869 36.9134 48.6074 36.9513 48.5249Z" fill="#F1AA3B"/>
<path d="M36.6302 49.8037C36.5614 49.7754 36.5068 49.7481 36.4452 49.7051C36.4136 49.6258 36.4108 49.6157 36.4266 49.5323C36.4825 49.4619 36.5101 49.4433 36.5965 49.4189C36.6831 49.4363 36.6883 49.4384 36.7488 49.5024C36.7762 49.6159 36.753 49.6605 36.7215 49.7709L36.6302 49.8037Z" fill="#F1AA3B"/>
<path d="M36.4898 48.4136C36.5638 48.3782 36.6001 48.359 36.6807 48.3901C36.7386 48.4125 36.795 48.4474 36.8493 48.4775C36.8386 48.5277 36.8243 48.5965 36.8006 48.6413C36.7628 48.7126 36.7278 48.7202 36.6579 48.7502C36.5829 48.7376 36.5417 48.7332 36.4947 48.6637C36.437 48.5786 36.4712 48.5045 36.4898 48.4136Z" fill="#F1AA3B"/>
<path d="M35.5437 48.3706C35.6185 48.3975 35.7363 48.4268 35.7784 48.4998C35.8182 48.5688 35.8078 48.5979 35.7898 48.6692C35.7273 48.7255 35.7125 48.7334 35.6306 48.7526C35.5321 48.7308 35.4456 48.6903 35.3821 48.6092L35.5437 48.3706Z" fill="#F4BB34"/>
<path d="M36.0501 49.0182C35.996 48.9736 35.9407 48.9308 35.8851 48.888C35.8451 48.8057 35.8409 48.7597 35.8403 48.6709C35.8819 48.6022 35.8851 48.6041 35.961 48.5762C36.0722 48.5847 36.1465 48.6251 36.2441 48.6767C36.1952 48.7786 36.1393 48.9499 36.0501 49.0182Z" fill="#F4BB34"/>
<path d="M35.9656 48.1055C36.1358 48.1497 36.3288 48.1991 36.4651 48.3146C36.4634 48.3709 36.4734 48.3509 36.4517 48.3802C36.3983 48.4333 36.3466 48.4768 36.3227 48.5505C36.2292 48.5485 36.1408 48.553 36.0533 48.5155C35.9997 48.4172 36.0644 48.3569 36.0705 48.2496C36.0732 48.203 36.0443 48.1924 36.014 48.161L35.9656 48.1055Z" fill="#F1AA3B"/>
<path d="M35.704 48.9512C35.8022 49.0013 35.8849 49.0386 35.9934 49.06C35.9779 49.2183 35.9007 49.3166 35.8047 49.4385C35.6975 49.3865 35.6034 49.3316 35.5076 49.2606L35.704 48.9512Z" fill="#F4BB34"/>
<path d="M36.3439 48.7456C36.4575 48.7745 36.5586 48.8244 36.6638 48.8742C36.6088 48.9988 36.5445 49.1106 36.4734 49.2263C36.4146 49.205 36.3522 49.185 36.2962 49.1571C36.2251 49.1215 36.2097 49.0912 36.1843 49.0187C36.2073 48.9073 36.2754 48.8339 36.3439 48.7456Z" fill="#F4BB34"/>
<path d="M36.7511 48.917C36.8503 48.9374 36.9498 48.9547 37.0498 48.9715L37.0826 49.017C37.0295 49.1464 36.9641 49.2719 36.9129 49.4014L36.8829 49.4121C36.7758 49.4062 36.6625 49.3277 36.5686 49.2783C36.6271 49.1568 36.69 49.0372 36.7511 48.917Z" fill="#F4BB34"/>
<path d="M36.8499 45.9097C37.0823 45.9296 38.2566 46.4574 38.4867 46.6002L38.4926 46.6735C38.2241 46.6353 37.0617 46.1649 36.8515 46.0113L36.8499 45.9097Z" fill="#C8282A"/>
<path d="M40.571 51.591C40.6879 51.4677 40.7434 51.2111 40.8852 51.1562C41.0266 51.2681 41.1679 51.3099 41.335 51.3666L41.1289 51.8071C40.94 51.7407 40.7554 51.669 40.571 51.591Z" fill="#8AB16F"/>
<path d="M38.0729 49.9233C38.1428 49.9056 38.1358 49.9039 38.1977 49.9407C38.3535 50.0335 38.5327 50.1329 38.6687 50.2514C38.4974 50.3111 38.4311 50.5008 38.3565 50.6532C38.1824 50.5712 38.0107 50.483 37.8381 50.3977C37.9235 50.2415 38.0045 50.0879 38.0729 49.9233Z" fill="#F1AA3B"/>
<path d="M39.8293 50.6128C40.0018 50.68 40.1839 50.7331 40.3193 50.8641L40.3167 50.9137L40.2376 50.983C40.1771 51.118 40.1171 51.2531 40.0544 51.387C40.0108 51.3413 39.9465 51.3152 39.8912 51.2849C39.7135 51.2159 39.5336 51.1537 39.3535 51.0911C39.3944 50.99 39.5009 50.9151 39.5806 50.8434C39.6711 50.7767 39.7493 50.6916 39.8293 50.6128Z" fill="#A0C076"/>
<path d="M39.7638 51.1058C39.7772 51.0461 39.7923 50.9731 39.8253 50.9212C39.8662 50.857 39.9387 50.8466 40.0063 50.832C40.1318 50.8718 40.1704 50.8619 40.2376 50.9827C40.1771 51.1177 40.1171 51.2529 40.0544 51.3867C40.0108 51.3411 39.9466 51.3149 39.8913 51.2847L39.8731 51.2047L39.7576 51.1457L39.7638 51.1058Z" fill="#8AB16F"/>
<path d="M38.1702 48.6025C38.2168 48.7788 38.0045 49.0237 38.1764 49.1475C38.1891 49.1567 38.2045 49.1612 38.2186 49.1681C38.2911 49.2446 38.3665 49.3197 38.4355 49.3993C38.3561 49.549 38.2719 49.698 38.1996 49.8511C38.012 49.7599 37.8446 49.6382 37.6494 49.5594C37.8466 49.2562 37.9904 48.9169 38.1702 48.6025Z" fill="#F4BB34"/>
<path d="M37.6495 49.5596C37.8447 49.6384 38.0121 49.7601 38.1997 49.8513C38.3562 49.9508 38.5117 50.0546 38.6719 50.148C38.7808 50.2153 38.8872 50.2686 39.0057 50.3171C39.1254 50.3686 39.244 50.4194 39.3669 50.463L39.2935 50.5164C39.1546 50.5332 39.0859 50.4995 38.969 50.4249C38.8706 50.3621 38.7717 50.3069 38.6689 50.2518C38.5328 50.1333 38.3537 50.0339 38.1979 49.9411C38.136 49.9043 38.143 49.906 38.0731 49.9237L38.0015 49.9505C37.9683 50.027 37.9034 50.1424 37.897 50.2247L37.8189 50.329C37.7628 50.3379 37.7214 50.3283 37.668 50.3108C37.559 50.2751 37.4352 50.1962 37.3799 50.0929L37.4075 50.0128C37.4866 49.8609 37.5682 49.7103 37.6495 49.5596Z" fill="#B8D05F"/>
<path d="M38.6689 50.2515C38.7717 50.3065 38.8707 50.3618 38.969 50.4245C39.0859 50.4992 39.1546 50.5328 39.2935 50.516L39.3669 50.4627L39.6055 50.5605C39.503 50.7371 39.364 50.8863 39.2587 51.0594C38.9658 50.9108 38.6518 50.8014 38.3567 50.6533C38.4313 50.5009 38.4976 50.3111 38.6689 50.2515Z" fill="#E68520"/>
<path d="M40.9437 48.2214C41.0527 48.0275 41.1577 47.8316 41.2623 47.6353C41.566 47.7696 41.875 47.9009 42.1671 48.0591L42.1375 48.248C42.0896 48.2541 42.0634 48.2571 42.0198 48.2795C42.0063 48.2809 41.9929 48.2836 41.9793 48.2836C41.8884 48.2833 41.8124 48.226 41.7316 48.1899C41.6858 48.2408 41.66 48.2819 41.6328 48.3446L41.6468 48.3393L41.587 48.4345C41.5001 48.3952 41.4411 48.3612 41.343 48.3816C41.3931 48.465 41.3855 48.49 41.3832 48.5847C41.3447 48.6436 41.3083 48.6841 41.2552 48.7303C41.2673 48.8643 41.3846 48.8562 41.2881 49.0023C41.1012 48.9759 40.831 48.8201 40.6511 48.7436L40.9437 48.2214Z" fill="#4EB08F"/>
<path d="M37.4091 46.6562L37.7995 46.6653C37.9273 46.7793 38.0232 46.8897 38.1208 47.0289C38.0367 47.209 37.8936 47.6333 37.7271 47.7377C37.6881 47.7623 37.6373 47.7348 37.5953 47.7247C37.306 47.5818 37.0224 47.5441 36.782 47.3074C36.8797 47.2198 36.9324 47.1503 36.9889 47.0337C37.0375 46.9331 37.0615 46.8615 37.1752 46.8246C37.3033 46.783 37.3309 46.7605 37.4091 46.6562Z" fill="#E2453F"/>
<path d="M38.2187 49.1679C38.2879 49.1124 38.3431 49.0947 38.4304 49.0889C38.4429 49.1289 38.4511 49.1497 38.4754 49.185C38.5713 49.1128 38.5932 49.1124 38.7077 49.0998C38.675 49.1969 38.6256 49.3056 38.6315 49.4083C38.7748 49.5264 38.9305 49.5874 39.1084 49.6354L39.1125 49.663C39.1772 49.7497 39.2407 49.8315 39.3574 49.8437C39.4449 49.8528 39.5147 49.8145 39.5799 49.7614L39.6201 49.7095C39.6929 49.7462 39.705 49.8228 39.7371 49.896L39.8139 49.9503C39.8294 50.0578 39.7871 50.1575 39.7547 50.2586L39.6768 50.418L39.6661 50.4648L39.6054 50.5604L39.3668 50.4626C39.244 50.4189 39.1253 50.3682 39.0057 50.3166C38.8872 50.2681 38.7808 50.2149 38.6719 50.1475C38.5116 50.0541 38.3562 49.9504 38.1997 49.8508C38.272 49.6977 38.3562 49.5487 38.4356 49.399C38.3666 49.3194 38.2912 49.2444 38.2187 49.1679Z" fill="#643D4C"/>
<path d="M39.1125 49.6634C39.066 49.7291 39.0297 49.7778 38.9611 49.8231C38.8427 49.8404 38.7089 49.8353 38.6035 49.7712C38.5252 49.7237 38.4966 49.6665 38.4758 49.5808C38.5078 49.4934 38.5596 49.4611 38.6315 49.4087C38.7748 49.5268 38.9305 49.5877 39.1084 49.6358L39.1125 49.6634Z" fill="#B58F95"/>
<path d="M39.5858 49.9316C39.609 50.0098 39.6162 50.0675 39.6164 50.149C39.5783 50.2089 39.5751 50.2277 39.4996 50.2388C39.4087 50.2522 39.3102 50.2252 39.226 50.1943L39.1357 50.2507C39.0874 50.2695 39.048 50.287 39.0057 50.3171C38.8872 50.2686 38.7807 50.2154 38.6719 50.148C38.8699 49.9408 39.3179 49.9516 39.5858 49.9316Z" fill="#441A17"/>
<path d="M39.5799 49.7619L39.62 49.71C39.6928 49.7466 39.7049 49.8232 39.737 49.8964L39.8138 49.9507C39.8294 50.0583 39.787 50.158 39.7546 50.2591L39.6767 50.4184L39.666 50.4653L39.6054 50.5608L39.3668 50.463C39.2439 50.4193 39.1253 50.3686 39.0056 50.317C39.0479 50.287 39.0874 50.2694 39.1357 50.2506L39.226 50.1942C39.3101 50.2251 39.4087 50.2521 39.4995 50.2388C39.5751 50.2276 39.5782 50.2088 39.6164 50.149C39.6161 50.0674 39.609 50.0098 39.5858 49.9316C39.5786 49.8767 39.5814 49.8174 39.5799 49.7619Z" fill="#972C2B"/>
<path d="M39.1357 50.2505C39.292 50.3745 39.4945 50.3479 39.6767 50.4183L39.666 50.4651L39.6054 50.5607L39.3668 50.4629C39.2439 50.4192 39.1253 50.3685 39.0056 50.3169C39.0479 50.2869 39.0874 50.2693 39.1357 50.2505Z" fill="#643D4C"/>
<path d="M42.1372 48.248L42.1668 48.0591C42.3832 48.1541 42.5988 48.2535 42.819 48.3393L42.6459 48.7476C42.5282 49.0004 42.4157 49.2573 42.2859 49.504C42.102 49.4034 41.9204 49.298 41.725 49.2212C41.576 49.1572 41.4322 49.0764 41.2879 49.0023C41.3843 48.8563 41.2671 48.8643 41.2549 48.7303C41.3081 48.6841 41.3444 48.6437 41.3829 48.5847C41.3853 48.49 41.3928 48.465 41.3427 48.3816C41.4409 48.3612 41.4998 48.3952 41.5867 48.4345L41.6465 48.3393L41.6325 48.3447C41.6597 48.2819 41.6855 48.2408 41.7314 48.1899C41.8122 48.2261 41.8882 48.2833 41.979 48.2836C41.9926 48.2836 42.006 48.2809 42.0196 48.2795C42.0631 48.2571 42.0893 48.2541 42.1372 48.248Z" fill="#8AB16F"/>
<path d="M41.3428 48.3816C41.4409 48.3612 41.4998 48.3952 41.5867 48.4345C41.7068 48.4811 41.8305 48.525 41.9577 48.5476C42.0089 48.7736 41.7482 48.9932 41.725 49.2212C41.576 49.1572 41.4322 49.0763 41.2879 49.0023C41.3843 48.8562 41.2671 48.8643 41.2549 48.7303C41.3081 48.6841 41.3444 48.6436 41.3829 48.5846C41.3853 48.4899 41.3928 48.465 41.3428 48.3816Z" fill="#A0C076"/>
<path d="M41.4131 48.7703C41.5101 48.7679 41.5922 48.7541 41.6651 48.8224L41.6552 48.8958C41.6054 48.9227 41.5824 48.9294 41.5258 48.9252C41.4584 48.8805 41.445 48.8416 41.4131 48.7703Z" fill="#8AB16F"/>
<path d="M38.1703 48.6025L38.2019 48.5241C38.3751 48.4692 38.7743 48.681 38.95 48.7522C39.3258 48.8962 39.7228 49.1221 40.1109 49.2152C40.0197 49.3928 39.7917 49.7548 39.8139 49.9505L39.7371 49.8962C39.705 49.8231 39.6929 49.7465 39.6201 49.7098L39.5799 49.7617C39.5147 49.8148 39.4449 49.8531 39.3574 49.844C39.2407 49.8318 39.1772 49.75 39.1125 49.6633L39.1084 49.6357C38.9304 49.5876 38.7748 49.5267 38.6315 49.4086C38.6256 49.3058 38.675 49.1971 38.7077 49.1001C38.5932 49.1127 38.5713 49.1131 38.4754 49.1853C38.4511 49.15 38.4429 49.1291 38.4304 49.0891C38.3431 49.0949 38.2879 49.1127 38.2187 49.1682C38.2046 49.1612 38.1892 49.1567 38.1765 49.1475C38.0046 49.0237 38.2169 48.7788 38.1703 48.6025Z" fill="#A18F98"/>
<path d="M39.0949 46.7173C39.3882 46.7975 39.6665 46.9119 39.9456 47.0309C39.8704 47.2084 39.7526 47.3856 39.7045 47.5709C39.8359 47.4292 39.9063 47.2429 39.988 47.0696C40.3193 47.187 40.6495 47.3238 40.9671 47.4743C40.8221 47.8279 40.3912 48.7946 40.1542 49.0539L40.0969 49.0535C39.8083 48.8966 39.4913 48.7763 39.1884 48.6487C39.2318 48.5395 39.5029 48.0303 39.4896 47.9668C39.3533 48.1087 39.2073 48.4495 39.1467 48.6372C38.8744 48.519 38.5991 48.408 38.3242 48.2959C38.5658 47.7616 38.8676 47.2605 39.0949 46.7173Z" fill="#F4BB34"/>
<path d="M40.558 48.9229C41.1114 49.1546 41.6344 49.4417 42.1913 49.6682C42.0785 49.903 41.9755 50.1929 41.8257 50.4031C41.6764 50.7123 41.5293 51.087 41.3349 51.3668C41.1677 51.31 41.0265 51.2683 40.8851 51.1564C40.7433 51.2113 40.6878 51.4679 40.5709 51.5912L40.5205 51.5658C40.3961 51.5003 40.2771 51.4433 40.1439 51.3966L40.0543 51.3867C40.1171 51.2528 40.177 51.1176 40.2375 50.9827L40.3167 50.9134L40.3193 50.8637C40.1839 50.7328 40.0017 50.6797 39.8292 50.6125L39.8359 50.5949C39.781 50.5179 39.7543 50.4989 39.666 50.4651L39.6767 50.4182L39.7546 50.2589C39.787 50.1578 39.8294 50.0581 39.8138 49.9505C39.7917 49.7548 40.0196 49.3928 40.1109 49.2151C40.143 49.3069 40.1366 49.3661 40.1234 49.4591C40.1396 49.4769 40.1561 49.4997 40.1759 49.5133C40.2152 49.4678 40.2595 49.4256 40.3014 49.3825C40.3878 49.2314 40.4836 49.0798 40.558 48.9229Z" fill="#D3D0B1"/>
<path d="M40.6681 49.9067C40.7544 49.9264 40.8301 49.9534 40.8991 50.01C40.9195 50.1067 40.8966 50.1321 40.8591 50.2213C40.8428 50.2211 40.8265 50.2229 40.8104 50.221C40.7401 50.2129 40.7005 50.1837 40.6533 50.1349C40.6249 50.0263 40.635 50.0095 40.6681 49.9067Z" fill="#B8D05F"/>
<path d="M41.1881 51.0834C41.1817 51.0753 41.1761 51.0664 41.1689 51.059C41.1232 51.012 41.0734 50.985 41.0587 50.9165C41.0434 50.8455 41.0481 50.8098 41.0919 50.7541C41.1545 50.731 41.1668 50.7085 41.2301 50.737C41.1994 50.8019 41.1621 50.8453 41.1764 50.9175L41.2459 50.9225L41.307 50.8546C41.3913 50.8304 41.4152 50.8597 41.4923 50.8969C41.4391 50.9817 41.3961 51.07 41.3072 51.1218C41.2468 51.1164 41.2334 51.1269 41.1881 51.0834Z" fill="#A0C076"/>
<path d="M41.097 49.9731C41.1967 50.0004 41.2503 50.0666 41.3199 50.1378C41.2504 50.2279 41.1899 50.3204 41.1297 50.4168C41.0605 50.4065 41.0119 50.3692 40.955 50.3317L40.9184 50.3398C40.9049 50.4117 40.8925 50.3994 40.9371 50.4652L41.1015 50.5171C41.1066 50.5512 41.113 50.58 41.1085 50.6143L40.9834 50.6251C40.8775 50.5677 40.8002 50.5287 40.6794 50.517C40.8221 50.3326 41.0188 50.1962 41.097 49.9731Z" fill="#B8D05F"/>
<path d="M40.6798 50.5171C40.8006 50.5287 40.8778 50.5678 40.9837 50.6252L41.1088 50.6144C41.0537 50.7281 40.9969 50.8889 40.9221 50.9873C40.8753 51.0489 40.8351 51.0661 40.7616 51.0797C40.7008 51.034 40.643 50.9853 40.5846 50.9366L40.6198 50.8515C40.5849 50.7787 40.4696 50.7953 40.3967 50.748C40.4388 50.6549 40.5941 50.5758 40.6798 50.5171Z" fill="#A0C076"/>
<path d="M40.3871 50.9053C40.5114 50.9965 40.621 51.0666 40.7669 51.1223C40.6884 51.2651 40.6244 51.4418 40.5206 51.5655C40.3962 51.5 40.2772 51.443 40.144 51.3963C40.1759 51.2152 40.2892 51.0579 40.3871 50.9053Z" fill="#4EB08F"/>
<path d="M40.342 49.9585C40.3733 50.0414 40.5095 50.1226 40.4937 50.1733L40.4013 50.2505L40.4103 50.2978C40.4975 50.3111 40.5507 50.2371 40.6396 50.2301L40.6671 50.2705L40.6518 50.3273L40.5203 50.3487C40.4702 50.4417 40.421 50.5841 40.332 50.6387C40.194 50.5879 40.072 50.5571 39.9255 50.5458C40.0303 50.3566 40.1884 50.1086 40.342 49.9585Z" fill="#A0C076"/>
<path d="M40.1108 49.2153C40.143 49.3071 40.1366 49.3663 40.1234 49.4593C40.1395 49.4771 40.1561 49.4999 40.1758 49.5135C40.1285 49.6025 40.0951 49.6331 40.1103 49.7348C40.1231 49.7427 40.136 49.7504 40.1486 49.7584C40.2379 49.8153 40.3036 49.8552 40.342 49.9585C40.1884 50.1085 40.0302 50.3566 39.9255 50.5457L39.8359 50.5951C39.781 50.5181 39.7543 50.4991 39.666 50.4653L39.6767 50.4184L39.7546 50.2591C39.787 50.158 39.8294 50.0583 39.8138 49.9507C39.7916 49.755 40.0196 49.393 40.1108 49.2153Z" fill="#F7DBA0"/>
<path d="M40.5581 48.9229C41.1114 49.1546 41.6345 49.4417 42.1913 49.6682C42.0785 49.903 41.9756 50.1929 41.8258 50.4031C41.6765 50.7123 41.5294 51.087 41.335 51.3668C41.1678 51.31 41.0266 51.2683 40.8852 51.1564C40.9204 51.0961 40.9222 51.0861 40.9846 51.0571C41.0341 51.0976 41.0696 51.13 41.1325 51.1459L41.1882 51.0831C41.2335 51.1267 41.2469 51.1161 41.3072 51.1215C41.3962 51.0697 41.4392 50.9815 41.4924 50.8966C41.4599 50.8357 41.4394 50.7913 41.377 50.7555C41.3341 50.7307 41.3129 50.7177 41.2784 50.6819C41.3442 50.6618 41.3737 50.691 41.4344 50.7177C41.4921 50.6883 41.5005 50.6749 41.5373 50.6206C41.4693 50.5152 41.2984 50.5534 41.2144 50.446L41.2273 50.3787C41.2759 50.3222 41.3128 50.2659 41.3887 50.2476C41.5072 50.2785 41.6026 50.3614 41.7009 50.4318L41.7441 50.4263C41.6814 50.3054 41.521 50.2196 41.4111 50.1414C41.4634 50.0183 41.6335 49.7967 41.6113 49.6784L41.5205 49.6545C41.4933 49.8047 41.4486 50.0361 41.3201 50.1376C41.2505 50.0664 41.1969 50.0003 41.0973 49.973C41.0891 49.891 41.1064 49.8891 41.148 49.822C41.1412 49.7376 41.0842 49.7153 41.0227 49.6613C40.798 49.7427 40.5815 49.3407 40.3015 49.3824C40.3879 49.2314 40.4837 49.0798 40.5581 48.9229Z" fill="#A0C076"/>
<path d="M27.7589 22.6466C27.8926 21.1365 28.2637 19.779 29.2113 18.5601C30.1439 17.3605 31.5681 16.6906 33.0586 16.5156C35.1072 16.275 37.1538 16.8914 38.7696 18.1583L38.8109 18.1492C39.0125 18.5259 39.3389 18.6079 39.6467 18.8697C39.6525 18.8818 39.6581 18.8941 39.6641 18.9061C39.7454 19.0682 39.9446 19.2383 40.0618 19.3835C40.2205 19.5799 40.3589 19.7932 40.4877 20.0102C41.3185 21.4099 41.1931 23.1977 40.7434 24.7C40.5329 25.4028 40.2518 26.1793 39.8436 26.794C40.0322 27.0688 40.1014 27.3213 40.0408 27.6583C39.9537 28.1426 39.6035 28.5488 39.2023 28.8143C38.7224 29.1316 38.1106 29.2733 37.5445 29.1516C37.3833 29.1169 37.2381 29.0577 37.0921 28.9815C36.4498 29.6373 36.006 29.7217 35.1946 30.0655L34.5843 30.1343C34.4043 30.1233 33.9264 30.1436 33.7704 30.2178C32.4876 30.1387 31.3145 29.8467 30.1547 29.2846L29.8995 29.2073C29.7711 29.0742 29.5597 28.9788 29.3997 28.884C28.8796 28.5755 28.4154 28.2592 28.0504 27.7661C27.4925 27.0125 27.4332 26.186 27.5673 25.2869C27.2323 25.0456 26.9596 24.785 26.8412 24.3738C26.7339 24.0011 26.796 23.5836 26.9924 23.2506C27.1541 22.9764 27.4463 22.7249 27.7589 22.6466Z" fill="url(#paint0_linear_596_2783)"/>
<path d="M38.8367 27.1211C38.933 27.1135 39.0322 27.1032 39.1278 27.1218C39.2722 27.1499 39.4262 27.2417 39.5095 27.363C39.4259 27.3848 39.2937 27.3283 39.2074 27.3037C39.1671 27.2922 39.1266 27.279 39.0851 27.2721C38.9074 27.2428 38.7264 27.3404 38.5866 27.4375L38.5549 27.46C38.4575 27.5527 38.3877 27.6655 38.3033 27.769C38.2415 27.845 38.1912 27.8728 38.0949 27.8811C38.0835 27.8373 38.0829 27.8591 38.1056 27.8063C38.2425 27.4891 38.5233 27.2437 38.8367 27.1211Z" fill="#C47440"/>
<path d="M31.7574 25.6853C31.8813 25.6777 31.9738 25.6853 32.0928 25.7212L32.0737 25.8087C31.9303 25.8613 31.741 25.9249 31.6241 26.0234C31.5651 26.0731 31.5188 26.1452 31.5276 26.2249C31.5456 26.3863 31.7451 26.558 31.863 26.6557L31.8787 26.6688L31.8644 26.6998C31.7824 26.701 31.7286 26.6862 31.6533 26.6518C31.5107 26.5867 31.4096 26.4759 31.3569 26.327C31.3117 26.1992 31.322 26.0624 31.3886 25.9441C31.4748 25.7912 31.5954 25.7343 31.7574 25.6853Z" fill="#C47440"/>
<path d="M35.0765 23.3099C35.0848 23.3096 35.093 23.309 35.1013 23.3088C35.3361 23.3045 35.4912 23.3637 35.6584 23.5333C35.7736 23.6501 35.8459 23.7876 35.8425 23.9541C35.8397 24.0931 35.7913 24.1543 35.6931 24.2428C35.5138 24.1214 35.424 23.9564 35.3127 23.7757C35.19 23.7122 35.0119 23.6879 34.9203 23.5795C34.8895 23.543 34.9003 23.5244 34.9014 23.48C34.9476 23.3968 35.0002 23.3615 35.0765 23.3099Z" fill="#89422F"/>
<path d="M30.0979 22.1406C30.173 22.1366 30.2496 22.1315 30.3248 22.134C30.4589 22.1385 30.5788 22.2048 30.6629 22.3076C30.731 22.3908 30.7458 22.4602 30.7374 22.5648C30.6925 22.64 30.6829 22.6457 30.6043 22.6855C30.4832 22.6944 30.3932 22.622 30.2938 22.5614C30.1746 22.5491 30.0969 22.5685 29.9821 22.5979C29.8417 22.6339 29.7087 22.6757 29.5786 22.598C29.5755 22.5341 29.5692 22.53 29.6007 22.4686C29.7039 22.2677 29.8955 22.2031 30.0979 22.1406Z" fill="#C45828"/>
<path d="M30.78 27.0317C31.0413 27.093 31.3005 27.1905 31.5565 27.2722C31.7923 27.3266 32.5631 27.42 32.6766 27.5621C32.7376 27.6385 32.7383 27.7367 32.7157 27.8267C32.6827 27.9581 32.6213 28.0798 32.5617 28.2007C32.5379 28.1214 32.5052 28.0399 32.4658 27.9671C32.2729 27.6109 31.8988 27.4188 31.53 27.2982C31.3095 27.2819 31.173 27.281 30.9974 27.4304C30.9651 27.4579 30.9353 27.4879 30.9046 27.517C30.8781 27.542 30.8509 27.5665 30.8242 27.5914C30.8039 27.5632 30.7876 27.5414 30.7749 27.5088L30.78 27.0317Z" fill="#972C2B"/>
<path d="M27.7262 23.2688C27.7278 23.1199 27.733 22.9778 27.7557 22.8301C27.7599 23.0598 27.7017 23.6885 27.8037 23.8644C27.7333 24.1751 27.6988 24.4922 27.6578 24.8077C27.4336 24.7102 27.2411 24.631 27.1496 24.3858C27.078 24.1939 27.1177 23.9725 27.1993 23.7903C27.308 23.5475 27.4805 23.3684 27.7262 23.2688Z" fill="#F2A46E"/>
<path d="M29.8498 24.1592C29.933 24.1591 30.0183 24.1571 30.0971 24.1876C30.2487 24.2463 30.3679 24.3699 30.4256 24.5213C30.5041 24.7274 30.4835 24.9675 30.3857 25.1633C30.2883 25.3581 30.1518 25.462 29.9482 25.5293C29.865 25.5301 29.7869 25.5273 29.7079 25.4984C29.5576 25.4435 29.4366 25.3244 29.3738 25.1783C29.2954 24.9957 29.2984 24.7753 29.3739 24.5924C29.472 24.3549 29.6186 24.2539 29.8498 24.1592Z" fill="#211110"/>
<path d="M34.3966 25.2729C34.4733 25.2764 34.5454 25.2823 34.6179 25.3094C34.7652 25.3645 34.8787 25.4748 34.936 25.6214C35.0144 25.822 34.9894 26.0635 34.8981 26.2556C34.7898 26.4832 34.6568 26.579 34.4236 26.6574C34.3404 26.6554 34.255 26.6557 34.1764 26.6252C34.0327 26.5694 33.9198 26.4574 33.8639 26.3139C33.7861 26.1141 33.806 25.8745 33.8984 25.6831C34.0083 25.4556 34.1631 25.3523 34.3966 25.2729Z" fill="#211110"/>
<path d="M30.7751 27.5089C30.7879 27.5415 30.8041 27.5632 30.8244 27.5914C30.8511 27.5665 30.8783 27.5421 30.9048 27.517C30.9356 27.4879 30.9654 27.4579 30.9976 27.4304C31.1732 27.281 31.3098 27.282 31.5302 27.2982C31.899 27.4188 32.2731 27.6109 32.466 27.9671C32.5054 28.0399 32.5381 28.1214 32.5619 28.2007C32.5428 28.2373 32.5437 28.2381 32.5154 28.2778C32.3702 28.4809 32.1321 28.6267 31.8844 28.6573C31.6375 28.6878 31.3842 28.6096 31.1933 28.4514C30.9053 28.2127 30.8103 27.8657 30.7751 27.5089Z" fill="#E2453F"/>
<path d="M27.7588 22.6466C27.8925 21.1365 28.2636 19.779 29.2112 18.5601C30.1438 17.3605 31.568 16.6906 33.0585 16.5156C35.1071 16.275 37.1537 16.8914 38.7695 18.1584L38.8108 18.1492C39.0124 18.5259 39.3388 18.6079 39.6466 18.8697C39.6524 18.8818 39.658 18.8941 39.664 18.9061C39.7453 19.0682 39.9445 19.2383 40.0617 19.3835C40.2204 19.5799 40.3588 19.7932 40.4876 20.0102C41.3184 21.4099 41.193 23.1977 40.7433 24.7C40.5328 25.4028 40.2517 26.1793 39.8435 26.794C39.7272 26.6758 39.5421 26.5745 39.388 26.5173C38.9989 26.373 38.6436 26.456 38.278 26.6137C38.8124 25.2172 38.947 23.303 38.2818 21.9313C37.9434 21.2332 37.5573 20.8224 37.5665 20.0116C37.0381 20.2751 36.4526 20.478 35.8607 20.5242C34.6356 20.6199 32.3237 19.9157 31.0356 19.6177C31.5491 19.4743 32.0909 19.4706 32.6104 19.3622C32.7817 19.2485 32.967 19.3564 33.1193 19.2469L33.1068 19.1954C33.0118 19.172 32.9178 19.1529 32.8214 19.1368L32.849 19.106C31.9639 18.8678 30.7951 18.8655 29.9874 19.334C28.9236 19.9511 28.4736 21.0964 28.18 22.2319C28.0402 22.7726 27.9169 23.3173 27.8034 23.864C27.7014 23.6881 27.7597 23.0594 27.7554 22.8296L27.7588 22.6466Z" fill="#C47440"/>
<path d="M32.6106 19.3621C32.7819 19.2485 32.9672 19.3563 33.1195 19.2469L33.107 19.1954C33.012 19.172 32.918 19.1529 32.8216 19.1368L32.8492 19.106C33.1705 19.1525 33.4952 19.2124 33.8106 19.2903C33.4087 19.3045 33.0115 19.3344 32.6106 19.3621Z" fill="#F7DBA0"/>
<path d="M30.1548 29.2847C31.3146 29.8468 32.4877 30.1387 33.7705 30.2179C33.9265 30.1436 34.4043 30.1233 34.5843 30.1343L35.1947 30.0655C35.3512 30.1432 35.4997 30.2278 35.649 30.3185C35.9399 30.4651 36.221 30.6124 36.4818 30.8102C37.2715 31.409 37.9198 32.3772 38.2271 33.3153C38.5067 34.1689 38.5641 35.2735 38.1448 36.0933C37.8196 36.7291 37.2564 37.1973 36.5759 37.4078C36.449 37.4471 36.3217 37.4746 36.191 37.4977C36.2975 38.8926 35.8329 40.0924 35.0017 41.1923C34.8368 41.4003 34.673 41.6093 34.5025 41.8129C34.3285 42.0466 34.0856 42.2254 33.9194 42.4582L33.9068 42.5313C33.527 42.862 33.0967 43.1695 32.6605 43.4221C32.5419 43.2202 32.4292 43.0107 32.3014 42.8148C32.1845 42.3895 31.6336 41.7184 31.2983 41.4335C30.9529 41.14 30.3787 40.8158 29.9123 40.8209C29.7187 40.8231 29.5265 40.8886 29.3321 40.9016C29.3238 40.9022 29.3155 40.9026 29.3074 40.903C29.0348 41.1461 28.8944 41.5542 28.8102 41.9004C28.5564 41.8978 28.2853 41.9615 28.0319 41.9904C27.5605 42.0445 27.0901 42.0565 26.6172 42.0143C26.3178 41.9876 25.8632 41.9421 25.6587 41.699C24.987 41.7091 24.3193 41.6506 23.6538 41.5662C23.0868 41.4189 22.5092 41.3297 21.9437 41.1666C21.9851 40.5507 22.0007 39.9256 21.9249 39.3113C21.8952 39.0704 21.8218 38.8349 21.7956 38.5946L21.79 38.5409C21.9807 38.5127 22.1485 38.4784 22.3233 38.395L22.4175 38.0893L22.5123 37.829C22.5992 37.6208 22.6722 37.4051 22.7502 37.1933L22.8372 36.963C22.9563 36.7164 23.0439 36.458 23.1356 36.2004L23.1528 36.1188L23.1251 36.0751C23.2888 35.7628 23.3845 35.3604 23.5025 35.0255L24.2677 32.9079C24.5713 32.1014 24.8638 31.2962 25.1416 30.4803C25.7939 30.6109 26.4299 30.8797 27.0807 31.0309C27.3707 31.1769 27.7171 31.2572 28.0293 31.3507C28.2915 31.4174 28.5549 31.5008 28.8194 31.5551C28.9563 31.2927 29.1354 31.0454 29.2914 30.7936C29.545 30.3843 29.7907 29.9704 30.0467 29.5625L30.0516 29.5405L30.1548 29.2847Z" fill="#3972A1"/>
<path d="M31.8273 36.3008C31.9009 36.3757 31.9601 36.4426 32.0137 36.5333C31.9863 36.6309 32.0048 36.6762 32.0538 36.7623C32.1664 36.9603 32.4213 37.215 32.3772 37.4494C32.2026 37.3448 32.0313 37.1985 31.9226 37.0248C31.7716 36.7836 31.7618 36.571 31.8273 36.3008Z" fill="#F2A46E"/>
<path d="M33.7094 35.0608C33.4695 34.7602 33.2156 34.4371 33.2625 34.0247C33.2775 33.8926 33.3335 33.7082 33.4588 33.6387C33.5191 33.6052 33.584 33.607 33.6461 33.635C33.7295 33.6725 33.7678 33.7683 33.8046 33.8455L33.7679 33.9785C33.7547 33.9782 33.7415 33.9774 33.7284 33.9774C33.7181 33.9775 33.7077 33.9783 33.6974 33.9787L33.6939 34.0301C33.6827 34.1856 33.6597 34.3058 33.6018 34.4521C33.6712 34.6301 33.7639 34.8215 33.7954 35.0096L33.7714 35.0625L33.7094 35.0608Z" fill="url(#paint1_linear_596_2783)"/>
<path d="M25.1415 30.4805C25.7938 30.611 26.4298 30.8798 27.0806 31.031C27.3706 31.177 27.717 31.2573 28.0292 31.3509C28.2914 31.4175 28.5548 31.5009 28.8193 31.5552C30.3412 31.9502 32.0972 32.2783 33.67 32.0291L33.7256 32.0199C33.9112 31.9905 34.2048 31.8624 34.3719 31.8852C34.4679 31.9468 34.5771 32.0026 34.6674 32.071C34.3346 32.2382 33.9815 32.4457 33.6133 32.5184C32.3086 32.7758 29.7747 32.2274 28.4758 31.8688C27.462 31.5889 26.4538 31.2407 25.4556 30.909C25.4177 30.8965 25.3801 30.883 25.3425 30.8696C24.7972 32.0445 24.3039 33.2495 23.823 34.4522C23.6686 34.8384 23.3343 35.8368 23.1528 36.119L23.125 36.0753C23.2888 35.763 23.3844 35.3605 23.5024 35.0256L24.2676 32.9081C24.5712 32.1015 24.8638 31.2963 25.1415 30.4805Z" fill="#ABD2D8"/>
<path d="M33.8042 33.8457C33.8272 33.9895 33.8486 34.1188 33.9086 34.2533L33.9155 34.269C34.0707 34.542 34.1876 34.8224 34.3032 35.1136C34.475 35.7064 34.5366 36.3402 34.2288 36.9022C34.1222 37.0968 33.9822 37.2588 33.8103 37.3982C33.4893 37.6055 33.1692 37.7121 32.7837 37.624C32.6742 37.5989 32.5658 37.5603 32.4627 37.5159L32.3769 37.4501C32.421 37.2157 32.166 36.9609 32.0535 36.7629C32.0045 36.6768 31.986 36.6315 32.0134 36.5339C31.9598 36.4432 31.9006 36.3763 31.8269 36.3014C31.7771 36.2052 31.7351 36.1085 31.7332 35.998C31.7306 35.8461 31.8028 35.745 31.8997 35.6361C31.9738 35.6203 32.047 35.6166 32.1224 35.6109L32.057 35.3298C32.0582 35.2664 32.0579 35.2004 32.0679 35.1378C32.0784 35.0722 32.1237 35.0141 32.1771 34.9768C32.5039 34.7485 33.3186 34.9961 33.7091 35.061L33.771 35.0627L33.7951 35.0098C33.7635 34.8217 33.6709 34.6303 33.6015 34.4523C33.6594 34.306 33.6824 34.1858 33.6936 34.0303L33.6971 33.9789C33.7074 33.9785 33.7177 33.9777 33.728 33.9776C33.7412 33.9776 33.7544 33.9784 33.7676 33.9787L33.8042 33.8457Z" fill="#F5B07E"/>
<path d="M32.0574 35.3296C32.2996 35.5748 32.6283 35.7982 32.9565 35.9139C33.1226 35.9725 33.3114 35.9943 33.4532 36.1055L33.4379 36.1397C33.1101 36.1992 32.6704 36.0172 32.3981 35.8332C32.3088 35.7728 32.1868 35.6966 32.1228 35.6107L32.0574 35.3296Z" fill="#C45828"/>
<path d="M31.8997 35.6362C31.9745 35.8296 31.9674 36.0272 32.0553 36.2214C32.2943 36.7492 32.7868 36.6781 33.0977 36.9999C33.0758 37.0344 33.0738 37.0571 33.0302 37.067C32.8056 37.1178 32.385 36.8349 32.2075 36.7031C32.1371 36.6508 32.0734 36.5982 32.0134 36.534C31.9598 36.4433 31.9006 36.3764 31.8269 36.3015C31.7771 36.2052 31.7351 36.1086 31.7332 35.9981C31.7306 35.8461 31.8028 35.745 31.8997 35.6362Z" fill="url(#paint2_linear_596_2783)"/>
<path d="M30.1548 29.2847C31.3146 29.8468 32.4877 30.1387 33.7705 30.2179C33.9264 30.1436 34.4043 30.1233 34.5843 30.1343C34.3555 30.4079 34.1346 30.6837 33.9221 30.9701C33.767 31.3115 33.5672 31.6428 33.6701 32.0289C32.0972 32.2782 30.3413 31.9501 28.8193 31.5551C28.9562 31.2927 29.1353 31.0454 29.2914 30.7935C29.545 30.3843 29.7907 29.9704 30.0467 29.5625L30.0516 29.5405L30.1548 29.2847Z" fill="#E2453F"/>
<path d="M30.1547 29.2847C31.3145 29.8468 32.4876 30.1387 33.7704 30.2179C33.9264 30.1436 34.4043 30.1233 34.5843 30.1343C34.3554 30.4079 34.1346 30.6837 33.922 30.9701C33.7765 31.0337 33.6301 31.1016 33.4795 31.1522C32.6993 31.4147 31.724 31.4127 30.9822 31.031C30.6113 30.8402 30.2317 30.5154 30.1444 30.0895C30.1126 29.9345 30.1185 29.7662 30.0665 29.6166C30.0602 29.5984 30.0532 29.5806 30.0466 29.5625L30.0515 29.5405L30.1547 29.2847Z" fill="#F4BB34"/>
<path d="M30.1547 29.2847C31.3145 29.8468 32.4876 30.1387 33.7704 30.2179C33.6711 30.2812 33.5612 30.3186 33.4477 30.3478C32.2413 30.6584 31.07 30.136 30.0515 29.5405L30.1547 29.2847Z" fill="#C45828"/>
<path d="M33.8106 37.3979C34.4492 37.7156 35.5182 37.6649 36.191 37.4978C36.2976 38.8928 35.8329 40.0926 35.0018 41.1924C34.8368 41.4004 34.673 41.6094 34.5026 41.813C34.3285 42.0468 34.0857 42.2256 33.9194 42.4584L33.9068 42.5314C33.527 42.8621 33.0967 43.1697 32.6606 43.4222C32.5419 43.2203 32.4293 43.0108 32.3014 42.8149C32.1846 42.3896 31.6336 41.7185 31.2983 41.4337C30.9529 41.1401 30.3787 40.8159 29.9123 40.8211C29.7187 40.8232 29.5265 40.8888 29.3321 40.9018C29.3238 40.9024 29.3156 40.9027 29.3074 40.9032C29.4297 40.748 29.5641 40.6051 29.6989 40.4607C30.1713 39.9947 30.8852 39.5485 31.5061 39.311C32.0632 38.8519 32.2789 38.1892 32.4629 37.5157C32.5661 37.5601 32.6744 37.5987 32.784 37.6238C33.1695 37.7119 33.4896 37.6053 33.8106 37.3979Z" fill="#F4BB34"/>
<path d="M31.5063 39.311C32.7551 39.4866 34.117 40.3137 35.0019 41.1925C34.837 41.4005 34.6731 41.6095 34.5027 41.8131C34.4381 41.7302 34.3893 41.6226 34.3313 41.5329C34.1309 41.2233 33.9137 40.967 33.613 40.7508C32.9167 40.2502 31.4964 39.7637 30.6527 40.0625C30.3776 40.1599 30.0208 40.4241 29.7525 40.4559C29.7347 40.458 29.7168 40.4591 29.699 40.4608C30.1714 39.9947 30.8853 39.5486 31.5063 39.311Z" fill="#E68520"/>
<path d="M33.8105 37.3979C34.4492 37.7156 35.5182 37.6649 36.191 37.4978C36.2975 38.8928 35.8329 40.0926 35.0017 41.1924C34.1168 40.3136 32.7549 39.4866 31.5061 39.311C32.0632 38.8519 32.2788 38.1892 32.4629 37.5157C32.566 37.5601 32.6744 37.5987 32.7839 37.6238C33.1694 37.7119 33.4895 37.6053 33.8105 37.3979Z" fill="#972C2B"/>
<path d="M34.5843 30.1347L35.1947 30.0659C35.3512 30.1436 35.4997 30.2282 35.649 30.3189C35.9399 30.4655 36.221 30.6129 36.4818 30.8106C37.2715 31.4094 37.9198 32.3776 38.2271 33.3157C38.5068 34.1693 38.5642 35.2739 38.1449 36.0937C37.8196 36.7295 37.2564 37.1977 36.5759 37.4082C36.449 37.4475 36.3217 37.475 36.191 37.4981C35.5182 37.6652 34.4492 37.7158 33.8106 37.3982C33.9824 37.2588 34.1225 37.0969 34.229 36.9023C34.5369 36.3403 34.4752 35.7064 34.3035 35.1136C34.1878 34.8224 34.071 34.5421 33.9157 34.269C34.0894 33.6228 34.3216 32.9323 34.5962 32.3226C34.6328 32.2392 34.6503 32.1605 34.6675 32.0712C34.5772 32.0028 34.468 31.947 34.3719 31.8854C34.2049 31.8626 33.9112 31.9907 33.7256 32.0201L33.6701 32.0293C33.5672 31.6432 33.767 31.3119 33.9221 30.9704C34.1347 30.6841 34.3555 30.4083 34.5843 30.1347Z" fill="#E2453F"/>
<path d="M34.5843 30.1347L35.1947 30.0659C35.3512 30.1436 35.4997 30.2282 35.6489 30.3189C35.1475 30.7771 34.8865 31.4544 34.3719 31.8854C34.2049 31.8627 33.9112 31.9908 33.7256 32.0202L33.6701 32.0293C33.5672 31.6432 33.767 31.3119 33.9221 30.9705C34.1347 30.6841 34.3555 30.4083 34.5843 30.1347Z" fill="#3972A1"/>
<path d="M36.3676 31.6943C36.2666 31.9353 36.1421 32.165 36.0416 32.4064C35.7108 33.2016 35.6197 34.0046 35.8192 34.8473C35.3251 34.9717 34.8173 35.1244 34.3035 35.1133C34.1878 34.8221 34.071 34.5418 33.9158 34.2688C34.0894 33.6225 34.3216 32.932 34.5962 32.3224C34.5843 32.7553 34.5715 33.2006 34.891 33.539C35.0156 33.671 35.1645 33.7652 35.3297 33.838C35.5403 32.9567 35.78 32.4026 36.3676 31.6943Z" fill="#972C2B"/>
<path d="M22.3233 38.3953C23.4426 38.1733 25.8494 36.1956 26.6238 36.3565C26.7139 36.4135 26.7506 36.4987 26.8003 36.5892C26.8995 36.6989 26.9542 36.8489 26.9446 36.998C26.9251 37.2998 26.6467 37.572 26.4257 37.7558C26.16 37.9768 25.6226 38.2959 25.5109 38.6363C26.3152 38.4062 28.7448 37.3267 29.4217 37.6743C29.5038 37.7165 29.5366 37.7645 29.5725 37.8471C29.5669 37.9461 29.5499 37.9972 29.4737 38.0643C29.1561 38.3441 28.516 38.5221 28.1165 38.7096C27.3955 39.0479 26.6958 39.429 26.0726 39.9289L26.121 39.9156C26.8344 39.7169 29.431 38.2782 30.0098 38.6328C30.0701 38.6698 30.0959 38.7085 30.1239 38.7715C30.1207 38.8732 30.085 38.9309 30.0176 39.0057C30.0333 39.0472 30.0455 39.0844 30.0703 39.1214C30.1535 39.1254 30.1687 39.1238 30.2363 39.1705C30.2467 39.2423 30.213 39.3021 30.1716 39.359C29.9193 39.7052 29.3417 39.9709 28.9664 40.1697C28.9831 40.3874 28.9736 40.4994 28.8297 40.6703C28.3748 41.2104 26.9903 41.6221 26.2969 41.6668C26.0844 41.6804 25.8715 41.6913 25.6587 41.6993C24.987 41.7093 24.3193 41.6508 23.6538 41.5664C23.0868 41.4191 22.5092 41.3299 21.9437 41.1669C21.9851 40.5509 22.0007 39.9258 21.9249 39.3116C21.8952 39.0707 21.8218 38.8351 21.7956 38.5948L21.79 38.5411C21.9807 38.513 22.1485 38.4787 22.3233 38.3953Z" fill="#F2A46E"/>
<path d="M26.8002 36.5889C26.8995 36.6986 26.9542 36.8486 26.9446 36.9977C26.9251 37.2995 26.6467 37.5717 26.4257 37.7555C26.16 37.9765 25.6226 38.2956 25.5108 38.636C25.4445 38.6305 25.3482 38.6173 25.2907 38.579C25.2194 38.5315 25.2162 38.5051 25.1956 38.4273C25.2727 38.0336 25.9721 37.6772 26.2773 37.4253C26.5495 37.2007 26.768 36.9535 26.8002 36.5889Z" fill="#30426B"/>
<path d="M30.0173 39.0054C30.033 39.0469 30.0452 39.084 30.0701 39.121C29.5293 39.6245 27.3393 40.8158 26.6282 41.0872C26.5167 41.1298 26.3031 41.2169 26.1934 41.1685C26.2429 41.094 26.3169 41.051 26.3934 41.0074C26.8761 40.732 27.3891 40.4948 27.8792 40.23C28.3456 39.9779 28.7939 39.6949 29.262 39.4463C29.4983 39.3208 29.7695 39.0786 30.0173 39.0054Z" fill="#E2453F"/>
<path d="M4.77919 37.0659C5.10426 37.499 5.84053 37.6782 6.34014 37.807L6.3501 37.8239C6.88274 37.9776 7.42632 38.1547 7.97494 38.2416C8.36192 39.3122 8.82842 40.2507 9.62767 41.0836C9.88983 41.3568 10.167 41.6134 10.513 41.7754C11.05 42.0267 11.7278 42.1245 12.3112 42.2206C14.6004 42.5981 16.7182 42.379 18.9866 41.9712C19.6431 41.8532 20.2983 41.688 20.9582 41.5959L21.8974 41.5182L21.9435 41.1669C22.5091 41.33 23.0866 41.4192 23.6537 41.5665C24.3192 41.6509 24.9869 41.7094 25.6586 41.6993C25.8631 41.9424 26.3177 41.9879 26.6171 42.0146C27.09 42.0568 27.5604 42.0448 28.0318 41.9908C28.2852 41.9618 28.5563 41.8981 28.81 41.9008C28.7645 42.0905 28.7259 42.276 28.7017 42.4697C28.6057 43.2696 28.62 44.0586 28.6509 44.8627C28.6643 45.2097 28.7177 45.5907 28.6875 45.9336C28.3896 46.1334 28.1131 46.5401 27.7882 46.6651C26.4669 46.8212 25.155 47.0568 23.8348 47.2213C23.3409 47.2829 22.8458 47.3068 22.3511 47.3547C21.9752 47.3581 21.5781 47.2657 21.2088 47.1984C20.5163 47.0721 19.8215 46.9207 19.122 46.8408C18.8474 46.4933 18.0797 45.3377 17.739 45.1985C17.5757 45.1955 17.437 45.2656 17.3012 45.3514C16.7367 45.7079 16.2183 46.2144 15.7129 46.6498L12.8229 49.1899C12.4822 49.4945 11.9166 50.0709 11.5409 50.2726C11.2072 50.28 10.8712 50.2729 10.5372 50.2706C8.64248 50.2577 4.95498 50.0128 3.24076 49.1797C2.98182 49.0539 2.76705 48.9032 2.56504 48.6986C2.45808 48.5494 2.36133 48.3944 2.27723 48.2313C1.2725 46.2824 1.54548 43.6913 2.19072 41.6675C2.24196 41.4067 2.39121 41.1029 2.49305 40.8543C3.10023 39.3723 3.79739 38.3123 4.77919 37.0659Z" fill="#30426B"/>
<path d="M24.95 45.2142C25.0574 45.1505 25.1664 45.0884 25.2722 45.022C25.3568 45.1132 25.4388 45.2129 25.5345 45.2923C25.4025 45.8129 25.0263 46.3419 24.5608 46.6152C24.0583 46.9103 23.3776 46.9576 22.8218 46.8045C22.5249 46.7228 22.2504 46.5626 22.1008 46.2842C22.0604 46.209 22.0355 46.1319 22.0137 46.0499C22.2013 46.1409 22.3562 46.2352 22.5697 46.2654C23.242 46.3606 24.0684 46.0616 24.6005 45.662C24.7459 45.5528 24.9226 45.4024 24.95 45.2142Z" fill="#C8282A"/>
<path d="M23.1962 44.6279C23.2524 44.8383 23.3744 44.9784 23.5604 45.0916C23.9003 45.2986 24.4122 45.3577 24.7969 45.2604C24.8486 45.2473 24.8992 45.231 24.9496 45.2139C24.9222 45.4021 24.7456 45.5525 24.6002 45.6616C24.0681 46.0613 23.2417 46.3603 22.5694 46.2651C22.3559 46.2349 22.201 46.1406 22.0134 46.0495C21.9864 45.9334 21.9699 45.8009 21.9876 45.6824C22.0417 45.3188 22.5492 45.0564 22.8303 44.86L23.1962 44.6279Z" fill="#E2453F"/>
<path d="M23.6538 41.5659C24.3193 41.6503 24.987 41.7088 25.6587 41.6988C25.8632 41.9418 26.3178 41.9873 26.6172 42.014C27.0901 42.0563 27.5605 42.0442 28.0319 41.9902C28.2853 41.9612 28.5564 41.8975 28.8101 41.9002C28.7646 42.0899 28.726 42.2754 28.7018 42.4691C28.3289 42.527 27.9594 42.5931 27.5844 42.6378C27.3519 42.6655 27.0336 42.6509 26.8167 42.7186C26.613 43.3624 26.3463 43.9685 26.0021 44.5501C25.8568 44.7957 25.6388 45.0276 25.5345 45.2916C25.4389 45.2122 25.3569 45.1125 25.2722 45.0213C25.1665 45.0877 25.0574 45.1498 24.95 45.2135C24.8996 45.2306 24.8489 45.2469 24.7972 45.26C24.4125 45.3573 23.9007 45.2982 23.5607 45.0913C23.3747 44.978 23.2527 44.8379 23.1965 44.6275C23.3146 43.7006 23.4905 42.7766 23.5786 41.8465C23.5933 41.7487 23.591 41.6433 23.6538 41.5659Z" fill="#F5B07E"/>
<path d="M23.6535 41.5659C24.319 41.6503 24.9867 41.7088 25.6585 41.6988C25.8629 41.9418 26.3175 41.9873 26.6169 42.014C27.0898 42.0563 27.5602 42.0442 28.0317 41.9902C28.285 41.9612 28.5561 41.8975 28.8099 41.9002C28.7643 42.0899 28.7257 42.2754 28.7015 42.4691C28.3286 42.527 27.9591 42.5931 27.5841 42.6378C27.3517 42.6655 27.0333 42.6509 26.8164 42.7186C25.8428 42.7526 24.4977 42.1903 23.5784 41.8465C23.593 41.7487 23.5908 41.6433 23.6535 41.5659Z" fill="url(#paint3_linear_596_2783)"/>
<path d="M6.35034 37.8237C6.88298 37.9774 7.42656 38.1545 7.97518 38.2414C8.36216 39.312 8.82866 40.2505 9.62791 41.0834C9.89007 41.3566 10.1672 41.6133 10.5132 41.7752C11.0503 42.0265 11.728 42.1243 12.3115 42.2204C14.6007 42.5979 16.7185 42.3788 18.9868 41.971C19.6433 41.853 20.2985 41.6878 20.9585 41.5957L21.8977 41.518L21.9438 41.1667C22.5093 41.3298 23.0869 41.419 23.6539 41.5663C23.5912 41.6437 23.5934 41.749 23.5788 41.8468C23.4906 42.777 23.3147 43.701 23.1967 44.6279L22.8308 44.86C22.458 44.7393 22.0622 44.6559 21.6818 44.5621C20.017 44.1515 18.3169 43.8823 16.6143 43.6876C15.6939 43.5825 14.7689 43.506 13.8465 43.4182C11.7303 43.2167 9.809 42.9341 8.19469 41.3765C7.38006 40.5904 6.36733 38.9903 6.35034 37.8237Z" fill="#22284A"/>
<path d="M6.0354 31.8178C6.03633 31.3985 6.05672 30.9644 6.01766 30.5471C5.97226 30.0624 5.86808 29.5773 5.79674 29.0953C5.56018 27.4969 5.54747 25.9239 6.32064 24.4536C6.80965 23.5236 7.62834 22.6131 8.65752 22.292C8.66514 22.2973 8.67274 22.3026 8.68042 22.3077C8.90052 22.4555 9.1508 22.5524 9.36709 22.7059C10.186 23.2871 10.599 24.2652 10.7958 25.218C10.8554 25.5063 10.9048 25.8116 10.9275 26.1052C11.0802 26.3124 11.3929 26.5312 11.5958 26.6916C12.842 27.6768 14.2599 28.376 15.8403 28.6204C17.3397 28.8524 19.3193 28.7769 20.5808 27.8404C20.8154 27.6663 21.0086 27.4523 21.2297 27.2637C21.2114 27.4691 21.1957 27.6752 21.1736 27.8802C21.0653 28.8381 21.1339 29.7932 21.0692 30.7497C21.0256 31.3941 20.86 32.0088 20.785 32.6443C21.3915 33.7156 22.2227 35.2475 23.1247 36.0754L23.1525 36.1191L23.1352 36.2008C23.0436 36.4584 22.9559 36.7167 22.8369 36.9634L22.7499 37.1937C22.6718 37.4054 22.5988 37.6211 22.5119 37.8294L22.4172 38.0897L22.323 38.3954C22.1482 38.4788 21.9804 38.5131 21.7897 38.5412L21.7953 38.5949C21.8215 38.8352 21.8949 39.0708 21.9246 39.3117C22.0004 39.9259 21.9848 40.551 21.9433 41.167L21.8972 41.5183L20.958 41.5959C20.298 41.688 19.6429 41.8533 18.9864 41.9712C16.718 42.379 14.6002 42.5981 12.311 42.2207C11.7276 42.1245 11.0498 42.0268 10.5128 41.7754C10.1668 41.6135 9.88961 41.3568 9.62745 41.0837C8.82821 40.2507 8.3617 39.3122 7.97473 38.2416C7.4261 38.1548 6.88252 37.9777 6.34988 37.824L6.33992 37.807C5.84032 37.6783 5.10403 37.4991 4.77898 37.066C4.64244 36.7164 4.96604 36.2492 5.11061 35.9361C5.46314 35.1727 5.73425 34.3714 5.85901 33.5378C5.91869 33.1388 5.9289 32.7105 6.01381 32.3186L6.02277 32.2789L6.0354 31.8178Z" fill="#4EB08F"/>
<path d="M6.05516 30.7188C6.43686 32.0779 6.65813 33.4744 7.06379 34.831C7.69277 36.9347 9.14548 39.6464 11.0977 40.7456C13.0333 41.8353 17.1693 41.4326 19.3177 41.163C19.6311 41.1237 19.9409 41.0835 20.2509 41.0218C20.4923 40.9737 20.7684 40.8848 21.0106 40.8739C20.9836 41.0599 20.8815 41.4097 20.9317 41.5796L20.958 41.5953C20.298 41.6875 19.6429 41.8527 18.9864 41.9707C16.718 42.3784 14.6002 42.5975 12.311 42.2201C11.7276 42.1239 11.0498 42.0262 10.5128 41.7748C10.1668 41.6129 9.88961 41.3562 9.62745 41.0831C8.82821 40.2502 8.3617 39.3116 7.97473 38.241C7.4261 38.1542 6.88252 37.9771 6.34988 37.8234L6.33992 37.8065C5.84032 37.6777 5.10403 37.4985 4.77898 37.0654C4.64244 36.7158 4.96604 36.2486 5.11061 35.9356C5.46314 35.1721 5.73425 34.3708 5.85901 33.5372C5.91869 33.1382 5.9289 32.71 6.01381 32.3181L6.02277 32.2783L6.03541 31.8172C6.10295 31.4711 6.064 31.0726 6.05516 30.7188Z" fill="#16896E"/>
<path d="M6.02277 32.2788C6.14765 34.1194 6.23134 35.965 6.33992 37.807C5.84032 37.6782 5.10403 37.499 4.77898 37.0659C4.64244 36.7163 4.96604 36.2491 5.11061 35.9361C5.46314 35.1726 5.73425 34.3713 5.85901 33.5378C5.91869 33.1387 5.9289 32.7105 6.01381 32.3186L6.02277 32.2788Z" fill="#4EB08F"/>
<path d="M10.9277 26.105C11.0805 26.3122 11.3931 26.531 11.5961 26.6914C12.8423 27.6766 14.2602 28.3757 15.8406 28.6202C17.34 28.8521 19.3196 28.7767 20.5811 27.8402C20.8157 27.666 21.0088 27.452 21.2299 27.2634C21.2117 27.4688 21.196 27.6749 21.1739 27.88C21.0655 28.8378 21.1342 29.7929 21.0695 30.7494C21.0259 31.3938 20.8602 32.0086 20.7853 32.6441C21.3918 33.7153 22.2229 35.2473 23.125 36.0752L23.1528 36.1189L23.1355 36.2005C23.0438 36.4581 22.9562 36.7165 22.8371 36.9631L22.7502 37.1934C22.6721 37.4052 22.5991 37.6209 22.5122 37.8291L22.4175 38.0895L22.3233 38.3951C22.1485 38.4785 21.9807 38.5129 21.79 38.541L21.7955 38.5947C21.8218 38.835 21.8952 39.0706 21.9249 39.3114C22.0006 39.9257 21.9851 40.5508 21.9436 41.1667L21.8975 41.518L20.9583 41.5957L20.9319 41.5799C20.8817 41.4101 20.9839 41.0602 21.0108 40.8742C21.1584 40.3306 21.0821 39.1073 20.9509 38.5361C20.3973 38.5416 19.8466 38.5149 19.2963 38.4531C18.941 38.4133 18.5757 38.3394 18.2194 38.3341C16.9035 38.1396 15.591 37.929 14.2829 37.6873C13.6857 37.577 13.0706 37.3804 12.4702 37.3164C12.2546 36.3561 12.0021 35.3762 11.8749 34.4004C11.8286 34.1846 11.7977 33.9627 11.7595 33.7451C11.374 31.2209 11.0706 28.6545 10.9277 26.105Z" fill="url(#paint4_linear_596_2783)"/>
<path d="M11.7595 33.7452C11.8965 33.6171 12.0586 33.4996 12.2559 33.502C12.3578 33.5032 12.4432 33.5472 12.5113 33.6216C12.6145 33.7343 12.6631 33.8933 12.6464 34.0444C12.6309 34.1846 12.5577 34.3344 12.4425 34.4192C12.3305 34.5016 12.1608 34.5148 12.0293 34.4798C11.9719 34.4645 11.9242 34.432 11.8748 34.4005C11.8286 34.1846 11.7976 33.9628 11.7595 33.7452Z" fill="#22284A"/>
<path d="M19.2339 30.1653C19.3123 30.1607 19.3946 30.1534 19.473 30.161C19.6054 30.1737 19.7491 30.2746 19.8209 30.3836C19.8931 30.4932 19.9099 30.6229 19.8764 30.7487C19.8252 30.9406 19.7019 31.0273 19.5352 31.1163C19.4438 31.114 19.3493 31.1143 19.261 31.0877C19.1189 31.0447 18.9926 30.9422 18.9269 30.8081C18.8779 30.7082 18.866 30.5902 18.9055 30.4851C18.9667 30.3221 19.0826 30.2383 19.2339 30.1653Z" fill="#22284A"/>
<path d="M12.5177 29.4365C12.6132 29.4477 12.709 29.462 12.7938 29.5104C12.907 29.5751 12.992 29.6787 13.0224 29.8069C13.0539 29.9398 13.0229 30.0779 12.9458 30.1896C12.8474 30.3319 12.7084 30.3844 12.5458 30.42C12.4527 30.4079 12.3594 30.3921 12.278 30.3424C12.1619 30.2715 12.0766 30.1589 12.0465 30.0255C12.0181 29.8996 12.0495 29.7587 12.1238 29.6539C12.2245 29.5121 12.3537 29.469 12.5177 29.4365Z" fill="#22284A"/>
<path d="M16.0222 30.3672C16.1384 30.3643 16.2385 30.3723 16.3419 30.4309C16.4587 30.4971 16.5443 30.609 16.5761 30.7396C16.6085 30.872 16.5833 31.0126 16.5106 31.1275C16.4214 31.2684 16.3043 31.3226 16.1473 31.361C16.0937 31.3545 16.0389 31.3482 15.9864 31.335C15.8457 31.2998 15.7091 31.2065 15.6406 31.0766C15.5796 30.9607 15.5753 30.8342 15.6213 30.7122C15.6923 30.5238 15.8466 30.4416 16.0222 30.3672Z" fill="#22284A"/>
<path d="M15.5815 34.1748C15.6615 34.1757 15.7404 34.1779 15.8175 34.2017C15.9671 34.248 16.0987 34.3358 16.1636 34.4832C16.2152 34.6005 16.2121 34.7281 16.1618 34.8453C16.0924 35.0067 15.9725 35.0796 15.8171 35.1467C15.7261 35.1462 15.6249 35.1533 15.5365 35.1295C15.4079 35.095 15.2837 34.9949 15.2203 34.8784C15.1602 34.7679 15.1507 34.6384 15.1941 34.5203C15.2628 34.3329 15.409 34.2529 15.5815 34.1748Z" fill="#22284A"/>
<path d="M18.934 34.0029C19.0291 34.0027 19.1188 34.0144 19.2084 34.049C19.3336 34.0972 19.4469 34.1969 19.5009 34.3207C19.561 34.4585 19.5545 34.6134 19.4917 34.749C19.4063 34.9335 19.2618 35.0049 19.0805 35.0751C18.9757 35.0696 18.8711 35.0655 18.7728 35.0253C18.6302 34.9669 18.5032 34.849 18.4478 34.7038C18.401 34.5816 18.408 34.4482 18.4685 34.332C18.5622 34.1518 18.7467 34.0558 18.934 34.0029Z" fill="#22284A"/>
<path d="M20.7855 32.644C21.3919 33.7153 22.2231 35.2472 23.1252 36.0752L23.1529 36.1189L23.1357 36.2005C23.044 36.4581 22.9564 36.7165 22.8373 36.9631L22.7503 37.1934C22.6723 37.4052 22.5993 37.6209 22.5124 37.8291L22.4177 38.0894L22.3234 38.3951C22.1486 38.4785 21.9808 38.5128 21.7901 38.5409L21.7957 38.5947C21.8219 38.835 21.8953 39.0705 21.925 39.3114C22.0008 39.9257 21.9852 40.5508 21.9438 41.1667L21.8977 41.518L20.9584 41.5957L20.9321 41.5799C20.8819 41.41 20.984 41.0602 21.011 40.8742C21.1586 40.3305 21.0823 39.1073 20.9511 38.5361C20.3974 38.5415 19.8468 38.5149 19.2964 38.4531C18.9412 38.4133 18.5759 38.3394 18.2196 38.3341C18.1813 37.94 18.1559 37.548 18.156 37.1519C18.4475 36.8019 18.787 36.4957 19.0741 36.1393C19.9029 35.1105 20.3915 33.8905 20.7855 32.644Z" fill="white"/>
<path d="M21.4857 37.6373C21.9104 37.568 22.3255 37.3086 22.75 37.1934C22.6719 37.4052 22.5989 37.6209 22.512 37.8291L22.4173 38.0894L22.323 38.3951C22.1483 38.4785 21.9805 38.5128 21.7898 38.5409C21.788 38.5373 21.7866 38.5334 21.7844 38.5299C21.7297 38.4414 21.7086 38.451 21.6129 38.4272C21.4326 38.4798 21.2646 38.4733 21.0845 38.4241C21.1168 38.1519 21.2705 38.0289 21.4225 37.8233C21.4645 37.7666 21.4895 37.7365 21.4812 37.664L21.3399 37.6262L21.4857 37.6373Z" fill="#F5B07E"/>
<path d="M21.613 38.4273C21.7428 38.1663 22.2469 37.9203 22.5121 37.8291L22.4174 38.0894L22.3232 38.3951C22.1484 38.4785 21.9806 38.5128 21.7899 38.5409C21.7882 38.5373 21.7867 38.5334 21.7846 38.5299C21.7298 38.4414 21.7088 38.451 21.613 38.4273Z" fill="#C47440"/>
<path d="M22.3232 38.395C22.1951 38.3677 22.0535 38.4432 21.9355 38.4026C22.0344 38.2635 22.267 38.1684 22.4174 38.0894L22.3232 38.395Z" fill="#F2A46E"/>
<path d="M21.3399 37.6264C21.324 37.6247 21.3077 37.6248 21.292 37.6213C21.2017 37.601 21.1276 37.5692 21.0801 37.4924C21.0854 37.4519 21.0945 37.4198 21.117 37.3851C21.4625 36.8505 22.5208 36.3326 23.1353 36.2007C23.0437 36.4583 22.9561 36.7166 22.837 36.9633L22.75 37.1936C22.3256 37.3088 21.9105 37.5682 21.4858 37.6375L21.3399 37.6264Z" fill="#F2A46E"/>
<path d="M21.4861 37.6376C21.4936 37.627 21.5007 37.6162 21.5086 37.6058C21.7151 37.3327 22.5026 37.0179 22.8373 36.9634L22.7503 37.1937C22.3259 37.3089 21.9108 37.5684 21.4861 37.6376Z" fill="#C47440"/>
<path d="M12.4184 7.8543C12.5112 7.00264 12.7593 6.14284 13.0843 5.35138C13.9232 3.30834 15.3801 1.49331 17.4629 0.633744C20.3128 -0.542383 24.1474 0.00805098 26.7799 1.54784C27.0847 1.72614 27.4115 1.93132 27.6821 2.15997C27.9667 2.4005 28.156 2.7616 28.5091 2.90567C28.5222 2.91101 28.5354 2.9161 28.5486 2.92131C28.9002 3.13392 29.25 3.34348 29.578 3.59188C31.0318 4.69287 32.1905 6.25774 32.6315 8.03797C33.1243 10.0279 32.6227 12.0663 31.58 13.7938C31.0568 14.6604 30.3169 15.5313 29.4677 16.0966C29.1367 16.3769 29.0351 16.5574 28.7967 16.9134C28.6601 17.1174 28.5121 17.321 28.4074 17.5437C28.2259 17.9298 28.1333 18.3518 27.9746 18.7472C27.2959 20.4378 26.1411 21.2919 24.421 21.7888C23.5443 22.0421 22.4828 22.2622 21.5706 22.1886C20.733 22.1211 20.1591 21.7145 19.534 21.1876C19.3442 21.0277 19.1329 20.8632 18.9721 20.6741C18.9629 20.6633 18.9541 20.6522 18.9454 20.6411C18.7782 21.0727 18.5714 21.4912 18.372 21.9087C18.1092 21.7342 17.7857 21.6165 17.5107 21.4516C16.6819 20.9546 15.9326 20.1015 15.5488 19.2152C15.421 18.9201 15.4692 18.5256 15.3259 18.249C15.3193 18.2362 15.3121 18.2238 15.3052 18.2112C14.9906 18.7128 14.6291 19.3491 14.1886 19.7457C13.3634 20.1509 12.366 20.292 11.4567 20.1861C10.4698 20.0711 9.41758 19.7308 8.78666 18.9163C8.38663 18.3999 8.25843 17.82 8.33568 17.1792C8.25527 17.0439 8.00968 16.8959 7.89025 16.7811C7.63582 16.5364 7.39879 16.2191 7.22256 15.9128C6.84724 15.2605 6.77983 14.5928 6.97217 13.8715C7.12538 13.3964 7.35855 12.9775 7.68591 12.5998C8.25854 11.9389 9.17288 11.4334 10.0659 11.6866C10.2514 11.7391 10.4261 11.8319 10.5999 11.9135C11.1114 12.1535 11.5219 12.2544 12.0882 12.2132C12.3087 12.1589 12.5129 12.0632 12.72 11.9723C12.3841 10.599 12.2735 9.26179 12.4184 7.8543Z" fill="url(#paint5_linear_596_2783)"/>
<path d="M29.0559 7.30762C29.3047 7.44683 30.5842 9.56209 30.737 9.89324C31.2265 10.9534 31.6105 12.3631 31.1883 13.5059C31.1544 13.5609 31.1409 13.6045 31.0811 13.6332C30.9722 11.0735 30.2999 9.51072 29.0559 7.30762Z" fill="#972C2B"/>
<path d="M18.235 10.677C20.5204 11.2373 23.3299 10.8016 25.3378 9.58718C26.17 9.08384 26.8339 8.48864 27.3718 7.67676C27.7412 9.27267 28.3256 10.153 29.3089 11.4231C29.6931 11.9194 30.2811 12.4712 30.4383 13.091C30.2147 12.9496 30.0232 12.6521 29.829 12.4613C29.0358 11.6812 28.2102 10.8764 27.7359 9.85227C27.5591 9.47069 27.4365 9.06861 27.2988 8.67204C26.3618 9.52469 25.816 10.0416 24.5722 10.4711C24.3129 10.5606 23.899 10.5381 23.6844 10.695C23.2424 10.6132 22.6462 10.6174 22.2557 10.8763C22.2042 10.9105 22.1308 10.9704 22.111 11.032C22.0978 11.073 22.1112 11.1259 22.1176 11.1672C20.8069 11.2461 19.4155 11.4127 18.1396 10.986L18.235 10.677Z" fill="#F2A46E"/>
<path d="M15.1068 17.1804C15.0908 16.4461 14.3031 14.5651 14.5614 14.0586C14.7427 14.3932 14.9479 14.736 15.3406 14.8457C15.5512 14.9045 15.7414 14.8737 15.9502 14.8317C15.9581 15.1559 16.0013 15.4618 16.0548 15.7808C16.0814 15.9389 16.1277 16.1112 16.133 16.2708C15.9299 16.9448 15.6376 17.5914 15.3053 18.2113C14.9907 18.7129 14.6292 19.3492 14.1888 19.7458C13.3635 20.151 12.3661 20.2921 11.4569 20.1862C10.4699 20.0712 9.41772 19.7309 8.7868 18.9164C8.38677 18.4 8.25857 17.8201 8.33581 17.1793C9.47282 17.8769 10.4252 18.4509 11.8138 18.4671C12.3403 18.4734 12.8158 18.3693 13.2023 17.983C13.8882 17.2975 13.9363 16.3018 13.942 15.3928C14.2366 16.0543 14.4969 16.7466 15.1068 17.1804Z" fill="#441A17"/>
<path d="M6.97217 13.8715C7.12538 13.3965 7.35855 12.9775 7.6859 12.5998C8.25854 11.939 9.17287 11.4335 10.0659 11.6866C10.2514 11.7391 10.4261 11.832 10.5999 11.9136C11.1114 12.1535 11.5219 12.2545 12.0882 12.2133C12.2654 12.358 12.6042 12.2989 12.825 12.2936C12.9579 12.8656 13.1536 13.4165 13.3649 13.9636C12.9476 13.7837 12.5426 13.6601 12.0961 13.8416C11.6397 14.0272 11.3193 14.4344 11.1426 14.8828C10.8979 15.5039 10.9323 16.2328 11.2052 16.8391C11.3486 17.1577 11.5469 17.4118 11.7878 17.6616C11.0346 17.47 10.3069 17.1287 9.89562 16.4343C9.62256 15.9732 9.55006 15.4246 9.68739 14.907C9.83412 14.3543 10.2188 13.8379 10.6341 13.4548C10.0542 13.7041 9.60745 14.1328 9.36872 14.7222C9.15594 15.2475 9.11863 15.8575 9.34641 16.3842C9.52247 16.7912 9.81948 17.0995 10.1512 17.3839C9.30272 17.1409 8.51701 16.688 8.07733 15.8943C7.77762 15.3533 7.67893 14.7437 7.85347 14.1451C7.98519 13.6931 8.23089 13.4343 8.54694 13.0993C7.63353 13.1958 7.66482 13.3971 6.97217 13.8715Z" fill="#89422F"/>
<path d="M23.6844 10.6949C23.899 10.538 24.3129 10.5605 24.5722 10.471C25.816 10.0414 26.3618 9.52453 27.2988 8.67188C27.4365 9.06845 27.5591 9.47054 27.7359 9.85211C28.2102 10.8762 29.0358 11.681 29.829 12.4611C30.0232 12.652 30.2147 12.9495 30.4383 13.0908C30.5567 13.8892 30.1096 14.831 29.748 15.5211C29.6632 15.683 29.4921 15.9201 29.4675 16.0969C29.1365 16.3772 29.0349 16.5577 28.7966 16.9137C28.66 17.1177 28.5119 17.3213 28.4072 17.544C28.2258 17.93 28.1331 18.3521 27.9744 18.7475C27.2958 20.4381 26.1409 21.2922 24.4208 21.7891C23.5441 22.0424 22.4827 22.2625 21.5704 22.1889C20.7328 22.1214 20.159 21.7148 19.5339 21.1879C19.344 21.0279 19.1327 20.8635 18.972 20.6744C18.9628 20.6636 18.954 20.6525 18.9453 20.6414C18.778 21.073 18.5712 21.4915 18.3719 21.909C18.109 21.7345 17.7855 21.6168 17.5106 21.4519C16.6817 20.9549 15.9324 20.1018 15.5486 19.2154C15.4209 18.9204 15.4691 18.5258 15.3258 18.2493C15.3192 18.2365 15.3119 18.2241 15.305 18.2114C15.6373 17.5915 15.9296 16.945 16.1328 16.271C16.1274 16.1114 16.0812 15.939 16.0546 15.781C16.001 15.462 15.9578 15.1561 15.9499 14.8318C15.7411 14.8739 15.5508 14.9047 15.3403 14.8459C14.9476 14.7362 14.7424 14.3934 14.5611 14.0588C14.3812 13.6224 14.204 13.1863 14.1596 12.712C14.081 11.8728 14.2206 10.9222 14.7757 10.2563C14.9931 9.9955 15.2834 9.78805 15.631 9.7624C15.9629 9.73792 16.2995 9.89055 16.5428 10.1087C16.6756 10.2279 16.7984 10.3756 16.872 10.5386C17.1439 11.1405 17.1943 12.2175 17.2343 12.8839C17.6051 12.3111 17.9061 11.6256 18.1396 10.9859C19.4154 11.4126 20.8068 11.246 22.1176 11.1671C22.1111 11.1258 22.0977 11.0729 22.1109 11.0318C22.1307 10.9703 22.2041 10.9103 22.2556 10.8762C22.6462 10.6173 23.2424 10.6131 23.6844 10.6949Z" fill="#F5B07E"/>
<path d="M24.7683 16.5674C24.7765 16.5674 24.7847 16.5674 24.7929 16.5676C24.9847 16.574 25.2562 16.6664 25.3848 16.8141C25.4606 16.9014 25.4996 17.0127 25.4907 17.1285C25.4804 17.2617 25.3993 17.3835 25.2959 17.464C25.0649 17.6439 24.7914 17.6214 24.5187 17.5954C24.371 17.5514 24.2532 17.4912 24.1218 17.4139C24.312 17.451 24.5149 17.4885 24.7093 17.4787C24.8492 17.4716 25.0532 17.4359 25.1443 17.315C25.1959 17.2466 25.2111 17.1845 25.2005 17.0997C25.1732 16.8825 24.9267 16.6964 24.7683 16.5674Z" fill="#C47440"/>
<path d="M21.9141 17.6289C22.1236 17.6592 22.5929 18.0761 22.8215 18.2015C23.0655 18.3352 23.3324 18.4425 23.5965 18.5287C23.7415 18.576 24.1743 18.6432 24.2669 18.7558C24.1509 18.7633 24.0351 18.7713 23.9188 18.7737C23.646 18.7533 23.3636 18.684 23.1038 18.5998C22.5643 18.425 22.1744 18.142 21.9141 17.6289Z" fill="white"/>
<path d="M26.8254 15.421C26.8575 15.311 26.9232 15.245 27.0244 15.188C27.2438 15.0643 27.5607 15.0621 27.7982 15.1305C28.1066 15.2195 28.3126 15.4263 28.4824 15.6887C28.6145 15.7075 28.7373 15.7171 28.8555 15.784L28.868 15.8228C28.759 15.8636 28.6481 15.8691 28.5333 15.8793L28.5262 15.9124C28.6225 15.9609 28.7294 16.0027 28.7989 16.0874L28.8043 16.1519C28.6957 16.1952 28.5586 16.1753 28.4432 16.1718C28.3738 16.3356 28.3157 16.4951 28.1976 16.6313C28.2375 16.3587 28.2552 16.0906 28.1529 15.8274C28.0698 15.6137 27.9113 15.4381 27.6964 15.3525C27.4089 15.2378 27.0987 15.2992 26.8254 15.421Z" fill="#070705"/>
<path d="M21.5233 12.5952C21.5985 12.7458 21.667 12.9037 21.78 13.0303C22.0614 12.8457 22.338 12.7245 22.6842 12.7894C22.9288 12.8352 23.1542 12.9748 23.2877 13.1872C23.4139 13.3882 23.445 13.6286 23.4135 13.8604C23.3217 13.5944 23.1619 13.3515 22.92 13.1996C22.7081 13.0665 22.4524 13.0239 22.21 13.09C21.8558 13.1867 21.6643 13.4412 21.4864 13.7397C21.3253 13.6238 21.115 13.458 21.0889 13.2465C21.0872 13.2325 21.0864 13.2184 21.0852 13.2044L21.105 13.1915C21.1994 13.2584 21.2656 13.3268 21.3836 13.3363C21.3237 13.1693 21.2598 13.0139 21.2516 12.8351C21.2492 12.7834 21.245 12.7318 21.2425 12.6802C21.3324 12.9305 21.4231 13.1243 21.5904 13.333C21.5555 13.0869 21.5333 12.8436 21.5233 12.5952Z" fill="#070705"/>
<path d="M26.8255 15.4213C27.0988 15.2995 27.409 15.2382 27.6965 15.3529C27.9114 15.4385 28.0698 15.6141 28.153 15.8278C28.2553 16.091 28.2376 16.359 28.1976 16.6317C28.1044 16.7958 27.7665 16.9386 27.583 16.9893L27.5321 16.9669C27.7157 16.8524 27.8944 16.7084 27.9868 16.5072C28.0682 16.33 28.0714 16.1062 27.9982 15.9254C27.9403 15.7827 27.8287 15.6772 27.6836 15.6262C27.4956 15.5601 27.2833 15.5925 27.1094 15.6838C26.9112 15.7878 26.7497 15.9693 26.6851 16.1853C26.6139 16.4231 26.6732 16.6245 26.7849 16.8367C26.6914 16.8417 26.5529 16.7709 26.4854 16.7048C26.4161 16.6371 26.3895 16.541 26.3855 16.4465C26.3687 16.0497 26.572 15.7066 26.8255 15.4213Z" fill="white"/>
<path d="M28.2535 13.0648C28.3132 13.0578 28.372 13.0518 28.4322 13.0518C28.8379 13.0513 29.3348 13.2541 29.6103 13.5499C29.7745 13.7262 29.9368 13.9652 29.9156 14.2166C29.906 14.3306 29.86 14.3583 29.7813 14.4248C29.4718 14.2683 29.3299 13.9249 29.0388 13.7399C28.784 13.578 28.4519 13.617 28.1992 13.4624C28.185 13.4538 28.1625 13.4378 28.1506 13.4258C28.0917 13.366 28.077 13.3273 28.0723 13.2451C28.1137 13.1496 28.1697 13.1183 28.2535 13.0648Z" fill="#643D4C"/>
<path d="M21.4865 13.7399C21.6644 13.4414 21.8559 13.187 22.2102 13.0903C22.4526 13.0241 22.7082 13.0668 22.9202 13.1998C23.162 13.3517 23.3218 13.5947 23.4137 13.8606C23.4131 14.1835 23.3137 14.6053 23.0811 14.8449C23.0126 14.9155 22.9532 14.9419 22.8534 14.9443L22.7537 14.9003C22.7844 14.8831 22.813 14.8643 22.8413 14.8431C23.0546 14.6836 23.2406 14.4489 23.2707 14.1767C23.2926 13.9786 23.2289 13.777 23.098 13.6268C22.9811 13.4925 22.8209 13.4054 22.6417 13.3966C22.4426 13.3868 22.2333 13.4612 22.0916 13.6027C21.8884 13.8053 21.8161 14.0968 21.8198 14.3747C21.697 14.2988 21.5221 14.2144 21.4574 14.0792C21.402 13.9637 21.4485 13.852 21.4865 13.7399Z" fill="white"/>
<path d="M22.1177 11.1667C22.1113 11.1254 22.0979 11.0725 22.1111 11.0315C22.1309 10.9699 22.2042 10.91 22.2558 10.8758C22.6462 10.6169 23.2424 10.6127 23.6845 10.6945C24.0339 10.8253 24.5104 11.0464 24.6701 11.407C24.6971 11.4681 24.7012 11.5113 24.6889 11.5759C24.6284 11.6413 24.5816 11.6734 24.4891 11.6729C24.1347 11.6712 23.7932 11.296 23.4402 11.2165C23.0124 11.1201 22.5228 11.3175 22.1177 11.1667Z" fill="#643D4C"/>
<path d="M26.7848 16.8368C26.6731 16.6246 26.6138 16.4231 26.685 16.1853C26.7497 15.9694 26.9111 15.7879 27.1093 15.6839C27.2832 15.5926 27.4955 15.5602 27.6835 15.6262C27.8286 15.6772 27.9402 15.7828 27.9981 15.9255C28.0713 16.1063 28.0681 16.3301 27.9867 16.5073C27.8944 16.7085 27.7156 16.8524 27.532 16.967C27.4937 16.9805 27.4556 16.9911 27.4158 16.9992C27.1578 17.0514 26.997 16.9739 26.7848 16.8368Z" fill="#070705"/>
<path d="M15.3482 10.8011C15.3949 10.8006 15.443 10.7999 15.4892 10.8069C15.6442 10.8303 15.7894 10.9817 15.8758 11.1022C16.3212 11.7235 16.4378 12.7566 16.3093 13.4917C16.1846 13.264 16.14 13.0103 15.957 12.8131C15.8773 12.7273 15.784 12.6798 15.6654 12.6787C15.3987 12.6762 15.1117 12.9764 14.9399 13.154C15.0152 12.9137 15.0855 12.7478 15.2592 12.5574C15.5287 12.4083 15.7332 12.4038 16.0236 12.48C15.9488 12.1825 15.7989 11.7222 15.5722 11.5091C15.503 11.444 15.446 11.4226 15.3496 11.4271C14.9195 11.6248 15.0727 12.4011 14.8978 12.7148L14.8647 12.6975C14.7339 12.3411 14.7767 11.7938 14.877 11.4288C14.9565 11.1397 15.0877 10.9485 15.3482 10.8011Z" fill="#C47440"/>
<path d="M21.82 14.375C21.8163 14.097 21.8886 13.8055 22.0917 13.6029C22.2335 13.4615 22.4428 13.3871 22.6419 13.3969C22.8211 13.4056 22.9812 13.4927 23.0982 13.627C23.2291 13.7773 23.2928 13.9788 23.2708 14.1769C23.2408 14.4491 23.0548 14.6839 22.8414 14.8433C22.8132 14.8645 22.7846 14.8834 22.7539 14.9005C22.5692 14.9632 22.3896 15.0055 22.2033 14.9178C21.993 14.8187 21.89 14.5814 21.82 14.375Z" fill="#070705"/>
<path d="M21.6443 17.1797C21.7301 17.3328 21.8152 17.4838 21.9142 17.6289C22.1745 18.142 22.5644 18.425 23.1039 18.5998C23.3637 18.684 23.6461 18.7533 23.919 18.7737C24.1391 18.8174 24.3599 18.7791 24.5821 18.7847C24.348 19.239 24.0489 19.738 23.639 20.0558C23.6345 19.6332 23.4986 19.2735 23.1868 18.9763C22.6765 18.4899 22.0827 18.6542 21.4653 18.6783C21.422 18.6074 21.4318 18.4891 21.428 18.405C21.4412 17.9859 21.5347 17.5824 21.6443 17.1797Z" fill="#C8282A"/>
<path d="M23.6391 20.056C23.3825 20.2355 23.0148 20.3058 22.7096 20.2699C22.3455 20.227 22.0354 20.0275 21.813 19.7408C21.5285 19.3741 21.3672 18.868 21.4281 18.4053C21.4319 18.4893 21.4221 18.6077 21.4654 18.6785C22.0828 18.6544 22.6766 18.4901 23.1869 18.9765C23.4987 19.2737 23.6346 19.6334 23.6391 20.056Z" fill="#E2453F"/>
<path d="M15.3054 18.211C15.6377 17.5911 15.93 16.9445 16.1331 16.2705L16.1538 16.3176C16.325 16.7142 16.4263 17.1392 16.6026 17.5383C17.1206 18.7105 18.0132 19.7732 18.9456 20.6409C18.7784 21.0725 18.5716 21.491 18.3722 21.9086C18.1094 21.734 17.7859 21.6163 17.5109 21.4514C16.6821 20.9545 15.9328 20.1013 15.549 19.215C15.4213 18.92 15.4695 18.5254 15.3261 18.2488C15.3195 18.2361 15.3123 18.2237 15.3054 18.211Z" fill="#C47440"/>
<defs>
<linearGradient id="paint0_linear_596_2783" x1="31.4571" y1="29.8434" x2="36.2173" y2="19.505" gradientUnits="userSpaceOnUse">
<stop stop-color="#F9B488"/>
<stop offset="1" stop-color="#F5CCA1"/>
</linearGradient>
<linearGradient id="paint1_linear_596_2783" x1="33.3539" y1="34.7032" x2="33.9246" y2="33.8804" gradientUnits="userSpaceOnUse">
<stop stop-color="#D87952"/>
<stop offset="1" stop-color="#FAA170"/>
</linearGradient>
<linearGradient id="paint2_linear_596_2783" x1="32.3066" y1="36.8159" x2="32.5584" y2="36.0006" gradientUnits="userSpaceOnUse">
<stop stop-color="#E3603E"/>
<stop offset="1" stop-color="#DA8A63"/>
</linearGradient>
<linearGradient id="paint3_linear_596_2783" x1="25.7848" y1="40.788" x2="26.6658" y2="43.124" gradientUnits="userSpaceOnUse">
<stop stop-color="#0D4E39"/>
<stop offset="1" stop-color="#1D6648"/>
</linearGradient>
<linearGradient id="paint4_linear_596_2783" x1="19.0432" y1="37.8842" x2="14.0013" y2="25.0234" gradientUnits="userSpaceOnUse">
<stop stop-color="#2E3E68"/>
<stop offset="1" stop-color="#435783"/>
</linearGradient>
<linearGradient id="paint5_linear_596_2783" x1="15.1681" y1="21.0263" x2="26.3013" y2="1.32927" gradientUnits="userSpaceOnUse">
<stop stop-color="#5F2522"/>
<stop offset="1" stop-color="#823F2F"/>
</linearGradient>
</defs>
</svg>
