<svg width="20" height="22" viewBox="0 0 20 22" fill="none" xmlns="http://www.w3.org/2000/svg">
<path d="M5.79807 19.7622C6.70807 20.9192 8.14023 21.6667 9.75007 21.6667C11.3599 21.6667 12.791 20.9203 13.7021 19.7622C11.0794 20.1177 8.42074 20.1177 5.79807 19.7622ZM17.0626 7.58333V8.346C17.0626 9.26142 17.3226 10.1562 17.8122 10.9178L19.0126 12.7844C20.1078 14.4896 19.2715 16.8068 17.3659 17.3453C12.3866 18.7557 7.1135 18.7557 2.13423 17.3453C0.22865 16.8068 -0.607683 14.4896 0.487567 12.7844L1.6879 10.9178C2.17757 10.1562 2.43865 9.26142 2.43865 8.346V7.58333C2.43865 3.39517 5.71248 0 9.75007 0C13.7877 0 17.0626 3.39517 17.0626 7.58333Z" fill="#929292"/>
</svg>
