<svg width="39" height="55" viewBox="0 0 39 55" fill="none" xmlns="http://www.w3.org/2000/svg">
<path d="M6.16892 43.6897V37.1709C5.71842 37.6224 5.32252 38.1378 4.98877 38.7026V43.6897H6.16892Z" fill="#F2F3FB"/>
<path d="M4.98957 38.7026C4.2637 39.9322 3.84033 41.3994 3.84033 42.9765C3.84033 43.2172 3.85166 43.4548 3.87089 43.6897H4.98957V38.7026Z" fill="#88A1D4"/>
<path d="M22.9561 43.8091C22.9595 43.8269 22.964 43.8462 22.9677 43.8647C23.0079 43.8623 23.0494 43.8606 23.0931 43.8606C23.3623 43.8606 23.6974 43.909 24.0596 44.0632C24.4219 44.2167 24.8089 44.4749 25.1866 44.8766C25.3545 45.0548 25.5471 45.254 25.7517 45.4627C25.862 44.8996 25.9893 44.398 26.1013 43.9543C26.0783 43.9063 26.0549 43.8578 26.0319 43.8091H22.9564H22.9561Z" fill="#A2B4DE"/>
<path d="M16.426 47.9562C17.2857 46.8036 17.8523 45.3752 18.002 43.8091H11.9265C11.7219 44.1586 11.3572 44.3925 10.9407 44.3925C10.5242 44.3925 10.1592 44.1586 9.95455 43.8091H3.87939C4.06756 45.7759 4.91361 47.5257 6.17101 48.7848C8.95261 48.3504 12.4961 48.0531 16.426 47.9562Z" fill="#A2B4DE"/>
<path d="M25.5786 46.5608C25.1996 46.1807 24.8339 45.8078 24.5352 45.4909C24.2333 45.1708 23.9531 44.9913 23.71 44.8879C23.5435 44.8175 23.3945 44.7835 23.2637 44.7681C23.3808 45.0692 23.5185 45.404 23.6599 45.7714C23.7918 46.1144 23.9257 46.4856 24.0459 46.8839C24.5873 46.9189 25.0873 47.1153 25.5038 47.4309C25.5199 47.128 25.5453 46.8379 25.5783 46.5608H25.5786Z" fill="#A2B4DE"/>
<path d="M21.7174 47.9487C22.0199 47.5648 22.4106 47.265 22.8563 47.0803C22.8436 47.0408 22.832 47.0007 22.8189 46.9615C22.56 46.1714 22.2407 45.4713 22.0093 44.8237C21.8887 44.48 21.7885 44.1497 21.7507 43.8091H19.8862C19.7739 45.2986 19.3636 46.6937 18.7212 47.9229C18.8918 47.9223 19.0628 47.9219 19.2345 47.9219C20.0758 47.9219 20.9046 47.9312 21.7174 47.9487Z" fill="#A2B4DE"/>
<path d="M27.5126 46.896C27.5146 46.8851 27.5167 46.8741 27.5191 46.8631C27.4501 46.7237 27.1095 46.0363 26.6552 45.1006C26.58 45.4326 26.5096 45.7877 26.4502 46.1654C26.6432 46.3576 26.8368 46.5492 27.0246 46.734C27.1634 46.8703 27.2976 47.0018 27.4267 47.1278C27.4284 47.0705 27.4322 47.0142 27.4387 46.9609C27.4422 46.9338 27.4683 46.9125 27.5126 46.896Z" fill="#A2B4DE"/>
<path d="M26.3234 47.3003C26.3052 47.5685 26.2935 47.8456 26.2935 48.1371C26.2935 48.1405 26.2925 48.1436 26.2925 48.147C26.6201 48.169 26.9432 48.1924 27.2618 48.2171C27.085 48.0457 26.882 47.8483 26.665 47.6358C26.5545 47.5276 26.4398 47.4146 26.3234 47.3003Z" fill="#A2B4DE"/>
<path d="M32.9453 46.0218C32.841 45.6434 32.7228 45.2132 32.5951 44.7441C32.5443 45.2197 32.499 45.6472 32.4595 46.0153C32.6342 46.0064 32.8035 46.0019 32.945 46.0215L32.9453 46.0218Z" fill="#A2B4DE"/>
<path d="M32.33 47.235C32.3224 47.3051 32.3169 47.3576 32.3135 47.3912L32.3784 47.3779L32.5933 48.4279L32.0137 48.5463C32.0099 48.5614 32.0079 48.5752 32.0034 48.5906C32.0137 48.6408 32.0216 48.6916 32.0271 48.7424C32.4577 48.8069 32.8708 48.8749 33.2653 48.946L33.9053 47.9695C33.7453 47.906 33.5808 47.8225 33.4122 47.7116C33.3995 47.6567 33.3003 47.3013 33.1424 46.731C32.9909 46.8776 32.7653 47.0022 32.5367 47.0905C32.4735 47.1413 32.4041 47.1897 32.3303 47.2343L32.33 47.235Z" fill="#A2B4DE"/>
<path d="M34.9415 50.6091C34.581 51.0078 34.2156 51.3127 33.8689 51.5516C33.156 52.042 31.9845 51.4098 31.9299 51.1647C31.899 51.0253 31.8426 50.6455 31.8794 50.5779C31.8797 50.5779 31.8801 50.5779 31.8808 50.5779C31.9278 50.1397 32.6571 49.8736 32.6571 49.8736L33.2645 48.9465C32.87 48.8755 32.4569 48.8078 32.0264 48.7429C32.0439 48.9067 32.0301 49.0712 31.9374 49.2144C31.7956 49.4338 31.1927 49.4461 30.4125 49.6896C29.8879 49.8534 29.2307 50.2791 28.8107 50.3104C28.0217 50.3688 27.4551 49.7737 27.4551 49.5897C27.4551 49.4472 27.4565 49.1951 27.5084 49.1378C27.5228 49.0767 27.5496 49.0238 27.5842 48.9771L27.4699 48.4181C27.4057 48.3559 27.336 48.2886 27.2615 48.2162C26.9428 48.1915 26.6201 48.1681 26.2922 48.1461C26.2908 48.197 26.2808 48.2454 26.2626 48.2897C26.5335 48.7515 26.6925 49.2957 26.6925 49.8808C26.6925 51.5417 25.4303 52.8877 23.8742 52.8877C22.318 52.8877 21.0558 51.5417 21.0558 49.8808C21.0558 49.1443 21.3048 48.4706 21.7168 47.9477C20.9041 47.9302 20.0752 47.9209 19.2339 47.9209C19.0623 47.9209 18.8913 47.9212 18.7206 47.9219C17.1693 50.8889 14.2675 52.8873 10.9413 52.8873C8.11647 52.8873 5.59754 51.4462 3.95179 49.1948C1.47338 49.7407 0 50.4233 0 51.1643C0 52.9557 8.6116 54.4078 19.2343 54.4078C29.857 54.4078 38.4682 52.9557 38.4682 51.1643C38.4682 50.582 37.5576 50.0357 35.9641 49.5632C35.7076 49.8472 35.3165 50.194 34.9415 50.6088V50.6091Z" fill="#97A6D5"/>
<path d="M10.9414 50.8164C13.1506 50.8164 15.1239 49.7029 16.4263 47.9565C12.4965 48.0534 8.95299 48.3507 6.17139 48.7851C7.43188 50.0473 9.1051 50.8164 10.9411 50.8164H10.9414Z" fill="#97A6D5"/>
<path d="M27.4221 20.7721L27.4723 20.2783C27.4403 20.4486 27.4208 20.6261 27.417 20.8105C27.4187 20.7971 27.4204 20.7851 27.4221 20.7721Z" fill="#E99791"/>
<path d="M29.5981 47.9345C29.603 47.938 29.6081 47.9411 29.6129 47.9445L29.97 47.8714C29.9563 47.8659 29.9419 47.8594 29.9281 47.8535C29.8155 47.8806 29.7049 47.9078 29.5985 47.9345H29.5981Z" fill="#282828"/>
<path d="M29.3486 47.9983L29.5371 47.9599C29.5337 47.9574 29.5299 47.955 29.5265 47.9526C29.4657 47.9681 29.4063 47.9832 29.349 47.9983H29.3486Z" fill="#282828"/>
<path d="M32.0131 48.5474L27.6815 49.4339L27.6781 49.4346L27.677 49.4295L27.5847 48.9779C27.55 49.0246 27.5232 49.0775 27.5088 49.1386C27.4569 49.196 27.4556 49.448 27.4556 49.5905C27.4556 49.7746 28.0221 50.3696 28.8112 50.3112C29.2311 50.28 29.888 49.8542 30.413 49.6904C31.1928 49.447 31.7957 49.4346 31.9379 49.2152C32.0306 49.0717 32.0443 48.9076 32.0268 48.7438C32.0213 48.6929 32.0134 48.6421 32.0031 48.592C32.0076 48.5762 32.0096 48.5628 32.0134 48.5477L32.0131 48.5474ZM30.9503 49.1537C30.392 49.4442 29.8062 49.6818 29.2033 49.8631C29.0234 49.917 28.8362 49.9675 28.6446 49.9675C28.6288 49.9675 28.6127 49.9672 28.5969 49.9665C28.1849 49.9473 27.835 49.6897 27.5157 49.4473L27.5105 49.4085L27.5493 49.4034C27.8683 49.6461 28.2106 49.8944 28.5997 49.9116L28.645 49.9126C28.827 49.9126 29.0089 49.8642 29.1878 49.8106C29.7874 49.6307 30.3697 49.3941 30.9253 49.1053C30.9757 49.0792 31.0262 49.0525 31.077 49.0257C31.315 48.9007 31.5588 48.7784 31.8273 48.7318L31.8592 48.7541L31.8369 48.786C31.6405 48.82 31.4551 48.8972 31.2731 48.9869C31.1649 49.0401 31.0582 49.0981 30.9507 49.1541L30.9503 49.1537Z" fill="#282828"/>
<path d="M33.9045 47.9705L33.2645 48.9471L32.6571 49.8742C32.6571 49.8742 31.9278 50.1403 31.8807 50.5784C31.8804 50.5784 31.88 50.5784 31.8794 50.5784C31.8423 50.6464 31.8989 51.0258 31.9298 51.1652C31.9844 51.41 33.156 52.0425 33.8688 51.5522C34.2153 51.3132 34.5806 51.0083 34.9415 50.6097C35.3168 50.1949 35.7075 49.8481 35.964 49.5641C36.1103 49.402 36.2137 49.2602 36.2442 49.138C36.3136 48.8595 36.2686 48.6635 36.1766 48.464C36.1491 48.1398 35.9575 47.9911 35.8353 47.8232C35.4047 48.0643 34.7138 48.2913 33.9042 47.9705H33.9045ZM33.8331 48.3325C34.1002 48.4997 34.3979 48.6181 34.7066 48.681L34.7283 48.7136L34.6956 48.7352C34.3804 48.671 34.0765 48.5498 33.8039 48.3795L33.795 48.3414L33.8331 48.3325ZM33.5996 48.6755C33.8668 48.8427 34.1645 48.9615 34.4731 49.024L34.4948 49.0566L34.4621 49.0782C34.1466 49.014 33.8431 48.8932 33.5704 48.7225L33.5615 48.6844L33.5996 48.6755ZM33.3356 49.0278C33.6027 49.195 33.9004 49.3138 34.2091 49.3763L34.2307 49.4089L34.1981 49.4305C33.8825 49.3663 33.579 49.2451 33.3064 49.0745L33.2975 49.0364L33.3356 49.0274V49.0278ZM33.1069 49.3801C33.374 49.5473 33.6717 49.6657 33.9804 49.7286L34.002 49.7612L33.9694 49.7828C33.6542 49.7186 33.3507 49.5974 33.0777 49.4271L33.0688 49.389L33.1069 49.3801ZM32.9733 49.7255C33.2277 49.8649 33.4952 49.9806 33.771 50.0699L33.7888 50.1046L33.7541 50.1224C33.475 50.0318 33.2044 49.915 32.9469 49.7739L32.9359 49.7365L32.9733 49.7255ZM36.0942 48.6302L36.1326 48.6243L36.1385 48.6628C35.5486 49.4645 34.8649 50.1973 34.1061 50.8414C33.8942 51.021 33.6645 51.2016 33.3871 51.2679C33.3208 51.2837 33.2545 51.2905 33.1886 51.2933C33.1735 51.294 33.1584 51.2957 33.1433 51.2957C32.7683 51.2954 32.4023 51.112 32.0703 50.9358L32.0589 50.8984L32.0919 50.8885L32.0964 50.8871C32.4274 51.0632 32.7872 51.2411 33.1436 51.2408C33.2209 51.2408 33.2978 51.2325 33.3747 51.2143C33.6364 51.1522 33.8599 50.9784 34.0707 50.7995C34.8265 50.1581 35.507 49.4285 36.0942 48.6305V48.6302Z" fill="#282828"/>
<path d="M26.9014 29.9085C26.9738 30.0442 27.0325 30.1808 27.0792 30.3127C27.1613 30.5492 27.2066 30.768 27.2076 30.973V31.168C28.2831 31.9141 28.8651 34.0083 29.1961 36.0616H29.2095C29.5927 36.0616 29.9034 36.4905 29.9034 37.02C29.9034 37.4375 29.7097 37.7918 29.4399 37.923C29.4429 37.9515 29.446 37.98 29.4488 38.0082C29.7159 38.0806 29.9072 38.2667 29.9072 38.4872C29.9072 38.6825 29.7558 38.8504 29.536 38.9366C29.6064 39.7634 29.6452 40.4069 29.6819 40.6878C29.6943 40.7836 29.6304 40.8705 29.4972 40.9704C29.7396 43.3152 29.8649 45.1979 29.8649 45.1979L29.844 45.2061C29.8636 45.2089 29.8749 45.2109 29.8749 45.2109L31.4156 45.9536C31.465 45.9334 31.5217 45.9323 31.5938 45.9653C31.8019 46.0597 32.1387 46.0316 32.4594 46.0151C32.4986 45.647 32.5442 45.2195 32.595 44.744C31.7294 41.5641 30.4205 36.5849 29.9171 33.6433C29.49 31.1464 29.3554 28.6958 29.3588 26.5775C29.2723 26.091 29.206 25.6144 29.1545 25.1557C29.1652 25.2961 29.1761 25.4376 29.1868 25.5787C29.2668 26.6198 29.3468 27.633 29.3468 27.8511V27.8545C29.3468 27.8868 29.3468 27.9191 29.3468 27.9513C29.3468 33.6038 31.237 39.7827 31.7459 41.6636L31.7263 41.6976L31.6923 41.678C31.1838 39.7981 29.2912 33.6151 29.2912 27.9513C29.2912 27.9191 29.2912 27.8864 29.2912 27.8542V27.8511C29.2912 27.6399 29.2112 26.6229 29.1315 25.5832C29.0515 24.5424 28.9715 23.4776 28.9715 23.1586C28.9715 23.1353 28.9718 23.1157 28.9729 23.0999L29.0021 23.0742L29.011 23.0841C28.9914 22.3899 29.0028 21.8024 29.0206 21.3704C27.7539 21.1438 27.4143 20.8413 27.4143 20.8413L27.4212 20.7729C27.4195 20.7863 27.4178 20.798 27.4161 20.8114C27.1812 22.5856 26.798 26.1233 26.9017 29.9082L26.9014 29.9085Z" fill="#2995B1"/>
<path d="M29.9286 47.8531C29.9426 47.8589 29.9567 47.8654 29.9705 47.8709L32.3132 47.3916C32.3167 47.3579 32.3225 47.3054 32.3297 47.2354C32.054 47.4015 31.7257 47.5176 31.5111 47.5423C31.0902 47.5904 30.4841 47.7195 29.9282 47.8534L29.9286 47.8531Z" fill="#2995B1"/>
<path d="M36.1786 22.7173C36.1831 22.7241 36.1907 22.7307 36.1927 22.7379C36.2748 22.9841 35.7364 24.7689 35.5918 24.9485C35.4473 25.1284 34.3901 24.9052 34.275 24.7287C34.16 24.5522 34.1112 23.5575 34.1336 23.4449C34.1349 23.4383 34.1363 23.4318 34.1377 23.4256C34.0508 23.4459 33.966 23.4603 33.8949 23.4624C33.6216 23.4713 33.3857 23.1623 33.6566 23.108C33.8956 23.0596 34.2781 22.708 34.4251 22.5655C34.4457 22.3804 34.4855 22.0051 34.5274 21.5C33.2724 21.6216 31.7832 21.6559 30.3596 21.5392C29.8267 21.4956 29.3859 21.4365 29.0209 21.3713C29.003 21.8032 28.9917 22.3911 29.0112 23.085L29.0284 23.1042C29.0277 23.118 29.027 23.1369 29.027 23.1595C29.027 23.4301 29.0868 24.2638 29.1544 25.1565C29.2056 25.6153 29.2722 26.0919 29.3587 26.5784C29.3553 28.6966 29.4899 31.1476 29.917 33.6442C30.4201 36.5858 31.7293 41.5649 32.5949 44.7448C32.7227 45.2139 32.8408 45.6441 32.9452 46.0225C33.0963 46.0434 33.2161 46.0922 33.2741 46.1966C33.3819 46.3902 33.3054 46.5743 33.1416 46.7329C33.2999 47.3032 33.3991 47.659 33.4115 47.7136C33.5797 47.8241 33.7442 47.9079 33.9045 47.9714C34.7139 48.2921 35.405 48.0652 35.8356 47.8241C36.1344 47.6569 36.3084 47.4835 36.3084 47.4835C36.3084 47.4835 36.4276 45.9641 36.4115 43.8099C36.3888 40.7834 36.0993 36.503 34.8371 33.4145C35.5942 31.401 37.1572 25.5662 36.8681 21.0952C36.8019 21.1151 36.7311 21.135 36.657 21.1543C36.4341 21.9526 36.2422 22.5301 36.1783 22.7173H36.1786Z" fill="#33ABCA"/>
<path d="M29.5395 6.57629C29.5738 6.56599 29.6074 6.55603 29.6407 6.54642C29.6435 6.54573 29.6459 6.54504 29.6483 6.54436C29.6936 6.53131 29.7376 6.51929 29.7795 6.50796H29.7802C29.8241 6.49628 29.865 6.48564 29.9038 6.47568C29.9051 6.47568 29.9062 6.475 29.9075 6.47465C29.9848 6.45508 30.0504 6.43929 30.0967 6.42864L30.0054 5.94003C30.0054 5.94003 29.593 6.1021 29.2047 5.99772C28.7363 5.87136 28.4039 5.02771 28.1533 4.20947C28.1021 5.13965 27.402 7.46663 27.5153 8.64953C27.5332 8.59253 27.5503 8.53793 27.5668 8.48746C28.1924 6.5811 29.5319 6.57629 29.5388 6.57629H29.5395Z" fill="#27224F"/>
<path d="M21.2914 20.0456C21.2945 20.0408 21.2948 20.0326 21.2969 20.0264C21.8686 19.8551 26.1023 18.5266 27.8723 16.3308L27.8747 16.3081L27.8905 16.1529C27.8905 16.1529 28.1618 15.507 28.1453 13.8627L26.5033 13.0039C26.391 13.3562 26.287 13.668 26.1936 13.9155C24.1739 16.0667 20.9501 18.1585 20.3179 18.5602C20.1147 18.5348 19.601 18.4572 19.4135 18.3013C19.2013 18.1245 19.1086 18.5022 19.2868 18.7096C19.3328 18.7635 19.3974 18.8205 19.4674 18.8755C19.4616 18.8785 19.4554 18.8813 19.4499 18.8844C19.4142 18.9029 19.2981 18.9977 19.1611 19.1206C19.3387 19.5927 19.4822 20.1693 19.601 20.8495C20.1912 20.6421 21.1866 20.2091 21.2917 20.0453L21.2914 20.0456Z" fill="#F7B8B2"/>
<path d="M36.8681 21.0942C37.0078 21.0519 37.1311 21.008 37.2334 20.9633C37.2035 20.3655 37.163 19.8072 37.118 19.2949C36.97 19.9806 36.8069 20.6162 36.6572 21.1532C36.7314 21.134 36.8018 21.1141 36.8684 21.0942H36.8681Z" fill="#6CBFD6"/>
<path d="M32.7949 6.19727C32.819 6.20104 32.8478 6.20585 32.8801 6.21134C32.8475 6.20551 32.819 6.20104 32.7949 6.19727Z" fill="#6CBFD6"/>
<path d="M29.6489 6.5447C29.6942 6.53165 29.7382 6.51963 29.7801 6.5083C29.7382 6.51963 29.6942 6.53199 29.6489 6.5447Z" fill="#6CBFD6"/>
<path d="M27.8897 16.1535L27.874 16.3087L27.8716 16.3314L27.4712 20.2794L27.4211 20.7731L27.4142 20.8415C27.4142 20.8415 27.7534 21.144 29.0205 21.3706C29.3851 21.4358 29.8263 21.4949 30.3592 21.5385C31.7832 21.6552 33.272 21.6206 34.527 21.4994C34.6413 20.1163 34.7708 17.7656 34.5648 15.7023C34.5648 15.6996 34.5641 15.6968 34.5641 15.6944C34.5431 15.4846 34.5184 15.2779 34.4903 15.0753C34.4837 15.0276 34.4806 14.9819 34.4789 14.9373C34.4563 14.7752 34.4312 14.6115 34.4034 14.4453C34.4576 14.4442 34.5184 14.4425 34.585 14.4401C35.2474 14.4164 36.4588 14.3223 37.1184 13.9618C37.2808 13.8732 37.4092 13.7685 37.4882 13.6445C37.5016 13.6236 37.5146 13.6026 37.5249 13.5807C37.5847 13.2637 37.0504 8.73373 35.3288 7.24662C34.6211 6.61379 33.5299 6.3367 33.0042 6.23438C33.0447 6.24227 33.088 6.25086 33.1347 6.26116C32.9952 6.52658 32.8383 6.79063 32.668 7.04231C32.7315 6.95682 32.7937 6.87029 32.8527 6.7817L32.8909 6.77415L32.8984 6.81226C32.6272 7.21949 32.3061 7.59273 31.9473 7.9251C31.8072 8.06314 31.662 8.18572 31.5126 8.29148C31.4714 8.32307 31.4309 8.35534 31.389 8.3859C31.138 8.56823 30.8465 8.74094 30.5326 8.74128C30.499 8.74128 30.4653 8.73922 30.4317 8.7351C30.4282 8.73476 30.4248 8.73339 30.4214 8.7327C30.4643 9.38097 30.4265 10.2105 30.4708 10.8506L30.4451 10.8801L30.4155 10.8544C30.3709 10.204 30.4097 9.36587 30.3654 8.72C29.9918 8.63965 29.713 8.3004 29.6059 7.93541C29.5513 7.74862 29.5328 7.55633 29.5328 7.36336C29.5328 7.15734 29.5537 6.95064 29.575 6.74771L29.6052 6.72298L29.6152 6.73534C29.6217 6.67148 29.6299 6.6083 29.6402 6.54718C29.6069 6.5568 29.5733 6.56641 29.5389 6.57705C29.5321 6.57705 28.1926 6.58186 27.567 8.48822C27.5505 8.53836 27.533 8.59329 27.5155 8.65029C27.1048 9.96572 26.3813 12.9417 26.3813 12.9417L26.5019 13.0048L28.1438 13.8636C28.16 15.508 27.8891 16.1539 27.8891 16.1539L27.8897 16.1535ZM33.9309 9.95233C33.9309 10.2054 33.9416 10.4588 33.9563 10.7081C34.0233 11.8559 34.1466 13.0004 34.3254 14.1362L34.3024 14.1678L34.2708 14.1448C34.0916 13.0073 33.9683 11.8608 33.901 10.7112C33.8863 10.4615 33.8756 10.2068 33.8756 9.95199C33.8756 9.81739 33.8801 9.68279 33.8873 9.54888L33.8849 9.55163L33.8554 9.52587C33.8458 9.38544 33.841 9.245 33.841 9.10422C33.841 8.54557 33.9165 7.98691 34.0652 7.44817L34.0992 7.42894L34.1184 7.46294C33.9707 7.99652 33.8959 8.55037 33.8959 9.10422C33.8959 9.17358 33.9007 9.2426 33.9031 9.31196C33.9577 8.71381 34.1057 8.13559 34.4418 7.63908L34.4803 7.63187L34.4875 7.67033C34.0415 8.32822 33.9302 9.13821 33.9306 9.95268L33.9309 9.95233ZM30.796 10.5961C30.7699 10.6209 30.7359 10.6411 30.695 10.6411H30.6906C30.6223 10.6373 30.5745 10.5814 30.5591 10.5227L30.5536 10.477C30.5539 10.3949 30.6047 10.3156 30.6837 10.2857L30.7191 10.3022L30.7026 10.3376C30.648 10.3572 30.6082 10.4183 30.6085 10.477L30.6123 10.5089C30.6226 10.5498 30.658 10.5855 30.6923 10.5858H30.6947C30.717 10.5858 30.7373 10.5755 30.7575 10.556C30.7778 10.5367 30.7963 10.51 30.8128 10.4835L30.8509 10.4746L30.8599 10.5124C30.8427 10.5402 30.8221 10.5711 30.7956 10.5961H30.796ZM30.8602 9.77756C30.843 9.80537 30.8224 9.83628 30.796 9.861C30.7699 9.88572 30.7362 9.90598 30.695 9.90598H30.6906C30.6223 9.9022 30.5745 9.84658 30.5591 9.78786L30.5536 9.74219C30.5539 9.66013 30.6047 9.58081 30.6837 9.55094L30.7191 9.56742L30.7026 9.60279C30.648 9.62236 30.6082 9.68348 30.6085 9.74219L30.6123 9.77413C30.6226 9.81499 30.6576 9.8507 30.6923 9.8507H30.6947C30.717 9.8507 30.7369 9.8404 30.7575 9.82082C30.7778 9.8016 30.7963 9.77481 30.8125 9.74837L30.8502 9.73945L30.8592 9.77756H30.8602ZM30.647 8.93357L30.6823 8.95005L30.6659 8.98542C30.6113 9.00499 30.5714 9.06611 30.5718 9.12482L30.5756 9.15676C30.5859 9.19762 30.6212 9.23333 30.6556 9.23367H30.658C30.6803 9.23367 30.7005 9.22337 30.7208 9.2038C30.7411 9.18457 30.7596 9.15779 30.7761 9.13135L30.8138 9.12242L30.8228 9.16019C30.8056 9.188 30.785 9.2189 30.7586 9.24397C30.7325 9.26869 30.6985 9.28895 30.6576 9.28895H30.6532C30.5848 9.28517 30.5371 9.22955 30.5216 9.17049L30.5162 9.12482C30.5165 9.04276 30.5673 8.96344 30.6463 8.93357H30.647ZM28.1445 13.2864L28.1201 13.317L28.0896 13.2926C28.0305 12.7542 28.0013 12.2124 28.0013 11.6709C28.0013 10.2559 28.2012 8.8412 28.5964 7.48251L28.6307 7.46362L28.6496 7.49796C28.2561 8.8515 28.057 10.2614 28.057 11.6712C28.057 12.211 28.0862 12.7504 28.1449 13.2871L28.1445 13.2864Z" fill="#6CBFD6"/>
<path d="M29.7812 6.50786C29.8249 6.49619 29.8664 6.4852 29.9049 6.47559C29.8661 6.48554 29.8252 6.49619 29.7812 6.50786Z" fill="#6CBFD6"/>
<path d="M32.7324 6.1875C32.7472 6.18956 32.7674 6.19265 32.7918 6.19643C32.7678 6.19265 32.7472 6.18956 32.7324 6.1875Z" fill="#6CBFD6"/>
<path d="M30.0979 6.42871C30.0515 6.43936 29.9856 6.45515 29.9087 6.47472C29.9859 6.45515 30.0515 6.4397 30.0979 6.42905V6.42871Z" fill="#6CBFD6"/>
<path d="M32.9809 6.22894C32.9624 6.2255 32.9425 6.22138 32.9253 6.21829C32.9116 6.21589 32.8999 6.21383 32.8872 6.21143C32.9154 6.21623 32.9473 6.22241 32.9806 6.22859L32.9809 6.22894Z" fill="#6CBFD6"/>
<path d="M29.6595 7.91974C29.7089 8.08902 29.7982 8.2504 29.9146 8.38225C29.7099 8.08146 29.6045 7.59698 29.599 7.11523C29.5935 7.19799 29.5884 7.28074 29.5884 7.36314C29.5884 7.55268 29.6066 7.73947 29.6591 7.91974H29.6595Z" fill="#6CBFD6"/>
<path d="M30.9117 8.60191C30.761 8.65101 30.6075 8.67848 30.4526 8.68054C30.4798 8.68328 30.5065 8.68534 30.5337 8.68534C30.6621 8.68534 30.7888 8.65272 30.9117 8.60156V8.60191Z" fill="#6CBFD6"/>
<path d="M31.9479 7.9248C31.8088 8.05357 31.6636 8.1758 31.5132 8.29117C31.6622 8.18542 31.8074 8.06249 31.9479 7.9248Z" fill="white"/>
<path d="M32.8798 6.21092C32.8475 6.20542 32.8187 6.20062 32.7946 6.19684C32.7936 6.19684 32.7929 6.19684 32.7919 6.1965C32.7675 6.19272 32.7476 6.18963 32.7325 6.18757C32.7314 6.18757 32.7304 6.18757 32.7294 6.18723C32.7225 6.1862 32.717 6.18551 32.7126 6.18482C32.7053 6.18379 32.7002 6.18311 32.7002 6.18311C32.7002 6.18311 31.3655 7.48995 30.6548 7.48995C29.944 7.48995 30.0975 6.4293 30.0975 6.4293C30.0508 6.43994 29.9856 6.45539 29.9083 6.47497C29.9069 6.47497 29.9059 6.47565 29.9045 6.476C29.8661 6.48561 29.8245 6.4966 29.7809 6.50827H29.7802C29.7383 6.5196 29.6944 6.53196 29.6491 6.54467C29.6463 6.54536 29.6439 6.54604 29.6415 6.54673C29.6312 6.60819 29.623 6.67103 29.6164 6.73524L29.6309 6.75309C29.6185 6.87361 29.6075 6.99448 29.5996 7.11534C29.6051 7.59708 29.7105 8.08157 29.9152 8.38236C30.0549 8.54031 30.2341 8.65499 30.4395 8.68006C30.4439 8.68074 30.4484 8.68006 30.4529 8.68074C30.6077 8.67834 30.7612 8.65087 30.9119 8.60211C31.0685 8.53722 31.2189 8.4421 31.3576 8.34081C31.8569 7.97719 32.2998 7.53699 32.669 7.04186C32.8389 6.79018 32.9962 6.52613 33.1356 6.26071C33.0889 6.25075 33.0456 6.24182 33.0051 6.23392C32.9965 6.23221 32.9893 6.23083 32.9811 6.22946C32.9478 6.22294 32.9155 6.2171 32.8877 6.21229C32.8853 6.21195 32.8829 6.2116 32.8805 6.21092H32.8798Z" fill="white"/>
<path d="M29.2052 5.99832C29.5935 6.10236 30.0059 5.94063 30.0059 5.94063L30.0973 6.42924C30.0973 6.42924 29.9438 7.4899 30.6545 7.4899C31.3653 7.4899 32.6996 6.18305 32.7 6.18305C32.3226 5.65427 31.984 4.74572 31.6318 3.76267C31.7317 3.70292 31.7942 3.57931 31.7894 3.3987C31.787 3.30943 31.7664 3.2356 31.7351 3.17586C31.6736 3.05774 31.5682 2.99868 31.4594 3.01242C31.1758 3.05053 31.3135 3.466 31.1054 3.49072C30.9526 3.01448 31.0092 2.73704 30.7627 2.42732C30.2868 1.82987 28.9841 2.74905 28.1943 1.44873C28.1411 1.78798 27.7686 2.2419 27.6621 2.36586C27.6765 2.48878 27.6982 2.61858 27.7294 2.74734L27.7692 2.89052C27.773 2.9022 27.7761 2.91387 27.7799 2.92554C27.8087 3.01242 27.8389 3.11302 27.8705 3.2229C27.8956 3.17174 27.9605 3.05808 28.0673 3.00177C28.2317 2.9149 28.4069 2.88125 28.4268 2.88468C28.5418 2.90769 28.5834 3.06873 28.4951 3.14358C28.4745 3.16109 28.3032 3.18204 28.1414 3.25174C28.0024 3.31149 27.9409 3.35647 27.9131 3.37123C27.9849 3.62464 28.0642 3.91512 28.1545 4.20904C28.4052 5.02763 28.7375 5.87127 29.2059 5.99729L29.2052 5.99832ZM28.4196 3.76542C28.3475 3.78705 28.2657 3.73348 28.2396 3.64524C28.2136 3.55734 28.2527 3.46772 28.3248 3.44609C28.3993 3.42411 28.4797 3.47802 28.5058 3.56626C28.5319 3.65417 28.4937 3.74344 28.4192 3.76542H28.4196ZM31.4923 3.0574L31.5311 3.05225L31.5363 3.09105C31.4872 3.15526 31.4614 3.23732 31.4618 3.31938C31.4618 3.35578 31.4673 3.39183 31.4772 3.42651C31.4851 3.40591 31.4944 3.38497 31.505 3.36471C31.5294 3.31835 31.5572 3.27646 31.5765 3.2538L31.6153 3.25037L31.6187 3.28917C31.6039 3.30668 31.5765 3.34754 31.5538 3.39012C31.5311 3.43269 31.5136 3.47974 31.5143 3.50377L31.5167 3.51579C31.5167 3.51579 31.5174 3.51819 31.5181 3.51888L31.514 3.53708L31.5112 3.55562H31.5099V3.55665L31.4917 3.55253L31.4731 3.54978C31.4731 3.54978 31.4728 3.54875 31.4724 3.54807H31.4721C31.4697 3.54429 31.469 3.53982 31.4666 3.5357C31.4652 3.53261 31.4632 3.52952 31.4621 3.52609C31.4268 3.46222 31.4068 3.3908 31.4068 3.3187C31.4068 3.2253 31.4353 3.13191 31.493 3.05671L31.4923 3.0574ZM30.8005 5.3885C31.0137 5.16188 31.1469 4.87311 31.2324 4.55412L31.2661 4.53455L31.2856 4.5682C31.1988 4.89268 31.0621 5.19072 30.8406 5.42627C30.6298 5.6498 30.3362 5.81874 30.0622 5.94853L30.0255 5.93548L30.0385 5.89874C30.3095 5.77067 30.5979 5.60379 30.8005 5.3885ZM29.314 2.67351C29.3281 2.65909 29.4943 2.59866 29.6794 2.57565C29.8638 2.55231 30.0639 2.64742 30.087 2.66287C30.1584 2.71094 30.1415 2.80846 30.1034 2.81773C30.0801 2.82391 29.9197 2.79678 29.7535 2.82528C29.5798 2.85481 29.4243 2.93104 29.3975 2.92726C29.2828 2.9125 29.2303 2.75489 29.3144 2.67317L29.314 2.67351ZM29.7989 3.40729C29.7244 3.42926 29.6437 3.3757 29.6179 3.28814C29.5918 3.19921 29.6303 3.11027 29.7044 3.0883C29.7766 3.06667 29.8583 3.12023 29.8844 3.20882C29.9105 3.29638 29.871 3.386 29.7989 3.40729ZM28.9477 4.02878C28.9744 4.00096 29.0002 3.9807 29.0143 3.9704C29.0187 3.92577 29.0356 3.75546 29.0356 3.59648C29.0356 3.49278 29.0277 3.39286 29.0078 3.34411L29.0232 3.3084L29.0589 3.32385C29.0843 3.3884 29.0905 3.48969 29.0905 3.59682C29.0905 3.78567 29.0678 3.98826 29.0675 3.9886L29.0555 4.00817L29.0345 4.02397C29.0215 4.03427 29.0043 4.04938 28.9872 4.06689C28.9525 4.10226 28.9212 4.1493 28.9223 4.18741L28.925 4.20733C28.935 4.24475 28.9614 4.26673 29.0009 4.28218C29.04 4.29729 29.0898 4.30209 29.1338 4.30209C29.164 4.30209 29.1911 4.30003 29.2107 4.29763C29.2303 4.29557 29.2419 4.29351 29.2419 4.29351L29.2739 4.31583L29.2515 4.34776C29.2515 4.34776 29.199 4.35738 29.1334 4.35738C29.0857 4.35738 29.0304 4.35257 28.981 4.33403C28.9322 4.31583 28.8865 4.28046 28.8714 4.22209L28.867 4.18775C28.8677 4.12286 28.9096 4.06895 28.9477 4.02878ZM28.856 4.74641L28.8938 4.73714C28.981 4.79036 29.0737 4.81268 29.1674 4.81268C29.448 4.81371 29.7398 4.60735 29.871 4.44356L29.9098 4.43944L29.9139 4.47824C29.7724 4.65267 29.4747 4.86693 29.1674 4.86796C29.0648 4.86796 28.9614 4.84324 28.8649 4.78418L28.8556 4.74641H28.856Z" fill="#F7B8B2"/>
<path d="M27.6331 2.40004C27.6331 2.40004 27.6445 2.38733 27.6623 2.36673C27.7688 2.24277 28.1417 1.78885 28.1945 1.4496C28.9843 2.74992 30.287 1.83074 30.7629 2.42819C31.0098 2.73791 30.9528 3.015 31.1056 3.49159C31.3137 3.46687 31.176 3.05106 31.4596 3.01329C31.5684 2.99955 31.6738 3.05861 31.7353 3.17673C31.7662 3.23647 31.7868 3.3103 31.7896 3.39957C31.794 3.58018 31.7319 3.70345 31.632 3.76354C31.9843 4.74625 32.3225 5.65514 32.7002 6.18392C32.7002 6.18392 32.705 6.18461 32.7125 6.18564C32.717 6.18632 32.7225 6.18701 32.7294 6.18804C32.7304 6.18804 32.7314 6.18804 32.7324 6.18838C32.7472 6.19044 32.7678 6.19353 32.7918 6.19731C32.7929 6.19731 32.7936 6.19731 32.7946 6.19765C32.819 6.20143 32.8471 6.20624 32.8797 6.21173C32.8821 6.21207 32.8846 6.21242 32.887 6.21311C32.8993 6.21517 32.9113 6.21723 32.9251 6.21997C32.8619 4.48117 32.7294 1.82936 31.5204 0.570929C31.485 0.533159 31.4483 0.498136 31.4108 0.464829C31.4022 0.456932 31.3947 0.448348 31.3861 0.440794C31.3792 0.434613 31.3724 0.43015 31.3658 0.424313C31.3573 0.417102 31.3483 0.409891 31.3398 0.403024C31.2007 0.287653 31.0603 0.208679 30.9198 0.163355C30.4789 -0.012448 29.9718 -0.0203453 29.488 0.0201718C28.0108 0.144813 27.3698 1.10005 27.2997 1.81254C27.2207 2.6246 27.7732 2.90513 27.7732 2.90513L27.7698 2.89208L27.73 2.74889L27.6338 2.40107L27.6331 2.40004Z" fill="#27224F"/>
<path d="M28.9817 4.33423C29.0311 4.35277 29.0864 4.35757 29.1341 4.35757C29.1994 4.35757 29.2512 4.3483 29.2522 4.34796L29.2746 4.31603L29.2426 4.29371C29.2426 4.29371 29.231 4.29577 29.2114 4.29783C29.1918 4.29989 29.1643 4.30229 29.1345 4.30229C29.0905 4.30229 29.0407 4.29749 29.0016 4.28238C28.9621 4.26693 28.9357 4.24495 28.9257 4.20787L28.923 4.18761C28.9223 4.1495 28.9532 4.10245 28.9879 4.06709C29.005 4.04923 29.0222 4.03447 29.0352 4.02417L29.0562 4.00837L29.0682 3.9888C29.0682 3.9888 29.0909 3.78587 29.0912 3.59702C29.0912 3.48989 29.0847 3.3886 29.0596 3.32405L29.0239 3.30859L29.0085 3.3443C29.0284 3.39306 29.0366 3.49298 29.0363 3.59668C29.0363 3.75566 29.0198 3.92596 29.015 3.9706C29.0012 3.9809 28.9755 4.00116 28.9484 4.02897C28.9103 4.06915 28.8687 4.12306 28.8677 4.18795L28.8721 4.22229C28.8872 4.28066 28.9329 4.31603 28.9817 4.33423Z" fill="#27224F"/>
<path d="M29.9144 4.47728L29.9102 4.43848L29.8714 4.4426C29.7406 4.60638 29.4484 4.81274 29.1679 4.81171C29.0741 4.81171 28.9814 4.7894 28.8942 4.73617L28.8564 4.74545L28.8657 4.78322C28.9622 4.84227 29.0656 4.867 29.1682 4.867C29.4755 4.86597 29.7732 4.65171 29.9147 4.47728H29.9144Z" fill="#27224F"/>
<path d="M29.7047 3.0878C29.6302 3.10978 29.5918 3.19871 29.6182 3.28764C29.644 3.3752 29.725 3.42876 29.7992 3.40679C29.8713 3.3855 29.9108 3.29622 29.8847 3.20832C29.8586 3.11973 29.7768 3.06617 29.7047 3.0878Z" fill="#27224F"/>
<path d="M29.3972 2.92656C29.424 2.93034 29.5796 2.85411 29.7533 2.82459C29.9195 2.79609 30.0799 2.82321 30.1032 2.81703C30.1413 2.80776 30.1581 2.71024 30.0867 2.66217C30.0641 2.64672 29.8635 2.55161 29.6791 2.57496C29.4941 2.59796 29.3279 2.6584 29.3138 2.67282C29.2297 2.75454 29.2822 2.91214 29.3969 2.92691L29.3972 2.92656Z" fill="#27224F"/>
<path d="M28.3254 3.44583C28.2529 3.46746 28.2138 3.55673 28.2402 3.64498C28.2663 3.73322 28.3477 3.78679 28.4201 3.76515C28.4946 3.74318 28.5328 3.65425 28.5067 3.566C28.4806 3.47776 28.4002 3.42385 28.3257 3.44583H28.3254Z" fill="#27224F"/>
<path d="M28.4945 3.14439C28.5828 3.06919 28.5412 2.9085 28.4262 2.88549C28.4063 2.88206 28.2311 2.91571 28.0667 3.00258C27.9599 3.05889 27.895 3.17254 27.8699 3.22371C27.8648 3.23401 27.861 3.24259 27.8589 3.24671C27.8253 3.32569 27.8648 3.39024 27.9019 3.37788C27.9043 3.37719 27.9091 3.3741 27.9122 3.37238C27.94 3.35762 28.0014 3.31298 28.1405 3.25289C28.3022 3.18319 28.4736 3.16224 28.4942 3.14473L28.4945 3.14439Z" fill="#27224F"/>
<path d="M37.1184 13.9614C36.4584 14.3219 35.2474 14.416 34.585 14.4397C34.5188 14.4421 34.4576 14.4438 34.4034 14.4448C34.4315 14.611 34.4566 14.7748 34.4789 14.9369C34.4806 14.9818 34.4837 15.0275 34.4903 15.0749C34.5188 15.2775 34.5431 15.4842 34.5641 15.694C34.5641 15.6967 34.5648 15.6995 34.5648 15.7019C34.7708 17.7652 34.6413 20.1158 34.527 21.4989C34.4851 22.0037 34.4456 22.379 34.4247 22.5644C34.2774 22.7069 33.8949 23.0585 33.6562 23.1069C33.3857 23.1615 33.6216 23.4702 33.8945 23.4612C33.9656 23.4592 34.0504 23.4448 34.1373 23.4245C34.1359 23.431 34.1345 23.4376 34.1332 23.4437C34.1108 23.5564 34.1596 24.5511 34.2746 24.7276C34.3897 24.9041 35.4465 25.1273 35.5914 24.9473C35.736 24.7674 36.2744 22.9829 36.1923 22.7367C36.1899 22.7299 36.1827 22.723 36.1782 22.7161C36.2421 22.5294 36.4341 21.9518 36.6569 21.1531C36.8066 20.6161 36.97 19.9806 37.1177 19.2949C37.3505 18.2157 37.5431 17.0173 37.5816 15.8969C37.6032 15.8224 37.6142 15.7417 37.6125 15.6531C37.6022 15.1209 37.5682 14.4218 37.4878 13.6431C37.4089 13.767 37.2801 13.8717 37.118 13.9603L37.1184 13.9614Z" fill="#F7B8B2"/>
<path d="M34.0709 50.7992C33.8604 50.9781 33.6365 51.1522 33.3749 51.214C33.2979 51.2322 33.221 51.2405 33.1438 51.2405C32.7874 51.2408 32.4275 51.0629 32.0965 50.8868L32.092 50.8882L32.0591 50.8981L32.0704 50.9356C32.4024 51.1117 32.7688 51.2951 33.1434 51.2954C33.1585 51.2954 33.1736 51.2933 33.1888 51.293C33.255 51.2903 33.3213 51.2834 33.3872 51.2676C33.6647 51.2013 33.8944 51.0207 34.1062 50.8411C34.8651 50.197 35.5487 49.4642 36.1386 48.6625L36.1328 48.624L36.0943 48.6299C35.5068 49.4282 34.8263 50.1578 34.0709 50.7989V50.7992Z" fill="#FAF3EB"/>
<path d="M31.8595 48.7533L31.8275 48.731C31.559 48.7777 31.3152 48.8999 31.0773 49.0249C31.0265 49.0517 30.976 49.0784 30.9255 49.1045C30.3703 49.3933 29.7876 49.6299 29.1881 49.8098C29.0092 49.8637 28.8272 49.9118 28.6452 49.9118L28.5999 49.9108C28.2109 49.8936 27.8685 49.6457 27.5495 49.4026L27.5107 49.4077L27.5159 49.4465C27.8352 49.6889 28.1851 49.9468 28.5971 49.9657C28.6129 49.9664 28.6291 49.9667 28.6449 49.9667C28.8368 49.9667 29.0236 49.9163 29.2035 49.8623C29.8065 49.6814 30.3919 49.4434 30.9506 49.1529C31.058 49.097 31.1648 49.0393 31.273 48.9857C31.455 48.8958 31.6404 48.8185 31.8368 48.7849L31.8591 48.7529L31.8595 48.7533Z" fill="#FAF3EB"/>
<path d="M33.7538 50.1225L33.7885 50.1047L33.7706 50.07C33.4945 49.9804 33.2274 49.865 32.973 49.7256L32.9355 49.7366L32.9465 49.774C33.2041 49.9151 33.4746 50.0319 33.7538 50.1225Z" fill="#FAF3EB"/>
<path d="M29.5259 47.9523C29.5293 47.9547 29.5331 47.9571 29.5365 47.9595L29.6128 47.944C29.6079 47.9406 29.6028 47.9375 29.598 47.9341C29.5736 47.9403 29.5499 47.9464 29.5259 47.9523Z" fill="#FAF3EB"/>
<path d="M33.9695 49.7826L34.0021 49.761L33.9805 49.7284C33.6718 49.6656 33.3741 49.5468 33.107 49.3799L33.0688 49.3888L33.0778 49.4269C33.3508 49.5976 33.6543 49.7188 33.9695 49.7826Z" fill="#FAF3EB"/>
<path d="M34.1985 49.43L34.2311 49.4083L34.2095 49.3757C33.9005 49.3129 33.6031 49.1941 33.336 49.0269L33.2979 49.0358L33.3068 49.0739C33.5798 49.2445 33.8833 49.3658 34.1985 49.43Z" fill="#FAF3EB"/>
<path d="M34.4622 49.0776L34.4948 49.0559L34.4732 49.0233C34.1641 48.9605 33.8668 48.842 33.5996 48.6748L33.5615 48.6837L33.5705 48.7218C33.8434 48.8925 34.147 49.0137 34.4622 49.0776Z" fill="#FAF3EB"/>
<path d="M34.6965 48.7348L34.7292 48.7132L34.7075 48.6805C34.3988 48.6177 34.1011 48.4989 33.834 48.332L33.7959 48.341L33.8048 48.3791C34.0778 48.5497 34.3813 48.6709 34.6965 48.7348Z" fill="#FAF3EB"/>
<path d="M28.9735 23.1C28.9725 23.1158 28.9722 23.135 28.9722 23.1587C28.9722 23.4777 29.0522 24.5421 29.1322 25.5832C29.2122 26.6232 29.2922 27.6399 29.2918 27.8511V27.8542C29.2918 27.8865 29.2918 27.9188 29.2918 27.9514C29.2918 33.6152 31.1845 39.7982 31.693 41.6781L31.727 41.6977L31.7466 41.6637C31.2373 39.7827 29.3471 33.6039 29.3475 27.9514C29.3475 27.9191 29.3475 27.8868 29.3475 27.8545V27.8511C29.3475 27.6331 29.2675 26.6198 29.1875 25.5787C29.1765 25.4376 29.1658 25.2958 29.1552 25.1557C29.0875 24.2629 29.0278 23.4293 29.0278 23.1587C29.0278 23.136 29.0281 23.1175 29.0292 23.1034L29.012 23.0842L29.0031 23.0742L28.9739 23.1H28.9735Z" fill="#27224F"/>
<path d="M31.4663 3.5359C31.4687 3.53968 31.4694 3.54414 31.4718 3.54792H31.4722C31.4722 3.54792 31.4725 3.54895 31.4729 3.54964L31.4914 3.55238L31.5096 3.5565V3.55513H31.5113L31.5141 3.53659L31.5182 3.51839C31.5182 3.51839 31.5175 3.51599 31.5168 3.5153L31.5144 3.50328C31.5137 3.47925 31.5312 3.43221 31.5539 3.38963C31.5762 3.34671 31.6037 3.30619 31.6188 3.28868L31.6154 3.24988L31.5766 3.25331C31.5573 3.27598 31.5295 3.31787 31.5051 3.36422C31.4945 3.38482 31.4852 3.40542 31.4773 3.42603C31.4674 3.39135 31.4619 3.35529 31.4619 3.3189C31.4619 3.23683 31.4873 3.15477 31.5364 3.09056L31.5312 3.05176L31.4924 3.05691C31.4351 3.13211 31.4066 3.2255 31.4062 3.3189C31.4062 3.39135 31.4262 3.46242 31.4615 3.52629C31.4622 3.52972 31.4646 3.53281 31.466 3.5359H31.4663Z" fill="#27224F"/>
<path d="M30.0254 5.9356L30.0621 5.94865C30.3361 5.81885 30.6297 5.65026 30.8405 5.42639C31.062 5.19084 31.1987 4.8928 31.2855 4.56832L31.266 4.53467L31.2323 4.55424C31.1468 4.87323 31.0136 5.162 30.8004 5.38862C30.5978 5.60391 30.3094 5.77044 30.0384 5.89886L30.0254 5.9356Z" fill="#27224F"/>
<path d="M34.4432 7.63934C34.1067 8.13584 33.959 8.71407 33.9044 9.31221C33.902 9.24285 33.8972 9.17384 33.8972 9.10448C33.8972 8.55063 33.9721 7.99678 34.1197 7.46319L34.1005 7.4292L34.0665 7.44843C33.9175 7.98682 33.8423 8.54548 33.8423 9.10448C33.8423 9.24526 33.8471 9.38569 33.8567 9.52613L33.8862 9.55188L33.8886 9.54914C33.8814 9.68339 33.877 9.81765 33.877 9.95225C33.877 10.207 33.8876 10.4615 33.9024 10.7114C33.9697 11.861 34.0929 13.0075 34.2722 14.1451L34.3038 14.1681L34.3268 14.1365C34.1479 13.0006 34.0246 11.8562 33.9577 10.7083C33.9429 10.4591 33.9322 10.2056 33.9322 9.95259C33.9322 9.13847 34.0432 8.32847 34.4892 7.67024L34.482 7.63178L34.4435 7.63899L34.4432 7.63934Z" fill="#27224F"/>
<path d="M28.6309 7.46358L28.5965 7.48246C28.2016 8.84116 28.0015 10.2562 28.0015 11.6708C28.0015 12.2127 28.0306 12.7541 28.0897 13.2925L28.1203 13.3169L28.1446 13.2864C28.0859 12.75 28.0567 12.2103 28.0567 11.6705C28.0567 10.261 28.2559 8.85112 28.6494 7.49723L28.6305 7.46289L28.6309 7.46358Z" fill="#27224F"/>
<path d="M31.3575 8.34074C31.2187 8.44203 31.0683 8.53714 30.9118 8.60204C30.7888 8.65286 30.6621 8.68582 30.5337 8.68582C30.5069 8.68582 30.4798 8.68376 30.4527 8.68101C30.4482 8.68067 30.4438 8.68101 30.4393 8.68033C30.234 8.65526 30.0544 8.54058 29.915 8.38263C29.7982 8.25078 29.709 8.08905 29.6599 7.92012C29.6073 7.73985 29.5891 7.55306 29.5891 7.36352C29.5891 7.28146 29.5943 7.19871 29.5998 7.11561C29.6077 6.99475 29.6186 6.87388 29.631 6.75336L29.6166 6.73551L29.6066 6.72314L29.5764 6.74787C29.5555 6.9508 29.5342 7.15785 29.5342 7.36352C29.5342 7.55649 29.5527 7.74878 29.6073 7.93557C29.7141 8.30057 29.9933 8.63981 30.3668 8.72016C30.4111 9.36568 30.3723 10.2042 30.417 10.8545L30.4465 10.8803L30.4723 10.8507C30.428 10.2107 30.4657 9.38114 30.4228 8.73286C30.4262 8.73321 30.4297 8.73492 30.4331 8.73526C30.4671 8.73938 30.5008 8.74145 30.5341 8.74145C30.8476 8.7411 31.1394 8.56839 31.3904 8.38606C31.4323 8.3555 31.4728 8.32323 31.514 8.29164C31.6644 8.17627 31.8093 8.05403 31.9487 7.92527C32.3079 7.59289 32.6286 7.21931 32.8998 6.81242L32.8923 6.77431L32.8542 6.78186C32.7951 6.87045 32.733 6.95698 32.6694 7.04247C32.3003 7.53795 31.8574 7.9778 31.3581 8.34142L31.3575 8.34074Z" fill="#27224F"/>
<path d="M30.6544 9.28814H30.6588C30.6997 9.28814 30.7337 9.26823 30.7598 9.24351C30.7862 9.21844 30.8068 9.18788 30.824 9.15973L30.8151 9.12196L30.7773 9.13088C30.7612 9.15732 30.7426 9.18411 30.722 9.20333C30.7014 9.22256 30.6812 9.23321 30.6592 9.23321H30.6568C30.6225 9.23321 30.5871 9.19715 30.5768 9.15629L30.573 9.12436C30.5727 9.06564 30.6125 9.00452 30.6671 8.98495L30.6836 8.94959L30.6482 8.93311C30.5696 8.96298 30.5188 9.04229 30.5181 9.12436L30.5236 9.17003C30.539 9.22874 30.5867 9.28471 30.6551 9.28814H30.6544Z" fill="#27224F"/>
<path d="M30.7582 9.82052C30.7376 9.83975 30.7173 9.85039 30.6953 9.85039H30.6929C30.6586 9.85039 30.6232 9.81434 30.6129 9.77348L30.6091 9.74155C30.6088 9.68283 30.6486 9.62171 30.7032 9.60214L30.7197 9.56677L30.6843 9.55029C30.6057 9.58017 30.5549 9.65948 30.5542 9.74155L30.5597 9.78721C30.5751 9.84593 30.6229 9.9019 30.6912 9.90533H30.6957C30.7365 9.90533 30.7705 9.88542 30.7966 9.8607C30.8231 9.83563 30.8437 9.80507 30.8608 9.77726L30.8519 9.73914L30.8141 9.74807C30.798 9.77451 30.7794 9.80129 30.7592 9.82052H30.7582Z" fill="#27224F"/>
<path d="M30.8134 10.4834C30.7973 10.5099 30.7788 10.5366 30.7582 10.5559C30.7376 10.5751 30.7173 10.5857 30.6953 10.5857H30.6929C30.6586 10.5857 30.6232 10.5497 30.6129 10.5088L30.6091 10.4769C30.6088 10.4182 30.6486 10.3571 30.7032 10.3375L30.7197 10.3021L30.6843 10.2856C30.6057 10.3155 30.5549 10.3948 30.5542 10.4769L30.5597 10.5226C30.5751 10.5813 30.6229 10.6373 30.6912 10.6407H30.6957C30.7365 10.6407 30.7705 10.6208 30.7966 10.596C30.8231 10.571 30.8437 10.5404 30.8608 10.5123L30.8519 10.4745L30.8138 10.4834H30.8134Z" fill="#27224F"/>
<path d="M12.1017 43.163C12.1017 43.2911 12.0832 43.4147 12.0488 43.5308H18.0234C18.0351 43.3474 18.043 43.1633 18.043 42.9766C18.043 42.9158 18.0402 42.8557 18.0388 42.7949H12.0488C12.0832 42.911 12.1017 43.0346 12.1017 43.163Z" fill="#CCCCCC"/>
<path d="M23.328 37.978H22.9272V38.9995H23.7101C23.5755 38.6411 23.4461 38.2953 23.328 37.978Z" fill="#B5B5B5"/>
<path d="M11.3892 38.9995H17.0605C16.8682 38.6397 16.6519 38.2977 16.4119 37.978H11.3892V38.9995Z" fill="#B5B5B5"/>
<path d="M10.266 37.9785C10.2427 37.9785 10.2197 37.9768 10.1967 37.9751H10.0006C9.61364 37.9751 9.2998 38.2045 9.2998 38.4874C9.2998 38.7703 9.61364 38.9997 10.0006 38.9997H10.4937V37.9782H10.2664L10.266 37.9785Z" fill="#B5B5B5"/>
<path d="M21.7332 37.978H18.6934C18.8678 38.307 19.0257 38.6479 19.1655 38.9995H21.7332V37.978Z" fill="#B5B5B5"/>
<path d="M29.9071 38.4868C29.9071 38.2664 29.7159 38.0803 29.4487 38.0078C29.4824 38.3354 29.5112 38.6468 29.5356 38.9366C29.7557 38.8501 29.9068 38.6825 29.9068 38.4871L29.9071 38.4868Z" fill="#B5B5B5"/>
<path d="M24.6739 28.1482C24.9325 28.1482 25.1423 28.3494 25.1423 28.5973C25.1423 28.6347 25.1361 28.6704 25.1272 28.7051C25.3837 28.7117 25.6237 28.7676 25.8348 28.862C25.863 28.8744 25.8891 28.8895 25.9162 28.9029C25.8702 28.5695 25.4465 27.7904 25.3356 27.7471C24.9857 27.6112 23.6407 27.3471 23.1937 27.2613C22.5083 26.8609 22.1111 26.636 21.6413 26.4015C22.3106 26.1749 22.7301 25.9946 22.7301 25.9946C22.988 26.0252 24.6269 25.1376 24.7738 24.9597C24.9208 24.7818 24.4889 23.7916 24.2928 23.7147C24.0967 23.6377 23.1127 23.7905 23.0069 23.8352C23.0011 23.8376 22.9949 23.8407 22.9887 23.8431C22.9908 23.7541 22.988 23.668 22.9756 23.5979C22.9293 23.3287 22.5791 23.1598 22.5804 23.4358C22.5811 23.6796 22.3143 24.125 22.2044 24.298C21.8868 24.2963 21.0593 24.2912 19.9746 24.2788C19.1643 24.2695 18.2111 24.2565 17.2212 24.2379C17.1549 23.9186 17.0629 23.5347 16.9396 23.0918C16.2021 23.4825 14.1941 24.5264 13.6289 24.6143C13.8346 25.2361 14.0924 25.8195 14.3925 26.3407C14.398 26.352 14.4049 26.3627 14.4107 26.374C14.4107 26.374 14.4107 26.3744 14.4111 26.3747C14.6209 26.7716 15.0188 27.0951 15.6386 27.2019C17.1041 27.4546 18.7897 27.1888 20.1504 26.8431L20.1401 26.8358L20.1628 26.8039C20.5487 26.7387 21.15 26.5636 21.5109 26.4111L21.5469 26.4259L21.5435 26.4341L21.5321 26.4619C21.2008 26.6017 20.6796 26.7576 20.2922 26.8355L20.6301 28.1478H24.6743L24.6739 28.1482ZM17.1649 24.2029L17.1992 24.2215L17.1807 24.2558C16.8507 24.3526 16.5475 24.5408 16.3144 24.7935L16.2752 24.7952L16.2738 24.7561C16.5142 24.4958 16.8256 24.3025 17.1652 24.2029H17.1649Z" fill="#F7B8B2"/>
<path d="M21.8631 28.7021H25.077C25.0938 28.7021 25.11 28.7042 25.1268 28.7049C25.1357 28.6702 25.1419 28.6345 25.1419 28.5971C25.1419 28.3492 24.9324 28.1479 24.6735 28.1479H20.6294L20.6366 28.1761C21.0514 28.2393 21.4178 28.3935 21.7172 28.5964C21.7676 28.6304 21.8161 28.6657 21.8631 28.7018V28.7021Z" fill="#CA8255"/>
<path d="M29.9046 37.0194C29.9046 36.4899 29.5939 36.061 29.2107 36.061H29.1973C29.3003 36.7004 29.3792 37.3342 29.4407 37.9224C29.7106 37.7913 29.9043 37.4369 29.9043 37.0194H29.9046Z" fill="#DDA173"/>
<path d="M23.2122 37.6673C23.3743 37.4967 23.4739 37.27 23.4739 37.0201C23.4739 36.6451 23.251 36.3217 22.9272 36.1641V37.9784H23.328C23.2881 37.8713 23.2493 37.7669 23.2122 37.6673Z" fill="#DDA173"/>
<path d="M15.1276 17.1152C15.1204 17.1509 15.1132 17.1863 15.105 17.2217C15.1386 17.2086 15.1699 17.197 15.1991 17.187C15.1757 17.1623 15.152 17.1382 15.1276 17.1152Z" fill="#E0E0E1"/>
<path d="M13.2491 17.3211C13.2491 17.4152 13.2148 17.5007 13.1602 17.5687H13.2759C13.3099 17.5117 13.3442 17.455 13.3748 17.398C13.4946 17.1738 13.5547 16.9266 13.5787 16.6729H13.1602C13.2151 16.7408 13.2491 16.8263 13.2491 16.9204V17.3211Z" fill="#E0E0E1"/>
<path d="M11.0628 17.7177H12.852C12.977 17.7177 13.0873 17.6586 13.16 17.5683C13.215 17.5003 13.249 17.4148 13.249 17.3207V16.92C13.249 16.8259 13.2146 16.7404 13.16 16.6725C13.0873 16.5822 12.977 16.5234 12.8524 16.5234H10.8344C10.6154 16.5234 10.4375 16.701 10.4375 16.9204V16.9516C10.7043 17.1233 10.9107 17.3788 11.0631 17.7177H11.0628Z" fill="#27224F"/>
<path d="M12.0354 31.9272C12.034 31.032 12.2215 30.177 12.3904 29.5892C12.376 29.5682 12.3636 29.5463 12.3568 29.5229C12.3393 29.4635 12.3252 29.4017 12.3128 29.3389H11.3892V31.9272H12.035H12.0354Z" fill="#DDA173"/>
<path d="M12.0927 27.9211C12.0927 27.7539 12.2112 27.6093 12.3846 27.5324C12.4587 27.1588 12.5374 26.901 12.5374 26.901C12.5374 26.901 12.4412 23.8488 12.8 21.2334C12.8 21.2327 12.8 21.232 12.8 21.2317C12.774 20.9189 12.8282 20.3664 12.9604 19.8057H11.3892V28.145H12.1717C12.1229 28.079 12.0927 28.0032 12.0927 27.9214V27.9211Z" fill="#DDA173"/>
<path d="M13.2756 17.5684C13.1746 17.7381 13.0778 17.9108 13.1019 18.1013C13.117 18.2219 13.1819 18.3328 13.2684 18.4183C13.3202 18.4698 13.3807 18.5079 13.4438 18.5402C13.5218 18.4152 13.6069 18.3077 13.6986 18.2212C14.1313 17.6625 14.7418 17.3607 15.105 17.2213C15.1129 17.1859 15.1205 17.1502 15.1277 17.1149C15.2558 16.4772 15.2445 15.8207 15.1809 15.1666C15.3255 15.5168 15.5174 15.7922 15.7489 15.8884C15.8309 15.5343 15.8869 15.1663 15.8508 14.873C15.6974 14.8967 15.5579 14.8006 15.4992 14.5798C15.4347 14.336 15.5401 14.1647 15.6936 14.1399C15.96 14.0981 15.9466 14.5128 16.1413 14.4795C16.2457 14.3078 16.0805 14.2509 16.1609 13.7732C16.2594 13.1888 17.6071 13.1342 17.7905 12.1072C18.4206 11.9819 19.1633 12.6034 19.1671 12.6061V12.6078L19.2265 13.1335C19.2265 13.1335 19.2302 13.1301 19.2313 13.1291C19.258 13.1071 19.5781 12.8283 19.5774 12.2157C19.5767 11.7027 19.2337 10.8392 17.6762 10.7286C16.1932 10.6235 15.23 11.8222 14.9553 12.9581C14.5416 12.7709 14.0056 13.0511 13.7584 13.3818C13.4837 13.7492 13.4074 14.2306 13.4232 14.689C13.439 15.1474 13.5383 15.5989 13.5771 16.0556C13.5946 16.2595 13.5973 16.4676 13.5778 16.6716C13.5534 16.9253 13.4933 17.1725 13.3738 17.3968C13.3432 17.4538 13.3089 17.5104 13.2749 17.5674L13.2756 17.5684Z" fill="#27224F"/>
<path d="M32.4596 46.015C32.1389 46.0315 31.8021 46.0593 31.594 45.9652C31.5219 45.9326 31.4652 45.9336 31.4158 45.9535C31.3018 46.0002 31.2307 46.1595 31.1318 46.3141C31.6067 46.4387 32.5403 46.0675 32.7683 46.4215C32.9194 46.656 32.7796 46.894 32.5359 47.0907C32.7645 47.0025 32.9901 46.8779 33.1416 46.7312C33.3053 46.573 33.3823 46.3886 33.2741 46.1949C33.2161 46.0905 33.0959 46.0418 32.9451 46.0208C32.8033 46.0012 32.6344 46.0057 32.4596 46.0146V46.015Z" fill="#5698C0"/>
<path d="M27.5121 46.8957C27.9327 46.7394 30.0015 47.0234 30.031 47.0265C30.6463 47.0876 30.6505 46.4438 30.8826 46.3051C30.9334 46.2749 30.9949 46.2676 31.0762 46.2986C31.0934 46.3051 31.1126 46.3092 31.1312 46.314C31.2301 46.1595 31.3011 46.0002 31.4151 45.9535L29.8745 45.2108C29.8745 45.2108 29.8628 45.2091 29.8436 45.206L29.8645 45.1977C29.8645 45.1977 29.7388 43.3151 29.4968 40.9702C29.3429 41.0852 29.0964 41.2174 28.7609 41.4005C28.6706 41.4499 28.5741 41.5028 28.4715 41.5601C27.4359 42.1377 26.1747 42.7245 25.5879 42.8749C25.7373 43.1911 25.8863 43.5046 26.0319 43.8085C26.0552 43.8572 26.0782 43.9053 26.1012 43.9537C26.2963 44.3603 26.4834 44.7479 26.6547 45.1002C27.109 46.0355 27.4493 46.7233 27.5186 46.8627C27.5166 46.8737 27.5142 46.8847 27.5121 46.8957ZM30.6992 46.2443L30.7092 46.2649L30.7164 46.2797L30.6814 46.2965C30.2862 46.1581 29.8387 46.1416 29.4628 45.927L29.4559 45.9013L29.4528 45.8893L29.4858 45.8803L29.4906 45.879C29.8504 46.0857 30.2941 46.1032 30.7003 46.244L30.6992 46.2443ZM28.7984 41.512L28.8289 41.5364C28.8663 41.8643 28.9072 42.1919 28.9515 42.5188C29.0542 43.2759 29.1774 44.0303 29.3172 44.7816C29.3405 44.9066 29.3646 45.0315 29.3889 45.1565C29.4119 45.275 29.4329 45.3934 29.4569 45.5116L29.4353 45.5442L29.4339 45.5431L29.4027 45.5225C29.1355 44.2057 28.9257 42.8776 28.7736 41.5426L28.7829 41.5309L28.798 41.512H28.7984Z" fill="#F7B8B2"/>
<path d="M29.5266 47.9523C29.5506 47.9461 29.5743 47.9403 29.5987 47.9341C29.7051 47.9073 29.8157 47.8798 29.9283 47.8531C30.4842 47.7195 31.0906 47.5904 31.5112 47.542C31.7258 47.5176 32.0541 47.4012 32.3298 47.235C32.4036 47.1904 32.473 47.1419 32.5362 47.0911C32.7796 46.8944 32.9194 46.6561 32.7686 46.4219C32.5406 46.0676 31.607 46.4391 31.1322 46.3144C31.1136 46.3096 31.0944 46.3055 31.0772 46.299C30.9955 46.2681 30.9344 46.2753 30.8836 46.3055C30.6514 46.4442 30.6473 47.0877 30.032 47.0269C30.0028 47.0242 27.9337 46.7399 27.5131 46.8961C27.4688 46.9126 27.4424 46.9339 27.4393 46.961C27.4327 47.0142 27.429 47.0705 27.4272 47.1279C27.8887 47.5784 28.2712 47.9475 28.4422 48.1116C28.4683 48.1367 28.4882 48.1559 28.5044 48.171L29.3491 47.998C29.4064 47.9828 29.4658 47.9677 29.5266 47.9523Z" fill="#7CBADD"/>
<path d="M23.4743 37.0194C23.4743 37.2694 23.3748 37.496 23.2127 37.6667C23.2498 37.7663 23.2886 37.8706 23.3284 37.9778C23.4465 38.295 23.576 38.6408 23.7106 38.9993C24.3612 40.7302 25.1283 42.7248 25.2684 42.8872C25.3031 42.9277 25.4192 42.9185 25.5884 42.8752C26.1752 42.7248 27.4364 42.138 28.472 41.5604C28.5747 41.5031 28.6712 41.4502 28.7615 41.4008C29.0969 41.2174 29.3435 41.0856 29.4973 40.9705C29.6309 40.8706 29.6947 40.7838 29.682 40.688C29.6453 40.4071 29.6065 39.764 29.5361 38.9368C29.5114 38.6473 29.4829 38.3359 29.4492 38.008C29.4465 37.9798 29.4434 37.9513 29.4403 37.9228C29.3785 37.3343 29.2999 36.7008 29.1969 36.0615C28.8662 34.0081 28.2838 31.9139 27.2084 31.1678C27.1044 31.0957 26.9976 31.0318 26.8839 30.9862C26.7432 30.9295 26.5715 30.8632 26.3761 30.7898C25.4487 30.4419 23.9753 29.9386 22.6152 29.5767C22.7392 29.7971 22.8271 30.0158 22.8786 30.2277C22.9088 30.3537 22.9274 30.4773 22.9274 30.6078V31.0816C23.5784 31.2399 24.2263 31.4109 24.8674 31.607C25.2499 31.7241 25.6368 31.8525 25.9747 32.0746C26.522 32.4345 26.8912 33.0083 27.1562 33.6016C27.6084 34.6145 27.8007 35.7188 27.9892 36.8076C28.2385 38.2497 28.4878 39.6922 28.7371 41.1343L28.7144 41.1663L28.6825 41.1439C28.4332 39.7018 28.1839 38.2593 27.9346 36.8172C27.7465 35.7284 27.5545 34.6289 27.1058 33.6242C26.8431 33.0357 26.4788 32.4716 25.9445 32.1207C25.6149 31.904 25.233 31.7763 24.8512 31.6599C24.2157 31.4655 23.5732 31.2959 22.9274 31.1386V36.1641C23.2511 36.3217 23.474 36.6452 23.474 37.0201L23.4743 37.0194Z" fill="#7CBADD"/>
<path d="M21.7332 30.8598C21.4471 30.7953 21.1611 30.7318 20.8748 30.6682L20.8717 30.6634C20.6189 30.7754 20.3559 30.8646 20.0854 30.9216L20.0527 30.9003L20.074 30.8677C20.5108 30.7754 20.9318 30.6075 21.3125 30.374L21.3503 30.3829L21.3414 30.421C21.2154 30.4983 21.0839 30.5656 20.95 30.6284C21.2109 30.6861 21.4722 30.7445 21.7332 30.8032V30.6075C21.7342 30.5937 21.7253 30.5151 21.692 30.42C21.6593 30.3235 21.6058 30.2068 21.5326 30.0903C21.3857 29.8555 21.1639 29.6275 20.884 29.4898C20.6962 29.3974 20.4813 29.3391 20.2152 29.3384H20.0105C17.9311 29.6488 12.8946 30.3163 12.3902 29.5883C12.2213 30.1762 12.0338 31.0315 12.0352 31.9263C12.0359 32.3366 12.076 32.7549 12.1763 33.1597C14.2018 33.4673 16.011 34.5201 17.3707 36.0604H21.7332V30.8591V30.8598Z" fill="#7CBADD"/>
<path d="M17.9713 18.4659C16.8756 18.4659 15.4105 17.1206 15.4105 17.1206C15.4105 17.1206 15.3284 17.1412 15.1997 17.1865C15.1708 17.1968 15.1392 17.2085 15.1056 17.2212C14.7423 17.3606 14.1318 17.6624 13.6992 18.2211C13.6075 18.3076 13.5223 18.4151 13.4444 18.5401C13.2305 18.8834 13.0691 19.346 12.9606 19.805C12.8284 20.3658 12.7738 20.9182 12.8002 21.231C12.8002 21.2317 12.8002 21.2324 12.8002 21.2327C12.4414 23.8482 12.5376 26.9003 12.5376 26.9003C12.5376 26.9003 12.4589 27.1582 12.3848 27.5318C12.4682 27.4947 12.5637 27.4717 12.6667 27.4717H19.7434C20.0603 27.4717 20.3172 27.6729 20.3172 27.9208C20.3172 28.0029 20.287 28.0791 20.2375 28.1454C20.3749 28.1461 20.5088 28.1564 20.6372 28.1759L20.63 28.1478L20.2921 26.8354C20.2509 26.8437 20.2097 26.8519 20.1719 26.8584L20.1503 26.8433C18.7896 27.1891 17.104 27.4549 15.6385 27.2022C15.0191 27.0954 14.6208 26.7716 14.411 26.375C14.411 26.375 14.411 26.3746 14.4106 26.3743C14.4048 26.363 14.3979 26.3523 14.3924 26.341C14.0923 25.8198 13.8345 25.2364 13.6288 24.6146C14.1936 24.5266 16.202 23.4828 16.9395 23.0921C17.0628 23.535 17.1548 23.9192 17.2211 24.2382C18.211 24.2568 19.1642 24.2698 19.9745 24.2791C19.8818 22.9269 19.7647 21.7876 19.6006 20.8502C19.4818 20.17 19.3383 19.5935 19.1607 19.1214C19.0344 18.7849 18.8912 18.4985 18.7274 18.264C18.3731 17.7565 17.7402 17.3489 17.7402 17.3489C17.7402 17.3489 18.8747 18.4659 17.971 18.4659H17.9713ZM13.4585 24.572C13.1007 23.7149 12.8772 22.8023 12.7985 21.8769L12.8236 21.847L12.8535 21.8721C12.8806 22.1931 12.9266 22.5125 12.9884 22.8284C13.1038 23.4179 13.2779 23.9962 13.5093 24.5503L13.4945 24.5864L13.477 24.5792L13.4581 24.5716L13.4585 24.572ZM15.9777 20.0104C15.8764 19.759 15.7635 19.4988 15.5468 19.3556L15.5389 19.3175L15.577 19.3096C15.6004 19.325 15.6213 19.3425 15.6426 19.36C15.7855 19.4799 15.8792 19.645 15.9554 19.8157C15.9722 19.8535 15.9884 19.8909 16.0038 19.9286C16.0004 19.9122 15.998 19.8957 15.9942 19.8795C15.9465 19.6667 15.8727 19.4593 15.7741 19.2646L15.7861 19.2275L15.8232 19.2395C15.9479 19.486 16.0323 19.7525 16.0766 20.0251C16.0807 20.0502 16.0866 20.0753 16.09 20.1003L16.0794 20.1144C16.181 20.3654 16.2826 20.6164 16.3843 20.8674C16.6511 21.5263 16.9179 22.1852 17.1847 22.8442L17.1785 22.8586L17.1696 22.8799L17.1335 22.8648C16.7482 21.9133 16.363 20.9618 15.9774 20.01L15.9777 20.0104ZM18.5739 18.5493L18.6124 18.5421L18.6196 18.5806C18.4393 18.8436 18.041 18.9562 17.6973 18.9569C17.6166 18.9569 17.5383 18.9504 17.4666 18.938C17.0913 18.8725 16.761 18.6688 16.4433 18.4717C16.0941 18.2551 15.7449 18.0384 15.3961 17.8218L15.3872 17.7836L15.4253 17.7747C15.7745 17.9914 16.1237 18.208 16.4725 18.4247C16.7901 18.6218 17.115 18.8206 17.4762 18.8834C17.5445 18.8955 17.6194 18.9016 17.6973 18.9016C18.03 18.9023 18.4143 18.7876 18.5743 18.5493H18.5739Z" fill="#6E7ABA"/>
<path d="M12.3902 29.5888C12.8946 30.3168 17.9311 29.6489 20.0105 29.3389H12.313C12.3253 29.4014 12.3394 29.4632 12.3569 29.5229C12.3638 29.5463 12.3758 29.5679 12.3906 29.5892L12.3902 29.5888Z" fill="#6E7ABA"/>
<path d="M19.167 12.6075C19.167 12.6075 19.1666 12.6061 19.1663 12.6055C19.1625 12.6024 18.4198 11.9812 17.7897 12.1065C17.6064 13.1335 16.2587 13.1881 16.1601 13.7725C16.0798 14.2502 16.2446 14.3068 16.1405 14.4789C15.9459 14.5122 15.9593 14.0974 15.6928 14.1393C15.5397 14.164 15.4339 14.3353 15.4985 14.5791C15.5572 14.8002 15.6966 14.8964 15.8501 14.8723C15.8861 15.1656 15.8301 15.5337 15.7481 15.8877C15.6839 16.241 15.5795 16.6633 15.4092 17.12C15.4092 17.12 16.8743 18.4653 17.97 18.4653C18.8734 18.4653 17.7393 17.3484 17.7393 17.3484L17.8285 16.6321C17.8285 16.6321 18.2818 16.6788 18.6818 16.3608C19.3816 15.8049 19.2051 13.9686 19.2312 13.1335C19.2312 13.1322 19.2312 13.1308 19.2312 13.1294C19.2301 13.1305 19.2264 13.1339 19.2264 13.1339L19.1673 12.6082L19.167 12.6075ZM18.0287 13.6695L18.0586 13.6445L18.0837 13.6743L18.083 13.6919C18.0826 13.7746 18.1238 13.9453 18.1654 14.0912C18.2011 14.2165 18.2364 14.325 18.2457 14.3539C18.2605 14.3652 18.2976 14.3947 18.3367 14.4363C18.3858 14.4892 18.4387 14.5595 18.4428 14.6399V14.6457C18.4432 14.6873 18.4232 14.722 18.3958 14.745C18.3683 14.7683 18.334 14.7827 18.2986 14.793C18.2282 14.8129 18.1534 14.815 18.1225 14.815H18.108L18.0816 14.7862L18.1101 14.7597H18.1228C18.165 14.7611 18.3058 14.7522 18.3604 14.7031C18.3786 14.6869 18.3879 14.6708 18.3882 14.6457V14.6423C18.3868 14.5592 18.2862 14.4572 18.2344 14.4153C18.2172 14.4009 18.2066 14.3934 18.2066 14.3934L18.1966 14.3796C18.1966 14.3796 18.1547 14.2543 18.1128 14.1066C18.0709 13.9583 18.0287 13.7894 18.0284 13.6922L18.0294 13.6699L18.0287 13.6695ZM16.8414 13.4443C16.8568 13.4233 17.0031 13.2736 17.1737 13.2345C17.3447 13.195 17.5113 13.1954 17.5284 13.2033C17.629 13.2489 17.6332 13.4065 17.5367 13.457C17.5137 13.4687 17.3519 13.4512 17.1885 13.4814C17.0326 13.5099 16.8994 13.5854 16.8767 13.5878C16.84 13.5919 16.7936 13.5109 16.8414 13.4446V13.4443ZM17.5178 13.8762C17.5178 13.9631 17.4591 14.0339 17.3859 14.0339C17.3128 14.0339 17.2555 13.9631 17.2555 13.8762C17.2555 13.7894 17.3152 13.718 17.3859 13.718C17.4567 13.718 17.5178 13.7883 17.5178 13.8762ZM17.7636 16.6517C17.1229 16.5844 16.4207 16.1558 16.1357 15.5879L16.1481 15.5508L16.1852 15.5632C16.4571 16.1095 17.148 16.5332 17.7695 16.5967L17.7942 16.6269L17.764 16.6517H17.7636ZM18.7453 15.351C18.632 15.4176 18.4504 15.4386 18.2698 15.4392C18.0816 15.4392 17.8969 15.4152 17.7956 15.3843C17.7612 15.3733 17.7372 15.3644 17.7193 15.3462L17.7207 15.307L17.7599 15.3084C17.7609 15.3108 17.7815 15.3225 17.8117 15.3314C17.8423 15.3407 17.8831 15.35 17.9305 15.3575C18.0256 15.3733 18.1475 15.384 18.2694 15.384C18.4452 15.3843 18.6224 15.3606 18.7168 15.3036L18.7546 15.3132L18.745 15.351H18.7453ZM18.7271 13.9878C18.654 13.9878 18.596 13.9171 18.596 13.8302C18.596 13.7434 18.654 13.6719 18.7271 13.6719C18.8003 13.6719 18.8573 13.7427 18.8573 13.8302C18.8573 13.9178 18.7982 13.9878 18.7271 13.9878ZM19.1289 13.5665C19.1065 13.5641 19.0396 13.5312 18.883 13.5037C18.7196 13.4749 18.5582 13.4931 18.5352 13.4814C18.438 13.4316 18.4414 13.274 18.542 13.2276C18.5592 13.2197 18.7268 13.2129 18.8967 13.2568C19.0286 13.2912 19.1244 13.4155 19.1398 13.4361C19.1876 13.502 19.1659 13.5703 19.1292 13.5665H19.1289Z" fill="#F7B8B2"/>
<path d="M18.1968 14.3802L18.2067 14.3939C18.2067 14.3939 18.2174 14.4018 18.2345 14.4159C18.2864 14.4578 18.387 14.5597 18.3884 14.6428V14.6463C18.3884 14.6713 18.3788 14.6875 18.3606 14.7036C18.3063 14.7527 18.1652 14.7613 18.1229 14.7603H18.1102L18.0817 14.7867L18.1082 14.8152H18.1226C18.1538 14.8152 18.2284 14.8135 18.2987 14.7936C18.3338 14.7836 18.3685 14.7689 18.3959 14.7455C18.4234 14.7225 18.4433 14.6878 18.443 14.6463V14.6404C18.4388 14.5604 18.386 14.49 18.3369 14.4368C18.2977 14.3949 18.2606 14.3654 18.2459 14.3544C18.2363 14.3256 18.2009 14.2174 18.1655 14.0917C18.124 13.9458 18.0828 13.7752 18.0831 13.6924L18.0838 13.6749L18.0587 13.645L18.0289 13.6701L18.0278 13.6924C18.0282 13.7896 18.0704 13.9585 18.1123 14.1068C18.1542 14.2548 18.1961 14.3798 18.1961 14.3798L18.1968 14.3802Z" fill="#27224F"/>
<path d="M16.878 13.5884C16.9007 13.586 17.0339 13.5105 17.1898 13.482C17.3529 13.4518 17.5149 13.4693 17.5379 13.4576C17.6344 13.4075 17.6303 13.2499 17.5297 13.2038C17.5125 13.1959 17.3463 13.1959 17.175 13.2351C17.0043 13.2742 16.8581 13.4239 16.8426 13.4449C16.7949 13.5112 16.8412 13.5925 16.878 13.5881V13.5884Z" fill="#27224F"/>
<path d="M18.8972 13.2567C18.7272 13.2127 18.5597 13.2196 18.5425 13.2275C18.4419 13.2739 18.4385 13.4315 18.5356 13.4813C18.5586 13.4929 18.7204 13.4747 18.8835 13.5036C19.04 13.531 19.107 13.5643 19.1293 13.5664C19.166 13.5702 19.188 13.5019 19.1399 13.4359C19.1245 13.4153 19.0287 13.291 18.8968 13.2567H18.8972Z" fill="#27224F"/>
<path d="M18.7172 15.3037C18.6228 15.3607 18.4456 15.3844 18.2698 15.3841C18.1479 15.3841 18.026 15.3734 17.9309 15.3576C17.8832 15.3497 17.8423 15.3408 17.8121 15.3315C17.7819 15.3229 17.7613 15.3113 17.7602 15.3085L17.7211 15.3071L17.7197 15.3463C17.7376 15.3645 17.762 15.3734 17.796 15.3844C17.8972 15.4153 18.082 15.4393 18.2701 15.4393C18.4507 15.439 18.6324 15.4177 18.7457 15.3511L18.7553 15.3133L18.7175 15.3037H18.7172Z" fill="#27224F"/>
<path d="M17.77 16.5972C17.1488 16.5333 16.4576 16.1096 16.1857 15.5636L16.1486 15.5513L16.1362 15.5884C16.4212 16.1563 17.1234 16.5848 17.7641 16.6521L17.7943 16.6274L17.7696 16.5972H17.77Z" fill="#27224F"/>
<path d="M17.2573 13.877C17.2573 13.9639 17.3171 14.0346 17.3878 14.0346C17.4585 14.0346 17.5197 13.9639 17.5197 13.877C17.5197 13.7902 17.4609 13.7188 17.3878 13.7188C17.3147 13.7188 17.2573 13.7891 17.2573 13.877Z" fill="#27224F"/>
<path d="M18.7278 13.6724C18.6547 13.6724 18.5967 13.7431 18.5967 13.8307C18.5967 13.9182 18.6547 13.9883 18.7278 13.9883C18.801 13.9883 18.858 13.9175 18.858 13.8307C18.858 13.7438 18.7989 13.6724 18.7278 13.6724Z" fill="#27224F"/>
<path d="M13.5096 24.5505C13.2782 23.9959 13.1041 23.4181 12.9887 22.8285C12.9269 22.5123 12.8809 22.1933 12.8538 21.8722L12.8239 21.8472L12.7988 21.877C12.8775 22.8024 13.101 23.7151 13.4588 24.5721L13.4777 24.5797L13.4952 24.5869L13.5099 24.5508L13.5096 24.5505Z" fill="#27224F"/>
<path d="M17.1692 22.8794L17.1781 22.8581L17.1843 22.8437C16.9175 22.1848 16.6507 21.5259 16.3839 20.867C16.2823 20.616 16.1807 20.365 16.079 20.114L16.0897 20.0999C16.0862 20.0745 16.0804 20.0498 16.0763 20.0247C16.032 19.7521 15.9475 19.4856 15.8229 19.2391L15.7858 19.2271L15.7738 19.2641C15.8723 19.4588 15.9461 19.6662 15.9939 19.8791C15.9977 19.8956 16.0001 19.9121 16.0035 19.9282C15.988 19.8904 15.9719 19.853 15.9551 19.8152C15.8788 19.6446 15.7851 19.4791 15.6423 19.3596C15.6213 19.3421 15.6 19.3246 15.5767 19.3091L15.5386 19.317L15.5465 19.3551C15.7631 19.4983 15.8761 19.7586 15.9774 20.0099C16.3627 20.9614 16.7482 21.9129 17.1335 22.8647L17.1696 22.8798L17.1692 22.8794Z" fill="#27224F"/>
<path d="M17.4762 18.8831C17.115 18.8203 16.7899 18.6218 16.4726 18.4244C16.1234 18.2077 15.7742 17.9911 15.4253 17.7744L15.3872 17.7833L15.3961 17.8215C15.7453 18.0381 16.0945 18.2548 16.4434 18.4714C16.761 18.6685 17.0917 18.8718 17.4666 18.9377C17.5384 18.9501 17.6163 18.9566 17.6974 18.9566C18.0411 18.9559 18.4397 18.8433 18.6196 18.5803L18.6124 18.5418L18.574 18.549C18.4143 18.787 18.0297 18.902 17.697 18.9013C17.6191 18.9013 17.5442 18.8952 17.4759 18.8831H17.4762Z" fill="#27224F"/>
<path d="M16.3143 24.7927C16.5474 24.54 16.8506 24.3519 17.1806 24.255L17.1992 24.2207L17.1648 24.2021C16.8249 24.3017 16.5134 24.495 16.2734 24.7553L16.2748 24.7945L16.314 24.7927H16.3143Z" fill="#27224F"/>
<path d="M21.5435 26.4346L21.5469 26.4264L21.5109 26.4116C21.1503 26.5641 20.5491 26.7392 20.1628 26.8044L20.1401 26.8364L20.1504 26.8436L20.1721 26.859C20.2098 26.8525 20.251 26.8443 20.2922 26.836C20.6796 26.7581 21.2008 26.6025 21.5321 26.4624L21.5435 26.4346Z" fill="#27224F"/>
<path d="M25.9444 32.1206C26.4787 32.4715 26.843 33.0356 27.1057 33.6242C27.5544 34.6288 27.7464 35.7283 27.9345 36.8171C28.1838 38.2592 28.4331 39.7017 28.6824 41.1439L28.7143 41.1662L28.737 41.1342C28.4877 39.6921 28.2384 38.2496 27.9891 36.8075C27.801 35.7187 27.6087 34.6144 27.1561 33.6015C26.891 33.0078 26.5223 32.4344 25.9746 32.0746C25.6367 31.8524 25.2498 31.724 24.8673 31.6069C24.2262 31.4108 23.5783 31.2398 22.9272 31.0815V31.1382C23.5731 31.2955 24.2159 31.4651 24.8511 31.6594C25.2326 31.7762 25.6144 31.9036 25.9444 32.1202V32.1206Z" fill="#27224F"/>
<path d="M21.3414 30.4216L21.3503 30.3834L21.3125 30.3745C20.9317 30.608 20.5108 30.7759 20.074 30.8683L20.0527 30.9009L20.0854 30.9222C20.3559 30.8648 20.6189 30.7759 20.8717 30.664L20.8748 30.6688C21.1611 30.7323 21.4471 30.7958 21.7332 30.8604V30.8037C21.4722 30.745 21.2112 30.687 20.9499 30.6289C21.0839 30.5661 21.2154 30.4988 21.3414 30.4216Z" fill="#27224F"/>
<path d="M29.4856 45.8809L29.4526 45.8898L29.4557 45.9019L29.4626 45.9276C29.8389 46.1422 30.2863 46.1587 30.6812 46.2971L30.7162 46.2802L30.709 46.2655L30.6991 46.2449C30.2929 46.1041 29.8496 46.0866 29.4894 45.8799L29.4846 45.8813L29.4856 45.8809Z" fill="#27224F"/>
<path d="M29.4036 45.5232L29.4349 45.5438L29.4362 45.5448L29.4579 45.5122C29.4338 45.3941 29.4129 45.2753 29.3899 45.1572C29.3655 45.0322 29.3415 44.9072 29.3181 44.7822C29.1784 44.0309 29.0551 43.2766 28.9524 42.5194C28.9081 42.1926 28.8669 41.865 28.8298 41.5371L28.7993 41.5127L28.7842 41.5316L28.7749 41.5433C28.927 42.8783 29.1368 44.2064 29.4039 45.5232H29.4036Z" fill="#27224F"/>
<path d="M11.3892 37.9777H16.4119C15.8254 37.1965 15.104 36.5435 14.2875 36.061H11.3892V37.9777Z" fill="#DDA173"/>
<path d="M10.4935 37.9777V36.061H10.2661C9.71916 36.061 9.27588 36.4899 9.27588 37.0194C9.27588 37.5488 9.68242 37.9396 10.1968 37.9743C10.2198 37.976 10.2428 37.9777 10.2661 37.9777H10.4935Z" fill="#DDA173"/>
<path d="M21.7335 37.9777V36.061H17.3711C17.8789 36.6365 18.3236 37.28 18.6937 37.9777H21.7335Z" fill="#DDA173"/>
<path d="M12.0928 27.9207C12.0928 28.0024 12.123 28.0783 12.1717 28.1442H20.2154C20.223 28.1442 20.2302 28.1449 20.2377 28.1449C20.2868 28.0786 20.3174 28.0027 20.3174 27.9203C20.3174 27.6724 20.0606 27.4712 19.7436 27.4712H12.6669C12.5639 27.4712 12.4684 27.4942 12.385 27.5313C12.2116 27.6085 12.0931 27.7528 12.0931 27.92L12.0928 27.9207Z" fill="#CA8255"/>
<path d="M8.7652 17.3205C8.7652 17.4146 8.73086 17.5001 8.67627 17.5681H9.34308C9.85538 17.5681 10.493 17.5681 10.493 19.7302V28.3501C10.6025 28.2247 10.7615 28.144 10.9408 28.144H11.3889V19.7302C11.3889 18.8691 11.2821 18.2053 11.0627 17.7171C10.9102 17.3782 10.7038 17.1227 10.437 16.951C10.1445 16.7629 9.7819 16.6719 9.34308 16.6719H8.67627C8.73121 16.7399 8.7652 16.8254 8.7652 16.9194V17.3201V17.3205Z" fill="#E0E0E1"/>
<path d="M11.3885 29.3393H10.9404C10.7612 29.3393 10.6019 29.2586 10.4927 29.1333V33.0779C10.641 33.07 10.7904 33.0655 10.9408 33.0655C11.0912 33.0655 11.2402 33.07 11.3885 33.0779V29.3393Z" fill="#E0E0E1"/>
<path d="M10.4927 37.9776V42.0279C10.6307 41.9668 10.7818 41.9328 10.9408 41.9328C11.0997 41.9328 11.2508 41.9668 11.3885 42.0279V35.1534C11.2402 35.1431 11.0912 35.1362 10.9408 35.1362C10.7904 35.1362 10.641 35.1431 10.4927 35.1534V37.9772V37.9776Z" fill="#E0E0E1"/>
<path d="M10.9414 52.8884C14.2676 52.8884 17.1694 50.8901 18.7207 47.923C19.3635 46.6938 19.7734 45.2987 19.8857 43.8092C19.8926 43.7165 19.9001 43.6241 19.9049 43.5307C19.9142 43.3474 19.9197 43.1626 19.9197 42.9765C19.9197 42.9157 19.9166 42.8557 19.9156 42.7949C19.8936 41.4468 19.6285 40.1647 19.1653 38.9993C19.0256 38.6477 18.8676 38.3068 18.6932 37.9778C18.3231 37.2801 17.8784 36.6366 17.3706 36.0611C16.0108 34.5208 14.2016 33.4681 12.1761 33.1604C11.9169 33.1209 11.6549 33.0917 11.3891 33.0773C11.2408 33.0694 11.0915 33.0649 10.9414 33.0649C10.7913 33.0649 10.6416 33.0694 10.4933 33.0773C8.90868 33.1631 7.43324 33.7043 6.16897 34.5823C5.75109 34.8724 5.35657 35.199 4.98882 35.5588C3.13328 37.3745 1.9624 40.0239 1.9624 42.9769C1.9624 43.2169 1.9727 43.4541 1.98815 43.69C1.99056 43.7299 1.99331 43.7697 1.9964 43.8092C2.14954 45.8409 2.85653 47.6978 3.95186 49.1959C5.59761 51.4473 8.11654 52.8884 10.9414 52.8884ZM10.9414 34.3083C15.2778 34.3083 18.7935 38.1893 18.7935 42.9769C18.7935 47.7644 15.2778 51.6451 10.9414 51.6451C6.60504 51.6451 3.08864 47.7644 3.08864 42.9769C3.08864 38.1893 6.60436 34.3083 10.9414 34.3083Z" fill="#27224F"/>
<path d="M10.9411 51.645C15.2775 51.645 18.7932 47.7642 18.7932 42.9767C18.7932 38.1892 15.2775 34.3081 10.9411 34.3081C6.60478 34.3081 3.08838 38.1892 3.08838 42.9767C3.08838 47.7642 6.6041 51.645 10.9411 51.645ZM3.87022 43.6899C3.85099 43.4547 3.83966 43.2174 3.83966 42.9767C3.83966 41.3996 4.26303 39.9324 4.9889 38.7028C5.32231 38.138 5.71855 37.6226 6.16905 37.1711C7.32653 36.0109 8.83288 35.2685 10.4934 35.1542C10.6417 35.1439 10.7907 35.137 10.9415 35.137C11.0922 35.137 11.2409 35.1439 11.3892 35.1542C12.4324 35.2259 13.4147 35.5453 14.2876 36.0613C15.1041 36.5438 15.8255 37.1968 16.412 37.978C16.652 38.2977 16.8683 38.6397 17.0606 38.9995C17.6577 40.1168 18.01 41.4113 18.0388 42.7951C18.0402 42.8555 18.043 42.9156 18.043 42.9767C18.043 43.1631 18.0351 43.3475 18.0234 43.5309C18.0176 43.6239 18.0117 43.717 18.0028 43.8094C17.8531 45.3754 17.2862 46.8038 16.4267 47.9565C15.1244 49.7029 13.151 50.8164 10.9418 50.8164C9.10585 50.8164 7.43263 50.0473 6.17214 48.7851C4.91474 47.5259 4.06869 45.7762 3.88052 43.8094C3.87675 43.7699 3.874 43.73 3.87091 43.6902L3.87022 43.6899Z" fill="#B3B3B3"/>
<path d="M12.1017 43.1637C12.1017 43.0356 12.0832 42.912 12.0488 42.7956C11.9462 42.4488 11.7027 42.1683 11.3896 42.0292C11.2519 41.9681 11.1005 41.9341 10.9418 41.9341C10.7832 41.9341 10.6318 41.9681 10.4937 42.0292C10.0752 42.215 9.78125 42.6527 9.78125 43.1637C9.78125 43.4009 9.8458 43.6217 9.95568 43.8095C10.1603 44.1591 10.525 44.3929 10.9418 44.3929C11.3587 44.3929 11.723 44.1591 11.9276 43.8095C11.9781 43.723 12.02 43.6303 12.0492 43.5311C12.0835 43.415 12.1021 43.2914 12.1021 43.1633L12.1017 43.1637ZM10.9415 43.6732C10.6757 43.6732 10.4604 43.4452 10.4604 43.1637C10.4604 42.8821 10.6757 42.6541 10.9415 42.6541C11.2072 42.6541 11.4225 42.8825 11.4225 43.1637C11.4225 43.4449 11.2066 43.6732 10.9415 43.6732Z" fill="#C4CBCD"/>
<path d="M10.941 42.6538C10.6753 42.6538 10.46 42.8821 10.46 43.1634C10.46 43.4446 10.6753 43.6729 10.941 43.6729C11.2068 43.6729 11.4221 43.4449 11.4221 43.1634C11.4221 42.8818 11.2061 42.6538 10.941 42.6538Z" fill="#99A0A2"/>
<path d="M5.9541 16.92V17.3207C5.9541 17.4739 6.042 17.6054 6.16905 17.6716C6.22364 17.7001 6.28511 17.7177 6.35103 17.7177H8.36899C8.49397 17.7177 8.60419 17.6586 8.67699 17.5683C8.73193 17.5003 8.76592 17.4148 8.76592 17.3207V16.92C8.76592 16.8259 8.73158 16.7404 8.67699 16.6725C8.60419 16.5822 8.49397 16.5234 8.36933 16.5234H6.35138C6.28545 16.5234 6.22399 16.5409 6.16939 16.5694C6.04234 16.6357 5.95445 16.7669 5.95445 16.92H5.9541Z" fill="#27224F"/>
<path d="M21.733 43.5405C21.7333 43.6311 21.7402 43.7204 21.7501 43.8093C21.7879 44.15 21.8882 44.4803 22.0087 44.824C22.2401 45.4716 22.5595 46.1717 22.8183 46.9618C22.8311 47.0009 22.8431 47.0411 22.8558 47.0806C23.172 46.9494 23.5147 46.8749 23.8742 46.8749C23.9322 46.8749 23.9885 46.8804 24.0455 46.8842C23.925 46.4859 23.7911 46.1143 23.6596 45.7717C23.5181 45.4046 23.3804 45.0698 23.2633 44.7684C23.3945 44.7838 23.5432 44.8175 23.7097 44.8882C23.9528 44.9919 24.233 45.1711 24.5348 45.4911C24.8336 45.8084 25.1989 46.1813 25.5783 46.5611C25.5454 46.8385 25.5199 47.1283 25.5038 47.4312C25.807 47.6612 26.0649 47.9534 26.2626 48.2909C26.2808 48.2466 26.2908 48.1982 26.2922 48.1474C26.2922 48.144 26.2932 48.1409 26.2932 48.1375C26.2932 47.8459 26.3052 47.5688 26.3231 47.3007C26.4391 47.415 26.5542 47.528 26.6647 47.6361C26.8817 47.8487 27.0847 48.0461 27.2615 48.2175C27.336 48.2896 27.4057 48.3572 27.4699 48.4194L27.4627 48.3847L28.5038 48.1718C28.488 48.1567 28.4681 48.1375 28.4416 48.1124C28.2706 47.9479 27.8878 47.5791 27.4267 47.1286C27.2975 47.0026 27.1633 46.8711 27.0246 46.7348C26.8368 46.5504 26.6431 46.3585 26.4501 46.1662C26.5095 45.7885 26.5799 45.4338 26.6551 45.1014C26.4838 44.7488 26.2966 44.3615 26.1016 43.9549C25.9893 44.3986 25.8623 44.9002 25.7521 45.4633C25.5474 45.2546 25.3548 45.0554 25.1869 44.8772C24.8092 44.4755 24.4222 44.2173 24.06 44.0638C23.6977 43.9096 23.3629 43.8608 23.0934 43.8612C23.0494 43.8612 23.0082 43.8629 22.9681 43.8653C22.9639 43.8468 22.9598 43.8275 22.9564 43.8097C22.9365 43.705 22.9265 43.6146 22.9272 43.5408V30.6083C22.9272 30.4778 22.9083 30.3542 22.8784 30.2282C22.8269 30.0164 22.739 29.7976 22.6151 29.5772C22.6106 29.5693 22.6072 29.5614 22.6027 29.5535C22.5945 29.5394 22.5855 29.5253 22.577 29.5113H25.0774C25.293 29.512 25.4684 29.569 25.6298 29.6658C25.8698 29.81 26.0714 30.0596 26.2053 30.3223C26.2723 30.4528 26.3224 30.5853 26.3543 30.7014C26.3629 30.7323 26.3701 30.7615 26.376 30.7896C26.5713 30.8628 26.743 30.9294 26.8838 30.986C26.9971 31.0317 27.1042 31.0956 27.2083 31.1677V30.9726C27.2072 30.7676 27.1619 30.5489 27.0799 30.3123C27.0332 30.1805 26.9744 30.0438 26.902 29.9082C26.7811 29.6816 26.6221 29.457 26.4178 29.2592C26.2747 29.1212 26.1068 28.9986 25.9165 28.9025C25.8894 28.8887 25.8633 28.874 25.8352 28.8616C25.624 28.7672 25.3843 28.7112 25.1275 28.7047C25.1107 28.7044 25.0945 28.702 25.0777 28.702H21.8638C21.8171 28.6656 21.7683 28.6305 21.7179 28.5965C21.4181 28.3936 21.0521 28.2394 20.6373 28.1763C20.5085 28.1567 20.375 28.1464 20.2376 28.1457C20.2301 28.1457 20.2229 28.145 20.2153 28.145H10.9414C10.7621 28.145 10.6028 28.2257 10.4936 28.351C10.4019 28.4561 10.3442 28.5917 10.3442 28.7421C10.3442 28.8925 10.4016 29.0285 10.4936 29.1332C10.6031 29.2586 10.7621 29.3392 10.9414 29.3392H20.2153C20.4814 29.3399 20.6964 29.398 20.8842 29.4907C21.164 29.6284 21.3858 29.8564 21.5328 30.0912C21.6059 30.2076 21.6598 30.3244 21.6921 30.4208C21.7254 30.5163 21.7343 30.5949 21.7333 30.6083V42.7954H19.9155C19.9166 42.8562 19.9197 42.9159 19.9197 42.977C19.9197 43.1631 19.9142 43.3475 19.9049 43.5312H21.7333V43.5408L21.733 43.5405Z" fill="#CCCCCC"/>
<path d="M25.5038 47.4308C25.0873 47.1149 24.5873 46.9185 24.0458 46.8838C23.9888 46.88 23.9322 46.8745 23.8745 46.8745C23.515 46.8745 23.1723 46.949 22.8561 47.0802C22.4107 47.2649 22.0196 47.5647 21.7171 47.9486C21.3051 48.4715 21.0562 49.1452 21.0562 49.8817C21.0562 51.5426 22.3184 52.8886 23.8745 52.8886C25.4306 52.8886 26.6928 51.5426 26.6928 49.8817C26.6928 49.2966 26.5339 48.7524 26.2629 48.2905C26.0652 47.9534 25.8073 47.6608 25.5041 47.4308H25.5038ZM23.8745 52.0274C22.7644 52.0274 21.8631 51.0667 21.8631 49.8814C21.8631 48.6961 22.7641 47.7353 23.8745 47.7353C24.9849 47.7353 25.8856 48.6961 25.8856 49.8814C25.8856 51.0667 24.9849 52.0274 23.8745 52.0274Z" fill="#27224F"/>
<path d="M23.8742 47.7358C22.7641 47.7358 21.8628 48.6966 21.8628 49.8819C21.8628 51.0672 22.7638 52.0279 23.8742 52.0279C24.9847 52.0279 25.8853 51.0672 25.8853 49.8819C25.8853 48.6966 24.9847 47.7358 23.8742 47.7358ZM23.8742 50.5737C23.5137 50.5737 23.2211 50.2637 23.2211 49.8815C23.2211 49.4994 23.5137 49.189 23.8742 49.189C24.2348 49.189 24.527 49.499 24.527 49.8815C24.527 50.264 24.2348 50.5737 23.8742 50.5737Z" fill="#B3B3B3"/>
<path d="M23.8748 49.189C23.5142 49.189 23.2217 49.499 23.2217 49.8815C23.2217 50.264 23.5142 50.5738 23.8748 50.5738C24.2353 50.5738 24.5275 50.2637 24.5275 49.8815C24.5275 49.4994 24.2353 49.189 23.8748 49.189ZM23.8748 50.1686C23.7251 50.1686 23.6045 50.0402 23.6045 49.8819C23.6045 49.7236 23.7251 49.5948 23.8748 49.5948C24.0245 49.5948 24.1457 49.7236 24.1457 49.8819C24.1457 50.0402 24.0245 50.1686 23.8748 50.1686Z" fill="#999999"/>
<path d="M23.8747 49.5942C23.725 49.5942 23.6045 49.723 23.6045 49.8813C23.6045 50.0396 23.725 50.168 23.8747 50.168C24.0244 50.168 24.1456 50.0396 24.1456 49.8813C24.1456 49.723 24.0244 49.5942 23.8747 49.5942Z" fill="#4D4D4D"/>
<path d="M27.6783 49.4346L27.6818 49.4339L32.0133 48.5477L32.5929 48.4289L32.3783 47.3789L32.3134 47.392L29.9706 47.8716L29.6135 47.9448L29.5373 47.9602L29.3491 47.9987L28.5041 48.1717L27.4634 48.3846L27.4702 48.4193L27.5849 48.9783L27.6773 49.4298L27.6783 49.4346Z" fill="#C9C9C9"/>
</svg>
