<svg width="36" height="56" viewBox="0 0 36 56" fill="none" xmlns="http://www.w3.org/2000/svg">
<path d="M5.38315 51.1152C5.3715 51.1169 5.3482 51.2244 5.33447 51.2448C5.33752 51.2603 5.32338 51.3805 5.38315 51.1152Z" fill="#4B656D"/>
<path d="M5.33057 51.2487C5.33176 51.2485 5.33325 51.246 5.33445 51.2441C5.33385 51.2409 5.3328 51.2412 5.33057 51.2487Z" fill="#4B656D"/>
<path d="M13.254 33.5616C13.8083 33.6725 14.272 33.94 14.6314 34.308C14.9905 31.9104 15.8576 27.501 13.7703 23.5962L9.79353 23.8306L6.19051 23.9942C5.57647 25.7872 5.18055 31.3737 4.93066 34.5216C5.22299 34.0966 5.60517 33.7877 6.04296 33.7002C7.16788 33.4957 7.99077 34.1964 8.56807 35.1345C8.93916 33.9679 9.41149 32.5573 9.79353 31.0986C10.1698 29.9393 10.123 32.0499 10.4023 34.3046C11.086 33.6345 12.3512 33.5616 13.254 33.5616Z" fill="#3E5860"/>
<path d="M14.2713 51.0313C14.2037 50.4752 14.0796 49.2986 14.0934 48.6704L14.5107 44.8217C14.8221 42.1965 14.5431 40.4508 14.4527 38.9406C14.3379 37.079 14.5319 37.4135 14.5044 35.5548C14.4999 35.2504 14.5541 34.8252 14.6315 34.3085C14.272 33.9406 13.8083 33.673 13.254 33.562C12.3511 33.562 11.0859 33.635 10.4023 34.305C10.472 34.8661 10.5611 35.4359 10.6826 35.9668C11.0608 37.6713 10.849 38.0566 11.1057 40.1283C11.1996 40.901 10.8944 42.8737 11.2954 44.9101C11.6092 46.5028 12.4659 48.9825 12.4569 51.2857C12.4544 51.8779 12.3962 52.4582 12.255 53.009C12.3969 54.6688 14.59 56.0379 15.8564 54.508C14.8495 53.9685 15.1293 52.7705 14.2713 51.0313Z" fill="#4B656D"/>
<path d="M6.04357 33.7002C5.60592 33.7877 5.22374 34.0966 4.93127 34.5216C4.86263 35.3864 4.80508 36.0675 4.75696 36.435C4.52274 38.2797 4.31972 39.2709 4.372 42.186C4.38462 42.8872 4.35592 47.0416 3.55022 50.6309C3.68917 49.9662 3.34263 51.5161 3.31226 51.4983C3.18884 52.9943 2.38633 54.1908 1.6626 54.7211C2.7082 55.807 5.05608 53.645 5.74612 53.3091C5.67151 52.9257 5.33301 52.3122 5.28641 51.7325C5.29876 51.5625 5.31387 51.4033 5.33051 51.2487C5.53145 49.5443 6.00779 48.5778 6.4718 46.7731C6.71669 45.85 7.29801 44.7083 7.52669 43.7065C8.00525 41.6623 7.98181 39.4221 7.95033 37.6721C7.94035 37.1814 8.20605 36.2743 8.56854 35.1345C7.99138 34.1964 7.16863 33.4957 6.04357 33.7002Z" fill="#4B656D"/>
<path d="M5.44474 52.5437L5.47331 52.7754C5.22661 53.5129 3.20558 54.8837 3.00992 53.0116C2.87651 52.0779 2.15846 54.4422 0.4396 54.7861C0.172099 54.8397 0.0287113 54.9766 0.000976562 55.1283C1.16473 56.2425 3.21266 55.0586 4.36115 54.5481C4.82099 54.3182 4.94261 55.1988 5.83164 54.8077C6.46067 54.2513 6.10192 52.4134 5.44474 52.5437Z" fill="#E6E6E6"/>
<path d="M4.36156 54.5481C3.21307 55.0585 1.165 56.2425 0.00138911 55.1283C0.0299559 54.9718 -0.297314 56.1893 2.06735 55.8429C2.97497 55.7097 3.96274 55.354 5.34753 55.1743C6.33475 55.0462 6.19303 54.6148 6.15087 54.3853C5.47886 55.0036 4.82154 54.3181 4.36156 54.5481Z" fill="#998675"/>
<path d="M1.22445 55.0058C1.92434 54.7594 2.87924 54.2169 3.02541 53.4424C2.45532 54.1044 1.60164 54.7854 0.454675 54.9657C0.316279 54.9462 0.225586 54.9462 0.225586 55.0991C0.225586 55.2051 0.349006 55.2303 0.353998 55.2467C0.823131 55.4953 1.93196 55.7473 3.22135 54.8132C2.16632 55.4213 1.44161 55.1124 1.22445 55.0058Z" fill="#FAFAFA"/>
<path d="M5.56143 52.6542C6.03278 53.1089 5.06636 53.5853 4.94336 53.8925C5.38503 54.1595 6.34091 52.7555 5.67986 52.6436L5.56143 52.6542Z" fill="#FAFAFA"/>
<path d="M13.4812 54.645C12.9913 54.4351 12.6607 54.162 12.3179 53.6978C12.3406 53.8507 12.3643 53.9772 12.3847 54.0591C12.5696 54.8051 13.3658 55.6385 15.1662 55.3699C15.8413 55.2692 16.149 54.7798 15.921 54.2176C15.722 55.0372 14.2027 55.0059 13.4812 54.645Z" fill="#998675"/>
<path d="M13.6519 54.8132C14.1565 55.0561 16.0504 54.9093 15.9209 54.2177C15.7145 53.7082 15.1171 52.8859 14.7882 52.3846C14.9342 52.8694 14.764 52.7977 14.2924 51.8973C14.0449 51.4246 13.1112 51.5932 13.1581 52.3986C13.1546 52.7879 13.3044 53.1527 13.0596 53.2196C12.601 53.1373 12.3966 52.2054 12.4453 51.7018C12.0811 52.2498 12.2115 52.9867 12.3176 53.6977C12.7103 54.3289 13.0602 54.5596 13.6519 54.8132Z" fill="#E6E6E6"/>
<path d="M12.4746 53.7573C12.9912 54.4282 13.891 54.8542 14.6467 54.7921C15.5541 54.7176 15.9248 54.3407 15.6136 53.8593C15.6701 54.671 13.7327 54.9159 13.5608 53.9488C13.3815 54.2057 13.6088 54.4176 13.7772 54.5232C13.4277 54.3841 12.8399 54.0994 12.4746 53.7573Z" fill="#FAFAFA"/>
<path d="M13.3903 53.0328C13.3671 52.8012 13.2072 52.5596 13.3157 52.1754C13.5235 51.4393 14.2832 51.6352 14.5725 52.7377C14.3715 52.3332 13.689 52.3346 13.4083 52.959L13.3903 53.0328Z" fill="#FAFAFA"/>
<path d="M1.34774 54.3803C1.58862 54.2969 1.85279 54.7401 2.06884 54.8042C2.11655 54.8183 2.2304 54.8185 2.20821 54.7364C2.19726 54.6956 2.05969 54.6529 2.01684 54.6302C1.88261 54.5585 1.78068 54.4533 1.66281 54.3609C1.55243 54.274 1.42457 54.2574 1.33887 54.389L1.34774 54.3803Z" fill="#4B656D"/>
<path d="M1.61704 54.1632C1.90188 54.0348 2.09657 54.5226 2.36449 54.5627C2.41691 54.5706 2.54546 54.558 2.48625 54.4755C2.46226 54.4418 2.31235 54.4086 2.26894 54.3824C2.12445 54.2955 2.02252 54.1377 1.86721 54.0697C1.78345 54.033 1.59166 54.0277 1.61704 54.1632Z" fill="#4B656D"/>
<path d="M1.91181 53.8939C2.09528 53.8338 2.2732 54.0574 2.39828 54.1566C2.47372 54.2167 2.78435 54.4719 2.83191 54.2607C2.63902 54.2224 2.47275 54.0906 2.32229 53.9636C2.24421 53.8976 2.18847 53.8362 2.08557 53.8158C2.01984 53.803 1.88228 53.8109 1.91181 53.9026V53.8939Z" fill="#4B656D"/>
<path d="M2.13867 53.65C2.26181 53.5851 2.27887 53.6238 2.36513 53.674C2.4658 53.7327 2.55622 53.827 2.64469 53.9022C2.69669 53.9463 3.08845 54.1505 3.08013 53.9263C2.95976 53.9203 2.87905 53.9199 2.78198 53.8499C2.69364 53.7865 2.58312 53.7215 2.50186 53.6502C2.4303 53.5875 2.34433 53.5463 2.24309 53.5459C2.15684 53.5455 2.13867 53.5804 2.13867 53.65Z" fill="#4B656D"/>
<path d="M13.6918 53.5614C13.6641 53.6096 13.6777 53.6867 13.7299 53.7257C13.8894 53.7257 13.8579 53.6472 13.9259 53.5851C13.9977 53.5191 14.0687 53.4522 14.157 53.4206C14.3266 53.3601 14.5408 53.3568 14.7135 53.4206C14.7596 53.4377 14.8765 53.4486 14.9157 53.408C15.0043 53.316 14.7658 53.2309 14.7135 53.2118C14.5247 53.1431 14.3651 53.1875 14.1776 53.2419C13.9838 53.2982 13.8231 53.4002 13.6918 53.5614Z" fill="#4B656D"/>
<path d="M13.5491 53.2172C13.522 53.2476 13.5004 53.3929 13.5636 53.4166C13.6193 53.4377 13.6532 53.3538 13.6822 53.3238C13.7724 53.2295 13.8782 53.149 13.9995 53.0956C14.239 52.9906 14.4538 52.9726 14.6962 53.0497C14.9096 52.8465 14.3667 52.8124 14.1179 52.888C13.9639 52.9349 13.6127 53.0762 13.5372 53.2288L13.5491 53.2172Z" fill="#4B656D"/>
<path d="M13.4076 52.8739C13.3966 52.9255 13.3778 53.0481 13.4551 53.0675C13.5078 53.0807 13.5311 53.0174 13.5646 52.9839C13.6606 52.8888 13.7579 52.837 13.8819 52.7818C13.9894 52.734 14.0955 52.6974 14.2133 52.6963C14.3412 52.6952 14.4596 52.7689 14.579 52.7537C14.702 52.5071 14.0744 52.5539 13.974 52.5752C13.7823 52.616 13.4886 52.7526 13.396 52.9452L13.4076 52.8739Z" fill="#4B656D"/>
<path d="M13.3845 52.5526C13.3447 52.5752 13.3343 52.6395 13.3388 52.6929C13.4209 52.7069 13.5313 52.5875 13.5977 52.5441C13.6943 52.4806 13.7941 52.4387 13.9053 52.4102C14.013 52.3824 14.1116 52.3751 14.2257 52.375C14.3299 52.3748 14.4148 52.4267 14.5081 52.4202C14.6426 52.1912 14.001 52.2493 13.9058 52.2682C13.6731 52.3152 13.4228 52.3763 13.3252 52.6236L13.3845 52.5526Z" fill="#4B656D"/>
<path d="M14.2251 13.3149C14.2152 13.5016 14.2208 13.6754 14.2376 13.8395C14.2406 13.6647 14.2385 13.4898 14.2251 13.3149Z" fill="#96CAD9"/>
<path d="M24.9592 22.4831C24.014 21.9764 19.6727 19.6446 18.8295 19.057C17.9461 18.4413 16.7234 17.7629 15.844 17.1288C14.9136 16.4579 13.7424 15.8405 14.4608 14.5654C14.7111 14.1211 15.0932 13.6305 15.5819 13.7152C16.0986 13.8048 16.4789 13.9195 16.8596 14.2527C17.4727 14.7895 17.6941 15.3413 18.2124 15.9814C18.6729 16.5504 19.5886 16.9568 20.2083 17.3538C21.9933 18.4972 24.5309 22.0076 26.0713 21.1801L24.9592 22.4831Z" fill="#EABE99"/>
<path d="M13.8243 16.68C13.9911 15.7331 14.2211 14.7864 14.2376 13.8395C14.4011 15.4445 15.7695 16.044 17.1503 16.8306C17.5905 16.1034 17.9799 15.4065 18.0405 14.8161C17.6041 14.9934 14.3583 11.2865 13.1237 11.1343C11.9489 11.1343 6.869 11.2205 6.85125 11.2194C5.11894 11.3745 5.68999 14.6867 5.81965 15.5808C5.81965 16.5753 5.97622 16.3429 6.28518 16.9238C6.77304 17.8409 6.70453 18.6374 6.47447 20.0267C6.30099 21.0748 5.08108 29.7085 4.40186 32.3452C4.94365 32.5704 5.3128 33.1214 7.57235 33.3822C9.19012 33.6779 9.73344 33.7737 14.3733 32.8123L15.7225 32.3454C15.664 29.2649 15.1509 26.8316 14.6179 24.9287C14.5023 24.516 14.3859 24.1281 14.2731 23.7644C13.7075 21.9432 13.0635 21.4936 13.2297 20.7176C13.4846 19.5267 14.2814 16.1325 13.9537 16.7115C13.8389 16.9143 13.938 16.6314 13.9856 16.4222C13.9753 16.3459 13.7404 16.6822 13.8243 16.68Z" fill="#7198A3"/>
<path d="M11.8313 12.6186C12.2567 11.7469 12.3581 11.1348 12.3581 11.1348C12.3581 11.1348 11.214 11.1369 11.214 10.8257C11.1735 10.8139 11.2469 7.8911 11.2469 7.8911L8.57977 7.84326L8.52236 10.8114C8.53415 11.1348 7.3252 11.223 7.3252 11.223C7.3252 11.223 7.46858 11.6363 7.81263 12.3011C8.99982 12.9433 10.5015 13.0169 11.8313 12.6186Z" fill="#EFC39E"/>
<path d="M12.1816 11.7865C10.8518 12.1848 8.70002 12.3235 7.5127 11.6812C7.85245 12.7305 8.89638 13.7859 9.92645 14.816C10.9052 13.793 11.9605 12.8633 12.1816 11.7865Z" fill="#3B696E"/>
<path d="M8.68241 12.4862H10.9762L11.2622 8.94141H8.54346L8.68241 12.4862Z" fill="url(#paint0_linear_1150_19895)"/>
<path d="M9.67713 1.10503L10.2655 1.12445C12.1387 1.18657 13.2987 2.43935 13.2797 4.59461C13.271 5.5688 13.1343 7.76497 12.1774 8.77271C10.8366 10.1844 10.2048 10.1026 10.0019 10.093C9.83175 10.1023 9.15239 10.278 7.7755 8.67869C6.83599 7.58733 6.74363 5.18633 6.77566 4.27248C6.85082 2.148 7.80448 1.04277 9.67713 1.10503Z" fill="#FEDCB9"/>
<path d="M10.3815 7.49729C10.6028 7.40605 10.2817 7.2664 10.1904 7.48315C10.2315 7.545 10.3043 7.52822 10.367 7.51144L10.3815 7.49729Z" fill="#A6636B"/>
<path d="M9.915 7.49745C9.85205 7.1717 9.43187 7.50341 9.87132 7.51159L9.915 7.49745Z" fill="#A6636B"/>
<path d="M10.872 8.12244C10.9547 8.09942 11.0314 8.07335 11.1011 8.04492C11.0988 8.04659 11.0966 8.04839 11.0943 8.05005C11.044 8.08652 10.9942 8.12133 10.9439 8.15309C10.8454 8.21605 10.747 8.27054 10.647 8.31353C10.6721 8.26361 10.7006 8.213 10.7187 8.15905C10.7715 8.14796 10.8231 8.13589 10.872 8.12244Z" fill="#4D2B3D"/>
<path d="M8.99512 8.07861C9.03894 8.09373 9.08484 8.10815 9.13296 8.12133C9.19855 8.13949 9.26844 8.15544 9.34083 8.16931C9.35608 8.21257 9.36829 8.25695 9.38049 8.30202C9.28744 8.26014 9.19495 8.21021 9.10328 8.15142C9.06709 8.12854 9.03103 8.10385 8.99512 8.07861Z" fill="#4D2B3D"/>
<path d="M10.002 8.23025C10.2519 8.23052 10.5001 8.20473 10.7187 8.15869C10.7005 8.21264 10.6719 8.26325 10.647 8.31317C10.6449 8.31414 10.6432 8.31498 10.6413 8.31595C10.4381 8.404 10.2311 8.44977 10.0236 8.44921C9.81633 8.44866 9.60929 8.40276 9.40613 8.31442C9.39754 8.31082 9.38894 8.30652 9.38048 8.30263C9.36828 8.25756 9.35607 8.21319 9.34082 8.16992C9.54536 8.20903 9.77321 8.23039 10.002 8.23025Z" fill="white"/>
<path d="M8.82677 8.01133C8.92121 8.24847 9.07971 8.45343 9.27496 8.60444C9.49102 8.77127 9.75616 8.86529 10.0228 8.86487C10.2894 8.86556 10.5549 8.7721 10.771 8.60486C10.9734 8.44788 11.1361 8.23321 11.229 7.98513C11.3108 7.94172 11.3771 7.89415 11.424 7.84326C11.363 7.85963 11.3047 7.87571 11.2463 7.8911C11.1878 7.90622 11.13 7.92064 11.0713 7.93409C10.9549 7.96072 10.8382 7.98374 10.7198 8.0019C10.4836 8.03865 10.243 8.05765 10.002 8.05737C9.76102 8.05723 9.52042 8.0381 9.28412 8.00135C9.16597 7.98291 9.04865 7.96044 8.93216 7.93368C8.8735 7.9205 8.81582 7.90608 8.75702 7.89097C8.6985 7.87571 8.64012 7.85963 8.5791 7.8434C8.6354 7.90442 8.72041 7.96113 8.82677 8.01133ZM8.99457 8.07914C9.03839 8.09426 9.08429 8.10868 9.13241 8.12186C9.38341 8.19147 9.69168 8.23058 10.0016 8.2303C10.3114 8.23058 10.6202 8.19175 10.8714 8.12213C10.954 8.09911 11.0307 8.07304 11.1005 8.04462C11.0981 8.04628 11.0959 8.04808 11.0937 8.04975C11.0433 8.08622 10.9935 8.12103 10.9432 8.15278C10.8429 8.21685 10.7425 8.27232 10.6406 8.316C10.4375 8.40406 10.2304 8.44982 10.023 8.44927C9.81565 8.44871 9.60861 8.40281 9.40546 8.31447C9.30381 8.27038 9.20285 8.21643 9.10259 8.15209C9.06654 8.12907 9.03048 8.10438 8.99457 8.07914Z" fill="#A8250E"/>
<path d="M9.29715 6.22655C9.29715 6.22655 8.94007 6.37757 8.47787 6.37757C8.01567 6.37757 7.64111 6.03865 7.64111 5.72774C7.64111 5.41698 8.01567 5.25195 8.47787 5.25195C8.94007 5.25195 9.24168 5.90649 9.29715 6.22655Z" fill="white"/>
<path d="M8.96689 5.787C8.96689 6.04035 8.74765 6.24573 8.47724 6.24573C8.20669 6.24573 7.9873 6.04035 7.9873 5.787C7.9873 5.53364 8.20669 5.32812 8.47724 5.32812C8.74765 5.32812 8.96689 5.53364 8.96689 5.787Z" fill="#754C24"/>
<path d="M8.75741 5.78717C8.75741 5.935 8.62858 6.05495 8.46953 6.05495C8.31047 6.05495 8.18164 5.93514 8.18164 5.78717C8.18164 5.63948 8.31047 5.51953 8.46953 5.51953C8.62858 5.51953 8.75741 5.63935 8.75741 5.78717Z" fill="black"/>
<path d="M8.39334 5.81381C8.39334 5.87954 8.33593 5.93279 8.2652 5.93279C8.19462 5.93279 8.13721 5.8794 8.13721 5.81381C8.13721 5.74821 8.19462 5.69482 8.2652 5.69482C8.33593 5.69482 8.39334 5.74821 8.39334 5.81381Z" fill="white"/>
<path d="M7.59668 5.69524C7.60763 5.65073 7.67822 5.52537 7.70984 5.48876C7.74159 5.45201 7.78001 5.42067 7.82078 5.39252C7.90315 5.33677 7.99758 5.29753 8.09632 5.27215C8.29351 5.22223 8.51622 5.21197 8.71078 5.28879C8.80758 5.32707 8.89355 5.40042 8.96955 5.46699C9.04554 5.53355 9.10822 5.61135 9.15648 5.69455C9.25314 5.86137 9.29654 6.04539 9.29709 6.22609C9.22568 6.05801 9.21153 5.94999 9.10406 5.81423C8.57114 5.24095 7.65478 5.62258 7.59668 5.69524Z" fill="#AA7A54"/>
<path d="M7.69012 5.55615C7.58001 5.58056 7.70191 6.50773 8.7568 6.35907C7.81909 6.64918 7.33082 5.57224 7.69012 5.55615Z" fill="#2A191B"/>
<path d="M7.07568 5.53593C7.18967 5.60333 7.38881 5.63259 7.52055 5.63883C7.56465 5.64091 7.6111 5.63439 7.65867 5.62316C7.49309 5.62177 7.31933 5.54051 7.23238 5.47491C7.32238 5.5186 7.4967 5.55756 7.59668 5.57296C7.62927 5.57795 7.6889 5.58433 7.75643 5.5871C7.76531 5.58183 7.7746 5.57726 7.78361 5.57212C7.74659 5.56977 7.71206 5.56505 7.69015 5.55687C7.59391 5.51998 7.4404 5.45106 7.37425 5.37715C7.47992 5.44524 7.66366 5.50986 7.85059 5.53787C7.87292 5.52761 7.89566 5.51776 7.91882 5.50861C7.74714 5.45481 7.66255 5.39587 7.59654 5.32861C7.69819 5.40516 7.84934 5.44898 7.99967 5.48088C8.03933 5.46909 8.07982 5.45924 8.12128 5.45189C8.29767 5.41958 8.48613 5.43581 8.65531 5.49613C8.82491 5.55632 8.97593 5.65644 9.09283 5.7818C9.15176 5.84406 9.20197 5.9134 9.24066 5.98787C9.25924 6.02559 9.27574 6.064 9.28628 6.10421C9.29682 6.14415 9.30278 6.18603 9.29668 6.22625C9.2817 6.14679 9.23927 6.07773 9.1917 6.01408C9.14414 5.95029 9.08784 5.8926 9.02779 5.83963C8.90645 5.73493 8.7718 5.6312 8.61413 5.59681C8.16399 5.49877 7.71677 5.63217 7.64716 5.66004C7.47922 5.70969 7.20063 5.65394 7.07568 5.53593Z" fill="#2A191B"/>
<path d="M7.34029 5.74401C7.42987 5.72737 7.52999 5.7178 7.61334 5.67911L7.64093 5.72737C7.2844 5.86757 7.03687 5.73347 6.92773 5.66455C7.0757 5.73361 7.24654 5.76162 7.34029 5.74401Z" fill="#2A191B"/>
<path d="M10.7231 6.22558C10.7231 6.22558 11.0802 6.37659 11.5424 6.37659C12.0045 6.37659 12.379 6.03767 12.379 5.72677C12.379 5.416 12.0045 5.25098 11.5424 5.25098C11.0802 5.25098 10.7785 5.90552 10.7231 6.22558Z" fill="white"/>
<path d="M11.0522 5.787C11.0522 6.04035 11.2715 6.24573 11.542 6.24573C11.8126 6.24573 12.0318 6.04035 12.0318 5.787C12.0318 5.53364 11.8126 5.32812 11.542 5.32812C11.2715 5.32812 11.0522 5.53364 11.0522 5.787Z" fill="#754C24"/>
<path d="M11.2627 5.78717C11.2627 5.935 11.3917 6.05495 11.5507 6.05495C11.7096 6.05495 11.8386 5.93514 11.8386 5.78717C11.8386 5.63948 11.7096 5.51953 11.5507 5.51953C11.3917 5.51953 11.2627 5.63935 11.2627 5.78717Z" fill="black"/>
<path d="M11.1743 5.81381C11.1743 5.87954 11.2317 5.93279 11.3025 5.93279C11.3732 5.93279 11.4303 5.8794 11.4303 5.81381C11.4303 5.74821 11.3732 5.69482 11.3025 5.69482C11.2317 5.69482 11.1743 5.74821 11.1743 5.81381Z" fill="white"/>
<path d="M12.4228 5.69529C12.4118 5.65078 12.3414 5.52542 12.3098 5.48881C12.2779 5.45206 12.2393 5.42072 12.1987 5.39257C12.1163 5.33682 12.0219 5.29758 11.9233 5.2722C11.726 5.22228 11.5071 5.21188 11.313 5.28884C11.2161 5.32712 11.1259 5.40047 11.0501 5.46704C10.9742 5.5336 10.9113 5.6114 10.8631 5.6946C10.7666 5.86143 10.7231 6.04545 10.7227 6.22614C10.7939 6.05806 10.8082 5.95004 10.9156 5.81428C11.4485 5.241 12.3648 5.62263 12.4228 5.69529Z" fill="#AA7A5C"/>
<path d="M12.3291 5.55615C12.4392 5.58056 12.2258 6.49428 11.1709 6.34548C12.1087 6.63573 12.6885 5.57224 12.3291 5.55615Z" fill="#2A191B"/>
<path d="M12.9439 5.53544C12.8297 5.60284 12.6309 5.6321 12.499 5.63834C12.4549 5.64042 12.4084 5.6339 12.3609 5.62267C12.5265 5.62128 12.6999 5.54002 12.7873 5.47443C12.6974 5.51811 12.5229 5.55708 12.4229 5.57247C12.3903 5.57746 12.3307 5.58384 12.2631 5.58661C12.2542 5.58134 12.245 5.57677 12.2359 5.57164C12.2731 5.56928 12.3075 5.56456 12.3294 5.55638C12.4256 5.5195 12.5792 5.45057 12.6453 5.37666C12.5396 5.44475 12.356 5.50937 12.169 5.53738C12.1466 5.52712 12.1239 5.51728 12.1006 5.50812C12.2723 5.45432 12.3567 5.39538 12.4229 5.32812C12.3212 5.40467 12.1701 5.44849 12.0197 5.48039C11.9801 5.4686 11.9395 5.45876 11.8981 5.45141C11.7219 5.41909 11.5333 5.43532 11.364 5.49564C11.1944 5.55583 11.0435 5.65595 10.9263 5.78131C10.8675 5.84358 10.8173 5.91291 10.7786 5.98738C10.76 6.0251 10.7435 6.06351 10.733 6.10373C10.7226 6.14366 10.7165 6.18554 10.7227 6.22576C10.7374 6.1463 10.7801 6.07724 10.8277 6.01359C10.8751 5.9498 10.9314 5.89211 10.9915 5.83914C11.113 5.73444 11.2529 5.64971 11.4051 5.59632C11.5147 5.55735 11.9865 5.51908 12.3721 5.65956C12.5406 5.7092 12.8189 5.65345 12.9439 5.53544Z" fill="#2A191B"/>
<path d="M12.6787 5.74401C12.5891 5.72737 12.4887 5.7178 12.4055 5.67911L12.3779 5.72737C12.7346 5.86757 12.9821 5.73347 13.0913 5.66455C12.9432 5.73361 12.7726 5.76162 12.6787 5.74401Z" fill="#2A191B"/>
<path d="M29.5212 17.2137C29.3119 17.0997 29.1631 16.7749 29.2761 16.5992C29.28 16.5999 29.2843 16.6021 29.2882 16.6034C29.2882 16.6016 29.2883 16.5998 29.2885 16.5978C29.29 16.5902 29.296 16.5863 29.3036 16.5837C29.209 16.4149 29.0988 16.1979 28.9761 15.9168C28.8705 15.6743 28.086 14.832 27.9153 14.5959C27.7568 14.377 26.8345 13.7602 26.1025 13.606C26.0442 13.6772 25.9843 13.7471 25.9268 13.819C26.0629 13.9933 26.2239 14.2878 26.3609 14.8616C26.4498 15.2348 26.8979 15.9468 27.1449 16.2093C27.2213 16.2904 27.2792 16.3638 27.3269 16.433C27.3224 16.3651 27.3608 16.3582 27.4122 16.3793C27.4242 16.3729 27.4343 16.3697 27.4387 16.3755C27.4701 16.3976 27.4977 16.4223 27.5236 16.4483C27.5688 16.4837 27.6076 16.5216 27.6219 16.5417C27.6659 16.6035 27.7152 16.6766 27.7391 16.7501C27.7685 16.2761 26.9382 15.2767 27.5191 15.4008C27.7829 15.4571 28.0049 15.5743 28.1955 15.7227C28.3953 15.8781 28.5609 16.0682 28.7024 16.2616C29.0801 16.7766 29.2906 17.3094 29.5488 17.2453C29.5395 17.2353 29.5306 17.2245 29.5212 17.2137Z" fill="#FED6AF"/>
<path d="M27.5249 16.4477C27.5633 16.4903 27.6089 16.5209 27.6232 16.541C27.6672 16.6029 27.7166 16.676 27.7404 16.7495C27.7587 16.8048 27.7627 16.8607 27.7374 16.912C27.574 16.8332 27.4055 16.5979 27.3169 16.4495L27.3301 16.4542C27.329 16.4458 27.3288 16.4391 27.3281 16.432C27.3234 16.3644 27.4176 16.3286 27.5249 16.4477Z" fill="#FF5F7C"/>
<path d="M29.2762 16.5991C29.2801 16.5998 29.2844 16.602 29.2883 16.6033C29.4371 16.6522 29.6121 17.1287 29.6095 17.2498L29.5961 17.2449C29.5705 17.238 29.5455 17.2268 29.5211 17.2134C29.312 17.0996 29.1632 16.7747 29.2762 16.5991Z" fill="#FF5F7C"/>
<path d="M13.3808 17.5694C13.7481 17.0147 14.1578 16.0687 14.0503 15.4614C14.0245 16.0687 13.2482 17.0333 12.2549 17.085L13.3808 17.5694Z" fill="#458282"/>
<path d="M3.93854 22.5848C2.60866 20.5204 2.94564 19.7983 3.95352 16.8203C4.20687 16.0716 4.81579 14.3081 5.07206 13.5507C5.27938 12.938 5.59735 11.9646 5.96664 11.4504C6.00852 11.3921 5.68236 12.5146 5.72147 12.4504C5.70843 13.2728 5.60027 14.1386 5.71814 14.9327C5.81188 15.5638 6.22901 16.1451 6.32012 16.7381C6.41567 17.361 6.06732 17.9509 5.89342 18.6233C5.71384 19.3168 5.30725 19.8102 5.20172 20.5085C4.60168 20.2889 4.1772 21.8704 3.71888 22.2453L3.93854 22.5848Z" fill="#EABE99"/>
<path d="M4.72433 13.6214C4.54281 14.2091 4.309 14.7788 4.1297 15.3542C3.97577 15.8483 3.20807 17.4398 3.08008 17.845C3.71936 18.5328 4.40178 18.6302 5.20234 19.0572C5.7017 18.1556 5.88142 17.1773 6.16681 16.2637C6.06239 15.8471 5.98654 15.4031 5.92816 15.0098C5.82096 14.2873 5.73748 13.4837 5.86867 12.7568C5.92108 12.4657 6.60807 11.0667 6.90844 11.4229L7.12685 11.2428C5.58882 10.8693 4.98601 12.7737 4.72433 13.6214Z" fill="#7198A3"/>
<path d="M14.2371 13.8398C14.23 14.2409 14.1837 14.6419 14.1211 15.043C13.7476 15.8114 12.8589 16.9244 11.9484 16.7507C10.23 16.4231 10.23 16.4231 9.58777 16.5085C8.98773 16.5884 8.49821 16.6251 7.66658 16.6412C7.24709 16.6492 6.79696 16.5982 6.47995 16.3722C6.44057 16.3347 6.40008 16.2999 6.35847 16.2683C6.17917 16.0895 5.82735 14.4879 5.82305 14.1177C5.82652 14.2622 5.90071 15.9414 5.95632 16.1705C5.95674 16.1913 5.95979 16.2112 5.96173 16.2313C5.75441 17.1222 5.63085 18.2828 5.20166 19.0576C5.46445 19.2498 5.7178 19.4102 5.94731 19.4995C6.01748 19.2828 6.40854 18.2129 6.53806 17.7754L6.64372 20.9618C6.64414 20.9652 6.80057 20.2488 6.80084 20.2521C6.92177 21.5257 5.70948 25.0651 5.63959 28.4832C6.12245 27.9833 7.14989 22.0079 7.94254 21.5649C7.79929 20.9387 7.07556 19.4619 6.92759 17.4792C6.97946 17.5039 7.3382 17.7063 7.38882 17.7299C8.31086 18.1591 8.83615 17.4373 9.63186 17.2491C10.4584 17.0537 11.4209 17.9417 12.1732 17.9834C12.5207 18.0027 12.7981 17.922 13.0525 17.7258C12.9649 17.9808 12.9166 18.2714 12.8338 18.5363C12.6043 19.2703 11.8975 21.3164 11.838 22.0334C12.0201 21.9208 12.4849 21.1309 12.5856 20.9397C13.2607 21.5145 13.8398 23.8232 14.2382 24.5966C14.149 23.5287 13.1061 20.6823 12.97 20.2722C12.97 20.2722 13.1536 19.4375 13.2784 18.9543C13.3503 18.6766 13.9007 17.236 14.0701 16.728C14.7271 16.9321 16.1093 17.7309 16.2704 17.8874C16.2704 17.8874 16.7066 17.547 17.1148 16.8889C17.1266 16.8699 17.1381 16.85 17.1499 16.8308C16.1501 16.0542 15.8562 15.3641 14.2371 13.8398Z" fill="#55727A"/>
<path d="M9.28952 30.2033C9.4024 30.2441 9.7875 30.4511 9.72606 30.169C9.6932 30.018 9.39769 29.9175 9.29091 29.8645C9.45537 29.8778 9.5591 29.7662 9.41751 29.6204C9.3393 29.5403 9.09399 29.5135 8.98264 29.4708C8.83953 29.4156 8.72096 29.3589 8.61279 29.2915C8.68962 29.5654 8.81526 29.819 8.95268 30.0499C9.06307 30.1118 9.17678 30.1628 9.28952 30.2033Z" fill="#D1A387"/>
<path d="M7.02086 25.9848L6.80078 26.1512C6.8152 26.5761 7.40651 28.1916 7.59497 28.5027C7.76442 28.7829 8.29929 29.961 8.50036 30.1765C8.73347 30.4272 8.90779 30.637 9.03925 30.809C9.0448 30.802 9.05118 30.798 9.05936 30.7999C9.06116 30.8006 9.0631 30.8015 9.0649 30.8022C9.06504 30.7973 9.06421 30.7923 9.06504 30.7877C9.28595 30.7502 9.55193 31.0475 9.58396 31.3121C9.59131 31.3265 9.5859 31.4026 9.60532 31.3552C9.77075 31.1203 9.32006 30.6663 8.95286 30.0507C8.81543 29.8198 8.68979 29.5662 8.61297 29.2923C8.53919 29.0309 8.5091 28.7517 8.55639 28.4571C8.66039 27.8075 9.3349 29.1023 9.82082 29.2841C9.75661 29.2266 9.70239 29.1433 9.65815 29.0712C9.64331 29.0477 9.62071 28.9907 9.60338 28.9288C9.58757 28.891 9.5988 28.6857 9.66481 28.7208C9.61419 28.6411 9.56399 28.5491 9.51254 28.4344C9.34669 28.0649 9.0527 27.3743 8.69465 27.1483C7.75458 26.5544 7.61383 25.7583 7.02086 25.9848Z" fill="#EFC39E"/>
<path d="M9.57816 28.7839C9.57872 28.8257 9.58912 28.879 9.60368 28.9288C9.62102 28.9906 9.64348 29.0476 9.65846 29.0712C9.7027 29.1434 9.75691 29.2265 9.82112 29.2841C9.8691 29.3268 9.94967 29.3452 9.94967 29.2922C9.93511 29.0898 9.80088 28.8737 9.68744 28.717L9.68675 28.7327C9.67898 28.7276 9.67219 28.7242 9.66525 28.7206C9.59897 28.6857 9.57706 28.7222 9.57816 28.7839Z" fill="#FF9E8A"/>
<path d="M9.06483 30.7882C9.064 30.7926 9.06483 30.7976 9.06469 30.8026C9.05484 30.9765 9.46296 31.3682 9.58555 31.4193C9.58555 31.4193 9.62673 31.4272 9.6155 31.3363C9.58347 31.0718 9.28574 30.7506 9.06483 30.7882Z" fill="#FF9E8A"/>
<path d="M12.7348 8.04412C12.7348 7.25284 13.2796 6.05484 13.0914 5.32833C12.9777 4.88929 12.8489 4.43292 12.5161 4.13019C12.6244 4.31116 12.7065 4.50073 12.8551 4.65258C12.4774 4.60543 12.0325 4.44165 11.648 4.27968C11.0938 4.04616 11.0203 4.00788 10.6792 3.55067C10.8198 3.99554 10.919 4.05018 10.9633 4.23863C10.0292 4.02549 9.37997 3.37747 9.63014 2.23896C9.78864 1.51744 9.26238 0.74406 9.96476 0.319303C10.5634 -0.0427738 11.5933 -0.0638522 12.2249 0.211554C13.134 0.607744 13.8091 1.2566 14.1079 2.18987C14.381 3.04327 14.3728 3.59616 14.1904 4.57478C14.042 5.37077 13.9387 6.40902 13.2798 7.16104L12.7348 8.04412Z" fill="#4D220A"/>
<path d="M9.96509 0.480303C10.1608 0.846817 10.0163 1.95163 9.8873 2.35614C9.70952 2.91319 9.61896 3.09374 9.1881 3.48217C8.82408 3.72942 7.43305 3.95657 7.21395 4.82065C7.21755 4.68336 6.9843 4.48575 6.97626 4.35054C6.77629 4.94074 6.77075 6.80354 7.39325 8.07878C5.77978 6.83932 5.7429 4.81538 5.6902 4.34777C5.65096 4.00012 5.64056 3.93535 5.64014 3.58534C5.63917 2.67994 5.82527 2.23757 6.32435 1.48485C6.77435 0.806047 7.75796 0.153866 8.54397 0.0242057C9.45907 -0.127087 9.96509 0.480303 9.96509 0.480303Z" fill="#4D220A"/>
<path d="M14.1846 3.86459C14.2674 2.81636 14.0573 2.51765 13.942 2.19468C13.2478 0.858978 12.4971 0.596607 12.0665 0.413836C10.7227 -0.15639 9.84153 0.692431 9.84153 0.692431C9.44534 1.12079 9.93028 2.33932 10.2587 2.81178C10.2006 2.12895 10.0261 1.15158 10.417 0.558611C10.257 1.14354 10.5687 1.74011 10.8538 2.21895C10.6827 1.80251 10.4706 1.17363 10.6214 0.7228C10.6073 1.01263 11.1151 1.54125 11.2625 1.76812C11.1772 1.52267 11.0258 1.02275 10.9638 0.78243C11.5396 0.907236 12.009 1.01346 12.5308 1.34683C12.9966 1.64442 13.677 2.27414 13.8377 3.0184C13.8377 2.51765 13.6379 2.17652 13.5179 1.9778C14.2613 2.78169 14.1846 3.86459 14.1846 3.86459Z" fill="#85573D"/>
<path d="M10.3239 1.41992C10.2868 2.49007 11.1228 3.87472 12.0665 4.26842C11.572 3.93907 11.2386 3.65243 10.9587 3.1202C10.7656 2.75368 10.4539 2.31048 10.422 1.89987L10.3239 1.41992Z" fill="#85573D"/>
<path d="M11.9482 1.05127C12.971 1.53247 13.6352 3.24841 13.6184 4.26434C13.7044 3.18476 13.3677 1.72911 12.5978 1.27342L11.9482 1.05127Z" fill="#85573D"/>
<path d="M9.95972 0.976684C10.1698 1.73037 9.91424 2.65796 9.18717 3.30044C9.42638 2.94155 9.60097 1.79943 9.4311 1.38411C9.36481 1.70888 8.94172 2.098 8.653 2.23223C8.83078 2.02492 9.04947 1.64994 8.99456 1.20314C8.57923 0.214257 7.17585 1.29286 6.60521 2.03948C6.07797 2.7291 5.8493 4.43631 6.22913 5.72681C5.73129 4.5944 5.73101 3.46088 5.83266 3.04015C5.98021 2.42873 6.31289 1.62526 6.77037 1.17457C7.34725 0.605871 8.75701 -0.344459 9.77113 0.6049C9.86002 0.688243 9.93795 0.866161 9.95972 0.976684Z" fill="#85573D"/>
<path d="M9.3798 1.76758C9.3798 2.79723 8.87254 3.27163 8.44667 3.58462C8.09333 3.84422 7.59646 3.77294 7.18544 4.59472C7.12442 4.12267 7.66289 3.78375 7.98655 3.58462C9.18941 2.84466 9.29924 2.28816 9.3798 1.76758Z" fill="#85573D"/>
<path d="M10.9634 0.781738C11.8042 1.02941 12.4805 1.75953 12.8581 2.51696C12.7822 1.89875 12.1741 1.00029 11.5813 0.781738H10.9634Z" fill="#85573D"/>
<path d="M7.2137 5.14535C8.26734 4.5772 9.06541 5.06436 9.15984 4.93318C9.37063 4.73487 8.39769 4.72863 8.19343 4.73404C7.81915 4.74389 7.37581 4.90309 7.18555 5.14812L7.2137 5.14535Z" fill="#482F1B"/>
<path d="M12.6476 4.68745C11.5111 4.3122 10.8345 5.06797 10.7185 4.95536C10.4764 4.797 11.409 4.48429 11.611 4.45378C11.9813 4.39817 12.4457 4.47736 12.6758 4.68537L12.6476 4.68745Z" fill="#482F1B"/>
<path d="M7.28473 27.785C6.93237 26.4618 4.5487 23.5909 3.7193 22.2452C2.21122 19.7981 3.60087 19.5103 4.57769 19.9123C5.02741 20.0974 5.49945 20.9501 5.71037 21.3589C6.02752 21.9735 6.1594 22.6703 6.36783 23.3351C6.57736 24.0037 6.82364 24.6595 7.11902 25.2868C7.4015 25.8872 7.79783 26.3498 8.1244 26.9047L7.28473 27.785Z" fill="#EFC39E"/>
<path d="M13.7709 24.5158L11.4121 24.7368L11.5779 26.5058L13.9367 26.2848L13.7709 24.5158Z" fill="#FFFFF5"/>
<path d="M12.9255 25.1737C12.9459 25.2722 12.8723 25.3708 12.761 25.3938C12.6498 25.4168 12.5432 25.3555 12.5228 25.257L12.3178 24.268C12.2975 24.1696 12.3711 24.0708 12.4823 24.0478C12.5935 24.0248 12.7002 24.0861 12.7207 24.1845L12.9255 25.1737Z" fill="#FDD089"/>
<path d="M25.3123 12.7095C24.9217 12.5658 24.2893 12.8081 23.945 12.9959C23.5843 13.1924 23.1227 13.6117 23.0493 14.025C23.0854 13.7171 23.5836 13.4116 23.8346 13.2523C24.1765 13.0354 24.5538 12.9798 24.901 12.7974C24.7135 12.8582 24.4828 13.007 24.4015 13.1957C24.5682 13.035 24.755 12.9738 24.9552 12.9196C24.6291 13.4384 24.4914 13.9648 25.0734 14.7695C24.7642 14.2144 24.7643 13.3829 25.0658 12.9974C24.9565 13.445 24.9996 13.8746 25.3532 14.0987C25.1436 13.5874 25.3417 13.403 25.5486 13.1125C25.744 12.8378 26.1761 12.7153 26.5743 12.8514C26.4468 12.7959 26.1502 12.5127 25.9986 12.5326C26.8857 12.1203 27.6203 12.3487 28.8837 13.0902C28.3913 12.5617 27.7731 12.3029 27.4866 12.2332C27.233 12.1714 26.9293 12.0978 26.6571 12.1265C26.1817 12.1769 25.696 12.4696 25.3126 12.754V12.7095H25.3123Z" fill="white"/>
<path d="M29.1206 13.3594C29.3722 13.4626 29.6219 13.8834 29.7535 14.1213C29.9109 14.4055 30.0065 14.6906 30.0793 14.9952C30.2253 15.6067 30.2068 16.4439 29.8353 16.9591C30.224 16.1935 30.0345 14.8661 29.567 14.152C29.6399 14.3265 29.676 14.5925 29.6582 14.7867C29.6377 14.3266 29.3709 13.716 29.1206 13.3369V13.3594Z" fill="white"/>
<path d="M33.0016 42.7379C33.0016 43.412 33.2473 43.8825 32.576 43.8825H20.3264C19.655 43.8825 19.6928 43.691 19.6928 43.0169L18.6074 26.4411C18.6074 25.7667 19.1519 25.2202 19.8233 25.2202H32.576C33.2475 25.2202 34.3168 25.674 34.3168 26.3483L33.0016 42.7379Z" fill="#333333"/>
<path d="M22.3815 45.0288C22.3815 45.2318 22.063 45.3963 21.67 45.3963H17.6124C17.2196 45.3963 16.9009 45.2318 16.9009 45.0288C16.9009 44.8261 17.2196 44.6616 17.6124 44.6616H21.67C22.063 44.6616 22.3815 44.8261 22.3815 45.0288Z" fill="#666666"/>
<path d="M17.7909 51.3335H17.0312V51.5724H17.7909V51.3335Z" fill="#666666"/>
<path d="M17.5955 47.1855H17.0312V47.5607H17.5955V47.1855Z" fill="#666666"/>
<path d="M17.7909 38.3511H17.0312V38.5899H17.7909V38.3511Z" fill="#666666"/>
<path d="M17.5955 42.3633H17.0312V42.7384H17.5955V42.3633Z" fill="#666666"/>
<path d="M18.423 53.0069C18.423 53.2701 18.2276 53.4837 17.9863 53.4837C17.7452 53.4837 17.5498 53.2702 17.5498 53.0069V37.051C17.5498 36.7876 17.7452 36.5742 17.9863 36.5742C18.2276 36.5742 18.423 36.7875 18.423 37.051V53.0069Z" fill="black"/>
<path d="M18.3771 43.456C18.3771 43.6916 18.2022 43.8824 17.9866 43.8824C17.7709 43.8824 17.5962 43.6916 17.5962 43.456V37.1849C17.5962 36.9494 17.7711 36.7583 17.9866 36.7583C18.2023 36.7583 18.3771 36.9494 18.3771 37.1849V43.456Z" fill="#666666"/>
<path d="M18.3771 40.7381C18.3771 40.9737 18.2022 41.1646 17.9866 41.1646C17.7709 41.1646 17.5962 40.9737 17.5962 40.7381V37.611C17.5962 37.3754 17.7711 37.1846 17.9866 37.1846C18.2023 37.1846 18.3771 37.3754 18.3771 37.611V40.7381Z" fill="#CCCCCC"/>
<path d="M18.182 39.7044C18.182 39.8224 18.0946 39.9176 17.9866 39.9176C17.879 39.9176 17.7915 39.8222 17.7915 39.7044V37.7131C17.7915 37.5954 17.879 37.5 17.9866 37.5C18.0946 37.5 18.182 37.5955 18.182 37.7131V39.7044Z" fill="#F2F2F2"/>
<path d="M17.1634 51.9235C17.1634 52.0027 17.1045 52.067 17.0321 52.067C16.9595 52.067 16.9009 52.0027 16.9009 51.9235V38.1354C16.9009 38.0564 16.9595 37.9922 17.0321 37.9922C17.1046 37.9922 17.1634 38.0564 17.1634 38.1354V51.9235Z" fill="#808080"/>
<path d="M24.2523 50.7942C24.2523 51.1158 23.9915 51.3766 23.6699 51.3766H19.5614C19.2398 51.3766 18.979 51.1158 18.979 50.7942C18.979 50.4726 19.2398 50.2119 19.5614 50.2119H23.6699C23.9915 50.2119 24.2523 50.4726 24.2523 50.7942Z" fill="#999999"/>
<path d="M20.0149 55.0204C20.0149 55.3327 19.7829 55.5859 19.4969 55.5859C19.2109 55.5859 18.979 55.3327 18.979 55.0204V51.1835C18.979 50.8712 19.211 50.6182 19.4969 50.6182C19.7829 50.6182 20.0149 50.8712 20.0149 51.1835V55.0204Z" fill="black"/>
<path d="M20.0149 52.7852C20.0149 52.9391 19.7829 53.0638 19.4969 53.0638C19.2109 53.0638 18.979 52.9393 18.979 52.7852V50.8966C18.979 50.7428 19.211 50.6182 19.4969 50.6182C19.7829 50.6182 20.0149 50.7428 20.0149 50.8966V52.7852Z" fill="#666666"/>
<path d="M19.5444 51.7046C19.7409 51.7046 19.8972 51.7664 20.0149 51.864V51.1893C20.0149 51.1203 19.7829 51.0645 19.4969 51.0645C19.2109 51.0645 18.979 51.1203 18.979 51.1893V51.9614C19.101 51.8084 19.2891 51.7046 19.5444 51.7046Z" fill="#B3B3B3"/>
<path d="M20.09 35.1856C20.09 35.4754 19.8168 35.7103 19.48 35.7103H17.2261C16.8891 35.7103 16.6162 35.4754 16.6162 35.1856C16.6162 34.8959 16.8893 34.6611 17.2261 34.6611H19.48C19.8169 34.6611 20.09 34.8959 20.09 35.1856Z" fill="#4D4D4D"/>
<path d="M20.09 34.9737C20.09 35.1462 19.8168 35.2861 19.48 35.2861H17.2261C16.8891 35.2861 16.6162 35.1462 16.6162 34.9737C16.6162 34.8011 16.8893 34.6611 17.2261 34.6611H19.48C19.8169 34.6613 20.09 34.8011 20.09 34.9737Z" fill="#CCCCCC"/>
<path d="M30.1177 45.0288C30.1177 45.2318 30.4361 45.3963 30.8292 45.3963H34.8868C35.2797 45.3963 35.5982 45.2318 35.5982 45.0288C35.5982 44.8261 35.2797 44.6616 34.8868 44.6616H30.8292C30.4361 44.6616 30.1177 44.8261 30.1177 45.0288Z" fill="#666666"/>
<path d="M35.467 51.3335H34.7075V51.5724H35.467V51.3335Z" fill="#666666"/>
<path d="M35.467 47.1855H34.9028V47.5607H35.467V47.1855Z" fill="#666666"/>
<path d="M35.467 38.3511H34.7075V38.5899H35.467V38.3511Z" fill="#666666"/>
<path d="M35.467 42.3628H34.9028V42.7379H35.467V42.3628Z" fill="#666666"/>
<path d="M34.0752 53.0069C34.0752 53.2701 34.2707 53.4837 34.5117 53.4837C34.753 53.4837 34.9486 53.2702 34.9486 53.0069V37.051C34.9486 36.7876 34.753 36.5742 34.5117 36.5742C34.2707 36.5742 34.0752 36.7875 34.0752 37.051V53.0069Z" fill="black"/>
<path d="M34.1211 43.456C34.1211 43.6916 34.2961 43.8824 34.5115 43.8824C34.7272 43.8824 34.9021 43.6916 34.9021 43.456V37.1849C34.9021 36.9494 34.7271 36.7583 34.5115 36.7583C34.296 36.7583 34.1211 36.9494 34.1211 37.1849V43.456Z" fill="#666666"/>
<path d="M34.1211 40.7381C34.1211 40.9737 34.2961 41.1646 34.5115 41.1646C34.7272 41.1646 34.9021 40.9737 34.9021 40.7381V37.611C34.9021 37.3754 34.7271 37.1846 34.5115 37.1846C34.296 37.1846 34.1211 37.3754 34.1211 37.611V40.7381Z" fill="#CCCCCC"/>
<path d="M34.3164 39.7044C34.3164 39.8224 34.4038 39.9176 34.5115 39.9176C34.6194 39.9176 34.7069 39.8222 34.7069 39.7044V37.7131C34.7069 37.5954 34.6194 37.5 34.5115 37.5C34.4038 37.5 34.3164 37.5955 34.3164 37.7131V39.7044Z" fill="#F2F2F2"/>
<path d="M35.3354 51.9235C35.3354 52.0027 35.3944 52.067 35.4666 52.067C35.5392 52.067 35.5978 52.0027 35.5978 51.9235V38.1354C35.5978 38.0564 35.5392 37.9922 35.4666 37.9922C35.3942 37.9922 35.3354 38.0564 35.3354 38.1354V51.9235Z" fill="#808080"/>
<path d="M28.2466 50.7942C28.2466 51.1158 28.5074 51.3766 28.829 51.3766H32.9375C33.2591 51.3766 33.5199 51.1158 33.5199 50.7942C33.5199 50.4726 33.2591 50.2119 32.9375 50.2119H28.829C28.5074 50.2119 28.2466 50.4726 28.2466 50.7942Z" fill="#999999"/>
<path d="M32.4834 55.0204C32.4834 55.3327 32.7154 55.5859 33.0013 55.5859C33.2874 55.5859 33.5193 55.3327 33.5193 55.0204V51.1835C33.5193 50.8712 33.2873 50.6182 33.0013 50.6182C32.7153 50.6182 32.4834 50.8712 32.4834 51.1835V55.0204Z" fill="black"/>
<path d="M32.4834 52.7852C32.4834 52.9391 32.7154 53.0638 33.0013 53.0638C33.2874 53.0638 33.5193 52.9393 33.5193 52.7852V50.8966C33.5193 50.7428 33.2873 50.6182 33.0013 50.6182C32.7153 50.6182 32.4834 50.7428 32.4834 50.8966V52.7852Z" fill="#666666"/>
<path d="M32.9538 51.7046C32.7574 51.7046 32.6011 51.7664 32.4834 51.864V51.1893C32.4834 51.1203 32.7154 51.0645 33.0013 51.0645C33.2873 51.0645 33.5193 51.1203 33.5193 51.1893V51.9614C33.3973 51.8084 33.2092 51.7046 32.9538 51.7046Z" fill="#B3B3B3"/>
<path d="M32.4082 35.1856C32.4082 35.4754 32.6817 35.7103 33.0185 35.7103H35.2722C35.6092 35.7103 35.8823 35.4754 35.8823 35.1856C35.8823 34.8959 35.6091 34.6611 35.2722 34.6611H33.0185C32.6817 34.6611 32.4082 34.8959 32.4082 35.1856Z" fill="#4D4D4D"/>
<path d="M32.4082 34.9737C32.4082 35.1462 32.6817 35.2861 33.0185 35.2861H35.2722C35.6092 35.2861 35.8823 35.1462 35.8823 34.9737C35.8823 34.8011 35.6091 34.6611 35.2722 34.6611H33.0185C32.6817 34.6613 32.4082 34.8011 32.4082 34.9737Z" fill="#CCCCCC"/>
<path d="M33.7913 43.9283C33.7913 44.1902 33.5788 44.4028 33.3167 44.4028H19.0815C18.8194 44.4028 18.6069 44.1902 18.6069 43.9283C18.6069 43.6661 18.8194 43.4536 19.0815 43.4536H33.3167C33.5788 43.4536 33.7913 43.6661 33.7913 43.9283Z" fill="#333333"/>
<path d="M34.9485 35.9472C34.9485 36.0783 34.7016 36.1845 34.3974 36.1845H17.8646C17.5603 36.1845 17.3135 36.0783 17.3135 35.9472C17.3135 35.8162 17.5602 35.71 17.8646 35.71H34.3974C34.7016 35.71 34.9485 35.8162 34.9485 35.9472Z" fill="#333333"/>
<path d="M13.0706 31.1617C13.0561 31.1037 13.0538 30.9796 13.0504 30.9255C12.6118 30.9103 12.5211 30.7335 12.1618 30.5327C11.7861 30.3225 11.0789 30.0181 10.6312 29.9821C10.3367 29.9587 9.48023 29.8238 9.35237 30.0706C9.3514 30.1601 9.42531 30.148 9.44958 30.1658C9.14727 30.1499 8.82832 30.1226 8.62614 30.1147C8.58772 30.6177 9.41505 30.5339 9.8025 30.5758C9.48633 30.6181 8.61019 30.4349 8.54418 30.7633C8.49259 31.1645 11.2207 30.8032 11.2207 31.4866C10.58 31.8369 9.45318 31.2807 9.47454 31.7297C10.1457 31.8509 10.6793 32.1836 11.3501 32.2214C11.7144 32.2424 12.0067 32.1679 12.3517 32.1969C12.5581 32.2142 12.8872 32.0316 13.0805 32.0731C13.2086 31.6862 13.1579 31.5082 13.0706 31.1617Z" fill="#FED6AF"/>
<path d="M12.2678 30.4872C12.2587 30.4901 13.3059 30.6198 14.2556 30.2047C14.7363 29.9946 15.415 29.6621 15.9131 29.5757C15.8443 29.8679 15.252 30.4522 15.2422 30.7561C15.2311 31.1014 15.4233 31.4923 15.3997 31.7856L15.8177 31.9595C15.3202 32.1952 14.2476 32.0077 13.7474 32.1553C13.2428 32.3048 13.0887 32.5733 12.6377 32.4762C12.5713 32.4507 12.5803 32.3374 12.5803 32.3374C12.5441 32.1854 12.2321 32.0333 12.4464 31.8279C12.2998 31.785 12.2678 31.5938 12.2832 31.5154C12.2678 31.4182 12.369 31.3952 12.5145 31.3453C12.2282 31.2149 12.1685 30.7839 12.2678 30.4872Z" fill="#7B3F04"/>
<path d="M23.5343 19.7331C23.3262 19.5729 22.9775 19.2482 22.9218 19.0357C22.9438 19.1002 22.9501 19.1537 22.9829 19.2204C22.779 18.9572 22.6555 18.6316 22.4789 18.3719C22.4657 18.5056 22.4712 18.6517 22.5321 18.7665C22.0102 18.277 21.8676 17.4899 21.7612 16.849C21.6721 16.3122 21.8406 15.4757 22.1262 15.0436C22.033 15.0995 21.9604 15.1827 21.9394 15.2813C21.9063 14.9734 22.0979 14.3684 22.2275 14.0437C22.369 13.6874 22.6953 13.2869 22.9906 13.0402C23.5647 12.5602 24.3865 12.1463 25.1116 12.2766C24.9693 12.1979 24.8137 12.0821 24.6566 12.0457C24.8815 12.0285 25.4067 12.1117 25.5667 12.2689C25.4576 12.0489 25.7484 11.9165 25.9102 11.833C25.8342 11.9456 25.7865 12.0747 25.7973 12.2105C26.716 11.6107 27.6927 11.9898 28.4861 12.4C28.8444 12.5855 30.2571 13.0549 30.6099 15.3624C30.6271 15.4769 29.805 14.543 29.8668 14.6534C29.8641 14.605 29.8714 14.7017 29.8668 14.6534C30.2596 15.049 30.2752 15.2506 30.3705 15.514C30.5036 15.8827 30.7003 16.7963 30.5558 17.4845C30.5484 17.4439 30.4745 17.2113 30.4623 17.1775C30.4806 17.8047 30.2091 18.3722 29.7982 18.7912C29.5024 19.0931 29.1011 19.4056 28.9614 19.5675C28.7902 19.766 28.5181 19.9019 28.3116 20.0666C27.9855 20.3275 28.2064 20.2201 27.8127 20.3219C27.4914 20.4051 27.2313 20.5853 26.9227 20.6944C26.6438 20.793 26.3707 20.787 26.0783 20.7933C25.5284 20.8048 24.9554 20.8579 24.4683 20.5557C24.1934 20.3851 24.0514 20.0956 23.8424 19.8836C23.7337 19.7736 23.5661 19.6244 23.4765 19.5711L23.5343 19.7331Z" fill="#9F9E9B"/>
<path d="M23.4619 17.4033C23.4973 17.9618 23.5544 18.6246 23.2818 18.6035C23.0099 18.5823 22.3474 17.6567 22.312 17.0984C22.2764 16.5401 22.6324 16.3329 22.9043 16.354C23.177 16.3752 23.4266 16.8449 23.4619 17.4033Z" fill="#EFC39E"/>
<path d="M28.8078 17.5135C28.7944 18.1358 28.7627 18.8756 29.0644 18.8392C29.366 18.8028 30.0586 17.7426 30.0721 17.1203C30.085 16.498 29.6797 16.2845 29.3776 16.3208C29.076 16.3571 28.8206 16.891 28.8078 17.5135Z" fill="#EFC39E"/>
<path d="M26.5742 26.8757C26.8175 26.7481 27.6004 22.5018 27.8109 22.339C27.7607 22.3236 27.7103 22.3084 27.659 22.2932L27.7152 19.5005L24.9565 19.7079L25.0192 22.4581C24.9991 22.4669 24.9793 22.4755 24.9596 22.4842C25.3633 23.3753 25.8875 27.2738 26.5742 26.8757Z" fill="#FED6AF"/>
<path d="M24.3521 22.2881C21.9735 22.2881 20.3318 23.3692 18.7759 25.7777C17.791 27.3022 15.3537 28.4921 14.6772 29.2915C13.9818 30.1132 13.9475 30.2911 14.3061 31.1618C18.052 29.9416 20.3684 26.6541 21.6823 23.763C21.6823 25.5411 21.5496 27.1858 21.8066 28.9583C22.8183 28.3072 23.6809 26.9902 24.3521 22.2881Z" fill="#D09458"/>
<path d="M21.349 23.5903C20.5093 28.4825 16.3331 28.8526 14.3062 31.1618C14.6008 31.8775 14.8113 32.2727 15.1184 32.2992C16.9003 32.4535 18.6845 30.8529 18.9788 30.5965C19.7756 29.9014 20.8626 28.7063 21.3506 29.2915C21.5173 29.4913 21.3793 29.0294 21.5191 29.4899C21.5191 27.9047 21.9734 25.6914 21.349 23.5903Z" fill="#AB7344"/>
<path d="M29.9198 34.234C30.1885 35.3752 30.7158 36.355 31.2989 37.3131C30.7642 35.4004 30.4693 32.6071 30.8155 31.1882C31.4638 28.5309 31.4638 26.9028 31.0221 26.1021C30.0946 28.8116 27.3719 33.8859 28.9425 36.3281C29.0821 35.4905 29.5011 34.9321 29.9198 34.234Z" fill="#AB7344"/>
<path d="M22.9391 35.7698C22.9391 32.8653 22.129 28.7202 21.3188 27.9048C21.3743 29.4097 21.7275 31.4752 21.9605 33.5649C21.9893 33.8245 21.7611 35.578 21.4199 37.4041C21.4152 37.4297 21.4102 37.4554 21.4054 37.4808C21.8673 36.7845 22.2693 36.0481 22.5205 35.2112C22.6602 35.3509 22.9391 35.4905 22.9391 35.7698Z" fill="#AB7344"/>
<path d="M24.5777 31.9749C24.5777 32.5377 23.7336 32.5377 23.7336 33.1003C22.59 32.7193 22.4792 31.076 21.9503 30.0356C22.3418 31.9399 22.7728 33.8238 22.9579 35.7694C22.9579 35.4901 22.6788 35.3506 22.5393 35.2109C22.2894 36.0437 21.8899 36.7767 21.4312 37.4698C21.5945 37.4979 21.7627 37.5325 21.9419 37.5613C22.6168 37.67 23.3565 37.6362 24.0375 37.6117C25.4782 37.5602 26.8957 37.3227 28.33 37.2013C29.2637 37.1224 30.1996 37.0665 31.1351 37.0072C30.6262 36.145 30.179 35.2539 29.9388 34.2337C29.52 34.9317 29.101 35.4901 28.9615 36.328C28.0672 34.7324 28.4877 33.1225 29.1881 31.5337C27.8157 32.4598 26.2937 32.9282 24.5777 31.9749Z" fill="#AB7344"/>
<path d="M31.1321 25.0485C31.1604 24.8255 31.2025 23.679 31.3176 23.4811C30.8829 22.5844 30.1836 22.4478 29.1596 22.3415C28.2907 23.0914 27.1908 25.6626 26.4979 26.6325C25.52 25.2916 24.3533 23.5625 23.3206 22.2656C22.648 22.4508 21.5192 22.8576 21.3188 23.3398C21.5145 24.8366 21.5353 26.3759 21.6044 28.2497C21.7099 28.8487 21.8282 29.4434 21.9501 30.0362C22.479 31.0765 22.5898 32.7198 23.7333 33.1009C23.7333 32.5381 24.5774 32.5381 24.5774 31.9754C26.2935 32.9288 27.8156 32.4602 29.1877 31.5341C29.7222 30.3213 30.42 29.1205 30.8213 27.9476C30.8981 27.1166 30.9813 26.2361 31.1321 25.0485Z" fill="#D09458"/>
<path d="M30.6442 22.5649C29.8015 21.8893 28.1616 21.3911 27.6917 21.293C27.395 23.0421 26.7653 25.9982 26.498 26.6323C27.166 25.6777 29.7756 23.3147 30.6442 22.5649Z" fill="#7B3F04"/>
<path d="M26.4982 26.6323C26.4642 26.6863 26.5311 26.5775 26.4982 26.6323C26.1031 25.6415 25.0771 21.9686 24.9932 21.293C24.4951 21.5327 22.8594 21.997 21.9741 22.2878C23.0067 23.585 25.1624 25.0935 26.4982 26.6323Z" fill="#7B3F04"/>
<path d="M32.8815 32.5525C33.5196 30.597 30.7833 34.6124 28.6519 33.9896C28.8312 34.4432 28.9582 35.0828 28.9582 35.0828C33.922 35.7024 34.2454 33.115 33.7915 30.1206C33.7451 31.3175 33.529 32.4772 32.6286 33.4377C32.7551 33.1846 32.8815 32.9318 32.8815 32.5525Z" fill="#AB7344"/>
<path d="M30.5977 22.9004C30.4826 23.0981 31.0891 24.5973 31.0274 24.8134C30.9815 24.9802 31.024 25.3796 30.9818 25.5417C30.9849 26.1236 30.7634 27.9333 30.8154 28.496C31.3311 34.0758 28.5137 31.5582 28.2515 33.5719C28.3933 33.4736 28.5339 33.6914 28.6518 33.9897C31.2852 34.6123 33.0015 31.1623 32.8815 32.5526C32.8815 32.9319 32.755 33.1848 32.6287 33.4378C33.529 32.4773 33.7452 31.3176 33.7916 30.1207C33.5747 28.6892 33.1803 27.1647 33.03 25.8526C32.7812 23.685 31.6054 22.9004 30.5977 22.9004Z" fill="#D09458"/>
<path d="M27.5627 23.7632L25.2861 23.6036L24.9307 20.5359L27.6998 20.2515L27.5627 23.7632Z" fill="url(#paint1_linear_1150_19895)"/>
<path d="M26.3262 12.5677L25.7631 12.5989C23.9695 12.6984 22.7016 14.083 22.765 16.2152C22.7937 17.1791 22.8482 19.2603 23.8936 20.1223C25.1661 21.171 25.9636 21.2585 26.3235 21.2535C26.6169 21.2559 27.6968 21.0728 28.838 19.8597C29.4632 19.1949 29.7102 16.8182 29.6601 15.9144C29.5433 13.8138 28.1197 12.4681 26.3262 12.5677Z" fill="#FED6AF"/>
<path d="M30.6445 49.469C30.8044 49.335 31.0863 48.9868 31.2858 48.856C31.281 48.7508 31.2658 48.5978 31.2444 48.4139C30.9538 48.255 30.6578 48.1037 30.356 47.9663C30.4661 48.4292 30.5662 48.9198 30.6445 49.469Z" fill="#817876"/>
<path d="M29.8115 45.897C29.9887 46.5928 30.1844 47.2458 30.3558 47.9661C30.6577 48.1035 30.9536 48.2548 31.2443 48.4138C31.1786 47.848 31.0529 46.9885 30.9804 46.3142C30.6082 46.1467 30.2122 46.0193 29.8115 45.897Z" fill="#6F6664"/>
<path d="M30.9245 45.5516L31.0075 41.2904C31.0682 40.651 31.1549 39.5344 31.2155 38.1611C30.9111 37.6026 30.536 37.0982 30.0634 36.6872C30.0158 36.6457 29.9644 36.6047 29.9104 36.5645C30.0925 38.553 29.2033 39.3024 29.1211 39.6645C28.9037 40.4921 29.3105 43.0609 29.4158 43.8821C29.5131 44.6391 29.655 45.2847 29.811 45.8969C30.2116 46.0192 30.6077 46.1467 30.9799 46.3143C30.9465 46.0059 30.9244 45.7362 30.9245 45.5516Z" fill="#817876"/>
<path d="M28.2207 49.8603C29.703 50.5824 30.1717 49.8639 30.6439 49.4688C30.6408 48.9512 30.6286 48.494 30.6094 48.0853C29.731 47.6592 28.8041 47.3401 27.8291 47.2964C28.0371 48.5848 28.1977 49.5615 28.2207 49.8603Z" fill="#574D49"/>
<path d="M30.1886 36.801C30.1476 36.7625 30.1064 36.7239 30.0637 36.6869C29.366 36.0799 27.9058 35.5359 27.3546 36.6096C27.1251 37.057 26.8635 36.9828 26.7861 37.4805C26.5562 38.571 26.9965 41.9306 27.4487 44.8887C28.3075 45.539 29.4037 45.7396 30.4072 46.0888C29.9066 43.302 28.8911 45.0291 30.1886 36.801Z" fill="#574D49"/>
<path d="M27.4497 44.8887C27.5808 45.7468 27.7129 46.5706 27.8301 47.2959C28.8051 47.3396 29.732 47.6587 30.6104 48.0848C30.5699 47.2227 30.4972 46.5841 30.4082 46.0886C29.4046 45.7396 28.3085 45.5389 27.4497 44.8887Z" fill="#453B37"/>
<path d="M22.6076 38.5869C22.575 38.5615 22.5434 38.5401 22.5122 38.5195C22.5196 38.6151 22.5268 38.7087 22.5338 38.8062C22.589 39.7469 22.5473 50.1852 22.5453 50.2209C23.2592 50.4717 24.0086 50.8203 24.9045 49.8647C24.7824 48.4157 25.1222 45.4385 25.4227 43.5035C24.2305 41.9883 24.2232 39.6255 22.6076 38.5869Z" fill="#574D49"/>
<path d="M25.3465 38.0925C25.1369 37.3926 24.7385 36.8016 23.9705 36.5374C23.448 36.3577 22.8564 36.3615 22.3809 36.5976C22.4126 37.2238 22.4617 37.8505 22.5123 38.5201C22.5435 38.5407 22.575 38.5623 22.6077 38.5875C24.2233 39.6261 24.2306 41.9889 25.4229 43.5041C25.4496 43.3332 25.4759 43.1696 25.5014 43.0168C26.0762 39.5822 25.306 38.4945 25.3465 38.0925Z" fill="#423834"/>
<path d="M21.3506 39.4257C21.3708 43.3057 21.689 46.9398 21.6482 49.8471C21.7543 49.8919 22.0893 50.1136 22.5455 50.2738C22.5475 50.238 22.5491 50.2021 22.5508 50.1659C22.6321 48.6469 23.7675 41.4801 22.8101 39.1744C22.7423 39.0112 22.6853 38.8181 22.6376 38.608C22.6274 38.6014 22.6179 38.5937 22.6077 38.5872C21.9086 38.0436 21.5529 38.6152 21.3506 39.4257Z" fill="#817876"/>
<path d="M21.509 37.3504C21.348 37.6966 21.4231 38.1256 21.3514 38.5175C21.349 38.8216 21.3492 39.1241 21.3509 39.4256C21.5532 38.6151 21.9089 38.0435 22.6078 38.5871C22.6181 38.5938 22.6275 38.6014 22.6378 38.6079C22.4959 37.9843 22.4363 37.2116 22.4201 36.6318C22.104 36.7784 21.6764 36.9904 21.509 37.3504Z" fill="#6C6361"/>
<path d="M25.8093 18.9823C25.5957 18.8966 25.9004 18.7517 25.9922 18.9645C25.9543 19.0264 25.884 19.0115 25.8237 18.9961L25.8093 18.9823Z" fill="#A6636B"/>
<path d="M26.2563 18.9733C26.3099 18.6497 26.7195 18.9695 26.2988 18.9864L26.2563 18.9733Z" fill="#A6636B"/>
<path d="M25.3542 19.6683C25.2743 19.6514 25.2004 19.6321 25.1333 19.6104C25.1355 19.6116 25.1376 19.6131 25.1397 19.6144C25.1888 19.6427 25.237 19.6697 25.2858 19.6945C25.3813 19.7433 25.4764 19.7852 25.573 19.8182C25.5479 19.7781 25.5198 19.7379 25.5016 19.6948C25.451 19.6869 25.4011 19.6783 25.3542 19.6683Z" fill="#4D2B3D"/>
<path d="M27.1522 19.5952C27.1103 19.6084 27.0666 19.621 27.0208 19.6327C26.958 19.6486 26.8913 19.663 26.8223 19.6756C26.8081 19.7107 26.7972 19.7468 26.7866 19.7835C26.8751 19.7476 26.9629 19.7055 27.0497 19.6561C27.0842 19.6371 27.1179 19.6163 27.1522 19.5952Z" fill="#4D2B3D"/>
<path d="M26.1893 19.738C25.9499 19.7432 25.7116 19.7276 25.5015 19.6946C25.5196 19.7378 25.5478 19.778 25.5729 19.8181C25.5747 19.8186 25.5765 19.8193 25.5786 19.8199C25.7745 19.887 25.9736 19.9197 26.1721 19.915C26.3709 19.9106 26.5686 19.8691 26.7619 19.7938C26.7701 19.7906 26.7781 19.7869 26.7863 19.7837C26.7968 19.7469 26.8078 19.7109 26.8219 19.6758C26.6262 19.7114 26.4084 19.7332 26.1893 19.738Z" fill="white"/>
<path d="M27.5452 19.397C27.4871 19.4111 27.4313 19.4254 27.3756 19.439C27.3199 19.4523 27.2644 19.4651 27.2087 19.477C27.0975 19.501 26.9853 19.5215 26.8724 19.539C26.6466 19.5732 26.4164 19.5938 26.1854 19.5987C25.9541 19.6039 25.7238 19.5932 25.4965 19.5685C25.383 19.5563 25.2707 19.5399 25.1585 19.5209C25.1024 19.5114 25.0465 19.5008 24.9903 19.4896C24.9339 19.4787 24.8777 19.4667 24.8193 19.4548C24.865 19.4947 24.9294 19.5318 25.0083 19.5652C25.1017 19.7636 25.2612 19.9338 25.4579 20.0564C25.6677 20.187 25.9236 20.257 26.1793 20.2511C26.4347 20.2461 26.6873 20.1648 26.8915 20.0259C27.0764 19.8999 27.2239 19.731 27.3106 19.5377C27.412 19.495 27.4923 19.4476 27.5452 19.397ZM27.0489 19.6567C26.9538 19.7107 26.8581 19.7564 26.7616 19.7943C26.5684 19.8694 26.3707 19.9109 26.1718 19.9155C25.9732 19.9203 25.7742 19.8876 25.5783 19.8203C25.4796 19.7873 25.3825 19.7448 25.2854 19.6948C25.2366 19.6702 25.1885 19.643 25.1393 19.6147C25.1372 19.6134 25.1351 19.6119 25.1329 19.6107C25.1999 19.6323 25.2739 19.6517 25.3538 19.6686C25.5959 19.7197 25.8921 19.7449 26.189 19.7384C26.4861 19.7323 26.7806 19.6944 27.0201 19.6331C27.0658 19.6213 27.1097 19.6089 27.1514 19.5957C27.1172 19.6169 27.0835 19.6377 27.0489 19.6567Z" fill="#C48289"/>
<path d="M25.3302 17.5961C25.3302 17.5961 25.0109 17.6796 24.5939 17.7623C24.177 17.8449 23.7996 17.7101 23.7399 17.4082C23.6802 17.1066 23.9863 16.8792 24.4036 16.7965C24.8205 16.7139 25.2189 17.2953 25.3302 17.5961Z" fill="white"/>
<path d="M24.9473 17.2287C24.9959 17.4746 24.8379 17.7134 24.5936 17.7618C24.3495 17.8102 24.1123 17.6499 24.063 17.4039C24.0142 17.1579 24.1729 16.9193 24.4169 16.8709C24.6611 16.8225 24.8985 16.9826 24.9473 17.2287Z" fill="#007D75"/>
<path d="M24.7587 17.2667C24.7872 17.4101 24.6935 17.5496 24.5505 17.5781C24.4067 17.6065 24.2674 17.5132 24.2391 17.3698C24.2104 17.2263 24.304 17.0867 24.4474 17.0583C24.591 17.0299 24.7301 17.1232 24.7587 17.2667Z" fill="black"/>
<path d="M24.3542 17.3464C24.3664 17.4102 24.3249 17.4722 24.2614 17.4847C24.1973 17.4974 24.1353 17.4558 24.1229 17.392C24.1102 17.3284 24.1517 17.2664 24.2156 17.2538C24.2796 17.241 24.3411 17.2826 24.3542 17.3464Z" fill="white"/>
<path d="M23.7178 17.2953C23.7192 17.2503 23.7348 17.2051 23.7565 17.1641C23.778 17.1227 23.8067 17.0855 23.8379 17.0506C23.9017 16.9818 23.9793 16.9266 24.0635 16.8846C24.2318 16.8008 24.4314 16.7699 24.6216 16.8097C24.7165 16.8295 24.8077 16.8664 24.8887 16.9174C24.9701 16.9683 25.0417 17.0327 25.1015 17.1048C25.2206 17.2494 25.2953 17.4203 25.3303 17.5957C24.8887 16.9174 23.7562 17.2143 23.7178 17.2953Z" fill="#B87E63"/>
<path d="M26.9888 17.5604C26.9888 17.5604 27.3113 17.6302 27.7318 17.6952C28.1518 17.76 28.5226 17.6094 28.5696 17.3053C28.6167 17.0013 28.3009 16.7872 27.8809 16.7221C27.461 16.6574 27.0876 17.2553 26.9888 17.5604Z" fill="white"/>
<path d="M27.355 17.1772C27.3168 17.425 27.4851 17.6568 27.7314 17.6949C27.9771 17.7329 28.2077 17.5627 28.2459 17.3148C28.2843 17.0668 28.1158 16.8354 27.8698 16.7973C27.6236 16.7594 27.3933 16.9294 27.355 17.1772Z" fill="#007D75"/>
<path d="M27.5456 17.2074C27.5234 17.3519 27.6221 17.4874 27.7671 17.5096C27.9114 17.532 28.047 17.4328 28.0696 17.2884C28.0918 17.1438 27.9925 17.0084 27.8476 16.9861C27.7033 16.9636 27.5682 17.0626 27.5456 17.2074Z" fill="black"/>
<path d="M27.4403 17.2179C27.4305 17.2823 27.4747 17.3423 27.5391 17.3523C27.6031 17.3623 27.6632 17.3182 27.673 17.254C27.6832 17.1896 27.6388 17.1295 27.5746 17.1196C27.5106 17.1095 27.4502 17.1537 27.4403 17.2179Z" fill="white"/>
<path d="M28.5872 17.1924C28.5837 17.1473 28.5664 17.1029 28.543 17.0626C28.5198 17.0222 28.4896 16.9863 28.4568 16.9529C28.3903 16.8868 28.3101 16.835 28.2244 16.7965C28.0527 16.7199 27.8517 16.6975 27.6636 16.7453C27.5696 16.769 27.4799 16.8098 27.4008 16.8642C27.3217 16.9187 27.2529 16.9859 27.1963 17.0604C27.0835 17.2099 27.0159 17.3839 26.9883 17.5606C27.4283 16.7058 28.5452 17.1131 28.5872 17.1924Z" fill="#B87E63"/>
<path d="M27.4832 19.4042C27.5029 19.3404 27.5068 19.2709 27.4967 19.2031C27.5612 19.324 27.618 19.4543 27.6584 19.5825C27.6082 19.5203 27.5455 19.481 27.4687 19.4773C27.4649 19.4346 27.4734 19.4469 27.4832 19.4042Z" fill="#C48289"/>
<path d="M24.9377 19.5135C24.8463 19.4786 24.7605 19.5509 24.7319 19.6432C24.7272 19.5379 24.7607 19.3619 24.8206 19.2773C24.8299 19.3728 24.8869 19.451 24.938 19.5324L24.9377 19.5135Z" fill="#C48289"/>
<path d="M23.7832 17.5765C23.6792 17.4948 23.5241 17.4724 23.3905 17.4903C23.4425 17.4914 23.6486 17.4711 23.6404 17.3907C23.6351 17.3379 23.3617 17.2828 23.3252 17.2695C23.4105 17.2698 23.5651 17.2547 23.6459 17.2968C23.7243 17.338 23.6881 17.3644 23.7397 17.4075L23.7832 17.5765Z" fill="#C48289"/>
<path d="M28.5538 17.4004C28.5464 17.3712 28.5563 17.2405 28.5704 17.1763C28.6732 17.1796 28.773 17.1874 28.8831 17.1858C28.794 17.1985 28.7073 17.2502 28.6429 17.3032C28.713 17.3797 28.759 17.3432 28.8519 17.4036C28.7446 17.4191 28.6761 17.4173 28.6108 17.4181L28.5538 17.4004Z" fill="#C48289"/>
<path d="M26.7156 18.7785C26.8399 18.8416 26.9482 18.9432 27.0775 18.9953C26.9647 18.8497 26.77 18.7342 26.6967 18.5728C26.688 18.644 26.7105 18.7163 26.7345 18.778L26.7156 18.7785Z" fill="#C4A782"/>
<path d="M25.3723 18.6187C25.3587 18.787 25.2333 18.9517 25.144 19.0935C25.2713 18.9892 25.4382 18.7636 25.4293 18.6363L25.3723 18.6187Z" fill="#C4A782"/>
<path opacity="0.36" d="M28.8153 17.1333L27.4536 17.002C27.4527 17.0021 27.4519 17.0022 27.4512 17.0022C27.4473 17.0039 27.444 17.0056 27.44 17.0069C27.3962 17.0201 27.3537 17.0304 27.311 17.038C27.0886 17.1006 26.8766 17.1889 26.6556 17.2722L26.6518 17.7674C26.6333 17.9214 26.9089 17.9677 27.0506 17.9815C29.114 18.1839 29.0389 17.4371 29.0389 17.4371C29.0575 17.283 28.9574 17.1471 28.8153 17.1333Z" fill="white"/>
<path d="M26.6033 17.4371L26.4914 17.4495C26.4878 17.2752 26.5383 17.2252 26.6482 17.1554C27.1067 16.8648 28.3685 16.9556 29.416 17.1744L29.3827 17.3042C28.3997 17.0987 27.1504 16.9987 26.7312 17.2646C26.6552 17.3128 26.6134 17.3693 26.6033 17.4371Z" fill="black"/>
<path opacity="0.37" d="M23.4084 17.247L24.7633 17.0581C24.7643 17.0582 24.7651 17.0582 24.7661 17.0584C24.7701 17.0598 24.7734 17.0614 24.7776 17.0625C24.8217 17.0738 24.8645 17.0824 24.9074 17.0881C25.1322 17.1412 25.3484 17.2205 25.5722 17.2943L25.5973 17.7889C25.6225 17.942 25.3488 17.9997 25.2077 18.0197C23.1547 18.3092 23.1984 17.5598 23.1984 17.5598C23.1734 17.4069 23.2673 17.2668 23.4084 17.247Z" fill="white"/>
<path d="M25.6314 17.458L25.7318 17.466C25.7906 17.2903 25.6877 17.2435 25.5745 17.1786C25.1043 16.9075 23.8474 17.0517 22.8105 17.3148L22.8491 17.4431C23.8222 17.1961 25.0661 17.0433 25.4969 17.2911C25.5743 17.336 25.6187 17.3905 25.6314 17.458Z" fill="black"/>
<path d="M24.7982 12.7068C24.7309 12.3355 23.6319 12.8088 23.3851 13.015C23.0226 13.3178 22.6096 13.8573 22.4662 14.3131C22.2188 15.0989 22.2835 16.1107 22.5973 16.9066C22.7649 17.3319 22.971 17.8487 23.3058 18.1591C23.0176 17.5988 22.8784 17.0268 22.8648 16.3867C22.8656 16.6721 23.0238 16.9892 23.2306 17.1757C23.0222 16.7747 22.9004 15.9299 23.0915 15.5546C23.0904 15.8503 23.1513 16.1831 23.4034 16.363C22.9734 15.6287 23.493 15.283 23.9722 14.785C24.3848 14.3561 25.0073 13.1922 24.8577 12.5865C24.8489 12.6105 24.7019 12.8943 24.6933 12.9161L24.7982 12.7068Z" fill="#D4D3CF"/>
<path d="M24.5311 12.5624C23.6716 13.0424 23.9772 14.3998 24.2139 14.9912C24.4722 15.637 25.0162 16.3246 25.6746 16.6755C25.3128 16.3771 25.1768 15.8154 24.9746 15.4194C25.0643 15.7328 25.3572 15.9864 25.614 16.1667C25.391 15.8774 25.1601 15.4475 25.0493 15.0631C25.1505 15.6006 25.8194 15.8318 26.1685 16.087C25.9748 15.8877 25.8556 15.6071 25.7608 15.347C25.9178 15.7587 26.3673 15.8913 26.7554 15.9904C27.1656 16.0951 27.8063 16.2707 28.2331 16.3893C28.7086 16.521 28.7054 16.5136 28.9695 16.9276C29.2226 17.3239 29.2389 17.839 29.223 18.3361C29.2201 18.426 29.2253 18.2432 29.223 18.3361C29.3213 17.9057 29.5452 16.9749 29.4023 16.5458C29.426 16.5963 29.6172 17.0941 29.5448 17.5066C30.2774 16.5618 30.4573 15.5485 30.1439 14.4528C29.7795 13.179 27.8362 11.7928 26.2149 12.2863C26.0325 12.3418 25.859 12.4146 25.7136 12.538C25.7675 12.445 25.8177 12.3509 25.8783 12.2637C25.7032 12.3053 25.4673 12.3745 25.357 12.5178C25.1112 12.2772 24.4182 12.254 24.1206 12.5623L24.5311 12.5624Z" fill="#D4D3CF"/>
<path d="M24.8184 13.6737C24.6944 14.2205 25.2212 15.212 25.676 15.521C25.4272 15.1666 25.2556 14.8009 25.1584 14.3818C25.349 14.8152 25.9074 15.2574 26.298 15.5173C26.7263 15.8022 27.2639 15.823 27.6917 16.0536C26.7852 15.6458 25.8888 15.1366 25.3244 14.2975C25.4539 14.4693 25.7051 14.5794 25.9171 14.63C25.1411 14.2756 25.2591 12.75 26.176 12.7156C25.8914 12.5703 25.5918 12.6524 25.3161 12.7929C24.8891 13.0107 24.776 13.2921 24.7661 13.7564L24.8184 13.6737Z" fill="#EDEBE9"/>
<path d="M22.499 15.7343C22.5082 15.4346 22.4788 15.0415 22.5645 14.7508C22.6069 14.607 22.811 13.6553 23.7379 13.1847C24.0623 12.9857 24.4547 12.8744 24.7735 12.8812C24.7466 12.8642 24.8156 12.8416 24.7763 12.8269C24.7708 12.8181 24.6357 12.829 24.5063 12.78C24.6705 12.7231 24.9652 12.6732 25.1491 12.6564C25.1098 12.6171 24.9388 12.499 24.8817 12.4896C25.0082 12.4932 25.074 12.4437 25.3675 12.5763C25.5129 12.642 25.6853 12.3952 25.8426 12.3518C25.7655 12.4276 25.6985 12.5175 25.6708 12.6208C26.3328 12.2218 27.6482 12.2192 28.3362 12.9102C28.3362 12.9102 27.4542 12.3177 26.3482 12.6168C26.5058 12.7032 26.6993 12.7739 26.8582 12.8712C26.4935 12.8811 26.1514 12.714 25.8092 12.9127C25.4637 13.1132 25.3626 13.4499 25.2575 13.7983C25.1115 13.6428 25.1241 13.4495 25.104 13.236C24.9628 13.3646 24.7536 13.334 24.63 13.4388C24.5271 13.5266 24.4708 13.8216 24.4507 13.9241C24.4307 13.7138 24.436 13.4949 24.4811 13.3039C24.2792 13.3975 24.054 13.5268 23.9214 13.7106C23.9988 13.5758 24.1064 13.4522 24.157 13.3102C23.8311 13.3972 23.4693 13.7334 23.2718 14.0057C23.1445 14.2398 23.0576 14.4958 22.9948 14.764C22.9923 14.5578 22.9776 14.3318 23.0448 14.1384L23.0095 14.183C22.7911 14.5955 22.6428 15.0391 22.6047 15.5074C22.5722 15.9028 22.6858 16.218 22.7084 16.5906C22.6245 16.2969 22.4894 16.0519 22.499 15.7343Z" fill="#EDEBE9"/>
<path d="M24.8579 12.5862C24.9056 12.578 24.954 12.5782 25.0001 12.5859C24.9503 12.5842 24.9023 12.5838 24.8579 12.5862Z" fill="#EDEBE9"/>
<path d="M23.3403 16.6529C23.3155 16.6415 24.4511 15.7531 25.0728 16.6268C24.9717 16.4971 24.3279 16.3399 24.0693 16.4071C23.8793 16.4565 23.6916 16.5319 23.3018 16.6985L23.3403 16.6529Z" fill="#88827C"/>
<path d="M26.6681 17.6476C26.6708 17.7675 26.6301 17.8656 26.5781 17.8665C26.5264 17.8676 26.4817 17.7714 26.4791 17.6516C26.4766 17.5318 26.517 17.4337 26.5688 17.4326C26.6211 17.4315 26.6654 17.5279 26.6681 17.6476Z" fill="#999999"/>
<path d="M25.549 17.6715C25.5516 17.7914 25.5957 17.8875 25.6478 17.8864C25.6998 17.8853 25.7402 17.7874 25.7374 17.6676C25.7349 17.5478 25.6907 17.4514 25.6384 17.4526C25.5864 17.4536 25.5463 17.5517 25.549 17.6715Z" fill="#999999"/>
<path d="M25.7077 17.6531C25.7013 17.6312 25.7316 17.489 25.7311 17.4656C25.7274 17.2914 25.8981 17.1404 26.1039 17.1361C26.3101 17.1317 26.4875 17.2751 26.4911 17.4495C26.4915 17.473 26.513 17.6138 26.5077 17.6362L26.5958 17.5159C26.6003 17.4938 26.6024 17.4706 26.6019 17.4472C26.5976 17.2357 26.3785 17.0744 26.1029 17.0802C25.8275 17.0861 25.6155 17.2563 25.6202 17.468C25.6205 17.4886 25.623 17.5089 25.6277 17.5287C25.6277 17.529 25.7077 17.6531 25.7077 17.6531Z" fill="black"/>
<path d="M21.5396 26.9023C21.893 28.172 22.9811 29.3218 24.1875 29.4022C25.0259 29.4582 25.7785 29.0884 26.615 29.2273C27.4974 29.3745 28.3906 29.494 29.4365 29.2251C31.1216 28.7921 31.1907 25.7906 31.0968 24.0425C31.7838 28.4821 30.8321 30.5961 29.6434 30.5624C29.1258 30.5478 28.2215 30.3446 27.7254 30.1608C26.1984 29.5948 24.5959 30.5801 23.66 30.4541C22.8288 30.3421 21.5398 29.8196 21.5398 28.6408V26.9023H21.5396Z" fill="#AB7344"/>
<path d="M25.464 17.9257C25.2909 17.988 25.1137 18.0387 24.9323 18.0741C24.8419 18.0925 24.7502 18.105 24.658 18.115C24.5658 18.124 24.4729 18.1279 24.3801 18.1276C24.2872 18.1258 24.1941 18.1193 24.1018 18.1062C24.0095 18.0921 23.9179 18.0737 23.829 18.0458C23.6509 17.992 23.4816 17.9082 23.3364 17.7949C23.4996 17.8801 23.6697 17.9444 23.8455 17.9856C23.9333 18.0054 24.0216 18.0219 24.1112 18.0312C24.2008 18.0415 24.2908 18.0473 24.3808 18.0477C24.4711 18.0497 24.5615 18.0461 24.6515 18.0397C24.7417 18.0343 24.832 18.0237 24.9219 18.0128C25.103 17.9895 25.2826 17.9559 25.464 17.9257Z" fill="#FBFBFB"/>
<path d="M26.7456 17.8991C26.9209 17.9539 27.1002 17.9972 27.2831 18.0248C27.3739 18.0393 27.4663 18.0479 27.5586 18.0539C27.651 18.059 27.7441 18.059 27.837 18.0547C27.93 18.0489 28.0224 18.0385 28.1142 18.0217C28.2054 18.0037 28.2965 17.9812 28.3842 17.9497C28.5597 17.8885 28.7252 17.7975 28.8655 17.6782C28.7063 17.7702 28.5388 17.8419 28.3652 17.8904C28.2782 17.914 28.1904 17.9342 28.1013 17.9472C28.0125 17.9614 27.9228 17.9708 27.8328 17.9751C27.7428 17.9808 27.6527 17.9811 27.5621 17.9786C27.4716 17.9771 27.3809 17.9703 27.2903 17.9632C27.1092 17.9475 26.9282 17.9215 26.7456 17.8991Z" fill="#FBFBFB"/>
<path d="M27.3719 34.0369C27.0743 33.9165 26.7773 33.887 26.4805 33.764C26.2087 33.6512 26.0196 33.4717 25.7367 33.3445C25.216 33.11 24.6749 33.1802 24.1186 33.0161C23.9055 33.4951 25.3247 33.5858 25.2874 33.9247C24.7861 34.5055 23.1422 33.1056 23.0133 33.4667C22.9252 33.7723 23.6613 33.9649 23.8818 34.1272C23.5723 34.0085 22.9907 33.6539 22.8532 33.9695C22.8133 34.0616 23.7824 34.5403 24.1306 34.6652C24.051 34.6477 23.662 34.4415 23.5918 34.4285C23.6069 34.4322 23.6674 34.492 23.6868 34.474C23.5375 34.379 23.2895 34.3105 23.2148 34.4009C23.1361 34.7387 24.0223 34.8705 24.2564 34.961C24.6629 35.1185 25.2685 35.1314 25.6398 35.1023C26.0708 35.0689 26.2747 35.0206 26.6971 34.9928C27.1043 34.9666 27.4761 35.0213 27.494 34.4819L27.3719 34.0369Z" fill="#FED6AF"/>
<path d="M26.4388 33.6385C26.707 34.134 26.707 34.134 26.7596 34.465C26.767 34.5116 26.8013 35.0575 26.7627 35.209C27.4456 35.0739 28.2321 35.1194 28.9575 35.0828C29.0375 34.589 28.9238 33.9057 28.7646 33.4553C28.3414 33.6495 27.8334 33.5606 27.3836 33.5155C27.1336 33.4904 26.1924 33.2641 26.4387 33.5754L26.4388 33.6385Z" fill="#7B3F04"/>
<path d="M23.8736 36.0561C23.5702 35.6011 23.0215 35.3935 22.4478 35.4069C22.1024 36.0131 21.9312 36.6928 21.8999 37.3841C22.3854 37.1049 23.1108 37.1665 23.524 37.9365C23.534 37.9553 23.5443 37.9729 23.554 37.9921C23.7465 38.3814 23.8538 39.3765 24.2126 40.5871C24.6449 39.6809 24.9503 38.6856 25.1117 37.6632C24.722 37.1037 24.3153 36.5609 23.8736 36.0561Z" fill="#788C4F"/>
<path d="M22.4478 35.406C23.0214 35.3925 23.5703 35.6001 23.8736 36.0552C24.3153 36.56 24.7219 37.1028 25.1117 37.6625C25.1788 37.2383 25.2201 36.8098 25.2362 36.3804C24.414 35.7356 23.6039 35.1466 22.6824 35.0454C22.5972 35.1625 22.5183 35.2823 22.4478 35.406Z" fill="#4E685C"/>
<path d="M25.1909 34.9589C25.1349 34.9448 25.0789 34.9287 25.0229 34.909C24.84 34.8445 24.6404 34.7897 24.4309 34.7447C24.025 34.6574 23.5787 34.6102 23.1279 34.6124C23.101 34.6125 23.074 34.6138 23.0471 34.6143C22.9121 34.7513 22.7919 34.8961 22.6826 35.0459C23.6041 35.1471 24.4142 35.7361 25.2364 36.3809C25.254 35.9055 25.2403 35.4297 25.1909 34.9589Z" fill="#658174"/>
<path d="M21.5127 43.8089C21.5017 43.0478 21.487 42.2446 21.4698 41.3787C21.4629 41.0359 21.4558 40.6829 21.4484 40.3198C21.1102 40.4251 20.7807 40.5436 20.5098 40.7343C20.72 41.7863 21.0804 42.8355 21.5127 43.8089Z" fill="#788C4F"/>
<path d="M21.8375 37.4215C21.8578 37.4081 21.8791 37.3961 21.9003 37.3839C21.9318 36.6928 22.1028 36.013 22.4482 35.4067C21.9579 35.4184 21.4495 35.591 21.0604 35.9153C21.0257 35.946 20.9938 35.9793 20.9601 36.0109C20.2211 37.3991 20.1769 39.0704 20.5096 40.735C20.7804 40.5443 21.11 40.4258 21.4483 40.3205C21.4344 39.6485 21.4201 38.9403 21.4053 38.1869C21.3993 37.8718 21.5764 37.5951 21.8375 37.4215Z" fill="#4E685C"/>
<path d="M21.5092 35.1893C21.2951 35.4494 21.113 35.7242 20.9604 36.0109C20.994 35.9793 21.026 35.9459 21.0607 35.9152C21.4498 35.591 21.9582 35.4184 22.4486 35.4067C22.5191 35.283 22.598 35.1632 22.6832 35.046C22.3127 35.0054 21.9241 35.0434 21.5092 35.1893Z" fill="#788C4F"/>
<path d="M22.2689 34.6815C22.1488 34.7006 22.0305 34.7254 21.9137 34.7531C21.7673 34.8932 21.6328 35.039 21.5088 35.1896C21.9237 35.0437 22.3123 35.0057 22.6828 35.0463C22.7921 34.8965 22.9123 34.7518 23.0472 34.6147C22.7864 34.6193 22.5247 34.641 22.2689 34.6815Z" fill="#92A866"/>
<path d="M20.5098 40.7338C20.1771 39.069 20.2214 37.3977 20.9603 36.0098C20.3302 36.607 19.8888 37.3824 19.6929 38.2241C19.7012 38.3746 19.7133 38.5259 19.73 38.6777C19.8162 39.4586 20.0027 40.2523 20.2089 41.0134C20.2971 40.9056 20.3977 40.8127 20.5098 40.7338Z" fill="#788C4F"/>
<path d="M21.5286 45.495C21.5258 44.954 21.5199 44.3938 21.5117 43.8094C21.0794 42.8359 20.719 41.7867 20.5089 40.7349C20.3969 40.8136 20.2963 40.9065 20.208 41.0143C20.349 41.5343 20.4989 42.0392 20.6335 42.5125C20.655 42.5885 20.677 42.6649 20.6977 42.7392C21.1181 44.2507 20.6952 44.1393 20.7393 44.4282C20.8868 45.3967 21.5545 45.5161 21.5545 45.5161C21.5332 45.4887 21.5545 45.5158 21.5286 45.495Z" fill="#4E685C"/>
<path d="M19.8116 36.5843C19.6882 37.1063 19.66 37.6594 19.6928 38.2249C19.8887 37.3833 20.3301 36.6079 20.9602 36.0106C21.1128 35.724 21.2949 35.4491 21.509 35.189C21.2312 35.2866 20.9419 35.4309 20.6384 35.6334C20.283 35.9002 20.012 36.2231 19.8116 36.5843Z" fill="#4E685C"/>
<path d="M21.9137 34.7524C21.2786 34.903 20.7039 35.1827 20.3062 35.6289C20.0826 35.8796 19.9139 36.1817 19.8223 36.5434C19.8196 36.5539 19.8161 36.5637 19.8136 36.5743C19.8128 36.5775 19.8122 36.5807 19.8115 36.584C20.0118 36.2229 20.2829 35.9 20.6382 35.6333C20.9417 35.4308 21.231 35.2865 21.5087 35.1888C21.6326 35.0382 21.7672 34.8925 21.9137 34.7524Z" fill="#658174"/>
<path d="M24.2129 40.5869C24.2534 40.724 24.2964 40.8631 24.3439 41.0053C24.6056 41.7861 24.9792 42.6331 25.5485 43.4538C25.6293 43.5704 25.7082 43.6864 25.7868 43.8018C25.7954 43.8144 25.8035 43.8267 25.8121 43.8392C25.8577 43.6365 25.9168 43.4336 25.9844 43.2307C26.2099 42.2831 26.5655 41.3212 26.8933 40.3493C26.2974 39.4651 25.7257 38.5434 25.1122 37.6631C24.9506 38.6854 24.6453 39.6806 24.2129 40.5869Z" fill="#4E685C"/>
<path d="M25.2368 36.3809C25.2207 36.8102 25.1794 37.2388 25.1123 37.6629C25.7258 38.5432 26.2975 39.465 26.8934 40.3491C27.1892 39.473 27.4613 38.5885 27.5964 37.6996C27.2855 37.696 26.9793 37.6243 26.6879 37.4625C26.1844 37.1388 25.7085 36.751 25.2368 36.3809Z" fill="#788C4F"/>
<path d="M26.1251 35.6331C25.9422 35.3892 25.706 35.1718 25.4287 35.0036C25.3496 34.9932 25.2703 34.9785 25.1914 34.9585C25.2406 35.4293 25.2544 35.9051 25.2369 36.3805C25.7085 36.7506 26.1844 37.1384 26.688 37.4621C26.9793 37.6239 27.2855 37.6956 27.5964 37.6992C27.6153 37.575 27.6315 37.4506 27.6448 37.3262C27.1162 36.7416 26.6129 36.1536 26.1251 35.6331Z" fill="#92A866"/>
<path d="M27.0207 34.8696C26.9612 34.8788 26.8995 34.8871 26.8411 34.8967C26.6241 34.9322 26.414 34.9682 26.2097 34.9929C25.9433 35.0252 25.6853 35.0374 25.4287 35.0035C25.7061 35.1717 25.9422 35.3891 26.1251 35.633C26.613 36.1535 27.1162 36.7414 27.6447 37.326C27.7279 36.5402 27.6895 35.7515 27.4532 34.9616C27.3105 34.9263 27.1663 34.8957 27.0207 34.8696Z" fill="#658174"/>
<path d="M27.2714 34.832C27.1853 34.8432 27.1037 34.8568 27.0205 34.8699C27.1661 34.8961 27.3103 34.9266 27.4532 34.9619C27.4386 34.9131 27.426 34.8646 27.4098 34.8159C27.3637 34.8213 27.317 34.826 27.2714 34.832Z" fill="#4E685C"/>
<path d="M25.9839 43.2303C25.9162 43.4332 25.8571 43.6361 25.8115 43.8388C25.8591 43.9091 25.9067 43.979 25.9534 44.0484C26.4601 44.7967 26.9364 45.4903 27.5097 45.9919C27.6982 44.7882 28.0788 43.6362 28.5398 42.5047C27.9428 41.8493 27.4083 41.1138 26.8928 40.3491C26.5649 41.3208 26.2094 42.2828 25.9839 43.2303Z" fill="#788C4F"/>
<path d="M27.6444 37.3262C27.6298 37.464 27.6108 37.6016 27.5894 37.7393C27.7108 37.7225 27.8655 37.7196 27.9629 37.6733C27.8757 37.579 27.7302 37.4213 27.6444 37.3262Z" fill="#658174"/>
<path d="M27.9041 37.6108C27.8067 37.6572 27.7107 37.7229 27.5893 37.7397C27.4523 38.6151 27.1844 39.486 26.8931 40.3491C27.4087 41.1137 27.9431 41.8493 28.5401 42.5046C28.9564 41.4829 29.4381 40.4774 29.9045 39.4652C29.1901 38.9422 28.5287 38.287 27.9041 37.6108Z" fill="#4E685C"/>
<path d="M30.4995 36.1838C30.6767 36.2664 30.8544 36.3485 31.0334 36.4284C31.0665 36.2904 31.0954 36.1516 31.1215 36.0125C30.899 35.9624 30.6852 36.0061 30.4995 36.1838Z" fill="#4E685C"/>
<path d="M31.017 35.2124C30.9142 35.132 30.793 35.051 30.6442 34.964C30.2425 34.7291 29.5382 34.6992 28.8829 34.7205C28.8742 34.7208 28.8659 34.7212 28.8571 34.7215C28.4321 34.7362 28.0293 34.7714 27.7466 34.7865C27.6313 34.7926 27.5198 34.8036 27.4097 34.8159C27.4258 34.8646 27.4384 34.9132 27.4531 34.962C28.5103 35.2231 29.4945 35.7147 30.4999 36.1841C30.6856 36.0065 30.8994 35.9628 31.1217 36.0128C31.1608 35.8033 31.1918 35.5935 31.2089 35.3849C31.1526 35.3263 31.0898 35.2694 31.017 35.2124Z" fill="#658174"/>
<path d="M27.9634 37.6741C28.5708 38.3279 29.2128 38.9589 29.9049 39.4656C30.1037 39.0343 30.2999 38.6021 30.4865 38.1664C30.6792 37.6363 30.8876 37.0403 31.0339 36.4292C30.8549 36.3493 30.6774 36.2672 30.5 36.1846C30.4957 36.1887 30.491 36.1922 30.4864 36.1968C29.8172 36.866 28.8878 37.5348 27.9634 37.6741Z" fill="#788C4F"/>
<path d="M27.6446 37.3263C27.7496 37.4425 27.856 37.5583 27.9632 37.6735C28.8876 37.5343 29.817 36.8655 30.4863 36.1962C30.4908 36.1917 30.4955 36.1882 30.4999 36.184C29.4945 35.7146 28.5104 35.223 27.4531 34.9619C27.6894 35.7518 27.7278 36.5406 27.6446 37.3263Z" fill="#92A866"/>
<path d="M32.259 37.8862C32.2046 37.4889 32.1778 37.3206 32.1229 37.1586C32.0823 37.0387 32.0254 36.9207 31.9305 36.7169C31.7726 36.6839 31.6184 36.6483 31.4706 36.6188C31.3236 36.5578 31.1784 36.4938 31.0332 36.4292C30.8868 37.0403 30.6784 37.6363 30.4859 38.1664C30.2991 38.6021 30.1029 39.0343 29.9043 39.4656C30.5519 39.9396 31.2425 40.3054 31.9895 40.4779C32.0956 40.1426 32.1901 39.8058 32.2676 39.4663C32.2837 39.0601 32.2917 38.6908 32.2877 38.3967C32.2844 38.1831 32.2755 38.0074 32.259 37.8862Z" fill="#4E685C"/>
<path d="M31.0332 36.4286C31.1784 36.4932 31.3237 36.5571 31.4706 36.6181C31.6184 36.6477 31.7727 36.6833 31.9304 36.7163C31.9042 36.66 31.8755 36.5983 31.8431 36.527C31.8221 36.4809 31.8026 36.4375 31.7832 36.3947C31.5672 36.2018 31.3404 36.0622 31.1211 36.0127C31.0953 36.1518 31.0665 36.2906 31.0332 36.4286Z" fill="#788C4F"/>
<path d="M31.2088 35.3848C31.1918 35.5933 31.1607 35.8033 31.1216 36.0127C31.3408 36.062 31.5678 36.2018 31.7836 36.3947C31.7054 36.2208 31.6394 36.0719 31.5763 35.9413C31.4672 35.7165 31.3629 35.5444 31.2088 35.3848Z" fill="#92A866"/>
<path d="M28.5405 42.5049C29.1336 43.1557 29.7894 43.7259 30.5491 44.1664C31.0437 42.9322 31.5987 41.7161 31.9902 40.4776C31.2431 40.3051 30.5525 39.9393 29.9049 39.4653C29.4384 40.4776 28.9568 41.4832 28.5405 42.5049Z" fill="#788C4F"/>
<path d="M28.5393 42.5044C28.0784 43.636 27.6979 44.7881 27.5093 45.9916C27.8854 46.3207 28.3029 46.5678 28.7994 46.6907C29.0222 46.7457 29.3095 46.8901 29.6175 47.065C29.8232 46.075 30.1677 45.1148 30.5479 44.1658C29.7882 43.7254 29.1325 43.1552 28.5393 42.5044Z" fill="#4E685C"/>
<path d="M31.7605 44.7166C31.3276 44.5689 30.925 44.3838 30.5485 44.1655C30.1683 45.1146 29.8238 46.0748 29.6182 47.0646C29.6349 47.0741 29.6514 47.0834 29.6681 47.0929C30.6581 47.6601 31.8419 48.5081 31.8419 47.7566C31.8419 47.5571 31.8103 46.9538 31.7862 46.2777C31.7671 45.7493 31.7526 45.1772 31.7605 44.7166Z" fill="#788C4F"/>
<path d="M30.5483 44.1663C30.9248 44.3844 31.3274 44.5695 31.7603 44.7173C31.7673 44.3256 31.7904 44.0143 31.8417 43.8828C31.8639 43.8257 31.8883 43.7154 31.9137 43.5679C32.0147 42.9791 32.1321 41.7569 32.2083 40.5793C32.2096 40.5598 32.2108 40.5406 32.2119 40.5211C32.1374 40.5079 32.0628 40.4946 31.9894 40.4775C31.5981 41.716 31.0431 42.9319 30.5483 44.1663Z" fill="#4E685C"/>
<path d="M31.9893 40.4778C32.0626 40.4947 32.1372 40.5082 32.2117 40.5213C32.2348 40.1572 32.2538 39.7993 32.2672 39.4663C32.1898 39.8056 32.0952 40.1425 31.9893 40.4778Z" fill="#788C4F"/>
<path d="M28.0465 50.3731C28.0097 50.4667 27.9755 50.4267 27.8326 50.4404C26.5567 48.1436 30.8288 47.1649 31.5066 49.238C31.7457 49.9686 31.5996 50.6197 31.0217 50.1037C30.6764 49.7956 30.3633 49.1102 29.9141 48.9831C28.8667 48.6866 28.2138 49.5038 27.7479 50.2367C27.7156 50.2873 27.8648 50.3902 27.8326 50.4404L28.0465 50.3731Z" fill="#EDE3DA"/>
<path d="M21.8834 50.4406C21.5089 50.2611 21.3912 49.7379 21.5813 49.3168C21.7193 49.0107 22.2366 48.7321 22.5171 48.6233C23.3032 48.3179 24.496 48.2907 25.0609 49.0959C25.238 49.348 25.5406 50.2695 24.9786 50.2568C24.8083 50.253 24.1783 49.4505 23.8568 49.3519C23.3672 49.2017 23.0066 49.2162 22.596 49.573C22.3062 49.8249 22.2049 50.2252 21.8834 50.4406Z" fill="#EDE3DA"/>
<path d="M21.9111 50.1653C21.8839 50.2291 21.8588 50.2958 21.8355 50.365C21.8654 50.3212 21.9018 50.2738 21.9459 50.2218L21.8195 50.4114C21.8245 50.3955 21.8303 50.3806 21.8355 50.365C21.4131 50.9844 22.3559 50.8264 23.0485 50.8654C24.0538 50.9219 24.8502 51.1695 24.9813 50.4746C25.0028 50.36 24.9934 50.2508 24.9642 50.1465C24.1644 50.4954 22.8919 50.0862 21.9111 50.1653Z" fill="#946A40"/>
<path d="M21.9466 50.2212C21.9025 50.2732 21.8662 50.3206 21.8363 50.3644C21.8311 50.38 21.8253 50.3949 21.8203 50.4108L21.9466 50.2212Z" fill="#A67C52"/>
<path d="M23.3372 49.1472C22.6258 49.1904 22.173 49.5546 21.9116 50.165C22.8925 50.0858 24.1649 50.4951 24.9648 50.146C24.7931 49.532 23.8486 49.1158 23.3372 49.1472Z" fill="#A67C52"/>
<path d="M28.5739 50.0635C28.4007 50.0058 28.1554 49.9237 27.9682 49.7979C27.7879 50.1127 27.6961 50.4329 27.8247 50.6304C28.0726 50.8651 29.1572 50.7584 29.7211 50.6936C30.5194 50.6019 31.6554 50.7399 31.0968 49.8251C31.0812 49.7993 31.0618 49.7735 31.0428 49.7476C30.3958 50.1297 29.2372 50.1464 28.5739 50.0635Z" fill="#946A40"/>
<path d="M28.8506 48.8742C28.6036 48.9716 28.208 49.3797 27.9688 49.7976C28.1561 49.9234 28.4013 50.0055 28.5745 50.0632C29.2378 50.1461 30.3964 50.1295 31.0433 49.7474C30.6309 49.1832 29.4947 48.6203 28.8506 48.8742Z" fill="#A67C52"/>
<path d="M25.133 50.7291C25.133 50.8534 25.0322 50.9542 24.9078 50.9542H21.9184C21.7943 50.9542 21.6934 50.8534 21.6934 50.7291C21.6934 50.6046 21.7943 50.5039 21.9184 50.5039H24.9078C25.0322 50.5039 25.133 50.6046 25.133 50.7291Z" fill="#291D12"/>
<path d="M31.3236 50.5945C31.3236 50.717 31.1899 50.8162 31.0249 50.8162H28.0456C27.8808 50.8162 27.7471 50.717 27.7471 50.5945C27.7471 50.4722 27.8808 50.373 28.0456 50.373H31.0249C31.1899 50.373 31.3236 50.4722 31.3236 50.5945Z" fill="#291D12"/>
<path d="M6.96848 27.3815C7.01272 26.9985 7.64216 26.4888 8.00881 26.5935C7.80662 26.0145 7.47935 26.0321 7.01507 26.344C6.77919 26.5025 6.66354 26.5672 6.67796 26.822C6.68767 26.9926 6.79833 27.1587 6.88347 27.2888L6.96848 27.3815Z" fill="white"/>
<path d="M7.03618 26.7514C7.17846 26.9719 7.18831 27.2186 7.05823 27.3025C6.92815 27.3863 6.70752 27.2758 6.56524 27.0551C6.42296 26.8348 6.41298 26.5879 6.54306 26.504C6.67313 26.4203 6.89404 26.531 7.03618 26.7514Z" fill="white"/>
<path d="M6.98948 26.7823C7.10333 26.9587 7.11123 27.156 7.00723 27.2231C6.90322 27.2901 6.72669 27.2016 6.6127 27.0252C6.49899 26.849 6.49109 26.6515 6.59509 26.5844C6.6991 26.5174 6.87563 26.6059 6.98948 26.7823Z" fill="#5572BA"/>
<defs>
<linearGradient id="paint0_linear_1150_19895" x1="9.90279" y1="12.4862" x2="9.90279" y2="8.94146" gradientUnits="userSpaceOnUse">
<stop offset="0.3818" stop-color="white"/>
<stop offset="0.4905" stop-color="#FCFAF9"/>
<stop offset="0.6347" stop-color="#F4EBE8"/>
<stop offset="0.7987" stop-color="#E6D3CD"/>
<stop offset="0.9762" stop-color="#D4B2A7"/>
<stop offset="1" stop-color="#D1ADA1"/>
</linearGradient>
<linearGradient id="paint1_linear_1150_19895" x1="26.3872" y1="23.7881" x2="26.3129" y2="20.2809" gradientUnits="userSpaceOnUse">
<stop offset="0.3818" stop-color="white"/>
<stop offset="0.4905" stop-color="#FCFAF9"/>
<stop offset="0.6347" stop-color="#F4EBE8"/>
<stop offset="0.7987" stop-color="#E6D3CD"/>
<stop offset="0.9762" stop-color="#D4B2A7"/>
<stop offset="1" stop-color="#D1ADA1"/>
</linearGradient>
</defs>
</svg>
