<svg width="176" height="166" viewBox="0 0 176 166" fill="none" xmlns="http://www.w3.org/2000/svg">
<path d="M110.099 75.2569V75.2508C110.087 75.039 110.069 74.8242 110.045 74.6125C109.936 73.6353 109.678 72.6701 109.283 71.7687C109.178 71.5175 109.058 71.2754 108.925 71.0364C108.528 70.2982 108.032 69.6267 107.451 69.0638C105.192 66.8493 101.5 66.3259 98.1905 66.0295H98.1874C97.2276 65.9417 96.301 65.8751 95.4495 65.7904C92.7929 65.5243 90.1301 65.3941 87.4675 65.3851C85.6261 65.376 83.7879 65.4244 81.9496 65.5243C81.7359 65.5333 81.5343 65.5454 81.3207 65.5545C81.2365 65.4697 81.1311 65.4154 80.9717 65.4154C78.1586 65.3698 75.3455 65.3276 72.5354 65.4002C71.3139 65.4304 70.0923 65.4819 68.8739 65.5666C65.8532 65.7693 62.4173 65.8992 59.6191 67.1487C56.2614 68.6523 55.2715 71.7292 54.9226 75.0602V75.0632C54.6668 77.5319 54.7662 80.1399 54.5104 82.3454V82.3726C54.5075 82.4332 54.4984 82.4906 54.4924 82.5481C54.4803 82.6359 54.4894 82.7054 54.5135 82.772V82.7811C54.6609 83.235 55.4822 83.1985 55.5545 82.6025C55.5635 82.536 55.5696 82.4725 55.5755 82.4058V82.3786C55.7019 81.3136 55.762 80.2123 55.8103 79.1052C56.0179 79.9674 56.4842 80.7056 57.3417 81.2109C57.6215 81.3833 57.9435 81.5256 58.3135 81.6404C58.3828 81.6646 58.4519 81.6858 58.5241 81.704C58.9423 81.816 59.3725 81.9067 59.8118 81.9823C61.7043 82.3091 63.7412 82.3423 65.5975 82.5693C66.1301 82.6327 66.6627 82.6963 67.1921 82.7569H67.1951C69.3733 83.017 71.5456 83.2742 73.7269 83.5344C82.9997 84.6357 92.3176 86.3601 101.416 83.6221C101.491 83.601 101.566 83.5798 101.641 83.5557C102.045 83.4377 102.451 83.2985 102.854 83.1594C103.095 83.0716 103.338 82.9868 103.585 82.8962C103.967 82.76 104.352 82.6179 104.731 82.4606C104.834 82.4213 104.936 82.3789 105.035 82.3365C105.658 82.0733 106.266 81.7828 106.834 81.441C106.886 81.4139 106.934 81.3836 106.982 81.3532C107.797 80.848 108.519 80.2369 109.058 79.4685L109.061 79.4655C109.449 78.9119 109.744 78.2825 109.906 77.5443C109.997 77.1419 110.057 76.7273 110.087 76.3069C110.111 75.9588 110.114 75.6109 110.099 75.2569Z" fill="#D1FFD5"/>
<path d="M109.142 7.15522C108.962 6.16899 108.61 5.24017 108.002 4.41729C106.705 2.68374 104.939 2.6746 103.034 2.06346C101.013 1.42207 99.6406 0.000142549 97.4171 0.000142549C95.4826 -0.011957 93.6954 0.747464 92.0978 1.79716C90.6837 1.15577 89.1734 0.717098 87.6299 0.928841C86.321 1.11045 85.2681 1.68826 83.9081 1.70036C83.0446 1.70036 82.3105 1.51887 81.4801 1.81828C80.1202 2.30842 79.2477 3.19785 77.7675 3.59417C77.0665 3.78468 76.4376 3.83925 75.8209 4.23557C74.9273 4.82251 74.4068 5.67873 74.1721 6.64977C72.0449 7.52711 70.5557 9.49671 70.0983 11.9564C69.6951 14.1377 70.5767 16.1374 70.3962 18.2764C70.2999 19.5259 69.7162 20.5121 69.5026 21.6982C69.2678 22.9809 69.4484 24.2636 69.5658 25.5494C69.6861 26.802 69.8697 28.1815 70.0923 29.6368C70.7211 33.7604 71.6538 38.4558 72.2345 42.3586C72.3458 43.103 72.4421 43.8199 72.5232 44.4976C72.9084 47.6864 74.6324 51.9068 75.6493 54.1849C76.0975 55.1863 76.4074 55.8125 76.4074 55.8125C76.4074 55.8125 76.8316 50.1641 78.4774 46.7092C78.694 46.2462 78.9348 45.8258 79.1995 45.4596C79.3198 45.2933 79.4461 45.1389 79.5756 44.9997C80.0449 44.4976 80.5443 44.0499 81.0889 43.6203C81.2484 43.4931 81.4109 43.3721 81.5764 43.2542C81.7388 43.1331 81.9073 43.0152 82.0759 42.9032C82.2775 42.7701 82.4791 42.64 82.6866 42.5129C82.7017 42.5008 82.7167 42.4917 82.7347 42.4827C82.9062 42.3767 83.0778 42.2769 83.2522 42.1772C83.3153 42.1377 83.3786 42.1015 83.4448 42.0682C83.5681 41.9987 83.6945 41.9291 83.8208 41.8626C83.9231 41.8081 84.0285 41.7536 84.1337 41.6993C84.8286 41.3393 85.5448 41.0126 86.2669 40.7129C86.4625 40.6284 86.661 40.5466 86.8596 40.4679C87.1093 40.3681 87.356 40.2712 87.6057 40.1745C87.7351 40.1261 87.8644 40.0777 87.9969 40.0293C88.1232 39.9809 88.2496 39.9355 88.376 39.8902C88.8815 39.7055 89.3869 39.5271 89.8863 39.3547C89.8924 39.3516 89.9015 39.3487 89.9075 39.3487C90.4852 39.1489 91.0627 38.9523 91.6375 38.7586C92.7898 38.3654 93.9331 37.9841 95.0703 37.597C95.6389 37.4032 96.2076 37.2097 96.7733 37.013C97.2276 36.8557 97.6789 36.6954 98.1272 36.5349C98.5694 36.3776 99.0088 36.2174 99.448 36.0539C99.4629 36.0509 99.478 36.0449 99.4901 36.0389C99.7097 35.9571 99.9323 35.8724 100.152 35.7907C100.375 35.709 100.594 35.6244 100.814 35.5366C101.067 35.4428 101.316 35.3429 101.566 35.2402C101.807 35.1463 102.047 35.0497 102.285 34.9498C102.833 34.7258 103.377 34.4959 103.916 34.254C104.105 34.1722 104.295 34.0875 104.484 33.9998C104.725 33.8909 104.969 33.779 105.209 33.664C105.48 33.54 105.748 33.4099 106.019 33.2767C106.16 33.2072 106.302 33.1376 106.443 33.0651C106.515 33.0319 106.584 32.9955 106.654 32.9592C106.888 32.8411 107.126 32.7172 107.361 32.5961C107.391 32.581 107.421 32.5628 107.451 32.5478C107.619 32.4569 107.791 32.3662 107.959 32.2755C108.104 32.1968 108.248 32.1152 108.393 32.0334C108.784 31.8156 109.175 31.5888 109.566 31.3559C109.843 31.1833 109.864 30.8839 109.747 30.6599C109.885 30.5208 110.02 30.3816 110.156 30.2393C110.294 30.1001 110.427 29.9549 110.562 29.8128C110.655 29.7129 110.746 29.6163 110.833 29.5164C110.893 29.4497 110.953 29.3833 111.016 29.3137C111.293 28.999 111.561 28.6723 111.814 28.3394C111.871 28.2669 111.928 28.1912 111.982 28.1125C112.009 28.0793 112.033 28.0458 112.054 28.0126C112.081 27.9764 112.105 27.9431 112.126 27.9098C112.247 27.7374 112.361 27.5648 112.47 27.3894C112.503 27.3411 112.533 27.2926 112.56 27.2412C112.596 27.1838 112.629 27.1263 112.662 27.0688C112.704 26.9961 112.743 26.9266 112.782 26.8509C112.864 26.7057 112.939 26.5605 113.005 26.4092C113.038 26.3425 113.068 26.2791 113.098 26.2125C113.128 26.143 113.158 26.0703 113.189 25.9977C113.207 25.9553 113.225 25.9129 113.24 25.8676C113.249 25.8524 113.255 25.8373 113.258 25.8192C113.294 25.7345 113.324 25.6468 113.354 25.559C113.471 25.2262 113.568 24.8965 113.631 24.5425C113.962 22.7666 113.291 20.9725 113.769 19.2057C114.193 17.6445 115.258 16.3619 115.632 14.7795C116.652 10.5437 113.459 6.45937 109.142 7.15522Z" fill="#241C0D"/>
<path d="M109.748 30.6601C109.865 30.8846 109.844 31.1842 109.567 31.3552C103.333 35.0875 96.6947 37.0018 89.8861 39.3546C86.8861 40.392 83.6414 41.611 81.0881 43.6216C80.5775 39.8572 80.0243 35.5901 82.301 33.3872C85.9499 29.8581 83.6946 28.2752 86.8435 22.0405C89.9818 15.8057 101.163 15.1748 106.833 18.4793C109.248 19.8802 111.493 22.4148 113.355 25.5589C112.674 27.548 111.216 29.1736 109.748 30.6601Z" fill="#241C0D"/>
<path d="M175.927 166.966H118.343C115.064 139.625 111.52 110.121 110.542 102.122C110.485 101.653 110.437 101.26 110.397 100.942C110.334 100.437 110.262 99.9258 110.175 99.4085C109.648 96.1955 108.719 92.7769 107.672 89.5668C107.464 88.9255 107.25 88.2962 107.037 87.6759C106.799 86.9951 106.561 86.3297 106.324 85.6822C106.248 85.4704 106.17 85.2587 106.095 85.0529C105.99 84.7686 105.885 84.4903 105.779 84.2179C105.529 83.5645 105.283 82.9352 105.036 82.3361C105.012 82.2727 104.988 82.212 104.964 82.1517C104.862 81.8884 104.759 81.6343 104.66 81.3862C104.314 80.5331 103.977 79.7525 103.673 79.0506C103.628 78.9417 103.562 78.8237 103.481 78.6996C102.885 77.7981 101.396 76.5032 99.78 75.2477C97.1594 73.2085 94.2048 71.2663 94.2048 71.2663C94.2048 71.2663 96.2387 71.3147 98.5555 71.6505C99.3016 71.7564 100.078 71.8956 100.824 72.0679C101.486 72.2252 103.658 72.7608 106.778 73.6502C107.254 73.7864 107.753 73.9285 108.27 74.0799C108.412 74.1222 108.553 74.1647 108.698 74.2069C109.131 74.337 109.582 74.4701 110.046 74.6125C110.112 74.6306 110.175 74.6518 110.241 74.6729C110.512 74.7516 110.789 74.8362 111.069 74.921C111.135 74.9421 111.201 74.9633 111.267 74.9814C111.604 75.0873 111.944 75.1933 112.293 75.3022C113.488 75.6774 114.745 76.0827 116.048 76.5184C116.544 76.6848 117.047 76.8542 117.555 77.0267C118.145 77.2294 118.741 77.435 119.342 77.6499C121.193 78.3003 123.1 79.0053 125.029 79.7556C125.285 79.8553 125.54 79.9551 125.796 80.0581C126.413 80.3032 127.033 80.5512 127.652 80.8084C127.836 80.8809 128.02 80.9565 128.203 81.0353C137.157 84.7475 146.078 89.4701 151.12 94.9339C152.176 96.0654 153.184 97.3604 154.153 98.7732C154.535 99.3055 154.899 99.8745 155.26 100.452C155.495 100.803 155.717 101.166 155.94 101.541C156.163 101.917 156.388 102.301 156.611 102.685C162.481 112.953 170.812 145.57 175.927 166.966Z" fill="#D1FFD5"/>
<path d="M153.377 134.757C152.579 139.347 151.887 144.009 152.101 148.683C152.312 153.282 153.494 157.741 154.376 162.243C154.685 163.816 154.95 165.389 155.173 166.966H153.918C153.434 163.55 152.823 160.134 152.131 156.691C150.482 148.447 151.237 140.684 152.706 132.47C153.527 127.872 154.324 123.261 154.505 118.578C154.664 114.215 154.472 109.831 154.345 105.465C154.282 103.233 154.216 101.006 154.153 98.7732C154.535 99.3056 154.899 99.8745 155.26 100.452C155.344 103.351 155.429 106.237 155.516 109.135C155.633 113.443 155.739 117.766 155.344 122.066C154.95 126.332 154.111 130.546 153.377 134.757Z" fill="#7D7D7D"/>
<path d="M106.249 80.3673C106.249 80.3673 104.695 82.6666 103.068 84.4953C102.823 84.7734 102.568 85.0407 102.323 85.2867C100.408 87.2117 98.0358 89.3291 96.323 89.9388C92.9506 91.1365 90.1952 91.1365 86.8122 91.0082C83.4186 90.8692 72.7801 89.3292 71.1843 88.8693C69.5885 88.3988 62.8757 74.0898 62.8757 74.0898C62.8757 74.0898 70.0248 69.4805 72.1737 66.0049C75.3653 60.8608 75.7057 56.5083 75.7057 51.236C75.7057 45.953 75.3866 43.0335 75.3866 43.0335L78.1312 44.7766L80.493 46.2845L81.4504 46.894L81.9504 47.2149L87.0569 49.0971L99.3017 53.5887C99.3017 53.5887 99.1847 54.8613 99.0251 56.7006C98.8867 58.2406 98.7166 60.155 98.5464 62.0477C98.3656 64.0904 98.1847 66.0795 98.0572 67.4912C98.0251 67.8655 98.0039 68.2398 98.0251 68.6033C98.1529 75.8865 106.249 80.3673 106.249 80.3673Z" fill="#FF8257"/>
<path d="M91.9604 52.1337C90.3026 51.1625 88.6749 50.146 87.0562 49.0961C85.7595 48.252 84.4718 47.3867 83.2051 46.4973C82.8982 46.2734 82.5672 46.0495 82.4198 45.7078C82.3235 45.505 82.3024 45.269 82.164 45.0966C81.8873 44.7547 81.2915 44.8515 80.9937 45.1844C80.747 45.4596 80.5875 45.8469 80.4942 46.2856C80.2806 47.1599 80.3106 48.2431 80.3017 48.9269C80.2685 50.4547 80.44 51.9856 80.768 53.483C80.8312 53.7583 80.8974 54.0338 80.9725 54.306V54.309C81.6736 56.9593 82.859 59.4855 84.3452 61.7817C85.2057 63.1039 86.2588 64.3383 87.4683 65.385C88.8042 66.5467 90.3356 67.4815 92.0144 68.0595C93.7594 68.6585 95.9708 68.9247 98.0258 68.6039C98.0046 68.2409 98.0258 67.8657 98.0558 67.4907C98.089 67.1396 98.1251 66.7494 98.1612 66.3319C98.1702 66.2321 98.1792 66.1322 98.1882 66.0295H98.1913C98.2003 65.9175 98.2124 65.8055 98.2213 65.6876C98.2303 65.5756 98.2394 65.4636 98.2514 65.3517C98.2635 65.2398 98.2724 65.1247 98.2815 65.0068C98.2906 64.8918 98.3025 64.7738 98.3147 64.6558C98.3357 64.4199 98.3568 64.1778 98.3779 63.9327C98.3839 63.9055 98.387 63.8753 98.387 63.8449C98.3959 63.7513 98.405 63.6575 98.411 63.5637C98.4291 63.379 98.4471 63.1945 98.4622 63.0099C98.4743 62.8889 98.4863 62.7679 98.4954 62.6468C98.5134 62.4473 98.5315 62.2475 98.5495 62.0478C98.5645 61.8815 98.5796 61.712 98.5947 61.5426C98.6067 61.3974 98.6218 61.2522 98.6339 61.1069C98.6459 60.9465 98.6609 60.7893 98.676 60.6288C98.7031 60.3203 98.7301 60.0147 98.7573 59.7122C98.7693 59.5549 98.7844 59.3975 98.7994 59.2432C98.8083 59.1282 98.8205 59.0163 98.8295 58.9043C98.8566 58.5685 98.8867 58.2388 98.9167 57.921C98.9257 57.8152 98.9348 57.7094 98.9439 57.6066C98.9619 57.4007 98.98 57.2011 98.998 57.0075C99.0071 56.9045 99.0161 56.8017 99.0252 56.7018C96.8645 54.9262 94.3763 53.5557 91.9604 52.1337Z" fill="#241C0D"/>
<path d="M111.344 20.6609C111.344 20.6609 111.291 21.3133 111.205 22.4362C111.067 24.1046 110.844 26.7889 110.557 29.8901C109.95 36.3709 109.376 43.0335 107.514 49.3538C106.493 52.808 105.354 56.5083 102.897 59.2246C101.705 60.5401 100.195 61.4812 98.5456 62.048C95.9498 62.9676 93.003 62.9784 90.471 62.187C86.1731 60.8609 82.2688 57.2889 80.407 53.1931C80.3645 53.1182 80.3326 53.0434 80.3007 52.9686C79.3432 50.7869 78.6304 47.8887 78.1304 44.7767C77.5453 41.2475 77.2368 37.4404 77.1623 34.1145C76.907 22.3507 83.9603 19.5916 83.9603 19.5916C83.9603 19.5916 92.8647 11.9773 93.1306 11.4425C93.2263 11.2393 95.7795 12.4692 98.9391 14.0947C104.269 16.8218 111.344 20.6609 111.344 20.6609Z" fill="#FF8257"/>
<path d="M112.675 25.8915C112.566 25.3439 112.377 24.8751 112.121 24.4695C112.217 24.4031 112.29 24.3183 112.335 24.1791C112.344 24.1245 112.365 24.0732 112.377 24.0188C112.843 22.2216 112.855 21.0357 111.685 19.5261C110.099 17.4748 109.269 15.6446 106.877 14.383C102.078 11.8386 96.5361 8.43812 91.3221 9.92352C89.5711 10.4167 87.2844 12.2803 85.401 13.8566C85.1091 14.0987 84.8293 14.3346 84.5646 14.5586C84.1916 14.8701 83.8455 15.1545 83.5357 15.3996C81.5228 16.994 80.1087 19.3569 78.8963 21.5926C77.9275 23.3563 75.9538 25.7798 75.5807 27.9278C75.358 29.2286 75.719 30.4267 77.2474 31.3222C77.3889 31.4039 78.0297 31.7125 78.6314 31.9485C79.2151 32.1784 79.7657 32.3418 79.8018 32.1694C80.3855 29.1531 80.7466 25.571 83.2588 23.4623C84.6428 22.2975 85.8222 21.7743 87.0979 21.5805C88.2473 21.4323 89.4718 21.5382 90.9821 21.6986C94.0359 22.0312 97.0446 22.2431 100.11 22.352C102.86 22.4549 108.938 22.1765 111.008 24.7784C111.324 25.1747 111.547 25.6376 111.652 26.1791C111.781 26.8536 112.801 26.5631 112.675 25.8915Z" fill="#241C0D"/>
<path d="M78.7487 33.1707C78.7427 33.1223 78.7217 33.0829 78.7066 33.0405C78.7186 32.6714 78.6915 32.3053 78.6313 31.9484C78.4749 30.9953 78.0717 30.115 77.4971 29.3949C76.9826 28.7504 76.3267 28.2391 75.5806 27.9276C74.5215 27.4888 73.2789 27.4525 71.9912 28.0153C71.1698 28.3754 70.55 28.9412 70.0927 29.6369C68.6185 31.8878 68.8622 35.5061 69.6264 37.9054C70.0807 39.3272 71.0917 40.9005 72.2349 42.3587C73.3662 43.8019 74.6208 45.136 75.5926 46.1042C76.5553 47.0633 77.2353 47.6652 77.2353 47.6652C77.2353 47.6652 77.7348 46.6062 78.2432 45.4476V45.4445C78.3123 45.2902 78.3816 45.136 78.4478 44.9786C78.7666 44.2374 79.0645 43.5083 79.221 43.0332C80.1387 40.2197 79.0405 36.1052 78.7487 33.1707Z" fill="#FF8257"/>
<path d="M89.7235 40.0158C89.8778 39.6153 89.9595 39.1868 89.9571 38.7573C89.9543 38.26 89.795 37.699 89.3502 37.4811C88.8386 37.2305 88.3327 37.2424 87.893 37.641C87.0734 38.3843 86.6472 39.7824 86.9281 40.8548C87.0448 41.3001 87.3982 41.7169 87.8547 41.7553C88.2238 41.7865 88.57 41.5711 88.8433 41.3195C89.2323 40.9618 89.533 40.5101 89.7235 40.0158Z" fill="#241C0D"/>
<path d="M103.687 40.2609C103.841 39.8605 103.923 39.4319 103.921 39.0024C103.918 38.5052 103.758 37.9442 103.314 37.7262C102.802 37.4757 102.296 37.4875 101.856 37.8862C101.037 38.6296 100.611 40.0276 100.892 41.1C101.008 41.5454 101.362 41.962 101.818 42.0006C102.187 42.0317 102.533 41.8163 102.807 41.5648C103.196 41.2067 103.497 40.7551 103.687 40.2609Z" fill="#241C0D"/>
<path d="M96.8593 40.0314C96.4097 39.5108 95.6599 40.2699 96.107 40.7877C97.1305 41.973 97.2563 43.2422 95.846 44.1331C95.2677 44.4985 95.8009 45.4241 96.3829 45.0565C97.2104 44.5338 97.9144 43.8613 97.9996 42.8278C98.0891 41.7439 97.5406 40.8203 96.8593 40.0314Z" fill="#241C0D"/>
<path d="M91.257 31.6942C90.8989 31.5581 90.5258 31.4582 90.1408 31.3977C88.835 31.1921 87.4329 31.4159 86.3016 32.0633C85.5074 32.52 83.4584 34.2628 85.1523 34.8044C86.6145 35.2733 88.4799 35.2128 90.0083 35.3852C90.9591 35.4941 92.0633 35.5911 92.7221 34.7348C93.7812 33.3642 92.5507 32.1814 91.257 31.6942Z" fill="#241C0D"/>
<path d="M107.037 33.2281C106.913 33.1343 106.787 33.0436 106.655 32.9588C105.683 32.3356 104.491 32.0148 103.327 32.0362C102.939 32.0422 102.554 32.0875 102.181 32.1722C100.833 32.4779 99.452 33.4762 100.309 34.9829C100.445 35.2189 100.616 35.4003 100.815 35.5366C101.396 35.948 102.196 35.9844 102.909 36.0025C104.449 36.0449 106.288 36.3626 107.801 36.1024C109.549 35.7997 107.762 33.7908 107.037 33.2281Z" fill="#241C0D"/>
<path d="M99.1109 47.2965C97.6689 50.182 92.7129 49.8404 91.5401 46.8648C91.2908 46.2325 90.2615 46.5081 90.5142 47.1491C91.9966 50.9099 98.1256 51.6461 100.029 47.8363C100.336 47.2229 99.4185 46.6807 99.1109 47.2965Z" fill="#241C0D"/>
<path d="M75.6982 37.3785C75.6206 36.8083 75.335 36.2776 75.2167 35.7102C75.014 34.7381 75.0555 33.8105 75.2437 32.8421C75.3743 32.1698 74.3492 31.8821 74.2178 32.5579C73.9601 33.8844 73.9496 35.2007 74.3201 36.5079C74.545 37.3012 74.6419 37.6308 74.3857 38.4739C74.1719 39.1775 73.9641 39.7756 73.8985 40.5113C73.8375 41.1967 74.9017 41.1925 74.9624 40.5113C75.06 39.4156 75.8461 38.4657 75.6982 37.3785Z" fill="#241C0D"/>
<path d="M121.99 166.966H73.6461L69.7408 142.989L68.6005 135.973L68.414 134.824L68.0921 132.848L67.8664 131.475L59.8123 81.9823L59.4814 79.9553L59.2468 78.5243C59.2468 78.5243 59.2437 78.5214 59.2468 78.5214L58.7473 75.4475L64.4578 73.0029C64.4668 73 64.4698 73 64.4698 73C64.4698 73 64.4698 73 64.4727 73.0029V73.006L64.4758 73.009C64.7616 73.3268 73.9291 83.5011 86.1413 84.3149C91.5028 84.6659 95.1523 84.1758 97.3336 82.763C98.206 82.1971 98.8018 81.4589 99.205 80.6452C100.087 78.851 99.9933 76.6909 99.7797 75.248C99.6534 74.3857 99.4819 73.7806 99.4458 73.6626V73.6596C99.4428 73.6535 99.4428 73.6475 99.4428 73.6444C99.5451 73.7201 101.567 75.2117 103.941 77.8226C104.543 78.4851 105.165 79.2172 105.782 80.016C105.821 80.0613 105.857 80.1098 105.893 80.1552C105.897 80.1581 105.897 80.1581 105.9 80.1612C105.984 80.2732 106.071 80.3881 106.155 80.5031C106.384 80.8057 106.61 81.1203 106.835 81.441C106.865 81.4863 106.898 81.5318 106.929 81.5802C107.037 81.7375 107.145 81.8949 107.25 82.0582C107.539 82.4909 107.819 82.9355 108.09 83.3954V83.3985C108.285 83.7193 108.472 84.0429 108.653 84.3787C108.719 84.5058 108.788 84.6328 108.857 84.76C108.947 84.9323 109.038 85.1079 109.131 85.2863C110.936 88.7565 112.639 92.9044 113.731 97.5784C113.882 98.2229 114.02 98.8733 114.143 99.5359C114.652 102.21 114.95 105.042 114.95 108.001C114.949 117.782 118.418 143.295 121.99 166.966Z" fill="#241C0D"/>
<path d="M76.1739 166.966H46.4872C46.4571 167.026 46.4119 167.075 46.3609 167.108C46.1503 167.259 45.8313 167.205 45.6478 167.011C45.6357 166.999 45.6207 166.984 45.6117 166.966H0C1.87143 153.802 9.19754 108.582 23.4226 93.7086C23.4257 93.7057 23.4257 93.7057 23.4286 93.7027C23.6813 93.4395 23.904 93.1277 24.1357 92.8525C24.1387 92.8495 24.1387 92.8495 24.1417 92.8465C24.6742 92.2172 25.2158 91.6272 25.7695 91.0613C34.5036 82.1093 46.5143 77.4169 54.8212 75.0843C54.8543 75.0722 54.8874 75.0631 54.9175 75.0631C54.9204 75.0631 54.9204 75.0631 54.9235 75.0631V75.0601C60.3813 73.5383 64.2233 73.0301 64.458 73.0027C64.4671 72.9998 64.47 72.9998 64.47 72.9998C64.47 72.9998 64.47 72.9998 64.473 73.0027V73.0058L64.476 73.0088C64.479 73.0361 64.5032 73.1178 64.5452 73.2569C64.6084 73.4808 64.7167 73.8529 64.8551 74.3459C65.3244 75.9919 66.1789 79.0293 67.1899 82.7474V82.7505C67.1899 82.7535 67.1899 82.7535 67.1928 82.7566C69.1394 89.9238 71.6667 99.608 73.1109 106.663C74.3414 112.702 75.1387 119.736 75.6442 126.948C75.6472 126.985 75.6502 127.021 75.6502 127.057C75.6623 127.2 75.6713 127.339 75.6803 127.481C75.6833 127.545 75.6894 127.605 75.6923 127.668C75.7013 127.774 75.7074 127.88 75.7135 127.983C75.7135 127.983 75.7135 127.983 75.7135 127.986C75.7857 129.087 75.8518 130.189 75.912 131.293C76.6462 144.896 76.4355 158.567 76.1739 166.966Z" fill="#D1FFD5"/>
<path d="M72.124 133.157C63.6251 135.625 60.6958 144.446 58.8103 152.216C58.6481 152.884 59.6737 153.17 59.8361 152.5C61.6254 145.127 64.2984 136.543 72.4068 134.188C73.0632 133.997 72.7839 132.965 72.124 133.157Z" fill="#241C0D"/>
<path d="M111.073 73.1523C111.063 73.6763 111.052 74.1147 111.073 74.35C111.158 75.4194 110.722 76.799 109.924 78.6278C109.126 80.4458 108.594 79.8682 106.382 83.344C104.233 86.7127 99.0517 91.5037 98.7219 91.8032C98.7964 91.5359 101.328 82.8307 103.679 78.3069C104.084 77.5261 104.584 76.7134 105.126 75.922C107.722 72.0614 111.339 68.4147 111.339 68.4147C111.339 68.4147 111.137 71.345 111.073 73.1523Z" fill="#FF8257"/>
<path d="M129.747 63.5817C129.734 63.6669 129.721 63.752 129.697 63.837L121.494 97.9354C121.238 98.9973 120.279 99.7268 119.194 99.6927L105.52 99.2629C105.445 99.2605 105.371 99.2582 105.286 99.2448C104.915 99.1904 104.568 99.051 104.276 98.86C103.537 98.3339 103.13 97.3902 103.362 96.4239L111.554 62.3251C111.81 61.2632 112.77 60.5229 113.865 60.5574L127.529 60.9868C128.518 61.0179 129.318 61.6529 129.621 62.5077C129.738 62.8432 129.791 63.2086 129.747 63.5817Z" fill="#241C0D"/>
<path d="M117.798 66.8084C117.969 65.9915 117.541 65.2089 116.841 65.0604C116.141 64.9119 115.435 65.4537 115.263 66.2705C115.092 67.0873 115.52 67.8699 116.22 68.0184C116.92 68.1669 117.626 67.6252 117.798 66.8084Z" fill="#7D7D7D"/>
<path d="M129.747 63.5817L114.49 63.038C114.32 63.0327 114.178 63.1459 114.141 63.3053L105.286 99.2449C104.915 99.1906 104.568 99.0511 104.276 98.8601L113.106 63.0481C113.265 62.4004 113.864 61.9485 114.524 61.9693L129.621 62.5079C129.738 62.8432 129.79 63.2086 129.747 63.5817Z" fill="#7D7D7D"/>
<path d="M127.442 77.7075C127.186 77.5472 126.909 77.4079 126.632 77.2901C126.909 77.4201 126.792 76.927 126.653 76.5217C126.653 76.5186 126.65 76.5125 126.65 76.5096V76.5065C126.575 76.2977 126.494 76.1132 126.461 76.083C125.621 74.7548 122.694 73.9107 120.844 73.8047C119.866 73.7413 118.876 73.8047 117.898 73.944C116.009 74.192 114.095 74.6429 112.293 75.3023C112.073 75.378 111.857 75.4628 111.643 75.5474C111.444 75.6262 111.252 75.7108 111.065 75.7985C111.014 75.8197 110.966 75.8438 110.918 75.865H110.915C110.626 76.0042 110.352 76.1524 110.087 76.3068C109.988 76.3642 109.892 76.4247 109.796 76.4852C109.083 76.933 108.436 77.4504 107.78 78.0342C107.557 78.2309 107.335 78.4365 107.109 78.6483C106.645 79.0779 106.206 79.5348 105.782 80.0158C105.767 80.0309 105.755 80.0461 105.74 80.0611C105.367 80.4877 105.006 80.9294 104.66 81.3863C104.287 81.8764 103.929 82.3787 103.586 82.896C102.966 83.8218 102.391 84.7808 101.856 85.749C101.194 86.9349 100.589 88.1329 100.024 89.2885C99.9934 89.3552 99.9814 89.4187 99.9723 89.4822C99.4909 90.2114 99.0818 90.9799 98.7447 91.7784V91.7815C98.4439 92.4863 98.2031 93.2125 98.0196 93.9568C98.0196 93.9598 98.0196 93.9598 98.0166 93.9658C97.3126 96.7976 97.4661 99.8321 98.5552 102.646C100.017 106.406 103.279 108.566 106.315 106.884C106.992 106.509 107.659 105.943 108.291 105.16C109.083 104.186 109.82 103.16 110.542 102.122C111.149 101.245 111.745 100.356 112.356 99.4782C112.804 98.8339 113.258 98.1985 113.731 97.5782C114.182 96.9823 114.651 96.3983 115.142 95.8357C117.492 93.1492 119.965 91.2189 122.54 88.726C122.868 88.4053 123.401 88.0361 123.972 87.6308C125.101 86.8321 126.373 85.8943 126.494 84.9171C126.515 84.7445 126.515 84.563 126.503 84.3695C126.503 84.3059 126.494 84.2423 126.482 84.1787C126.451 83.8461 126.364 83.5041 126.226 83.2167C126.271 83.2046 126.322 83.1834 126.364 83.1622C126.472 83.141 126.569 83.0987 126.662 83.0562C126.662 83.0562 126.662 83.0562 126.674 83.0562C126.812 82.9898 126.96 82.9262 127.089 82.8505C127.841 82.4268 128.263 81.71 128.203 81.0353C128.203 81.0111 128.199 80.9897 128.197 80.9686C128.163 80.7447 128.088 80.5421 127.962 80.3393C128.058 80.2729 128.151 80.2093 128.239 80.1245C128.302 80.0609 128.356 79.9974 128.398 79.9308C129.066 79.0325 128.386 78.2732 127.442 77.7075Z" fill="#FF8257"/>
<path d="M126.504 84.3704C123.663 83.44 118.142 87.6321 116.578 88.8406C116.035 89.2577 115.408 88.4022 115.961 87.9744C117.961 86.4129 123.025 82.5417 126.365 83.1619C126.323 83.1833 126.27 83.2047 126.227 83.2153C126.365 83.5041 126.45 83.8463 126.482 84.1778C126.493 84.242 126.504 84.3062 126.504 84.3704Z" fill="#241C0D"/>
<path d="M128.238 80.1247C128.153 80.2103 128.057 80.2745 127.961 80.3386C128.089 80.5418 128.163 80.745 128.195 80.9696C126.27 80.2531 123.642 80.991 121.855 81.483C119.44 82.1568 117.217 83.2902 115.174 84.7234C114.61 85.119 113.908 84.317 114.472 83.9212C117.153 82.0391 120.089 80.6701 123.312 80.0392C124.961 79.7184 126.823 79.4296 128.398 79.9323C128.355 79.9963 128.302 80.0606 128.238 80.1247Z" fill="#241C0D"/>
<path d="M127.44 77.7079C123.036 76.3176 116.855 77.7506 113.44 80.082C112.865 80.4669 112.333 79.5366 112.897 79.1516C115.44 77.4298 118.28 76.6171 121.334 76.4032C123.004 76.2855 124.887 76.2107 126.653 76.5207C126.791 76.9271 126.908 77.4191 126.632 77.2908C126.908 77.4083 127.185 77.5474 127.44 77.7079Z" fill="#241C0D"/>
<path d="M93.2094 148.548C90.0332 147.666 86.3478 145.334 84.0791 141.88C78.8001 133.871 75.314 127.247 75.1038 126.843C75.0927 126.833 75.0927 126.833 75.1038 126.833C75.5685 127.018 87.8641 131.975 94.792 138.513C96.3525 139.984 97.6472 141.542 98.4663 143.144C101.089 148.265 97.6362 149.801 93.2094 148.548Z" fill="#7D7D7D"/>
<path d="M106.615 105.577C106.615 105.577 106.51 106.04 106.314 106.884C105.264 111.392 101.591 126.831 97.2372 141.207C96.494 143.655 95.7329 146.075 94.9627 148.402C94.9086 148.562 94.8574 148.72 94.8032 148.88C92.7423 155.055 90.6121 160.561 88.5963 164.273C88.0487 165.283 87.4319 166.179 86.758 166.966H67.8666C64.545 162.951 63.3896 156.428 67.2348 148.169C68.008 146.508 68.8474 144.774 69.741 142.989C71.6153 139.247 73.7185 135.284 75.9117 131.293C76.1795 130.8 76.4533 130.307 76.7271 129.814C76.7933 129.69 76.8625 129.566 76.9317 129.442C77.2024 128.955 77.4762 128.464 77.75 127.974C87.2815 110.932 97.7126 94.4439 98.0165 93.9658C98.0195 93.9598 98.0195 93.9598 98.0195 93.9568C98.0224 93.9537 98.0224 93.9537 98.0224 93.9537L106.615 105.577Z" fill="#FF8257"/>
<path d="M46.2518 163.48C46.0834 159.814 45.7102 156.135 45.0724 152.435C44.242 147.594 43.231 142.808 41.9854 138.055C40.4209 132.08 38.7571 126.129 36.8255 120.26C33.6574 110.624 28.8495 102.053 23.4219 93.7087V93.7058C23.6565 93.4183 23.9002 93.1278 24.135 92.8526C29.5175 101.076 34.3374 109.556 37.5387 119.019C38.1012 120.68 38.6399 122.347 39.1573 124.023C40.0659 126.964 40.9144 129.926 41.7267 132.894C42.1359 134.382 42.533 135.871 42.9242 137.362C43.2793 138.721 43.7425 140.094 44.0284 141.462C44.8498 145.358 45.641 149.261 46.2849 153.191C46.6639 155.518 46.9408 157.838 47.1243 160.152C47.1394 160.298 47.1513 160.443 47.1604 160.585C47.2357 161.577 47.2958 162.57 47.3409 163.559C47.3921 164.697 47.4251 165.831 47.4402 166.966H46.4865C46.4564 167.026 46.4112 167.075 46.3601 167.108C46.3601 167.062 46.3601 167.014 46.3572 166.966C46.3451 166.019 46.3211 165.069 46.2789 164.119C46.2729 163.907 46.2639 163.695 46.2518 163.48Z" fill="#7D7D7D"/>
<path d="M64.8549 74.3465C60.8335 77.4158 57.8654 81.8968 55.5144 86.5166C55.2697 87.0086 54.525 86.7626 54.525 86.2493C54.5144 82.688 54.5038 79.1269 54.4824 75.5657C54.4824 75.3091 54.6314 75.1486 54.8229 75.0845C54.8548 75.0737 54.8867 75.063 54.9187 75.063C55.2059 75.0096 55.5463 75.1807 55.5463 75.5657C55.557 78.4211 55.5676 81.2765 55.5889 84.1426C57.9081 79.9504 60.7911 76.0149 64.5464 73.2558C64.6102 73.4802 64.7166 73.8545 64.8549 74.3465Z" fill="#7D7D7D"/>
<path d="M67.1778 93.6674C67.1459 93.5229 67.099 93.3825 67.0332 93.2491C66.012 91.1777 64.5278 93.7102 65.1214 95.1456C65.3453 95.6868 65.9803 96.103 66.5167 95.8731C66.9819 95.6737 67.1645 95.1083 67.2145 94.6024C67.2452 94.2915 67.2447 93.9706 67.1778 93.6674Z" fill="#FFE4D3"/>
<path d="M72.3525 121.742C72.3206 121.598 72.2737 121.457 72.208 121.324C71.1868 119.252 69.7026 121.785 70.2962 123.22C70.5201 123.762 71.1551 124.178 71.6915 123.948C72.1567 123.748 72.3393 123.183 72.3894 122.677C72.4199 122.366 72.4194 122.045 72.3525 121.742Z" fill="#FFE4D3"/>
<path d="M85.6916 14.5093C85.3291 13.5671 84.8045 12.7618 83.9229 12.2251C83.4131 11.9147 82.8995 11.881 82.3603 11.6711C81.4354 11.311 81.2083 10.7084 80.6393 10.0525C79.3196 8.53118 77.3455 7.24565 75.3943 8.42468C74.8081 8.77888 75.3424 9.70393 75.9312 9.34813C77.0576 8.66747 78.6208 9.33363 79.4279 10.2384C79.8907 10.757 80.012 11.5531 80.5192 12.0446C80.8906 12.4045 81.3388 12.5262 81.8234 12.6502C83.1521 12.9903 84.1133 13.3572 84.6659 14.7936C84.91 15.4286 85.9392 15.1526 85.6916 14.5093Z" fill="#7D7D7D"/>
<path d="M89.9931 10.9543C89.3084 10.9296 89.3094 11.9991 89.9931 12.0238C91.7057 12.0855 93.0556 13.3634 93.1835 15.0892C93.2341 15.7713 94.2985 15.7769 94.2474 15.0892C94.0751 12.7672 92.3165 11.0381 89.9931 10.9543Z" fill="#7D7D7D"/>
<path d="M95.5319 164.17C94.9753 165.117 94.4157 166.037 93.8832 166.966H46.4874C46.4573 167.026 46.4121 167.075 46.3611 167.108C46.1505 167.259 45.8315 167.205 45.6479 167.011C45.6479 166.996 45.651 166.981 45.657 166.966C45.8526 166.016 46.0602 165.066 46.2799 164.119C46.5537 162.936 46.8455 161.756 47.1615 160.585C47.8835 157.886 48.7259 155.227 49.7278 152.64C49.8421 152.341 49.9625 152.038 50.0829 151.739C50.3837 151.076 50.7057 150.426 51.0517 149.79C51.4608 149.497 51.843 149.17 52.198 148.813C52.3093 148.704 52.4176 148.592 52.5199 148.474C52.523 148.468 52.5289 148.465 52.5319 148.462C52.6402 148.344 52.7456 148.22 52.8478 148.096C54.0634 146.928 55.4684 145.936 56.9938 144.91C57.2195 144.759 57.4451 144.608 57.6677 144.46C59.837 143.007 61.4857 141.401 62.8156 139.135C63.9529 137.19 64.8585 135.135 66.2305 133.338C66.7389 132.676 67.2865 132.052 67.8672 131.475C69.91 129.426 72.3772 127.902 75.1061 126.852C75.1121 126.849 75.1211 126.846 75.1272 126.843C75.1333 126.843 75.1393 126.84 75.1453 126.837C75.2596 126.794 75.3619 126.791 75.4521 126.819C75.3528 126.828 75.2837 126.834 75.2837 126.837C75.2927 126.855 75.3108 126.885 75.3349 126.927C75.401 127.036 75.5153 127.221 75.6808 127.481C75.6989 127.511 75.72 127.545 75.741 127.578C76.0238 128.026 76.427 128.655 76.9325 129.442C78.6475 132.101 81.5207 136.533 84.7521 141.54C86.9334 144.931 90.4745 147.219 93.5283 148.087C94.0218 148.229 94.5031 148.335 94.9635 148.402C96.3506 148.607 97.557 148.465 98.3664 147.942C98.8298 147.648 99.1667 147.225 99.3352 146.674C99.3352 146.689 99.3381 146.701 99.3381 146.716C99.3381 146.719 99.3412 146.719 99.3381 146.723C99.9457 152.849 98.6579 158.864 95.5319 164.17Z" fill="#D1FFD5"/>
<path d="M75.7401 127.578C75.728 127.608 75.713 127.642 75.6919 127.669C75.6679 127.708 75.6347 127.745 75.5986 127.772C75.5534 127.817 75.4993 127.85 75.4331 127.875C72.5417 128.97 70.0897 130.655 68.0919 132.848C67.0479 133.995 66.1273 135.284 65.3359 136.697C64.8244 137.61 64.3401 138.5 63.8346 139.356C63.5518 139.834 63.2629 140.3 62.9561 140.754C62.0324 142.127 60.9703 143.383 59.5262 144.46C55.7834 147.24 52.3355 148.986 50.5153 153.572C49.2335 156.816 48.2106 160.174 47.3411 163.559C47.0613 164.642 46.7995 165.729 46.5498 166.812C46.5347 166.869 46.5166 166.921 46.4866 166.966C46.4565 167.026 46.4113 167.075 46.3602 167.108C46.1496 167.259 45.8307 167.205 45.6471 167.011C45.6351 166.999 45.6201 166.984 45.611 166.966C45.5237 166.851 45.4847 166.703 45.5268 166.524C45.7585 165.508 45.9991 164.491 46.2519 163.481C46.3241 163.193 46.3963 162.906 46.4716 162.618C46.6822 161.802 46.8989 160.979 47.1244 160.153C47.8255 157.596 48.6347 155.025 49.7269 152.64C49.8804 152.299 50.0398 151.963 50.2083 151.633C50.7379 150.589 51.4178 149.657 52.197 148.813C52.3022 148.698 52.4106 148.586 52.5189 148.474C52.522 148.468 52.5279 148.465 52.531 148.462C54.0504 146.91 55.8887 145.649 57.6668 144.46C59.8361 143.007 61.4848 141.401 62.8146 139.135C63.952 137.19 64.8576 135.135 66.2295 133.338C66.738 132.676 67.2856 132.053 67.8662 131.475C69.9091 129.426 72.3762 127.902 75.1052 126.852C75.1112 126.849 75.1201 126.846 75.1263 126.843C75.1323 126.843 75.1383 126.84 75.1443 126.837C75.2586 126.794 75.3609 126.791 75.4512 126.819C75.5264 126.843 75.5926 126.888 75.6437 126.949C75.6798 126.991 75.7099 127.036 75.7339 127.091V127.094C75.7972 127.242 75.8033 127.424 75.7401 127.578Z" fill="#7D7D7D"/>
</svg>
