<svg width="19" height="22" viewBox="0 0 19 22" fill="none" xmlns="http://www.w3.org/2000/svg">
<path d="M18.4172 17.9721L18.416 17.9885C18.3514 19.0604 17.6272 19.9762 16.6014 20.2939C14.3613 20.988 11.8629 21.375 9.22882 21.375C6.5952 21.375 4.0977 20.9875 1.85715 20.2941C0.83115 19.9764 0.106875 19.0602 0.042975 17.9879L0.0405001 17.9442C0.014359 17.587 0.000850525 17.2289 0 16.8707C0 16.063 0.0656999 15.2579 0.1872 14.4502C0.30375 13.7212 0.827775 13.0804 1.52663 12.8196C2.28375 12.5285 3.06855 12.2652 3.76988 11.8575L5.45873 10.9258C5.63879 10.9258 5.81372 10.9857 5.95588 11.0963C6.09804 11.2068 6.19934 11.3615 6.24375 11.536L8.11395 15.6425C8.17628 15.7793 8.37945 15.7457 8.3943 15.5961L8.63123 13.2273C8.31218 13.1107 8.0793 12.8196 8.0793 12.4702V12.0904C8.0793 11.8854 8.13758 11.7409 8.2539 11.5942C8.57295 11.6829 8.92238 11.7409 9.2439 11.7409C9.56295 11.7409 9.91238 11.6829 10.2339 11.5942C10.3467 11.7351 10.4083 11.91 10.4087 12.0904V12.4702C10.4087 12.8196 10.1756 13.1107 9.8541 13.2273L10.091 15.5961C10.1061 15.7457 10.3093 15.7793 10.3714 15.6425L12.2418 11.536C12.2868 11.3613 12.3886 11.2066 12.5311 11.0961C12.6737 10.9856 12.8489 10.9257 13.0293 10.9258L14.7179 11.8575C15.4168 12.2652 16.2043 12.5285 16.9612 12.8196C17.66 13.0806 18.1537 13.721 18.2702 14.4778C18.445 15.6427 18.5031 16.8075 18.4172 17.9721ZM5.25847 5.994C5.37502 6.11955 5.45243 6.27637 5.48123 6.44513C5.90423 8.94285 7.72133 10.3367 9.24323 10.3367C10.7692 10.3367 12.5917 8.93587 13.0086 6.45075C13.0349 6.2946 13.1004 6.14587 13.2066 6.02842C13.3454 5.87565 13.4087 5.5035 13.4087 5.09872C13.4087 4.6251 13.5167 3.9564 13.3007 3.76132C13.2194 3.70575 13.1382 3.70575 13.003 3.73342C12.6513 1.449 11.5153 0 9.24323 0C6.97118 0 5.83538 1.449 5.4837 3.73342C5.34848 3.67785 5.24025 3.70575 5.18625 3.76132C4.9698 3.9564 5.07803 4.5972 5.07803 5.09872C5.05778 5.4765 5.11402 5.8383 5.25847 5.994Z" fill="#298B97"/>
</svg>
