<svg width="41" height="54" viewBox="0 0 41 54" fill="none" xmlns="http://www.w3.org/2000/svg">
<path d="M23.69 4.96847C23.846 4.96847 23.9724 4.89826 23.9724 4.81164C23.9724 4.72501 23.846 4.65479 23.69 4.65479C23.5341 4.65479 23.4077 4.72501 23.4077 4.81164C23.4077 4.89826 23.5341 4.96847 23.69 4.96847Z" fill="#EA875C"/>
<path d="M24.2233 4.97912C24.2233 4.89245 24.0971 4.82227 23.941 4.82227C23.785 4.82227 23.6587 4.89245 23.6587 4.97912C23.6587 5.06578 23.785 5.13595 23.941 5.13595C24.0971 5.13595 24.2233 5.06578 24.2233 4.97912Z" fill="#EA875C"/>
<path d="M24.2751 5.57918C23.8461 6.16695 23.5778 6.85971 23.4909 7.57799C23.1839 7.38101 22.7697 7.36692 22.4371 7.64604C22.1141 7.9172 22.0695 8.29521 22.1083 8.6844C21.9483 8.6198 21.7702 8.59534 21.591 8.62298C21.0045 8.71417 20.6154 9.25381 20.5361 9.81287C20.5263 9.88225 20.5197 9.95403 20.5165 10.0274C20.257 10.0043 20.0021 10.0412 19.7918 10.1545C19.472 10.3267 19.2293 10.7162 19.2017 11.0796C19.1828 11.3268 19.3024 11.5395 19.4874 11.6955C19.7051 11.8795 19.9492 11.9951 20.1353 12.1977C20.3851 12.4691 20.4051 12.8572 20.3442 13.2137C20.295 13.5024 20.7366 13.6263 20.7863 13.3357C20.8825 12.7727 20.8201 12.2041 20.3833 11.7973C20.2357 11.6599 20.0648 11.5525 19.9005 11.4371C19.8256 11.3845 19.8141 11.3802 19.7487 11.3151C19.7118 11.2784 19.699 11.2593 19.6958 11.2548C19.6581 11.2024 19.6756 11.234 19.6637 11.1867C19.653 11.1444 19.6549 11.0939 19.6775 11.0166C19.7091 10.9086 19.765 10.7957 19.8341 10.7069C20.0031 10.4897 20.2855 10.4501 20.5423 10.4934C20.5991 10.869 20.7464 11.2367 21.0032 11.4898C21.1882 11.6724 21.4692 11.8234 21.7191 11.6727C21.9326 11.5437 21.9666 11.2579 21.9089 11.036C21.7994 10.6144 21.4121 10.2884 20.9676 10.1287C20.9644 9.84051 21.0343 9.55554 21.2153 9.34287C21.364 9.16821 21.5958 9.03344 21.8318 9.07332C22.0134 9.10389 22.179 9.23628 22.2324 9.41093C22.2425 9.46676 22.2521 9.52151 22.2596 9.57468C22.296 9.83121 22.7192 9.76874 22.7099 9.5138C22.707 9.43591 22.6937 9.36121 22.6724 9.29023C22.5974 8.9295 22.4611 8.50443 22.6049 8.17267C22.7899 7.74547 23.4316 7.83612 23.4662 8.30904C23.4875 8.60066 23.9399 8.60571 23.9247 8.30904C23.8782 7.40945 23.9402 6.47584 24.471 5.74851C24.6452 5.50979 24.4484 5.34338 24.2759 5.5797L24.2751 5.57918ZM21.3674 10.9655C21.4009 11.0102 21.4333 11.0612 21.4533 11.1136C21.4711 11.1601 21.4628 11.2899 21.4947 11.2787C21.4397 11.2981 21.3143 11.1545 21.2882 11.1253C21.2148 11.0418 21.1579 10.9413 21.1149 10.839C21.0952 10.7922 21.0774 10.7428 21.0609 10.692C21.1789 10.7656 21.2858 10.8565 21.3674 10.9655Z" fill="#B72A20"/>
<path d="M14.7803 45.2616L15.4568 51.7911H15.7585L16.2902 44.9756L14.7803 45.2616Z" fill="#E5C595"/>
<path d="M15.6777 48.0322C15.8037 48.0322 15.9276 48.0431 16.0494 48.0622L16.29 44.9756L14.7803 45.2616L15.0753 48.1093C15.2697 48.0587 15.4712 48.0322 15.6777 48.0322Z" fill="#D8B07C"/>
<path d="M35.4683 21.7163H34.8879V52.5931H35.4683V21.7163Z" fill="#7F5C63"/>
<path d="M35.4683 21.7163H34.8879V26.8187H35.4683V21.7163Z" fill="#68474F"/>
<path d="M15.4178 46.1073C17.5296 46.1073 19.2415 45.1232 19.2415 43.9091C19.2415 42.6951 17.5296 41.7109 15.4178 41.7109C13.306 41.7109 11.594 42.6951 11.594 43.9091C11.594 45.1232 13.306 46.1073 15.4178 46.1073Z" fill="#D8B07C"/>
<path d="M12.6298 4.93758C12.5266 4.07787 11.9785 3.3003 11.202 2.91138C11.1281 2.87443 11.0502 2.83935 10.9943 2.77954C10.9127 2.69208 10.8901 2.56633 10.8707 2.4475C10.7418 1.66488 10.5525 0.816341 9.91346 0.349003C9.26456 -0.125247 8.33254 -0.0579937 7.53823 0.206512C7.01081 0.381964 6.44671 0.705753 6.32389 1.23583C4.78099 1.27172 3.39678 2.39407 2.58306 3.71421C2.29117 4.18766 2.05166 4.70073 1.97138 5.24038C1.8911 5.78002 1.9828 6.35076 2.30393 6.77769C2.35843 6.85 2.42116 6.92337 2.4294 7.01455C2.44163 7.15278 2.32679 7.27135 2.23189 7.37928C1.69809 7.98698 1.59707 8.87381 1.83952 9.60938C2.08196 10.3449 2.62401 10.9436 3.24234 11.4131C3.81734 11.8496 4.53164 12.2031 5.27013 12.0798C5.3754 12.0622 5.48438 12.0351 5.5854 12.0614C5.70316 12.0923 5.78638 12.1885 5.86746 12.276C6.53949 13.0014 7.56347 13.3991 8.58667 13.3316L8.80281 12.9267C9.42513 12.8627 10.0028 12.5139 10.447 12.0657C10.8912 11.6175 11.2182 11.0733 11.521 10.5262C11.8046 10.014 12.0755 9.48151 12.1659 8.91289C12.256 8.344 12.1396 7.72567 11.7326 7.33383C12.3884 6.71683 12.7326 5.79703 12.6295 4.93732L12.6298 4.93758Z" fill="#773C3C"/>
<path d="M12.6191 5.62626C12.1273 6.17601 11.3617 6.35492 10.6485 6.3839C9.87279 6.41553 9.07368 6.29883 8.4184 5.88572C7.76312 5.47288 7.27665 4.72429 7.30137 3.91589C7.30589 3.77233 7.31892 3.60778 7.22162 3.50889C7.15729 3.44376 7.06211 3.42701 6.97412 3.40601C6.45468 3.28133 6.02057 2.89958 5.73905 2.43224C5.55058 2.11936 5.42564 1.76978 5.34004 1.40771C4.20386 1.77377 3.21893 2.68187 2.58306 3.71357C2.29117 4.18703 2.05166 4.70009 1.97138 5.23974C1.8911 5.77939 1.9828 6.35014 2.30393 6.77707C2.35843 6.84938 2.42116 6.92275 2.4294 7.01393C2.44163 7.15216 2.32679 7.27073 2.23189 7.37866C1.69809 7.98635 1.59707 8.87318 1.83952 9.60874C2.08196 10.3443 2.624 10.943 3.24234 11.4124C3.81734 11.8489 4.53164 12.2025 5.27013 12.0791C5.3754 12.0616 5.48438 12.0345 5.5854 12.0608C5.70316 12.0916 5.78638 12.1879 5.86746 12.2753C6.53949 13.0008 7.56321 13.3985 8.58667 13.331L8.80281 12.9261C9.42513 12.862 10.0028 12.5133 10.447 12.0651C10.8912 11.6169 11.2182 11.0727 11.521 10.5256C11.8046 10.0133 12.0755 9.48088 12.1659 8.91225C12.256 8.34363 12.1396 7.72503 11.7326 7.33319C12.2148 6.87968 12.5277 6.26214 12.6189 5.62546L12.6191 5.62626Z" fill="#633030"/>
<path d="M8.8562 9.05161C11.0198 8.09593 15.1041 5.63883 15.3787 5.49023C15.912 5.20179 16.6143 6.8016 16.2632 7.0358C15.912 7.27 10.9175 10.8598 10.9175 10.8598L8.8562 9.05161Z" fill="#3F3335"/>
<path d="M13.2467 7.98077C11.9689 8.42073 10.7575 8.61293 9.88845 8.55923C9.51655 8.74665 9.16617 8.91519 8.8562 9.05209L10.9175 10.8603C10.9175 10.8603 15.912 7.27046 16.2632 7.03626C16.3974 6.94668 16.3772 6.65691 16.2717 6.34961C15.6225 6.93312 14.5392 7.53576 13.2467 7.98077Z" fill="#33292B"/>
<path d="M9.43871 22.1627C8.39823 27.6254 9.64261 52.8058 9.64261 52.8058L9.38262 53.014C9.38262 53.014 2.17689 38.5246 2.38504 28.5877C2.47888 24.1068 5.35044 20.5757 5.35044 20.5757L9.43871 22.1627Z" fill="#9B2A38"/>
<path d="M4.99661 42.208C6.98559 48.1944 9.38236 53.0142 9.38236 53.0142L9.64234 52.8061C9.64234 52.8061 9.19069 43.6651 9.0591 35.2033C9.01949 35.2004 8.97989 35.1953 8.94001 35.1953C7.16077 35.1953 5.63647 38.0921 4.99634 42.208H4.99661Z" fill="#842434"/>
<path d="M8.16002 21.8764L5.35067 20.5757C5.35067 20.5757 2.47913 24.1068 2.38529 28.5877C2.19894 37.4807 7.94974 50.018 9.16035 52.5543C7.86467 46.0148 6.80267 27.1453 8.16029 21.8761L8.16002 21.8764Z" fill="#752032"/>
<path d="M4.88253 19.6914C4.88253 19.6914 1.55295 23.6973 1.18876 24.2696C-1.42227 28.3725 0.356428 44.0395 5.66303 52.936L5.92301 52.9881L6.44325 29.5762L7.79583 28.5618L8.52421 22.0845L4.88253 19.6914Z" fill="#9B2A38"/>
<path d="M5.66281 52.9356L5.92279 52.9877L6.39652 31.6704C4.43731 33.5626 2.69369 37.9633 1.80713 43.3906C2.74553 46.856 4.03855 50.2129 5.66253 52.9356H5.66281Z" fill="#842434"/>
<path d="M3.16581 26.1424C3.61959 24.8643 5.1803 23.0625 5.14947 23.3052L9.20665 24.1399L9.38263 22.3187L4.8823 19.6914C4.8823 19.6914 1.55271 23.6973 1.18852 24.2696C-1.42252 28.3725 0.356184 44.0395 5.66279 52.936L5.89327 52.9819C1.51071 43.9085 1.66516 30.3689 3.16553 26.1424H3.16581Z" fill="#842434"/>
<path d="M19.0767 32.3219C15.3601 28.659 11.2803 26.7567 10.5995 27.4372C9.91895 28.1177 11.8651 32.1539 15.5818 35.8169C19.2984 39.4798 23.3782 41.3821 24.059 40.7016C24.7395 40.0211 22.7933 35.9849 19.0767 32.3219Z" fill="#F2A446"/>
<path d="M13.5748 28.1851C12.0677 27.3881 10.9308 27.1064 10.5995 27.4373C10.0695 27.9674 11.1325 30.5317 13.3834 33.37C13.1178 31.4756 13.1946 29.6929 13.5748 28.1851Z" fill="#E57E38"/>
<path d="M19.0767 32.3219C15.3601 28.659 11.2803 26.7567 10.5995 27.4372C10.5158 27.5209 10.4722 27.6563 10.4663 27.8346C11.5568 27.5688 15.2947 29.4483 18.7253 32.8291C21.9844 36.041 23.8817 39.5394 23.8408 40.8111C23.9317 40.789 24.0064 40.7537 24.0587 40.7013C24.7393 40.0208 22.7931 35.9846 19.0765 32.3217L19.0767 32.3219Z" fill="#E57E38"/>
<path d="M21.5858 32.0327C20.4408 30.3891 19.0949 25.209 18.9827 24.3137C18.8706 23.4184 19.9812 21.2164 20.7215 21.918C21.4619 22.6198 22.7581 30.1634 22.8703 31.0587C22.9825 31.954 22.1927 32.9039 21.5858 32.0327Z" fill="#E0BA8D"/>
<path d="M23.1629 31.3345C23.513 30.7215 23.392 30.0503 22.8931 29.8352C22.3938 29.6202 21.7056 29.9426 21.3555 30.5556C21.0054 31.1687 21.1263 31.8399 21.6253 32.0549C22.1246 32.27 22.8128 31.9475 23.1629 31.3345Z" fill="#9B2A38"/>
<path d="M22.6812 32.1428C25.7559 30.8078 30.1174 26.6879 30.2046 26.3638C30.2918 26.0398 22.2973 29.8322 21.9637 30.4093C21.6301 30.9867 22.1602 32.3691 22.6812 32.1428Z" fill="#EA875C"/>
<path d="M24.0637 29.1376C24.9835 29.1376 26.1532 28.9157 27.3691 28.4691C27.8426 28.2949 28.2889 28.0996 28.6986 27.8903C29.5827 27.0934 30.1731 26.4803 30.2045 26.3634C30.2643 26.1411 26.5283 27.8526 24.0637 29.1374V29.1376Z" fill="#FFA77B"/>
<path d="M39.4983 53.8933H30.8582C30.8582 53.8933 33.4724 52.7492 34.7574 52.6032C36.0425 52.457 39.4983 53.8933 39.4983 53.8933Z" fill="#7F5C63"/>
<path d="M20.4689 53.8941H10.6013C10.6013 53.8941 13.8721 51.5157 15.3396 51.2121C16.807 50.9085 20.4689 53.8941 20.4689 53.8941Z" fill="#E5C595"/>
<path d="M23.268 18.5824C23.4198 18.113 23.8978 17.8118 24.1939 17.4072C24.8141 16.5594 24.4374 15.2289 23.4504 14.7807C23.381 14.7493 23.3023 14.7145 23.2781 14.6459C23.2624 14.6013 23.2741 14.5529 23.2818 14.5066C23.3775 13.9473 22.7733 13.3875 22.1775 13.484C22.2427 13.2527 22.303 12.9895 22.1656 12.788C22.0991 12.6904 21.9931 12.6197 21.9354 12.5176C21.8631 12.3895 21.879 12.2348 21.8471 12.0928C21.7503 11.6598 21.2298 11.4237 20.7582 11.4017C20.5195 11.3905 20.254 11.4293 20.1003 11.601C20.0089 11.7034 19.995 11.8608 20.0477 11.9799C19.1305 11.2882 17.7982 11.1018 16.712 11.5351C16.2388 11.7239 15.8036 12.0312 15.5609 12.4562C15.3182 12.8813 15.2972 13.4326 15.5846 13.8325C15.6157 13.8758 15.6611 13.9167 15.7108 13.9463C15.2081 13.9667 14.6688 14.0874 14.5215 14.5151C14.4152 14.8238 14.5837 15.1601 14.8113 15.4044C15.0388 15.6487 15.328 15.8401 15.5367 16.0987C15.3921 16.0767 15.24 16.1846 15.2233 16.321C15.2148 16.3914 15.2438 16.4618 15.2935 16.5147C14.8232 16.3327 14.2535 16.4499 13.7461 16.5754C13.41 16.6586 13.0427 16.7625 12.856 17.0374C12.688 17.2849 12.7178 17.6172 12.8616 17.8777C13.0054 18.1382 13.2468 18.3389 13.4964 18.5157C12.9121 18.3506 12.2848 18.882 12.2709 19.4538C12.2571 20.0256 12.7237 20.5371 13.2862 20.7588C13.1527 20.8388 13.0193 20.9186 12.8858 20.9986C12.9353 21.1012 12.985 21.2041 13.0344 21.3067C12.4879 21.2471 11.9254 21.6167 11.7983 22.1183C11.6712 22.6202 11.9966 23.1869 12.5134 23.3643C12.0655 23.3749 11.8166 23.9172 11.9596 24.3152C12.1027 24.7131 12.4881 24.9837 12.8523 25.2283C12.6508 25.4593 12.6949 25.8168 12.877 26.0614C13.0591 26.3063 13.3481 26.4599 13.6365 26.5862C14.1799 26.8244 14.7573 26.9926 15.3483 27.0897C15.2028 27.0942 15.0837 27.2968 15.1566 27.4371C15.2411 27.6006 15.4506 27.6657 15.6404 27.7019C16.7979 27.9228 18.0505 27.6461 18.9867 26.9724C19.2794 27.2641 19.7263 27.4161 20.1498 27.3566C20.4015 27.3212 20.6554 27.2042 20.7774 26.9948C20.8994 26.7853 20.8391 26.4788 20.6107 26.3735C21.0842 26.055 21.4741 25.6286 21.7376 25.1414C21.8352 24.9609 21.9173 24.7626 21.8947 24.561C21.8724 24.3598 21.7158 24.1594 21.5013 24.1384C21.9208 23.9276 22.3503 23.7085 22.6587 23.3682C22.9668 23.0282 23.1303 22.5346 22.9384 22.126C23.6431 21.7945 24.1958 21.1509 24.2944 20.4175C24.393 19.6843 23.9844 18.891 23.268 18.5821V18.5824Z" fill="#CC3A27"/>
<path d="M23.2682 18.5828C23.3161 18.4347 23.3985 18.3041 23.4952 18.1811C23.139 18.4049 22.7565 18.6181 22.3641 18.5897C21.9404 18.5591 21.5549 18.0981 21.7391 17.6709C21.3545 18.0848 20.6984 18.1558 20.2972 17.8267C19.8961 17.4976 19.8036 16.8128 20.0942 16.3215C19.9793 16.3255 19.8645 16.3295 19.7499 16.3335C19.735 16.1743 19.7201 16.015 19.705 15.8555C19.26 16.2939 18.5805 16.585 18.0666 16.3338C17.5528 16.0826 17.3539 15.2051 17.7569 14.7226C17.4882 14.8847 17.2013 15.0288 16.9023 15.0559C16.6032 15.083 16.2884 14.9727 16.1361 14.7109C15.9668 14.4203 16.0314 14.0303 16.1013 13.6781C16.2066 13.1467 16.3467 12.5602 16.7156 12.1921C16.646 12.2168 16.5694 12.2149 16.5091 12.1774C16.3921 12.1049 16.36 11.9164 16.4426 11.7891C16.2786 11.8343 16.121 11.9058 15.9641 11.9799C15.8036 12.1179 15.6648 12.2755 15.5616 12.4561C15.3189 12.8811 15.2979 13.4324 15.5856 13.8323C15.6167 13.8756 15.6621 13.9165 15.7118 13.9461C15.2092 13.9665 14.6698 14.0872 14.5225 14.5149C14.4162 14.8236 14.5847 15.1599 14.8123 15.4042C15.0398 15.6485 15.3291 15.8399 15.5377 16.0985C15.3931 16.0765 15.2411 16.1844 15.2243 16.3208C15.2158 16.3912 15.2448 16.4616 15.2945 16.5145C14.8242 16.3325 14.2545 16.4497 13.7471 16.5752C13.411 16.6584 13.0437 16.7623 12.8571 17.0372C12.689 17.2847 12.7188 17.617 12.8624 17.8775C13.0062 18.138 13.2476 18.3387 13.4972 18.5155C12.9129 18.3504 12.2855 18.8818 12.2717 19.4536C12.2579 20.0254 12.7244 20.5369 13.2869 20.7586C13.1535 20.8386 13.02 20.9184 12.8866 20.9984C12.936 21.101 12.9857 21.2039 13.0352 21.3065C12.4886 21.2469 11.9261 21.6165 11.799 22.1181C11.672 22.62 11.9973 23.1867 12.5141 23.3641C12.0662 23.3747 11.8174 23.917 11.9604 24.315C12.1034 24.7129 12.4889 24.9835 12.8531 25.2281C12.6516 25.4591 12.6957 25.8166 12.8778 26.0612C13.0599 26.3061 13.3488 26.4597 13.6373 26.586C14.1806 26.8242 14.758 26.9924 15.349 27.0895C15.2036 27.094 15.0845 27.2966 15.1573 27.4369C15.2419 27.6004 15.4513 27.6655 15.6411 27.7017C16.7986 27.9226 18.0512 27.6459 18.9875 26.9722C19.2802 27.2639 19.727 27.4159 20.1505 27.3564C20.4022 27.321 20.6561 27.204 20.7781 26.9946C20.9002 26.7851 20.8398 26.4786 20.6115 26.3733C21.0849 26.0548 21.4749 25.6284 21.7383 25.1412C21.8359 24.9607 21.9178 24.7624 21.8955 24.5608C21.8731 24.3596 21.7168 24.1592 21.502 24.1382C21.9215 23.9274 22.3511 23.7083 22.6595 23.368C22.9676 23.028 23.131 22.5344 22.9391 22.1258C23.6438 21.7943 24.1965 21.1507 24.2951 20.4173C24.3938 19.6841 23.9852 18.8908 23.2687 18.5819L23.2682 18.5828Z" fill="#B72A20"/>
<path d="M15.6041 41.2958C14.1696 40.1439 17.7794 35.848 19.6559 35.6136C21.5324 35.3791 28.0225 35.8267 28.3447 36.1003C28.6669 36.3738 26.4671 39.4044 23.569 40.3768C21.6624 41.0166 15.6041 41.2958 15.6041 41.2958Z" fill="#3A2935"/>
<path d="M21.3228 53.3779C23.6656 48.8964 29.3831 36.7671 28.3448 36.0999C27.3067 35.4327 24.881 37.218 24.3163 38.7553C23.7517 40.2927 21.1882 52.852 21.1882 52.852L21.3228 53.3779Z" fill="#3A2935"/>
<path d="M12.2381 53.9249H9.17385C9.17385 53.9249 9.02392 52.6383 9.5649 52.4942C10.1056 52.3501 12.2381 53.9249 12.2381 53.9249Z" fill="#F4DEBA"/>
<path d="M23.3645 53.9246H20.8572C20.8572 53.9246 21.4556 52.5217 21.8038 52.3646C21.9931 52.2793 22.1534 52.7474 22.2603 53.1927C23.1306 53.5083 23.3645 53.9246 23.3645 53.9246Z" fill="#E5C595"/>
<path d="M4.16455 53.9244H6.82582C6.82582 53.9244 6.43133 52.6705 5.93103 52.6234C5.50569 52.5836 4.16455 53.9244 4.16455 53.9244Z" fill="#F4DEBA"/>
<path d="M29.998 22.9351H40.3579L38.878 13.0977L30.7815 13.2715L29.998 22.9351Z" fill="#F2A446"/>
<path d="M40.0929 22.732C37.5703 23.2509 34.7708 20.0011 33.8396 15.4734C33.6809 14.7014 33.5881 13.943 33.5536 13.2119L30.7817 13.2715L29.9983 22.9348H40.3582L40.3191 22.6746C40.2449 22.6967 40.1697 22.716 40.0931 22.7317L40.0929 22.732Z" fill="#E87D34"/>
<path opacity="0.43" d="M30.0237 22.6182C30.0667 22.6262 30.1103 22.6312 30.1539 22.6312C31.447 22.6312 32.4952 19.0411 32.4952 14.6128C32.4952 14.1431 32.4827 13.6837 32.4601 13.2363L30.7813 13.2725L30.0237 22.6182Z" fill="#F2A446"/>
<path d="M13.8051 41.1259C12.2443 35.9753 17.1607 32.3855 17.5509 30.2003C17.9412 28.0152 17.0828 26.2984 17.2388 24.6595C17.3949 23.0206 18.4875 21.5381 18.9556 21.5381C19.4237 21.5381 21.1408 22.2404 21.765 23.0209C22.3891 23.8014 23.2478 29.4983 23.2478 29.4983L21.9213 29.6543C21.9213 29.6543 20.0485 34.1025 20.2824 35.117C20.5163 36.1314 13.8051 41.1259 13.8051 41.1259Z" fill="#E5C595"/>
<path d="M22.9301 29.2969C21.0767 29.2969 20.5815 28.4702 19.3719 25.7778C18.8352 24.5832 18.0829 23.3829 18.0637 22.3525C17.6796 22.9374 17.3231 23.7753 17.2388 24.6592C17.0828 26.2981 17.9412 28.0148 17.5509 30.2C17.1607 32.3852 12.2443 35.975 13.8051 41.1256C13.8051 41.1256 20.5163 36.131 20.2824 35.1166C20.0485 34.1022 21.9213 29.654 21.9213 29.654L23.2478 29.4979C23.2478 29.4979 23.2369 29.4251 23.2175 29.3007C23.1226 29.2988 23.0266 29.2969 22.9301 29.2969Z" fill="#C9A273"/>
<path d="M20.735 31.5231C19.589 31.1932 18.0963 32.8844 17.4011 35.3006C17.0598 36.4867 16.9745 37.6266 17.1114 38.519C18.767 37.1391 20.4 35.6265 20.2825 35.1172C20.1565 34.5709 20.6411 33.0298 21.1156 31.723C21.0005 31.6307 20.8737 31.5627 20.7352 31.5228L20.735 31.5231Z" fill="#E0BA8D"/>
<path d="M14.0908 41.2824C12.478 40.1898 15.558 35.7447 17.4311 35.4327C19.3039 35.1206 25.9527 35.2995 26.3169 35.5597C26.6811 35.82 24.8601 38.9414 22.0507 40.034C20.2024 40.7528 14.0908 41.2826 14.0908 41.2826V41.2824Z" fill="#44323E"/>
<path d="M22.7931 37.1799C19.6993 37.4218 17.1329 36.8689 17.0606 35.9448C17.0484 35.7896 17.109 35.6338 17.2305 35.481C15.3486 36.052 12.5348 40.2277 14.091 41.282C14.091 41.282 20.2028 40.7522 22.0509 40.0334C23.9035 39.313 25.3257 37.7105 25.9754 36.6278C25.0817 36.8886 23.9856 37.0866 22.7928 37.1796L22.7931 37.1799Z" fill="#382833"/>
<path d="M24.2622 40.5016C19.7361 39.9553 12.7904 34.7266 10.6834 27.3911C4.12814 31.137 4.78875 40.7052 10.1371 43.9354C18.0191 48.6957 24.2622 40.5016 24.2622 40.5016Z" fill="#A38A43"/>
<path d="M10.7017 27.4492C7.65495 29.3704 6.11417 33.023 7.17538 36.4672C8.45697 40.6272 13.0466 42.9059 17.4263 41.5566C18.8054 41.1318 19.9987 40.3973 20.9472 39.4613C16.8879 37.5188 12.3523 33.1176 10.7017 27.4492Z" fill="#B79644"/>
<path d="M24.0092 41.0672C24.2331 40.8126 24.3516 40.6573 24.3516 40.6573C19.8252 40.111 12.88 34.8823 10.7728 27.5469C10.6627 27.6099 10.555 27.6747 10.449 27.7409C12.7346 34.902 19.3154 40.0749 24.0092 41.0672Z" fill="#D8B464"/>
<path d="M10.1484 28.8335C9.81367 30.1502 9.82191 31.5564 10.2449 32.9297C11.2287 36.1232 14.1622 38.2055 17.4532 38.3916C14.4432 36.2314 11.5687 32.8888 10.1481 28.8335H10.1484Z" fill="#D8B464"/>
<path d="M16.4269 45.3294C15.2367 44.8113 13.8467 44.3405 12.3381 43.9678C11.3106 43.7139 10.3108 43.5268 9.36841 43.4023C9.61271 43.5948 9.86872 43.7734 10.137 43.9356C12.4061 45.3063 14.5392 45.6016 16.4269 45.3294Z" fill="#B79644"/>
<path d="M21.3961 53.1204C23.165 48.5421 27.462 36.1837 26.3173 35.5596C25.1726 34.9354 22.9531 36.8209 22.5889 38.3817C22.2248 39.9424 21.188 52.6001 21.188 52.6001L21.3961 53.1204Z" fill="#44323E"/>
<path d="M23.753 37.2861C23.5813 37.1893 23.3918 37.1497 23.1929 37.1553C22.9016 37.553 22.4834 37.8611 22.3893 38.2644C22.0251 39.8251 21.188 52.5995 21.188 52.5995L21.3055 52.8935C22.7886 46.8968 24.735 37.8395 23.753 37.2861Z" fill="#382833"/>
<path d="M20.2303 32.8016C19.0524 31.0349 17.6031 25.4659 17.4731 24.5036C17.3431 23.541 17.9152 22.3054 18.6696 23.0598C19.4241 23.8142 21.8445 31.1032 21.9745 32.0658C22.1045 33.0284 20.8548 33.7381 20.2303 32.8019V32.8016Z" fill="#E5C595"/>
<path d="M21.9412 31.8658C21.5653 32.0525 21.0913 31.9995 20.7763 31.5272C19.5984 29.7602 18.149 24.1914 18.019 23.2291C17.9885 23.0018 18.0249 22.6961 18.1078 22.3721C17.699 22.9976 17.4004 23.9681 17.4727 24.5038C17.6027 25.4664 19.0523 31.0351 20.2303 32.8018C20.8544 33.7384 22.1044 33.0283 21.9744 32.0657C21.968 32.0174 21.9563 31.9498 21.9412 31.8658Z" fill="#D3AF7F"/>
<path d="M22.0872 32.142C22.1726 31.3839 21.7656 30.7695 21.1783 30.7695C20.5911 30.7695 20.0456 31.3841 19.9603 32.142C19.8749 32.9002 20.2819 33.5145 20.8692 33.5145C21.4564 33.5145 22.0019 32.8999 22.0872 32.142Z" fill="#9B2A38"/>
<path d="M21.0355 33.0648C24.2959 32.2864 29.3091 28.9901 29.4513 28.686C29.5935 28.3818 21.3228 30.6656 20.8935 31.1758C20.4642 31.6859 20.4831 33.1967 21.0355 33.0648Z" fill="#FFA77B"/>
<path d="M25.5073 30.5733C23.6015 31.1404 21.8573 31.3956 20.8017 31.3126C20.4708 31.9121 20.5258 33.1865 21.0354 33.0648C23.4212 32.4951 26.7434 30.5784 28.411 29.4712C27.6026 29.862 26.606 30.2464 25.5075 30.5731L25.5073 30.5733Z" fill="#EA875C"/>
<path d="M3.42554 21.148C5.6107 23.0989 9.3954 23.0989 9.3954 23.0989C9.3954 23.0989 10.0587 17.5581 10.1368 15.3341C10.215 13.1099 8.38097 9.28613 8.38097 9.28613C8.38097 9.28613 6.50817 11.198 6.27397 12.0176C6.03977 12.8369 6.03072 16.1904 5.68859 17.5584C5.29835 19.1191 3.42554 21.148 3.42554 21.148Z" fill="#33292B"/>
<path d="M5.65308 22.4196C7.52402 23.0981 9.39576 23.0991 9.39576 23.0991C9.39576 23.0991 9.80515 19.6786 10.0186 17.1338C9.86258 17.1548 9.70095 17.1917 9.534 17.2465C7.79278 17.8191 6.12148 20.0795 5.65308 22.4196Z" fill="#3A2F32"/>
<path d="M8.34219 16.8949C7.6986 14.8033 6.70332 11.7443 6.89845 11.2762C7.09357 10.808 8.18615 9.48124 8.38128 9.28612C8.5764 9.09099 10.4883 8.42773 10.4883 8.42773C10.4883 8.42773 11.9254 12.9586 12.0099 13.5783C12.2441 15.2951 8.49824 17.4023 8.34219 16.8949Z" fill="#3F3335"/>
<path d="M8.82973 16.0367C8.22921 14.0847 7.32246 11.2905 7.36286 10.5459C7.14913 10.8381 6.9673 11.1111 6.89845 11.2764C6.70332 11.7446 7.6986 14.8038 8.34219 16.8951C8.48122 17.3468 11.4626 15.7265 11.9509 14.1541C10.9508 15.3934 8.94325 16.4052 8.83 16.0367H8.82973Z" fill="#33292B"/>
<path d="M17.2449 6.30769C17.2483 5.63965 16.5904 5.09814 15.7751 5.09814C14.9598 5.09814 14.296 5.63965 14.2923 6.30769C14.2885 6.97574 14.9467 7.51725 15.7621 7.51725C16.5774 7.51725 17.2412 6.97574 17.2449 6.30769Z" fill="#EFCEAB"/>
<path d="M15.9901 6.94506C18.107 7.06256 23.7772 4.42735 23.8721 4.29177C24.1451 3.90153 16.2243 4.95503 15.4829 5.50132C14.7415 6.04761 14.5854 6.86691 15.9901 6.94506Z" fill="#FFA77B"/>
<path d="M16.3202 5.9702C15.8223 5.90986 15.5081 5.78092 15.3382 5.61796C14.7276 6.15708 14.6821 6.87218 15.99 6.94502C18.1068 7.06251 23.7771 4.4273 23.872 4.29173C23.8795 4.28109 23.0798 4.65617 23.0753 4.6474C21.282 5.29843 18.0694 6.1818 16.3202 5.9702Z" fill="#EA875C"/>
<path d="M8.08201 12.6157C8.39649 14.2232 9.21898 19.4368 9.25487 19.747C9.32452 20.3491 7.76567 20.3385 7.67874 19.9254C7.59182 19.5123 6.00106 14.4367 5.92583 13.6107C5.72433 11.3923 7.65428 10.4295 8.08201 12.6157Z" fill="#3F3335"/>
<path d="M7.32921 16.5989C6.85044 14.1546 6.98654 12.0021 7.61976 11.61C6.90785 10.9148 5.76849 11.8809 5.92587 13.6109C6.00083 14.4366 7.40443 19.5813 7.49162 19.9944C7.54107 20.2297 8.12884 20.3118 8.61266 20.2278C8.11741 19.4705 7.63386 18.1538 7.32921 16.5989Z" fill="#33292B"/>
<path d="M10.0654 19.6129C10.0692 18.9448 9.41095 18.4033 8.59564 18.4033C7.78032 18.4033 7.11653 18.9448 7.11281 19.6129C7.10909 20.2809 7.76729 20.8224 8.58261 20.8224C9.39793 20.8224 10.0617 20.2809 10.0654 19.6129Z" fill="#EFCEAB"/>
<path d="M8.62701 20.6083C10.5453 20.5644 15.0847 17.5581 15.1421 17.418C15.3075 17.0155 8.677 18.4832 8.1246 19.0739C7.57192 19.6646 7.35419 20.6372 8.62701 20.6083Z" fill="#FFA77B"/>
<path d="M11.4854 18.8092C10.1232 19.1069 8.87805 19.2247 8.0436 19.1667C7.55419 19.7609 7.4186 20.6357 8.62709 20.6083C10.2529 20.5711 13.7606 18.4064 14.8277 17.6621C14.0996 18.0742 12.8884 18.5024 11.4854 18.8092Z" fill="#EA875C"/>
<path d="M10.4885 8.42773C10.4885 8.42773 8.57657 9.09099 8.38145 9.28612C8.18633 9.48124 7.09374 10.8077 6.89862 11.2761C6.88453 11.3102 6.87736 11.3594 6.87497 11.4194C6.34569 11.5901 5.8669 12.3496 5.91608 13.447C6.82816 13.4034 7.89843 13.0687 8.92562 12.4474C9.88129 11.8692 10.6344 11.1427 11.1068 10.4101C10.779 9.34486 10.4885 8.42773 10.4885 8.42773Z" fill="#33292B"/>
<path d="M7.1326 10.6909L7.62677 9.78046L8.71937 9.71533L10.1565 10.9541L9.49959 11.0028L9.47354 11.536C8.61064 11.4393 7.82057 11.179 7.13232 10.6907L7.1326 10.6909Z" fill="#E0BA8D"/>
<path d="M7.38087 10.2664C7.56297 9.06991 7.35376 6.3201 7.35376 6.3201L9.09658 6.16406L9.30472 9.64969L9.43472 10.9504C8.70048 10.8611 8.01196 10.6442 7.38087 10.2664Z" fill="#DD704A"/>
<path d="M10.1825 10.0662C8.87538 9.83203 7.36756 8.67779 7.3019 7.64076C7.17005 5.56273 7.53902 3.48469 9.14706 3.53812C10.7548 3.59129 11.1913 5.37611 11.203 6.76165C11.2166 8.38856 10.1828 10.0665 10.1828 10.0665L10.1825 10.0662Z" fill="#FFA77B"/>
<path d="M9.34819 3.32945C9.26844 3.23295 9.17353 3.14603 9.05975 3.09392C8.84469 2.99503 8.59055 3.03172 8.36752 3.1112C7.57427 3.39432 7.04685 4.15939 6.75098 4.94786L6.61035 8.58208C7.52722 8.97233 7.21884 7.79601 7.53146 7.31857C7.74067 6.99877 8.05729 6.76828 8.3529 6.52611C8.83433 6.13187 9.28731 5.67279 9.52443 5.09752C9.76155 4.52225 9.74374 3.80955 9.34792 3.32945H9.34819Z" fill="#773C3C"/>
<path d="M7.32017 3.90723C7.07799 4.21825 6.5535 4.54655 6.41553 4.9142V8.93311C7.33239 9.32336 7.37094 7.83042 7.68357 7.35272C7.89278 7.03292 8.05759 6.76787 8.3532 6.52596C8.83463 6.13172 9.28762 5.67264 9.52475 5.09737C9.64517 4.80522 9.6994 4.4777 9.67228 4.16295C9.54681 5.06706 7.38477 4.9376 7.32017 3.90723Z" fill="#633030"/>
<path d="M22.5257 53.9247H20.428C20.428 53.9247 21.0562 52.5307 21.3616 52.3744C21.5277 52.2893 21.6192 52.7548 21.6681 53.1974C22.3675 53.5111 22.5257 53.9247 22.5257 53.9247Z" fill="#F4DEBA"/>
<path d="M21.7647 23.0209C21.1403 22.2404 19.4235 21.5381 18.9554 21.5381C18.5593 21.5381 17.7169 22.5988 17.3721 23.9173C17.794 24.0098 18.2533 24.0611 18.7345 24.0611C20.0325 24.0611 21.174 23.6908 21.8362 23.1307C21.8123 23.0882 21.7884 23.0499 21.765 23.0204L21.7647 23.0209Z" fill="#C9A273"/>
<path d="M20.9977 23.307C21.2925 23.2102 21.2569 22.812 21.1096 22.4475C20.3429 21.927 19.3041 21.5381 18.9555 21.5381C18.7817 21.5381 18.522 21.7428 18.2559 22.0836C19.2142 22.8763 20.4564 23.4848 20.9977 23.307Z" fill="#44323E"/>
<path d="M18.7995 21.7725C18.5135 20.42 18.4353 16.9341 18.4353 16.9341L20.126 18.1827L21.0181 22.6041C20.999 23.5193 19.8487 22.7359 18.7992 21.7723L18.7995 21.7725Z" fill="#DD704A"/>
<path d="M21.6647 21.6046C19.5776 20.9204 18.4614 19.752 18.3771 18.7145C18.1509 15.9301 19.3471 14.4856 20.9921 14.7267C23.2945 15.064 22.4478 20.6407 21.6647 21.6049V21.6046Z" fill="#FFA77B"/>
<path d="M20.8816 13.8299C20.7295 13.4604 20.3741 13.3437 20.0434 13.3076C19.4373 13.2411 18.7131 13.4152 18.2708 14.1013C17.9802 14.5519 17.8675 15.133 17.7646 15.6942L18.0148 19.5411C18.0448 18.9228 18.2325 18.2587 18.589 17.8637C18.925 17.4913 19.3496 17.4107 19.7246 17.1507C20.4265 16.6643 20.8606 15.5999 20.9496 14.6317C20.9757 14.3483 20.9751 14.058 20.8813 13.8302L20.8816 13.8299Z" fill="#CC3A27"/>
<path d="M17.5811 15.5308C17.6922 17.159 17.7714 19.2889 18.0601 19.6789C18.2603 19.1092 18.3453 18.2808 18.7018 17.8847C19.0378 17.5115 19.3489 17.4102 19.724 17.1502C19.8901 17.0351 20.0411 16.8857 20.1772 16.7127C19.7878 17.101 17.8126 16.1972 17.5811 15.5308Z" fill="#B72A20"/>
<path d="M18.6305 18.0528C18.3107 17.6242 17.8128 17.4108 17.5182 17.5758C17.2237 17.7409 17.2442 18.2221 17.564 18.6503C17.8838 19.0786 18.3817 19.2923 18.6762 19.1273C18.9708 18.9622 18.9503 18.481 18.6305 18.0528Z" fill="#FFA77B"/>
<path d="M18.4461 18.2496C18.2505 17.9875 17.9458 17.857 17.7656 17.958C17.5854 18.059 17.5979 18.3533 17.7935 18.6154C17.9892 18.8775 18.2938 19.0081 18.474 18.907C18.6543 18.806 18.6418 18.5117 18.4461 18.2496Z" fill="#CC4F46"/>
<path d="M18.6402 18.4765C18.5067 18.4119 18.3052 18.4704 18.1899 18.6065C18.0745 18.7429 18.0891 18.9058 18.2226 18.9702C18.356 19.0348 18.5575 18.9766 18.6729 18.8402C18.7883 18.7038 18.7736 18.5408 18.6402 18.4765Z" fill="#FFA77B"/>
<path d="M6.70326 29.8882L8.08187 28.2754L6.85929 28.7175L5.03833 28.1973L6.70326 29.8882Z" fill="#752032"/>
<path d="M40.6214 22.4355H29.7349L29.5007 23.1382H40.8553L40.6214 22.4355Z" fill="#F4D9B5"/>
<path d="M37.8099 22.4355H30.9266L30.7788 23.1382H37.9579L37.8099 22.4355Z" fill="#E2C19A"/>
<path d="M22.4526 4.7155C23.0877 4.83699 23.6672 4.78435 23.9517 4.92658C24.1744 5.03796 24.1141 3.92889 23.449 3.97089C22.7841 4.01289 21.9114 4.36619 21.9114 4.36619L22.4526 4.7155Z" fill="#FFA77B"/>
<path d="M22.5262 4.83156C23.1741 5.11228 23.9713 6.1485 24.1037 6.06264C24.2292 5.98102 23.3727 4.6928 23.1581 4.62342C22.9354 4.55138 22.2652 4.71831 22.5262 4.83156Z" fill="#FFA77B"/>
<path d="M23.3286 4.66518C24.2303 4.87306 24.5557 5.75723 24.6578 5.74793C24.7599 5.73862 24.5969 4.96584 24.1354 4.67475C23.6739 4.38393 23.3289 4.66518 23.3289 4.66518H23.3286Z" fill="#FFA77B"/>
<path d="M23.4436 4.47859C24.1236 4.42489 24.3259 5.10755 24.4248 5.06661C24.5221 5.02647 24.4112 4.44536 24.0723 4.3446C23.765 4.25316 23.4436 4.47832 23.4436 4.47832V4.47859Z" fill="#FFA77B"/>
<path d="M23.2551 4.1651C23.9351 4.1114 24.1374 4.79406 24.2363 4.75312C24.3339 4.71298 24.2228 4.13186 23.8838 4.03111C23.5768 3.93966 23.2551 4.1651 23.2551 4.1651Z" fill="#FFA77B"/>
<path d="M14.1337 17.4887C14.7499 17.4616 15.3967 17.2107 15.5684 17.3688C15.7402 17.5267 15.5961 18.4186 14.9738 18.2934C14.3514 18.1685 13.5752 17.7344 13.5752 17.7344L14.1337 17.4887Z" fill="#FFA77B"/>
<path d="M14.2192 17.3927C14.8691 17.2231 15.7629 16.3887 15.8761 16.4836C15.9838 16.574 14.9997 17.629 14.7875 17.6636C14.5674 17.6998 13.9573 17.4613 14.2192 17.3927Z" fill="#FFA77B"/>
<path d="M14.6655 17.2686C15.7124 17.452 16.5671 16.9544 16.6699 17.0097C16.7728 17.065 16.1462 17.5783 15.4856 17.5831C14.825 17.5879 14.6655 17.2686 14.6655 17.2686Z" fill="#FFA77B"/>
<path d="M14.5171 17.5713C15.5573 17.9448 16.6374 17.5144 16.7522 17.5942C16.8655 17.6728 16.0446 18.0692 15.3858 17.982C14.7882 17.903 14.5171 17.5713 14.5171 17.5713Z" fill="#FFA77B"/>
<path d="M14.3142 17.9316C15.4546 18.299 16.3024 17.9962 16.3686 18.052C16.4324 18.106 15.8614 18.3905 15.2829 18.3357C14.6095 18.2719 14.3142 17.9316 14.3142 17.9316Z" fill="#FFA77B"/>
<path d="M29.1235 26.8179C29.7171 26.6499 30.2889 26.2573 30.4923 26.3716C30.6956 26.4859 30.7602 27.3868 30.126 27.4081C29.4917 27.4294 28.6365 27.1851 28.6365 27.1851L29.1238 26.8177L29.1235 26.8179Z" fill="#FFA77B"/>
<path d="M29.185 26.705C29.7787 26.3905 30.4571 25.3732 30.5889 25.4396C30.7144 25.5029 29.999 26.7555 29.8005 26.8382C29.5944 26.9241 28.9458 26.8315 29.185 26.705Z" fill="#FFA77B"/>
<path d="M29.5908 26.482C30.652 26.42 31.3695 25.7395 31.4822 25.7695C31.5949 25.7996 31.1029 26.4434 30.4612 26.5995C29.8194 26.7558 29.5908 26.482 29.5908 26.482Z" fill="#FFA77B"/>
<path d="M29.5159 26.8102C30.614 26.9346 31.5665 26.2679 31.6965 26.3192C31.8246 26.3697 31.117 26.944 30.4556 27.0104C29.8559 27.0708 29.5159 26.8102 29.5159 26.8102Z" fill="#FFA77B"/>
<path d="M29.4011 27.2077C30.5955 27.3034 31.351 26.814 31.4284 26.8533C31.5028 26.8911 31.0123 27.2991 30.4368 27.3786C29.7666 27.4711 29.4011 27.2077 29.4011 27.2077Z" fill="#FFA77B"/>
<path d="M28.2455 28.96C28.8392 28.792 29.411 28.3994 29.6143 28.5137C29.8177 28.628 29.8823 29.5289 29.248 29.5502C28.6137 29.5715 27.7585 29.3272 27.7585 29.3272L28.2458 28.9598L28.2455 28.96Z" fill="#FFA77B"/>
<path d="M28.3066 28.8471C28.9002 28.5326 29.5786 27.5153 29.7105 27.5817C29.836 27.645 29.1206 28.8979 28.922 28.9803C28.716 29.0659 28.0674 28.9736 28.3066 28.8471Z" fill="#FFA77B"/>
<path d="M28.7129 28.624C29.7741 28.5621 30.4916 27.8816 30.6043 27.9116C30.717 27.9416 30.2252 28.5852 29.5835 28.7415C28.9418 28.8979 28.7132 28.624 28.7132 28.624H28.7129Z" fill="#FFA77B"/>
<path d="M28.6375 28.9523C29.7356 29.0767 30.6881 28.41 30.8181 28.4613C30.9462 28.5118 30.2386 29.086 29.5772 29.1525C28.9774 29.2128 28.6375 28.9523 28.6375 28.9523Z" fill="#FFA77B"/>
<path d="M28.5227 29.3498C29.7171 29.4455 30.4726 28.9561 30.55 28.9954C30.6244 29.0332 30.1339 29.4412 29.5584 29.5207C28.8882 29.6132 28.5227 29.3498 28.5227 29.3498Z" fill="#FFA77B"/>
<path d="M20.7583 18.0024C20.7609 17.6898 20.6099 17.4011 20.4209 17.358C20.2319 17.3147 20.0764 17.5332 20.0738 17.8458C20.0711 18.1585 20.2221 18.4469 20.4111 18.4902C20.6001 18.5335 20.7556 18.315 20.7583 18.0024Z" fill="#5A4949"/>
<path d="M22.3043 17.9666C22.2974 17.6952 22.1725 17.4783 22.0252 17.482C21.8779 17.486 21.7641 17.709 21.7711 17.9807C21.778 18.2524 21.9029 18.469 22.0502 18.4653C22.1975 18.4616 22.3112 18.2383 22.3043 17.9666Z" fill="#5A4949"/>
<path d="M20.7253 16.6996L19.834 16.7926C19.7245 16.8041 19.6399 16.875 19.6447 16.9511L19.6546 17.1018C19.6596 17.1778 19.7524 17.2302 19.8619 17.2188L20.7533 17.1255C20.8628 17.114 20.9473 17.0431 20.9425 16.967L20.9327 16.8163C20.9276 16.7403 20.8349 16.6879 20.7253 16.6993V16.6996Z" fill="#CC3A27"/>
<path d="M22.6723 16.8352L21.9506 16.6983C21.8621 16.6815 21.7757 16.7278 21.7576 16.8019L21.7222 16.9489C21.7044 17.0231 21.7618 17.0967 21.8504 17.1135L22.5721 17.2504C22.6606 17.2671 22.747 17.2209 22.7651 17.1467L22.8005 16.9997C22.8183 16.9255 22.7608 16.8519 22.6723 16.8352Z" fill="#CC3A27"/>
<path d="M20.9651 19.2894C20.9651 19.2894 20.9824 19.2344 21.0111 19.1567C21.2623 19.2639 21.6595 19.3083 21.4356 18.5663C21.4452 18.5653 21.4545 18.5583 21.4643 18.5591C21.9272 19.761 21.1339 19.4125 20.9648 19.2897L20.9651 19.2894Z" fill="#DD704A"/>
<path d="M22.3302 18.1924C22.3195 17.9175 22.181 17.7022 22.0213 17.7112C21.8612 17.7203 21.7403 17.9505 21.7512 18.2253C21.7618 18.5002 21.9003 18.7155 22.0601 18.7065C22.2201 18.6975 22.3411 18.4672 22.3302 18.1924Z" fill="#FFA77B"/>
<path d="M20.84 18.1724C20.8217 17.9012 20.5906 17.6657 20.3237 17.6463C20.0568 17.6269 19.8556 17.8308 19.8737 18.1019C19.892 18.3731 20.123 18.6086 20.3899 18.628C20.6568 18.6474 20.8583 18.4435 20.84 18.1724Z" fill="#FFA77B"/>
<path d="M21.2433 19.9979C21.2433 19.9859 21.2396 19.9747 21.2385 19.963C21.1337 19.9665 21.0272 19.9561 20.9213 19.9282C20.6481 19.8564 20.4325 19.6887 20.298 19.4736C20.2743 19.4789 20.2504 19.4829 20.2278 19.4899C20.332 19.7626 20.5428 19.98 20.8296 20.0614C20.9644 20.0997 21.101 20.1023 21.2324 20.0779C21.2377 20.0516 21.2433 20.0255 21.2433 19.9979Z" fill="#DD704A"/>
<path d="M9.04067 6.36668C9.02738 6.11333 8.93353 5.91315 8.83118 5.92113C8.72884 5.92884 8.65786 6.14125 8.67195 6.39432C8.68604 6.64633 8.77961 6.84358 8.8809 6.83614C8.98218 6.82869 9.05369 6.61895 9.04067 6.36668Z" fill="#3F3335"/>
<path d="M10.9654 6.22267C10.9566 5.9672 10.8654 5.76569 10.7618 5.77367C10.6584 5.78164 10.5823 5.99564 10.5922 6.25058C10.6017 6.50445 10.6929 6.70303 10.7953 6.69559C10.8979 6.68814 10.9742 6.47681 10.9651 6.22267H10.9654Z" fill="#3F3335"/>
<path d="M9.07409 4.98413L8.25558 5.22524C8.15537 5.25475 8.0881 5.36587 8.10485 5.47354L8.13808 5.6862C8.15483 5.79307 8.24893 5.85606 8.34862 5.82709L9.16315 5.58971C9.26363 5.56047 9.33248 5.44934 9.3168 5.34141L9.2857 5.12662C9.27001 5.01816 9.1751 4.95408 9.07409 4.98386V4.98413Z" fill="#773C3C"/>
<path d="M11.0302 5.05297L10.4292 4.8379C10.3553 4.81132 10.2808 4.87751 10.263 4.98544L10.2277 5.19864C10.2101 5.30577 10.2553 5.41397 10.3287 5.44002L10.9263 5.65376C10.9996 5.68008 11.0741 5.61494 11.0929 5.50807L11.1299 5.29567C11.1485 5.18827 11.1041 5.07929 11.0302 5.05297Z" fill="#773C3C"/>
<path d="M11.1889 5.92188L10.0769 5.9987L10.1208 7.06178C10.1317 7.32629 10.3491 7.52646 10.6067 7.50997L10.7686 7.49961C11.027 7.48286 11.2301 7.25504 11.2219 6.98947L11.1889 5.92188Z" fill="#FAF0DB"/>
<path d="M9.76312 6.08594L8.45361 6.18004L8.51316 7.24338C8.52778 7.50151 8.72662 7.69744 8.95764 7.68202L9.40982 7.65171C9.64189 7.63603 9.82134 7.41406 9.80964 7.1546L9.76285 6.08594H9.76312Z" fill="#FAF0DB"/>
<path d="M6.47875 6.27123L6.42798 6.54105L11.1798 6.18854L11.1715 5.91846L6.47875 6.27123Z" fill="#FAF0DB"/>
<path d="M11.0929 6.14893L10.2896 6.20395L10.3196 6.97275C10.327 7.16468 10.4847 7.31008 10.6716 7.29786L10.7891 7.29015C10.9765 7.27792 11.1235 7.11256 11.1174 6.9201L11.0929 6.14893Z" fill="#FFA77B"/>
<path d="M9.56429 6.26709L8.66284 6.32904L8.70431 7.09304C8.71468 7.28391 8.8928 7.42694 9.10281 7.41311L9.23465 7.40461C9.44493 7.39079 9.60843 7.22517 9.59966 7.03377L9.56456 6.26737L9.56429 6.26709Z" fill="#FFA77B"/>
<path d="M8.90783 6.79901C9.00938 6.79157 9.08116 6.58183 9.06814 6.32929C9.06734 6.31573 9.06415 6.30431 9.06309 6.29102L8.70049 6.31652C8.70049 6.33061 8.69862 6.34285 8.69942 6.35694C8.71324 6.60895 8.80656 6.80646 8.90811 6.79901H8.90783Z" fill="#3F3335"/>
<path d="M10.824 6.65845C10.9266 6.65074 11.0032 6.43941 10.9944 6.18528C10.9942 6.17491 10.9918 6.16613 10.991 6.15576L10.6223 6.18154C10.6223 6.19244 10.6204 6.20202 10.6209 6.21318C10.6305 6.46706 10.7214 6.6659 10.824 6.65845Z" fill="#3F3335"/>
<path d="M9.93163 6.57887C9.93163 6.57887 9.91222 6.62779 9.8875 6.70382C10.0842 7.02362 10.3277 7.57921 9.81494 7.57283C9.81973 7.58719 9.82131 7.6034 9.82716 7.61723C10.7127 7.77247 10.0909 6.77294 9.93137 6.57861L9.93163 6.57887Z" fill="#D27558"/>
<path d="M10.3494 8.16202L9.04712 8.16016C9.04712 8.16016 9.24118 9.02386 9.7755 8.95448C10.3096 8.8851 10.3494 8.16202 10.3494 8.16202Z" fill="#2D171A"/>
<path d="M9.26266 8.46819C9.19434 8.32225 9.16431 8.19092 9.16431 8.19092L10.25 8.19252C10.25 8.19252 10.2393 8.37993 10.1532 8.55565L9.26239 8.46819H9.26266Z" fill="#FAF0DB"/>
<path d="M7.56751 6.84524C7.32029 6.42096 6.92127 6.23275 6.67644 6.42495C6.4316 6.61715 6.43319 7.11691 6.68041 7.54119C6.92764 7.96546 7.32667 8.15367 7.57151 7.96147C7.81634 7.76927 7.81474 7.26951 7.56751 6.84524Z" fill="#FFA77B"/>
<path d="M7.47961 7.00807C7.33419 6.75845 7.0774 6.66037 6.90646 6.78903C6.73553 6.91769 6.7148 7.22447 6.86048 7.47435C7.00616 7.72424 7.26269 7.82206 7.43362 7.69339C7.60455 7.56473 7.62502 7.25796 7.47961 7.00807Z" fill="#CC4F46"/>
<path d="M7.47637 7.41362C7.37908 7.27219 7.20922 7.22461 7.0973 7.30702C6.98538 7.38943 6.97341 7.571 7.07071 7.71242C7.168 7.85385 7.33788 7.90143 7.44979 7.81902C7.56171 7.73662 7.57367 7.55504 7.47637 7.41362Z" fill="#FFA77B"/>
</svg>
