<svg width="30" height="30" viewBox="0 0 30 30" fill="none" xmlns="http://www.w3.org/2000/svg">
<g clip-path="url(#clip0_1150_12206)">
<path d="M11.875 16.875C11.875 16.0462 12.2043 15.2513 12.7903 14.6653C13.3764 14.0792 14.1712 13.75 15 13.75C15.8288 13.75 16.6237 14.0792 17.2097 14.6653C17.7958 15.2513 18.125 16.0462 18.125 16.875C18.125 17.7038 17.7958 18.4987 17.2097 19.0847C16.6237 19.6708 15.8288 20 15 20C14.1712 20 13.3764 19.6708 12.7903 19.0847C12.2043 18.4987 11.875 17.7038 11.875 16.875ZM27.7238 15.9187L20.6763 22.425C20.465 22.6188 20.2363 22.7875 20 22.94V28.75C20 29.0815 19.8683 29.3995 19.6339 29.6339C19.3995 29.8683 19.0815 30 18.75 30H11.25C10.9185 30 10.6006 29.8683 10.3661 29.6339C10.1317 29.3995 10 29.0815 10 28.75V22.94C9.76094 22.7876 9.53514 22.6153 9.32502 22.425L2.27627 15.9187C2.0326 15.6938 1.88827 15.3813 1.87502 15.0499C1.86178 14.7186 1.9807 14.3955 2.20564 14.1519C2.43058 13.9082 2.7431 13.7639 3.07445 13.7506C3.40581 13.7374 3.72885 13.8563 3.97252 14.0813L11.02 20.5875C11.4825 21.015 12.0863 21.25 12.715 21.25H17.2825C17.9125 21.25 18.515 21.015 18.9788 20.5863L26.025 14.0813C26.2687 13.8563 26.5917 13.7374 26.9231 13.7506C27.2544 13.7639 27.567 13.9082 27.7919 14.1519C28.0168 14.3955 28.1358 14.7186 28.1225 15.0499C28.1093 15.3813 27.9649 15.6938 27.7213 15.9187H27.7238ZM18.125 0C17.2962 0 16.5014 0.32924 15.9153 0.915291C15.3293 1.50134 15 2.2962 15 3.125C15 2.2962 14.6708 1.50134 14.0847 0.915291C13.4987 0.32924 12.7038 0 11.875 0C11.0462 0 10.2514 0.32924 9.66531 0.915291C9.07926 1.50134 8.75002 2.2962 8.75002 3.125C8.75002 5.86625 12.2825 9.58625 14.0363 10.925C14.3135 11.136 14.6523 11.2502 15.0006 11.2502C15.349 11.2502 15.6878 11.136 15.965 10.925C17.7188 9.5875 21.2513 5.86625 21.2513 3.125C21.2513 2.2962 20.922 1.50134 20.336 0.915291C19.7499 0.32924 18.9551 0 18.1263 0L18.125 0Z" fill="#298B97"/>
</g>
<defs>
<clipPath id="clip0_1150_12206">
<rect width="30" height="30" fill="white"/>
</clipPath>
</defs>
</svg>
