<svg width="27" height="30" viewBox="0 0 27 30" fill="none" xmlns="http://www.w3.org/2000/svg">
<path d="M10.001 16.875C10.001 16.0462 10.3302 15.2513 10.9163 14.6653C11.5023 14.0792 12.2972 13.75 13.126 13.75C13.9548 13.75 14.7497 14.0792 15.3357 14.6653C15.9218 15.2513 16.251 16.0462 16.251 16.875C16.251 17.7038 15.9218 18.4987 15.3357 19.0847C14.7497 19.6708 13.9548 20 13.126 20C12.2972 20 11.5023 19.6708 10.9163 19.0847C10.3302 18.4987 10.001 17.7038 10.001 16.875ZM25.8497 15.9187L18.8022 22.425C18.591 22.6188 18.3622 22.7875 18.126 22.94V28.75C18.126 29.0815 17.9943 29.3995 17.7599 29.6339C17.5255 29.8683 17.2075 30 16.876 30H9.37599C9.04447 30 8.72653 29.8683 8.49211 29.6339C8.25769 29.3995 8.12599 29.0815 8.12599 28.75V22.94C7.88692 22.7876 7.66112 22.6153 7.45099 22.425L0.402243 15.9187C0.158575 15.6938 0.0142435 15.3813 0.000998742 15.0499C-0.012246 14.7186 0.106681 14.3955 0.331618 14.1519C0.556555 13.9082 0.869075 13.7639 1.20043 13.7506C1.53178 13.7374 1.85483 13.8563 2.09849 14.0813L9.14599 20.5875C9.60849 21.015 10.2122 21.25 10.841 21.25H15.4085C16.0385 21.25 16.641 21.015 17.1047 20.5863L24.151 14.0813C24.3947 13.8563 24.7177 13.7374 25.0491 13.7506C25.3804 13.7639 25.6929 13.9082 25.9179 14.1519C26.1428 14.3955 26.2617 14.7186 26.2485 15.0499C26.2352 15.3813 26.0909 15.6938 25.8472 15.9187H25.8497ZM16.251 0C15.4222 0 14.6273 0.32924 14.0413 0.915291C13.4552 1.50134 13.126 2.2962 13.126 3.125C13.126 2.2962 12.7968 1.50134 12.2107 0.915291C11.6247 0.32924 10.8298 0 10.001 0C9.17219 0 8.37734 0.32924 7.79128 0.915291C7.20523 1.50134 6.87599 2.2962 6.87599 3.125C6.87599 5.86625 10.4085 9.58625 12.1622 10.925C12.4395 11.136 12.7782 11.2502 13.1266 11.2502C13.475 11.2502 13.8138 11.136 14.091 10.925C15.8447 9.5875 19.3772 5.86625 19.3772 3.125C19.3772 2.2962 19.048 1.50134 18.462 0.915291C17.8759 0.32924 17.081 0 16.2522 0L16.251 0Z" fill="#A0A0A0"/>
</svg>
