<svg width="13" height="14" viewBox="0 0 13 14" fill="none" xmlns="http://www.w3.org/2000/svg">
<path d="M12.5768 5.13118L11.3688 6.07582C11.3841 6.2215 11.3972 6.39179 11.3972 6.57196C11.3972 6.75214 11.3846 6.92243 11.3688 7.06811L12.5779 8.01329C12.8024 8.19072 12.8638 8.50561 12.7208 8.7679L11.4646 10.9414C11.3304 11.1867 11.0363 11.3127 10.7379 11.2026L9.31245 10.6304C9.0392 10.8275 8.75278 10.994 8.45652 11.1271L8.23967 12.639C8.20406 12.926 7.95435 13.1429 7.6592 13.1429H5.14016C4.84498 13.1429 4.59583 12.926 4.56077 12.6434L4.34337 11.126C4.05641 10.9967 3.77441 10.8324 3.48909 10.6293L2.0598 11.2032C1.79199 11.3067 1.47163 11.1906 1.33856 10.9464L0.0806985 8.77011C-0.0676977 8.51929 -0.00637295 8.19346 0.223088 8.01165L1.43113 7.067C1.41195 6.88246 1.40266 6.722 1.40266 6.5714C1.40266 6.42079 1.41198 6.26036 1.43113 6.07526L0.221984 5.13007C-0.00254817 4.95211 -0.0633339 4.63722 0.0795947 4.37546L1.33584 2.20196C1.47002 1.95718 1.76134 1.83014 2.06252 1.94075L3.48798 2.513C3.7607 2.3164 4.04709 2.14993 4.34337 2.01632L4.56023 0.504891C4.59581 0.216852 4.84498 -4.76837e-06 5.1407 -4.76837e-06H7.65974C7.95491 -4.76837e-06 8.20463 0.216852 8.23967 0.499424L8.45706 2.01632C8.74402 2.14611 9.02549 2.30985 9.31135 2.51357L10.7406 1.93967C10.809 1.91288 10.8818 1.89913 10.9553 1.89914C11.1678 1.89914 11.3633 2.01524 11.4618 2.19596L12.7236 4.38096C12.8638 4.63724 12.8024 4.95211 12.5768 5.13118ZM6.39967 4.38096C5.19163 4.38096 4.2092 5.36338 4.2092 6.57142C4.2092 7.77946 5.19163 8.76189 6.39967 8.76189C7.60771 8.76189 8.59013 7.77946 8.59013 6.57142C8.59013 5.36338 7.60771 4.38096 6.39967 4.38096Z" fill="#949494"/>
</svg>
