<svg width="13" height="12" viewBox="0 0 13 12" fill="none" xmlns="http://www.w3.org/2000/svg">
<path fill-rule="evenodd" clip-rule="evenodd" d="M5.00867 0.369182C5.372 0.128681 5.80192 0 6.24211 0C6.6823 0 7.11222 0.128681 7.47555 0.369182L11.5329 3.0561C11.8261 3.25015 12.0659 3.51045 12.2317 3.81444C12.3975 4.11843 12.4841 4.45694 12.4842 4.80066V9.88575C12.4842 10.4465 12.254 10.9843 11.8443 11.3808C11.4346 11.7773 10.8789 12 10.2995 12H2.18474C1.60531 12 1.04961 11.7773 0.639895 11.3808C0.230177 10.9843 0 10.4465 0 9.88575V4.80066C8.57319e-05 4.45694 0.0867644 4.11843 0.252528 3.81444C0.418291 3.51045 0.65814 3.25015 0.951298 3.0561L5.00867 0.369182ZM4.68158 9.28167C4.59881 9.28167 4.51942 9.31349 4.46089 9.37014C4.40236 9.42678 4.36948 9.5036 4.36948 9.58371C4.36948 9.66381 4.40236 9.74064 4.46089 9.79728C4.51942 9.85392 4.59881 9.88575 4.68158 9.88575H7.80264C7.88541 9.88575 7.9648 9.85392 8.02333 9.79728C8.08186 9.74064 8.11474 9.66381 8.11474 9.58371C8.11474 9.5036 8.08186 9.42678 8.02333 9.37014C7.9648 9.31349 7.88541 9.28167 7.80264 9.28167H4.68158Z" fill="#949494"/>
</svg>
