<svg width="335" height="53" viewBox="0 0 335 53" fill="none" xmlns="http://www.w3.org/2000/svg">
<path d="M56.1422 26.3756C55.7655 30.5203 50.1135 38.0562 47.8528 39.5633C46.0442 41.9748 35.7954 49.1088 30.8971 52.3743C30.1865 52.8505 29.8474 52.5727 29.7667 52.3743V41.0705C29.7667 38.6591 30.5203 37.0514 30.8971 36.549C35.293 31.3995 44.6124 21.1005 46.7224 21.1005C48.8325 21.1005 48.3552 23.11 47.8528 24.1148C46.848 25.3708 44.6877 28.1842 44.0849 29.3899C43.3313 30.8971 44.0849 31.6507 44.8384 31.6507C45.592 31.6507 48.6064 27.8828 50.1135 24.8684C51.6207 21.8541 52.7511 12.0574 54.2583 10.927C55.464 10.0227 56.0166 11.0526 56.1422 11.6806C56.2678 15.1974 56.4437 23.0598 56.1422 26.3756Z" fill="white"/>
<path d="M0.166508 26.3547C0.543301 30.4994 6.19521 38.0353 8.45597 39.5425C10.2646 41.9539 20.5134 49.0879 25.4117 52.3535C26.1222 52.8296 26.4613 52.5519 26.5421 52.3535V41.0497C26.5421 38.6382 25.7885 37.0305 25.4117 36.5281C21.0158 31.3786 11.6964 21.0796 9.58635 21.0796C7.4763 21.0796 7.95358 23.0892 8.45597 24.094C9.46075 25.3499 11.621 28.1633 12.2239 29.3691C12.9775 30.8762 12.2239 31.6298 11.4703 31.6298C10.7167 31.6298 7.70238 27.8619 6.19521 24.8475C4.68803 21.8332 3.55765 12.0365 2.05048 10.9062C0.844736 10.0019 0.292105 11.0318 0.166508 11.6597C0.0409088 15.1765 -0.134928 23.0389 0.166508 26.3547Z" fill="white"/>
<rect x="22.6462" y="6.02869" width="2.26076" height="11.1015" transform="rotate(-90.9724 22.6462 6.02869)" fill="#298B97"/>
<rect x="27.1677" width="2.26076" height="10.5502" fill="#298B97"/>
<path d="M27.4623 32.9623C27.7419 33.223 28.1731 33.223 28.4527 32.9623L37.6128 24.4088C39.0202 23.0772 39.9206 21.2765 40.0675 19.3431C40.4087 14.8128 36.6318 12.396 33.9497 12.088C30.5946 11.7041 27.9551 15.0592 27.9551 15.0592C27.9551 15.0592 25.3156 11.7041 21.9605 12.088C19.2784 12.396 15.5016 14.8128 15.8475 19.3478C15.9944 21.2812 16.8948 23.082 18.3022 24.4136L27.4623 32.9623Z" fill="#CCF2D7"/>
<path d="M66.8588 2.9574L66.8588 49.6798" stroke="white" stroke-width="0.699706"/>
<path d="M88.119 11.9791H84.1989V26.6093H81.5854V11.9791H77.6653V9.5194H88.119V11.9791ZM93.0317 9.5194V16.2836H100.36V9.5194H102.973V26.6093H100.36V18.7433H93.0317V26.6093H90.4182V9.5194H93.0317ZM116.511 9.5194V11.9791H109.696V16.3092H116.306V18.7689H109.696V24.1495H116.511V26.6093H107.082V9.5194H116.511ZM125.874 9.5194H128.487V24.1495H133.509V26.6093H125.874V9.5194ZM136.898 11.7485C138.589 10.0575 140.707 9.21194 143.253 9.21194C145.798 9.21194 147.916 10.0575 149.607 11.7485C151.298 13.4396 152.143 15.5491 152.143 18.0771C152.143 20.6052 151.298 22.7147 149.607 24.4058C147.916 26.0968 145.798 26.9423 143.253 26.9423C140.707 26.9423 138.589 26.0968 136.898 24.4058C135.207 22.7147 134.362 20.6052 134.362 18.0771C134.362 15.5491 135.207 13.4396 136.898 11.7485ZM138.743 22.7403C139.922 23.936 141.425 24.5339 143.253 24.5339C145.08 24.5339 146.583 23.936 147.762 22.7403C148.941 21.5276 149.53 19.9732 149.53 18.0771C149.53 16.1811 148.941 14.6353 147.762 13.4396C146.583 12.2268 145.08 11.6204 143.253 11.6204C141.425 11.6204 139.922 12.2268 138.743 13.4396C137.564 14.6353 136.975 16.1811 136.975 18.0771C136.975 19.9732 137.564 21.5276 138.743 22.7403ZM158.037 26.6093H155.424V8.36641L167.825 21.3567V9.5194H170.438V27.6598L158.037 14.6694V26.6093ZM183.38 20.1269V17.7184H190.426V17.8465C190.426 20.8187 189.58 23.1247 187.889 24.7645C186.386 26.2164 184.447 26.9423 182.073 26.9423C179.699 26.9423 177.76 26.1651 176.257 24.6107C174.566 22.8684 173.72 20.7162 173.72 18.154C173.72 16.8729 173.951 15.6772 174.412 14.5669C174.873 13.4396 175.471 12.5086 176.206 11.7741C176.974 11.0055 177.914 10.3905 179.024 9.92935C180.152 9.45108 181.356 9.21194 182.637 9.21194C184.328 9.21194 185.814 9.57065 187.095 10.2881C188.274 10.9542 189.196 11.8083 189.862 12.8503L187.787 14.3107C187.172 13.4566 186.472 12.8076 185.686 12.3634C184.849 11.8681 183.841 11.6204 182.662 11.6204C180.835 11.6204 179.332 12.2097 178.153 13.3883C177.589 13.952 177.145 14.6609 176.821 15.5149C176.496 16.369 176.334 17.2572 176.334 18.1796C176.334 20.0073 176.923 21.5532 178.102 22.8172C179.178 23.9616 180.604 24.5339 182.381 24.5339C183.901 24.5339 185.173 24.03 186.198 23.0222C187.035 22.2023 187.514 21.2372 187.633 20.1269H183.38ZM208.347 11.9791H204.427V26.6093H201.814V11.9791H197.893V9.5194H208.347V11.9791ZM220.075 9.5194V11.9791H213.26V16.3092H219.87V18.7689H213.26V24.1495H220.075V26.6093H210.646V9.5194H220.075ZM223.457 9.5194H226.506C228.522 9.5194 230.025 9.85249 231.016 10.5187C232.365 11.424 233.04 12.7649 233.04 14.5413C233.04 15.7541 232.69 16.7875 231.989 17.6416C231.306 18.4956 230.392 19.0508 229.248 19.307L234.577 26.6093H231.426L226.532 19.6145H226.071V26.6093H223.457V9.5194ZM226.071 11.9279V17.3597H226.891C227.113 17.3597 227.335 17.3512 227.557 17.3341C227.779 17.317 228.078 17.2572 228.454 17.1547C228.846 17.0523 229.179 16.9156 229.453 16.7448C229.743 16.5569 229.991 16.2751 230.196 15.8993C230.418 15.5235 230.529 15.0794 230.529 14.5669C230.529 12.8076 229.342 11.9279 226.967 11.9279H226.071ZM239.296 26.6093H236.632L240.219 8.2383L246.163 21.5105L252.158 8.2383L255.387 26.6093H252.722L250.98 16.3092L246.009 27.4035L241.09 16.2836L239.296 26.6093ZM277.6 10.4418V13.5164C276.199 12.2524 274.654 11.6204 272.962 11.6204C271.118 11.6204 269.615 12.2353 268.453 13.4652C267.309 14.678 266.736 16.2324 266.736 18.1284C266.736 19.9561 267.326 21.4849 268.504 22.7147C269.683 23.9275 271.178 24.5339 272.988 24.5339C274.679 24.5339 276.216 23.8762 277.6 22.561V25.6612C276.165 26.5153 274.602 26.9423 272.911 26.9423C270.537 26.9423 268.521 26.1566 266.864 24.5851C265.037 22.877 264.123 20.7247 264.123 18.1284C264.123 15.3954 265.037 13.1663 266.864 11.441C268.436 9.95498 270.494 9.21194 273.039 9.21194C274.799 9.21194 276.319 9.62189 277.6 10.4418ZM292.419 26.6093L290.625 22.4841H283.323L281.452 26.6093H278.634L287.14 8.52014L295.237 26.6093H292.419ZM284.399 20.0244H289.575L287.038 14.2338L284.399 20.0244ZM297.396 9.5194H300.445C302.46 9.5194 303.963 9.85249 304.954 10.5187C306.304 11.424 306.978 12.7649 306.978 14.5413C306.978 15.7541 306.628 16.7875 305.928 17.6416C305.245 18.4956 304.331 19.0508 303.186 19.307L308.516 26.6093H305.364L300.47 19.6145H300.009V26.6093H297.396V9.5194ZM300.009 11.9279V17.3597H300.829C301.051 17.3597 301.273 17.3512 301.495 17.3341C301.717 17.317 302.016 17.2572 302.392 17.1547C302.785 17.0523 303.118 16.9156 303.391 16.7448C303.682 16.5569 303.929 16.2751 304.134 15.8993C304.356 15.5235 304.467 15.0794 304.467 14.5669C304.467 12.8076 303.28 11.9279 300.906 11.9279H300.009ZM320.511 9.5194V11.9791H313.696V16.3092H320.306V18.7689H313.696V24.1495H320.511V26.6093H311.082V9.5194H320.511Z" fill="white"/>
<path d="M78.2682 40.4882H80.2351C80.8304 40.4882 81.3504 40.5409 81.795 40.6464C82.2396 40.7444 82.6541 40.9366 83.0384 41.2229C83.4981 41.5696 83.8523 42.0067 84.101 42.5342C84.3572 43.0617 84.4853 43.6382 84.4853 44.2637C84.4853 45.5824 83.9804 46.596 82.9706 47.3044C82.5636 47.5908 82.1492 47.7829 81.7272 47.8809C81.3051 47.9788 80.8002 48.0278 80.2124 48.0278H78.2682V40.4882ZM79.7377 41.7542V46.7618H80.1898C80.9585 46.7618 81.5727 46.596 82.0324 46.2644C82.3263 46.0534 82.5561 45.7708 82.7219 45.4167C82.8877 45.0549 82.9706 44.6706 82.9706 44.2637C82.9706 43.8643 82.8877 43.4875 82.7219 43.1333C82.5636 42.7716 82.3376 42.4777 82.0437 42.2516C81.599 41.92 80.9811 41.7542 80.1898 41.7542H79.7377ZM89.3111 41.4264C90.0647 40.6879 91.0331 40.3186 92.2162 40.3186C93.3993 40.3186 94.3639 40.6879 95.11 41.4264C95.8636 42.1649 96.2404 43.1107 96.2404 44.2637C96.2404 45.4167 95.8636 46.3624 95.11 47.1009C94.3639 47.8319 93.3993 48.1974 92.2162 48.1974C91.0331 48.1974 90.0647 47.8319 89.3111 47.1009C88.5651 46.3624 88.1921 45.4167 88.1921 44.2637C88.1921 43.1107 88.5651 42.1649 89.3111 41.4264ZM90.4076 46.1401C90.8748 46.6224 91.4777 46.8635 92.2162 46.8635C92.9547 46.8635 93.5576 46.6224 94.0248 46.1401C94.492 45.6503 94.7257 45.0248 94.7257 44.2637C94.7257 43.5025 94.4883 42.8771 94.0135 42.3872C93.5463 41.8974 92.9472 41.6525 92.2162 41.6525C91.4852 41.6525 90.8824 41.8974 90.4076 42.3872C89.9404 42.8771 89.7068 43.5025 89.7068 44.2637C89.7068 45.0248 89.9404 45.6503 90.4076 46.1401ZM101.065 41.4264C101.818 40.6879 102.787 40.3186 103.97 40.3186C105.153 40.3186 106.118 40.6879 106.864 41.4264C107.617 42.1649 107.994 43.1107 107.994 44.2637C107.994 45.4167 107.617 46.3624 106.864 47.1009C106.118 47.8319 105.153 48.1974 103.97 48.1974C102.787 48.1974 101.818 47.8319 101.065 47.1009C100.319 46.3624 99.9458 45.4167 99.9458 44.2637C99.9458 43.1107 100.319 42.1649 101.065 41.4264ZM102.161 46.1401C102.629 46.6224 103.231 46.8635 103.97 46.8635C104.708 46.8635 105.311 46.6224 105.779 46.1401C106.246 45.6503 106.479 45.0248 106.479 44.2637C106.479 43.5025 106.242 42.8771 105.767 42.3872C105.3 41.8974 104.701 41.6525 103.97 41.6525C103.239 41.6525 102.636 41.8974 102.161 42.3872C101.694 42.8771 101.461 43.5025 101.461 44.2637C101.461 45.0248 101.694 45.6503 102.161 46.1401ZM112.061 40.4882H114.243C115.072 40.4882 115.712 40.6766 116.165 41.0534C116.662 41.4754 116.911 42.0406 116.911 42.749C116.911 43.5402 116.617 44.1318 116.029 44.5237C115.803 44.6819 115.528 44.7912 115.204 44.8515L117.555 48.0278H115.724L113.712 44.9984H113.531V48.0278H112.061V40.4882ZM113.531 41.6864V43.9585H113.949C114.07 43.9585 114.186 43.9509 114.299 43.9359C114.42 43.9132 114.574 43.8718 114.763 43.8115C114.951 43.7437 115.102 43.6269 115.215 43.4611C115.336 43.2878 115.396 43.073 115.396 42.8168C115.396 42.5606 115.339 42.3496 115.226 42.1838C115.113 42.0104 114.963 41.8936 114.774 41.8333C114.586 41.7655 114.435 41.7241 114.322 41.709C114.209 41.6939 114.092 41.6864 113.972 41.6864H113.531ZM125.741 41.2003L124.973 42.2064C124.649 41.7768 124.238 41.5621 123.741 41.5621C123.379 41.5621 123.115 41.6525 122.949 41.8333C122.784 42.0067 122.701 42.2101 122.701 42.4438C122.701 42.6472 122.78 42.8168 122.938 42.9524C123.059 43.0655 123.36 43.2086 123.842 43.382C124.588 43.6382 125.097 43.8906 125.368 44.1393C125.798 44.5237 126.013 45.0512 126.013 45.7219C126.013 46.4604 125.768 47.0595 125.278 47.5192C124.796 47.9713 124.166 48.1974 123.39 48.1974C122.305 48.1974 121.438 47.7226 120.79 46.7731L121.751 45.8575C121.917 46.1966 122.147 46.4491 122.441 46.6149C122.735 46.7806 123.032 46.8635 123.334 46.8635C123.673 46.8635 123.952 46.7693 124.17 46.5809C124.389 46.385 124.498 46.1326 124.498 45.8236C124.498 45.5598 124.4 45.3338 124.204 45.1454C124.023 44.9796 123.635 44.7949 123.04 44.5915C122.482 44.4031 122.064 44.1845 121.785 43.9359C121.386 43.5892 121.186 43.122 121.186 42.5342C121.186 41.9238 121.393 41.4038 121.808 40.9743C122.222 40.5372 122.821 40.3186 123.605 40.3186C124.456 40.3186 125.169 40.6125 125.741 41.2003ZM133.975 41.7542H132.28V48.0278H130.81V41.7542H129.115V40.4882H133.975V41.7542ZM141.802 40.4882V41.7542H139.089V43.4385H141.689V44.7045H139.089V46.7618H141.802V48.0278H137.619V40.4882H141.802ZM145.94 40.4882H148.133C148.6 40.4882 148.981 40.5296 149.275 40.6125C149.576 40.6879 149.859 40.8386 150.122 41.0647C150.635 41.5168 150.891 42.1235 150.891 42.8846C150.891 43.593 150.684 44.1544 150.269 44.5689C149.825 45.0135 149.188 45.2358 148.359 45.2358H147.41V48.0278H145.94V40.4882ZM147.41 41.7542V43.9698H148.009C148.438 43.9698 148.758 43.8906 148.969 43.7324C149.241 43.5214 149.376 43.2275 149.376 42.8507C149.376 42.4814 149.237 42.1951 148.958 41.9916C148.732 41.8333 148.385 41.7542 147.918 41.7542H147.41ZM161.512 40.4882V43.4046H164.7V40.4882H166.169V48.0278H164.7V44.6706H161.512V48.0278H160.042V40.4882H161.512ZM174.786 40.4882V41.7542H172.073V43.4385H174.673V44.7045H172.073V46.7618H174.786V48.0278H170.604V40.4882H174.786ZM184.057 48.0278L183.39 46.4453H180.349L179.682 48.0278H178.088L181.332 40.4882H182.485L185.639 48.0278H184.057ZM180.812 45.2471H182.96L181.886 42.5342L180.812 45.2471ZM189.232 40.4882H190.702V46.7618H193.03V48.0278H189.232V40.4882ZM200.629 41.7542H198.933V48.0278H197.464V41.7542H195.768V40.4882H200.629V41.7542ZM205.742 40.4882V43.4046H208.93V40.4882H210.4V48.0278H208.93V44.6706H205.742V48.0278H204.273V40.4882H205.742ZM220.306 46.0384V47.7565C219.748 48.0504 219.126 48.1974 218.44 48.1974C217.34 48.1974 216.421 47.847 215.682 47.1461C214.876 46.3699 214.473 45.4091 214.473 44.2637C214.473 43.0429 214.876 42.0594 215.682 41.3134C216.391 40.6502 217.314 40.3186 218.452 40.3186C219.115 40.3186 219.733 40.4731 220.306 40.7821V42.5003C219.816 41.9351 219.209 41.6525 218.486 41.6525C217.747 41.6525 217.144 41.9125 216.677 42.4324C216.217 42.9449 215.988 43.5628 215.988 44.2863C215.988 45.0775 216.244 45.7068 216.756 46.174C217.269 46.6337 217.864 46.8635 218.542 46.8635C219.251 46.8635 219.838 46.5885 220.306 46.0384ZM229.501 48.0278L228.834 46.4453H225.794L225.127 48.0278H223.533L226.777 40.4882H227.93L231.084 48.0278H229.501ZM226.257 45.2471H228.405L227.331 42.5342L226.257 45.2471ZM234.677 40.4882H236.859C237.688 40.4882 238.328 40.6766 238.78 41.0534C239.278 41.4754 239.526 42.0406 239.526 42.749C239.526 43.5402 239.233 44.1318 238.645 44.5237C238.419 44.6819 238.144 44.7912 237.82 44.8515L240.171 48.0278H238.34L236.327 44.9984H236.147V48.0278H234.677V40.4882ZM236.147 41.6864V43.9585H236.565C236.685 43.9585 236.802 43.9509 236.915 43.9359C237.036 43.9132 237.19 43.8718 237.379 43.8115C237.567 43.7437 237.718 43.6269 237.831 43.4611C237.951 43.2878 238.012 43.073 238.012 42.8168C238.012 42.5606 237.955 42.3496 237.842 42.1838C237.729 42.0104 237.578 41.8936 237.39 41.8333C237.202 41.7655 237.051 41.7241 236.938 41.709C236.825 41.6939 236.708 41.6864 236.587 41.6864H236.147ZM248.063 40.4882V41.7542H245.35V43.4385H247.95V44.7045H245.35V46.7618H248.063V48.0278H243.881V40.4882H248.063ZM262.029 41.2003L261.26 42.2064C260.936 41.7768 260.526 41.5621 260.028 41.5621C259.667 41.5621 259.403 41.6525 259.237 41.8333C259.071 42.0067 258.988 42.2101 258.988 42.4438C258.988 42.6472 259.067 42.8168 259.226 42.9524C259.346 43.0655 259.648 43.2086 260.13 43.382C260.876 43.6382 261.385 43.8906 261.656 44.1393C262.086 44.5237 262.3 45.0512 262.3 45.7219C262.3 46.4604 262.055 47.0595 261.566 47.5192C261.083 47.9713 260.454 48.1974 259.678 48.1974C258.593 48.1974 257.726 47.7226 257.078 46.7731L258.039 45.8575C258.205 46.1966 258.434 46.4491 258.728 46.6149C259.022 46.7806 259.32 46.8635 259.621 46.8635C259.96 46.8635 260.239 46.7693 260.458 46.5809C260.676 46.385 260.786 46.1326 260.786 45.8236C260.786 45.5598 260.688 45.3338 260.492 45.1454C260.311 44.9796 259.923 44.7949 259.327 44.5915C258.77 44.4031 258.352 44.1845 258.073 43.9359C257.673 43.5892 257.474 43.122 257.474 42.5342C257.474 41.9238 257.681 41.4038 258.095 40.9743C258.51 40.5372 259.109 40.3186 259.893 40.3186C260.744 40.3186 261.456 40.6125 262.029 41.2003ZM270.486 40.4882V41.7542H267.773V43.4385H270.373V44.7045H267.773V46.7618H270.486V48.0278H266.304V40.4882H270.486ZM274.625 40.4882H276.806C277.635 40.4882 278.276 40.6766 278.728 41.0534C279.225 41.4754 279.474 42.0406 279.474 42.749C279.474 43.5402 279.18 44.1318 278.592 44.5237C278.366 44.6819 278.091 44.7912 277.767 44.8515L280.118 48.0278H278.287L276.275 44.9984H276.094V48.0278H274.625V40.4882ZM276.094 41.6864V43.9585H276.512C276.633 43.9585 276.75 43.9509 276.863 43.9359C276.983 43.9132 277.138 43.8718 277.326 43.8115C277.515 43.7437 277.665 43.6269 277.778 43.4611C277.899 43.2878 277.959 43.073 277.959 42.8168C277.959 42.5606 277.903 42.3496 277.79 42.1838C277.677 42.0104 277.526 41.8936 277.338 41.8333C277.149 41.7655 276.998 41.7241 276.885 41.709C276.772 41.6939 276.656 41.6864 276.535 41.6864H276.094ZM282.992 40.4882H284.597L286.609 45.5523L288.621 40.4882H290.226L287.039 48.0278H286.157L282.992 40.4882ZM293.816 40.4882H295.285V48.0278H293.816V40.4882ZM305.19 46.0384V47.7565C304.632 48.0504 304.011 48.1974 303.325 48.1974C302.225 48.1974 301.305 47.847 300.567 47.1461C299.761 46.3699 299.357 45.4091 299.357 44.2637C299.357 43.0429 299.761 42.0594 300.567 41.3134C301.275 40.6502 302.198 40.3186 303.336 40.3186C303.999 40.3186 304.617 40.4731 305.19 40.7821V42.5003C304.7 41.9351 304.094 41.6525 303.37 41.6525C302.632 41.6525 302.029 41.9125 301.562 42.4324C301.102 42.9449 300.872 43.5628 300.872 44.2863C300.872 45.0775 301.128 45.7068 301.641 46.174C302.153 46.6337 302.748 46.8635 303.427 46.8635C304.135 46.8635 304.723 46.5885 305.19 46.0384ZM313.436 40.4882V41.7542H310.723V43.4385H313.323V44.7045H310.723V46.7618H313.436V48.0278H309.254V40.4882H313.436ZM322.051 41.2003L321.282 42.2064C320.958 41.7768 320.548 41.5621 320.05 41.5621C319.688 41.5621 319.425 41.6525 319.259 41.8333C319.093 42.0067 319.01 42.2101 319.01 42.4438C319.01 42.6472 319.089 42.8168 319.248 42.9524C319.368 43.0655 319.67 43.2086 320.152 43.382C320.898 43.6382 321.407 43.8906 321.678 44.1393C322.107 44.5237 322.322 45.0512 322.322 45.7219C322.322 46.4604 322.077 47.0595 321.588 47.5192C321.105 47.9713 320.476 48.1974 319.7 48.1974C318.615 48.1974 317.748 47.7226 317.1 46.7731L318.061 45.8575C318.227 46.1966 318.456 46.4491 318.75 46.6149C319.044 46.7806 319.342 46.8635 319.643 46.8635C319.982 46.8635 320.261 46.7693 320.48 46.5809C320.698 46.385 320.808 46.1326 320.808 45.8236C320.808 45.5598 320.71 45.3338 320.514 45.1454C320.333 44.9796 319.945 44.7949 319.349 44.5915C318.792 44.4031 318.373 44.1845 318.095 43.9359C317.695 43.5892 317.496 43.122 317.496 42.5342C317.496 41.9238 317.703 41.4038 318.117 40.9743C318.532 40.5372 319.131 40.3186 319.915 40.3186C320.766 40.3186 321.478 40.6125 322.051 41.2003Z" fill="white"/>
<path d="M327.623 8.42375H326.412V12.8109H326.105V8.42375H324.894V8.14387H327.623V8.42375ZM329.159 12.8109H328.851L329.383 7.98294L331.405 12.3001L333.427 7.98294L333.959 12.8109H333.651L333.238 9.06049C332.021 11.6727 331.409 12.9788 331.405 12.9788L329.572 9.06049L329.159 12.8109Z" fill="white"/>
</svg>
