<svg width="14" height="14" viewBox="0 0 14 14" fill="none" xmlns="http://www.w3.org/2000/svg">
<path d="M6.66651 0C5.348 0 4.0591 0.390983 2.9628 1.12351C1.86649 1.85603 1.01203 2.8972 0.50746 4.11534C0.00288851 5.33349 -0.129131 6.6739 0.128098 7.96707C0.385326 9.26025 1.02025 10.4481 1.95258 11.3804C2.8849 12.3128 4.07276 12.9477 5.36594 13.2049C6.65911 13.4621 7.99952 13.3301 9.21767 12.8255C10.4358 12.321 11.477 11.4665 12.2095 10.3702C12.942 9.27391 13.333 7.98501 13.333 6.6665C13.3309 4.89908 12.6279 3.20464 11.3781 1.95488C10.1284 0.705116 8.43393 0.00208508 6.66651 0ZM8.91312 8.91311C8.79947 9.02673 8.64534 9.09056 8.48464 9.09056C8.32394 9.09056 8.16982 9.02673 8.05617 8.91311L6.23803 7.09498C6.12437 6.98135 6.06049 6.82722 6.06046 6.6665V3.03023C6.06046 2.8695 6.12431 2.71535 6.23797 2.60169C6.35162 2.48803 6.50577 2.42418 6.66651 2.42418C6.82724 2.42418 6.98139 2.48803 7.09504 2.60169C7.2087 2.71535 7.27255 2.8695 7.27255 3.03023V6.4156L8.91312 8.05617C9.02673 8.16982 9.09056 8.32394 9.09056 8.48464C9.09056 8.64534 9.02673 8.79946 8.91312 8.91311Z" fill="#949494"/>
</svg>
