<svg width="12" height="12" viewBox="0 0 12 12" fill="none" xmlns="http://www.w3.org/2000/svg">
<path fill-rule="evenodd" clip-rule="evenodd" d="M9.61209 8.56011H7.66991C7.37176 8.56011 7.08582 8.44167 6.875 8.23085C6.66417 8.02002 6.54573 7.73408 6.54573 7.43593V6.61835C6.54573 6.32019 6.66417 6.03425 6.875 5.82343C7.08582 5.6126 7.37176 5.49416 7.66991 5.49416H9.61209V4.98317C9.61209 4.68516 9.49354 4.39901 9.28301 4.18807C9.07198 3.97746 8.78605 3.85912 8.48791 3.85899H2.76481C2.4668 3.85899 2.18064 3.97754 1.9697 4.18807C1.75909 4.3991 1.64075 4.68503 1.64062 4.98317V9.0711C1.64062 9.36911 1.75918 9.65527 1.9697 9.86621C2.18073 10.0768 2.46666 10.1952 2.76481 10.1953H8.48791C8.78592 10.1953 9.07207 10.0767 9.28301 9.86621C9.49362 9.65518 9.61196 9.36925 9.61209 9.0711V8.56011ZM9.61209 6.10735V7.94692H7.66991C7.38785 7.94692 7.15892 7.718 7.15892 7.43593V6.61835C7.15892 6.33628 7.38785 6.10735 7.66991 6.10735H9.61209ZM7.87472 6.61835C7.98314 6.61835 8.08712 6.66141 8.16378 6.73808C8.24044 6.81474 8.28351 6.91872 8.28351 7.02714C8.28351 7.13556 8.24044 7.23953 8.16378 7.3162C8.08712 7.39286 7.98314 7.43593 7.87472 7.43593C7.7663 7.43593 7.66232 7.39286 7.58566 7.3162C7.50899 7.23953 7.46593 7.13556 7.46593 7.02714C7.46593 6.91872 7.50899 6.81474 7.58566 6.73808C7.66232 6.66141 7.7663 6.61835 7.87472 6.61835ZM7.2975 3.4502H8.48791C8.56599 3.4502 8.64366 3.45633 8.7201 3.46778L8.91387 3.05163C8.94817 2.978 8.95185 2.89377 8.9241 2.81744C8.89636 2.7411 8.83945 2.67889 8.76589 2.64447L6.1721 1.43485C6.09842 1.40058 6.01415 1.39696 5.93781 1.42479C5.86146 1.45261 5.79929 1.5096 5.76494 1.58324L5.54542 2.05376L6.89443 2.68249C7.0364 2.74868 7.15272 2.85963 7.22553 2.99832C7.29835 3.137 7.32363 3.29576 7.2975 3.4502ZM3.04074 3.4502H6.87481C6.90562 3.37711 6.90691 3.29492 6.8784 3.2209C6.84989 3.14689 6.7938 3.0868 6.72192 3.05326L4.12813 1.84364C4.05445 1.80937 3.97019 1.80575 3.89384 1.83358C3.8175 1.8614 3.75532 1.9184 3.72097 1.99203L3.04074 3.4502Z" fill="white"/>
</svg>
