<svg width="14" height="15" viewBox="0 0 14 15" fill="none" xmlns="http://www.w3.org/2000/svg">
<path fill-rule="evenodd" clip-rule="evenodd" d="M13.4751 12.093H10.192C9.68802 12.093 9.20466 11.8928 8.84828 11.5364C8.4919 11.18 8.29168 10.6967 8.29168 10.1927V8.81062C8.29168 8.30662 8.4919 7.82326 8.84828 7.46688C9.20466 7.1105 9.68802 6.91028 10.192 6.91028H13.4751V6.0465C13.4751 5.54273 13.2747 5.05901 12.9188 4.70244C12.5621 4.34642 12.0788 4.14637 11.5748 4.14616H1.90034C1.39657 4.14616 0.912852 4.34656 0.55628 4.70244C0.200258 5.05917 0.000211604 5.54251 0 6.0465V12.9568C0 13.4606 0.200399 13.9443 0.55628 14.3009C0.913005 14.6569 1.39635 14.8569 1.90034 14.8571H11.5748C12.0785 14.8571 12.5623 14.6567 12.9188 14.3009C13.2748 13.9441 13.4749 13.4608 13.4751 12.9568V12.093ZM13.4751 7.94683V11.0565H10.192C9.71521 11.0565 9.32823 10.6695 9.32823 10.1927V8.81062C9.32823 8.33381 9.71521 7.94683 10.192 7.94683H13.4751ZM10.5382 8.81062C10.7215 8.81062 10.8973 8.88342 11.0269 9.01302C11.1565 9.14261 11.2293 9.31838 11.2293 9.50165C11.2293 9.68492 11.1565 9.86069 11.0269 9.99028C10.8973 10.1199 10.7215 10.1927 10.5382 10.1927C10.355 10.1927 10.1792 10.1199 10.0496 9.99028C9.92 9.86069 9.84719 9.68492 9.84719 9.50165C9.84719 9.31838 9.92 9.14261 10.0496 9.01302C10.1792 8.88342 10.355 8.81062 10.5382 8.81062ZM9.56249 3.45513H11.5748C11.7068 3.45513 11.8381 3.4655 11.9673 3.48484L12.2948 2.78137C12.3528 2.65691 12.359 2.51454 12.3121 2.3855C12.2652 2.25645 12.169 2.1513 12.0447 2.09311L7.66008 0.048346C7.53554 -0.00958299 7.39309 -0.0157024 7.26403 0.0313322C7.13498 0.0783669 7.02988 0.174708 6.97181 0.29919L6.60073 1.09457L8.88113 2.15737C9.12112 2.26926 9.31775 2.45682 9.44083 2.69126C9.56392 2.9257 9.60666 3.19405 9.56249 3.45513ZM2.36678 3.45513H8.84796C8.90005 3.33158 8.90222 3.19265 8.85403 3.06753C8.80583 2.9424 8.71102 2.84083 8.58952 2.78414L4.20492 0.739377C4.08038 0.681448 3.93793 0.675329 3.80888 0.722363C3.67983 0.769398 3.57472 0.865739 3.51666 0.990221L2.36678 3.45513Z" fill="#A0A0A0"/>
</svg>
