<svg width="15" height="16" viewBox="0 0 15 16" fill="none" xmlns="http://www.w3.org/2000/svg">
<path fill-rule="evenodd" clip-rule="evenodd" d="M14.1715 12.718H10.7187C10.1887 12.718 9.68035 12.5074 9.30555 12.1326C8.93075 11.7578 8.72019 11.2495 8.72019 10.7194V9.26595C8.72019 8.7359 8.93075 8.22756 9.30555 7.85276C9.68035 7.47796 10.1887 7.2674 10.7187 7.2674H14.1715V6.35897C14.1715 5.82918 13.9607 5.32046 13.5865 4.94546C13.2113 4.57104 12.703 4.36065 12.1729 4.36043H1.99854C1.46875 4.36043 0.960028 4.57119 0.585028 4.94546C0.210607 5.32062 0.00022254 5.82894 0 6.35897V13.6264C0 14.1562 0.210756 14.6649 0.585028 15.0399C0.960189 15.4143 1.46851 15.6247 1.99854 15.6249H12.1729C12.7027 15.6249 13.2115 15.4142 13.5865 15.0399C13.9609 14.6648 14.1713 14.1564 14.1715 13.6264V12.718ZM14.1715 8.35752V11.6279H10.7187C10.2173 11.6279 9.8103 11.2209 9.8103 10.7194V9.26595C9.8103 8.76449 10.2173 8.35752 10.7187 8.35752H14.1715ZM11.0828 9.26595C11.2756 9.26595 11.4604 9.34251 11.5967 9.47881C11.733 9.6151 11.8096 9.79995 11.8096 9.99269C11.8096 10.1854 11.733 10.3703 11.5967 10.5066C11.4604 10.6429 11.2756 10.7194 11.0828 10.7194C10.8901 10.7194 10.7052 10.6429 10.5689 10.5066C10.4327 10.3703 10.3561 10.1854 10.3561 9.99269C10.3561 9.79995 10.4327 9.6151 10.5689 9.47881C10.7052 9.34251 10.8901 9.26595 11.0828 9.26595ZM10.0567 3.63369H12.1729C12.3118 3.63369 12.4498 3.64459 12.5857 3.66494L12.9302 2.92511C12.9912 2.79422 12.9977 2.64449 12.9484 2.50878C12.8991 2.37307 12.7979 2.26247 12.6671 2.20128L8.05595 0.0508445C7.92497 -0.0100782 7.77516 -0.0165139 7.63943 0.0329514C7.50371 0.0824168 7.39317 0.183737 7.33211 0.314652L6.94185 1.15113L9.3401 2.26886C9.59249 2.38653 9.79928 2.58379 9.92873 2.83034C10.0582 3.07689 10.1031 3.35912 10.0567 3.63369ZM2.48909 3.63369H9.30522C9.35999 3.50375 9.36228 3.35764 9.3116 3.22605C9.26091 3.09447 9.1612 2.98764 9.03342 2.92802L4.42223 0.777588C4.29125 0.716665 4.14144 0.710229 4.00572 0.759695C3.87 0.80916 3.75946 0.91048 3.6984 1.0414L2.48909 3.63369Z" fill="#298B97"/>
</svg>
