<svg width="53" height="55" viewBox="0 0 53 55" fill="none" xmlns="http://www.w3.org/2000/svg">
<g clip-path="url(#clip0_1150_20664)">
<path d="M50.4312 37.6327C50.4312 37.6327 51.1909 42.2785 50.8402 42.5999C50.2445 43.146 49.5093 42.8413 49.3501 42.483C49.1163 41.957 49.2916 37.4573 49.2916 37.4573C49.2916 37.4573 50.2559 36.8438 50.4312 37.6327Z" fill="#373952"/>
<path d="M46.6036 38.3631C46.6036 38.3631 47.3632 43.0089 47.0126 43.3303C46.4168 43.8764 45.6816 43.5717 45.5224 43.2135C45.2887 42.6876 45.464 38.1878 45.464 38.1878C45.464 38.1878 46.4282 37.5742 46.6036 38.3631Z" fill="#373952"/>
<path d="M23.6347 29.0178C23.5751 28.7047 23.2858 28.4899 22.9689 28.5241C21.89 28.6403 19.5265 29.1227 18.32 31.1236C17.1426 33.0766 17.1355 36.1554 17.2125 37.632C17.2371 38.105 17.6433 38.4655 18.1161 38.4364C19.6372 38.3428 22.8225 38.6581 23.8221 37.8081C24.9425 36.8553 23.9664 30.7599 23.6347 29.0178Z" fill="#E57373"/>
<path d="M22.9949 28.5493C22.9949 28.5493 16.8288 28.8085 17.8223 38.2755C17.8223 38.2755 17.5593 38.334 17.4814 38.1391C17.4035 37.9443 16.3614 29.1787 22.9949 28.5493Z" fill="#D15D5D"/>
<path d="M23.6954 36.5809C23.6954 36.5809 24.455 41.2267 24.1044 41.5482C23.5086 42.0942 22.7734 41.7895 22.6142 41.4312C22.3805 40.9053 22.5558 36.4055 22.5558 36.4055C22.5558 36.4055 23.5201 35.792 23.6954 36.5809Z" fill="#373952"/>
<path d="M19.8682 37.3114C19.8682 37.3114 20.6279 41.9572 20.2772 42.2786C19.6815 42.8247 18.9463 42.52 18.7871 42.1617C18.5533 41.6358 18.7286 37.136 18.7286 37.136C18.7286 37.136 19.6928 36.5225 19.8682 37.3114Z" fill="#373952"/>
<path d="M48.0943 23.2071C48.0943 23.2071 28.1047 22.3235 25.1996 23.6431C22.2946 24.9627 21.5537 35.8101 21.5537 35.8101L51.1321 36.3185C51.1321 36.3185 50.2317 23.6908 48.0943 23.2071Z" fill="#FC9797"/>
<path d="M46.311 36.2298C46.311 36.2298 47.5112 23.5956 48.0944 23.2068C48.6778 22.8182 51.6581 28.1652 51.5704 37.194C51.5704 37.194 48.2394 37.1064 46.311 36.2298Z" fill="#E57373"/>
<path d="M51.5413 37.3399C51.6212 36.814 51.2199 36.0543 49.6421 35.9959C45.0367 35.8253 34.1925 34.8563 19.729 36.1419C17.5974 36.3314 18.1804 37.5445 18.1365 38.2614C18.1222 38.4949 18.2387 38.7105 18.4726 38.7132C22.2115 38.7559 48.8119 39.282 48.9701 39.2683C49.6217 39.2123 51.2182 39.4688 51.5413 37.3399Z" fill="#FC9797"/>
<path d="M38.0584 35.394L38.2991 35.2736C38.3027 35.2806 38.304 35.2854 38.3041 35.2857C38.1757 34.8045 38.7689 24.4335 39.7738 22.9448H39.4913C38.91 23.806 38.5658 26.9736 38.3322 29.5753C38.1125 32.0197 37.9415 35.1602 38.0584 35.394Z" fill="#FFBBBB"/>
<path d="M28.7085 35.3941L28.9491 35.2737C28.953 35.2812 28.9542 35.2862 28.9542 35.2864C28.8313 34.8135 29.5649 24.5066 30.5795 23.0034H30.297C29.6846 23.9108 29.2535 27.4986 29.0406 29.613C28.796 32.0432 28.5933 35.1638 28.7085 35.3941Z" fill="#FFBBBB"/>
<path d="M43.438 38.0613C41.1005 38.0613 18.2317 37.8665 18.1148 37.399C17.9978 36.9316 18.4654 36.0549 19.9848 35.5875C21.5042 35.12 22.4782 34.633 26.8026 34.9836C27.1321 35.0103 28.6337 35.1006 28.6337 35.1006C28.6337 35.1006 28.9843 35.0616 30.6985 34.789C32.1699 34.5549 34.9111 34.7117 35.4905 34.789C36.6592 34.9448 38.1787 35.3344 38.1787 35.3344C38.1787 35.3344 41.5681 34.9838 43.555 35.2955C44.8263 35.4947 45.7756 38.0613 43.438 38.0613Z" fill="#FFBBBB"/>
<path d="M51.0217 30.2186C50.9249 29.7915 50.4565 29.5081 49.9646 29.582C48.6286 29.783 46.1082 30.4151 44.7488 32.3814C43.4941 34.1963 43.2579 36.6008 43.2432 38.0339C43.2361 38.7348 43.8555 39.3184 44.6573 39.3657C46.63 39.4822 50.1584 39.558 51.2875 38.7207C52.5903 37.7546 51.4771 32.2263 51.0217 30.2186Z" fill="#E57373"/>
<path d="M43.2432 38.0335C43.2579 36.6004 43.4942 34.1958 44.7488 32.381C46.1083 30.4147 48.6286 29.7825 49.9646 29.5816C50.0681 29.566 50.1704 29.5672 50.2686 29.5813C48.7559 30.0735 46.0954 31.3032 45.0704 34.0488C44.2717 36.1882 44.2183 38.0553 44.3352 39.3147C43.6959 39.1526 43.237 38.6371 43.2432 38.0335Z" fill="#D36262"/>
<path d="M50.2689 29.582C50.2689 29.582 43.6789 31.0295 44.4159 39.3277C44.4159 39.3277 44.1143 39.3862 44.025 39.1914C43.9357 38.9966 43.2453 31.5825 50.2689 29.582Z" fill="#D15D5D"/>
<path d="M7.39689 26.161C6.98788 25.9989 6.38452 25.6806 6.28827 25.5651C6.17828 25.4332 6.97863 25.1026 7.38129 24.9472C7.27673 23.1365 6.79481 20.897 5.47012 20.8024C3.83382 20.6855 3.19107 22.8477 3.89229 24.6593C4.59351 26.4709 4.94418 27.289 4.4767 29.3928C4.00922 31.4966 6.113 33.1329 6.113 33.1329C7.80776 34.8276 8.39864 33.6817 8.0415 32.7239C6.76546 29.302 7.33115 27.952 7.39689 26.161Z" fill="#B4AB1E"/>
<path d="M11.5373 26.1445C11.6532 24.9777 11.6378 24.0569 11.3756 23.9138C10.4035 23.3836 9.8734 25.0184 9.51984 25.8137C9.51984 25.8137 8.41526 28.5972 8.15021 30.6738C7.88504 32.7504 9.78501 32.9271 10.4035 31.5575C10.727 30.8412 11.1687 28.8879 11.4169 27.1327C11.1403 27.0049 10.7774 26.7814 10.6711 26.6753C10.5225 26.5266 11.2979 26.231 11.5373 26.1445Z" fill="#B4AB1E"/>
<path d="M8.72377 34.4379C8.72377 34.4379 9.26924 32.9964 10.7497 32.0615C12.2301 31.1265 12.347 29.7629 13.0093 28.9447C13.6716 28.1266 15.0742 27.9707 15.5027 28.9837C15.9313 29.9966 14.2171 32.8796 12.1522 33.8925C10.0874 34.9054 9.61991 36.1521 9.0355 36.1132C8.45098 36.0741 8.52897 35.217 8.72377 34.4379Z" fill="#B4AB1E"/>
<path d="M9.51983 25.8133C9.51983 25.8133 8.41525 28.5968 8.1502 30.6734C8.02322 31.6678 8.39307 32.2255 8.88054 32.3874L10.9761 23.8115C10.2522 23.8454 9.8215 25.1346 9.51983 25.8133Z" fill="#72701B"/>
<path d="M3.89228 24.6592C4.5935 26.4707 4.94417 27.2889 4.47669 29.3927C4.00921 31.4965 6.11299 33.1328 6.11299 33.1328C6.82969 33.8495 7.34824 34.057 7.68193 33.9867C5.61974 30.0324 5.02158 22.8007 4.89506 20.8633C3.69228 21.23 3.28014 23.078 3.89228 24.6592Z" fill="#72701B"/>
<path d="M13.0088 28.9445C12.4193 29.6728 12.2611 30.8329 11.1895 31.7385C11.0572 31.8503 10.9119 31.9585 10.7492 32.0613C9.94803 32.5672 9.42116 33.2212 9.10596 33.7151C8.8386 34.134 8.7234 34.4377 8.7234 34.4377C8.56384 35.0758 8.48342 35.7655 8.78025 36.0159C8.96396 35.6338 9.27107 35.0681 9.71498 34.4721C9.97414 34.1244 10.28 33.7668 10.6355 33.4288C10.883 33.1936 11.1539 32.9679 11.4505 32.7625C12.8933 31.7636 14.1184 29.5204 14.7043 28.3116C14.1297 28.1794 13.424 28.4319 13.0088 28.9445Z" fill="#72701B"/>
<path d="M7.08233 22.8688L5.15381 24.2422L5.20582 24.3152L7.13434 22.9419L7.08233 22.8688Z" fill="#72701B"/>
<path d="M7.21646 23.5125L5.23877 25.002L5.29271 25.0736L7.2704 23.5841L7.21646 23.5125Z" fill="#72701B"/>
<path d="M12.5457 31.5094L12.5366 31.5986L14.5528 31.8031L14.5618 31.7139L12.5457 31.5094Z" fill="#72701B"/>
<path d="M11.9602 32.1525L11.9502 32.2417L14.0248 32.4753L14.0348 32.3861L11.9602 32.1525Z" fill="#72701B"/>
<path d="M7.91144 38.92L7.82178 38.9166C7.96644 35.1561 9.03993 31.424 9.05079 31.3867L9.13687 31.4118C9.12612 31.4489 8.05563 35.1709 7.91144 38.92Z" fill="#72701B"/>
<path d="M8.17416 38.835L8.08496 38.8265C8.28207 36.7489 9.03032 35.3104 9.62328 34.4696C10.2668 33.5569 10.8738 33.1298 10.8798 33.1255L10.931 33.1991C10.9072 33.2156 8.54759 34.9008 8.17416 38.835Z" fill="#72701B"/>
<path d="M8.086 39.2449L7.99703 39.234C8.544 34.8291 6.417 31.0305 6.39551 30.9926L6.4735 30.9482C6.4951 30.9863 8.63667 34.8108 8.086 39.2449Z" fill="#72701B"/>
<path d="M5.62938 37.1943H10.2233C10.3642 37.1943 10.4789 37.3068 10.4807 37.4476C10.4863 37.8743 10.484 38.7413 10.3911 39.2681C10.2966 39.8035 9.94427 41.6512 9.77027 42.5617C9.71307 42.8611 9.45126 43.077 9.14646 43.077H6.76757C6.46335 43.077 6.20177 42.8613 6.144 42.5625L5.49604 39.2147C5.48657 39.1657 5.48021 39.1161 5.47686 39.0662L5.37264 37.4684C5.36282 37.32 5.48056 37.1943 5.62938 37.1943Z" fill="#36374D"/>
<path d="M28.904 51.6577C42.427 51.6577 53.3896 49.8288 53.3896 47.5728C53.3896 45.3167 42.427 43.4878 28.904 43.4878C15.381 43.4878 4.41846 45.3167 4.41846 47.5728C4.41846 49.8288 15.381 51.6577 28.904 51.6577Z" fill="#FFDC78"/>
<path d="M27.4686 50.6836C21.4468 50.6836 6.84527 49.8024 5.5318 47.8351C5.41891 47.6658 5.40424 47.4906 5.48824 47.3141C5.97987 46.2816 8.51797 45.4522 13.0321 44.8491C16.3847 44.4012 19.6363 44.2512 19.6688 44.2498L19.6704 44.2497C32.572 44.1124 37.2095 46.018 37.2609 47.6902C37.3062 49.1632 33.8909 50.4083 29.14 50.6506C28.7115 50.6725 28.1435 50.6836 27.4686 50.6836ZM19.672 44.3393C19.501 44.3472 6.71124 44.9543 5.56923 47.3526C5.49875 47.5006 5.51088 47.6421 5.60643 47.7851C6.96 49.8127 24.2991 50.8076 29.1354 50.561C34.4605 50.2894 37.2087 48.9125 37.1712 47.6928C37.117 45.9325 31.685 44.2136 19.6712 44.3392L19.672 44.3393Z" fill="#DBAF42"/>
<path d="M29.8366 50.6836C29.1613 50.6836 28.5941 50.6725 28.1652 50.6505C23.4144 50.4082 19.9991 49.163 20.0444 47.6901C20.0959 46.0181 24.7378 44.1129 37.635 44.2496L37.6366 44.2497C37.6691 44.2511 40.9207 44.4011 44.2732 44.8491C48.7873 45.4522 51.3254 46.2815 51.817 47.314C51.9011 47.4905 51.8864 47.6657 51.7735 47.835C50.46 49.8022 35.8591 50.6836 29.8366 50.6836ZM36.4038 44.3328C31.3053 44.3328 27.116 44.6793 24.2338 45.3425C21.6182 45.9444 20.1621 46.7791 20.1341 47.6929C20.0966 48.9125 22.8448 50.2894 28.1697 50.5611C33.0062 50.8074 50.3452 49.8126 51.6988 47.7852C51.7944 47.6422 51.8065 47.5006 51.736 47.3526C50.5939 44.9542 37.8043 44.3471 37.6333 44.3394C37.218 44.3349 36.8078 44.3328 36.4038 44.3328Z" fill="#DBAF42"/>
<g opacity="0.53">
<path d="M26.9171 48.4435C26.9171 48.4435 34.4556 48.7942 36.8223 48.6188C39.1891 48.4435 48.4808 47.8299 48.4808 47.8299C48.4808 47.8299 50.3216 46.8657 44.8869 47.1287C42.1682 47.2603 41.7395 46.6904 38.6632 46.6904C34.8063 46.6904 29.021 47.2164 28.232 47.3041C27.443 47.3917 24.6379 48.0052 26.9171 48.4435Z" fill="#CEA242"/>
</g>
<path d="M23.3576 7.93803C23.3576 7.93803 25.1986 6.88174 26.6171 7.81737C28.0356 8.75301 26.4059 10.2016 26.9491 10.6242C27.4923 11.0466 29.2729 11.4692 28.1864 13.0385C27.0999 14.6079 28.3072 15.0605 28.5184 15.3926C28.7297 15.7246 27.0397 16.7507 25.4702 15.7849C23.9009 14.8192 23.7197 12.5557 24.3837 10.7449C25.0478 8.93417 23.7197 8.81339 23.3576 8.81339C22.9954 8.81327 22.422 8.27003 23.3576 7.93803Z" fill="#373952"/>
<g opacity="0.45">
<path d="M27.3715 13.4017C27.3655 13.4017 27.3594 13.4005 27.3534 13.398C27.3299 13.388 27.3188 13.3608 27.3288 13.3373C27.6377 12.6084 27.3283 12.3025 26.767 11.7473C26.6673 11.6487 26.5601 11.5428 26.4477 11.4258C26.054 11.0163 26.2284 10.5596 26.4131 10.0761C26.5998 9.58712 26.8112 9.03314 26.5147 8.39526C25.9362 7.15184 23.4449 8.10717 23.4197 8.11707C23.396 8.12662 23.3691 8.11457 23.3596 8.0907C23.3503 8.06695 23.362 8.0401 23.3859 8.03067C23.3923 8.02817 24.037 7.77862 24.7477 7.6921C25.7028 7.57562 26.3425 7.80547 26.5986 8.35611C26.9117 9.02956 26.6928 9.60311 26.4997 10.109C26.3182 10.5841 26.1617 10.9945 26.5145 11.3615C26.6265 11.4778 26.7331 11.5832 26.8321 11.6813C27.4029 12.2458 27.7476 12.5865 27.414 13.3733C27.4067 13.3911 27.3896 13.4017 27.3715 13.4017Z" fill="#9DA0BA"/>
</g>
<g opacity="0.45">
<path d="M26.3599 13.8548C26.3541 13.8548 26.3481 13.8538 26.3424 13.8514C26.3186 13.8417 26.3074 13.8146 26.3171 13.791C26.653 12.9721 26.3776 12.7293 25.9963 12.3931C25.8529 12.2668 25.6902 12.1234 25.553 11.9344C25.2571 11.5278 25.4352 11.0454 25.6073 10.5789C25.7278 10.2522 25.8525 9.91419 25.8161 9.60379C25.7313 8.88285 25.0289 8.83153 24.9991 8.82974C24.9736 8.82819 24.9541 8.80623 24.9557 8.78081C24.9572 8.75527 24.9787 8.73606 25.0046 8.73737C25.0126 8.73785 25.814 8.79417 25.908 9.59304C25.9471 9.92553 25.8186 10.274 25.6943 10.611C25.523 11.075 25.3613 11.5134 25.6279 11.88C25.7593 12.0607 25.911 12.1943 26.0577 12.3237C26.4366 12.6577 26.7638 12.9462 26.4029 13.8262C26.3954 13.844 26.3782 13.8548 26.3599 13.8548Z" fill="#9DA0BA"/>
</g>
<g opacity="0.45">
<path d="M23.478 8.33175C23.4591 8.33175 23.4414 8.32018 23.4344 8.30132C23.4257 8.27733 23.438 8.25072 23.462 8.24189C23.5134 8.22315 24.7281 7.78672 25.4924 8.2148C25.5147 8.22733 25.5227 8.25549 25.5101 8.27781C25.4976 8.30013 25.4692 8.308 25.4471 8.29559C24.7195 7.88816 23.506 8.32435 23.4939 8.32889C23.4887 8.3308 23.4832 8.33175 23.478 8.33175Z" fill="#9DA0BA"/>
</g>
<path d="M22.9691 10.1297C22.9691 10.1297 23.205 11.8661 21.6716 13.2228C21.6716 13.2228 21.1619 13.6379 20.1277 13.8269C20.1277 13.8269 19.1361 14.1422 18.8857 13.8277C18.6353 13.5133 17.9905 10.7559 18.6375 8.85478C18.6375 8.85478 19.7245 7.48152 21.4248 7.98335C23.125 8.4853 22.9691 10.1297 22.9691 10.1297Z" fill="#C98F67"/>
<path d="M39.3374 7.37813L38.5981 6.12695C38.5981 6.12695 31.2897 11.3407 30.5504 11.7957C29.9569 12.1608 25.8287 13.8017 24.2224 14.4351V14.336L24.1188 14.3695C23.8135 14.4512 23.6777 14.3171 23.621 14.2172C23.5679 13.8664 23.5121 13.4785 23.4781 13.1891C23.3976 12.505 23.3289 11.3059 23.3289 11.3059L20.4464 11.7712L20.8861 14.4952C20.8861 14.4952 21.027 15.1838 20.6784 15.509L20.0574 15.7343C18.4641 15.9927 14.1291 16.6666 13.0566 16.5326C11.2368 16.3051 4.95714 15.5096 4.65402 15.4662C4.2559 15.4093 0.516695 15.3383 0.602024 15.7648C0.665155 16.0802 3.11857 16.0207 3.11857 16.0207C3.11857 16.0207 1.92337 16.2301 1.96693 16.4046C1.99533 16.5184 3.5735 16.4046 4.31282 16.5753C5.05214 16.7459 11.5211 18.3951 12.5449 18.6226C13.3199 18.7948 17.5735 18.6492 19.5949 18.5684C19.5957 18.5722 19.596 18.5763 19.5967 18.58C19.7674 19.4899 20.7342 21.1391 20.9047 21.4235C21.0387 21.6469 23.1379 23.5547 24.0319 24.3625C24.8413 25.4359 25.8524 26.2148 25.8524 26.2148L30.5441 22.1201L26.0896 19.1929C26.0169 19.0961 25.9469 18.9962 25.8808 18.8928C25.5447 18.3671 25.2616 17.8327 25.0288 17.3459C25.9624 16.9463 30.6248 14.9158 32.3611 13.486C34.2948 11.8933 39.3374 7.37813 39.3374 7.37813Z" fill="#C98F67"/>
<path d="M29.7255 43.3389L27.4016 43.3691L27.462 46.0249C27.2407 47.393 23.6019 47.554 23.5416 48.1978C23.5129 48.5031 24.0848 48.5628 25.2023 48.5628C26.2573 48.5628 28.926 48.5542 29.2326 48.379C29.5392 48.2038 29.3936 47.5742 29.3149 46.8177C29.3069 46.7418 29.7255 43.3389 29.7255 43.3389Z" fill="#C98F67"/>
<path d="M38.5238 10.5157L40.3894 9.7389L39.7456 6.51967C39.529 5.15071 40.2436 3.13945 40.666 2.53595C40.842 2.28473 40.651 1.75128 39.6399 2.44536C38.9124 2.94493 38.0555 5.15155 37.8946 5.79539C37.8089 6.13802 37.9862 6.6303 38.297 7.32451C38.328 7.39397 38.5238 10.5157 38.5238 10.5157Z" fill="#C98F67"/>
<path d="M42.0689 16.3888L40.4804 8.22001C40.4261 7.94075 40.1416 7.77045 39.8699 7.85458L38.4963 8.28003C38.2736 8.34901 38.1332 8.56801 38.1639 8.79905C38.3883 10.4914 38.9039 15.7705 38.7492 16.7509C38.5785 17.8314 35.3417 20.5994 34.041 20.9158C31.9368 21.4276 29.4921 21.4807 29.4921 21.4807L25.1699 25.8597L25.9683 26.9503C26.2267 27.3031 26.3662 27.7284 26.3667 28.1656C26.3699 31.1075 26.3751 35.9593 26.3751 36.5489C26.3751 37.284 27.0474 43.3406 27.2333 45.0018C27.2601 45.2411 27.4625 45.4219 27.7032 45.4219H29.1955C29.4199 45.4219 29.6132 45.2645 29.6593 45.0449C30.4305 41.376 29.7332 37.0335 29.8156 36.1264C29.8744 35.481 31.488 30.4502 32.4901 27.3714C33.3467 26.9322 35.3886 25.865 35.9184 25.4047C39.3875 22.3906 41.6463 18.7427 41.6463 18.7427C42.1293 17.8977 42.2198 17.2942 42.0689 16.3888Z" fill="#373952"/>
<path d="M18.9934 10.4165C18.9125 10.3852 18.7905 10.3577 18.6572 10.3955C18.6052 10.4103 18.5577 10.356 18.5824 10.3078C18.6173 10.2396 18.6875 10.1708 18.8293 10.1704C18.987 10.1701 19.0514 10.2567 19.0774 10.3363C19.0944 10.3883 19.0445 10.4362 18.9934 10.4165Z" fill="#1B232B"/>
<path d="M18.5603 10.9229C18.5791 11.0397 18.693 11.1185 18.8146 11.0988C18.9362 11.0792 19.0195 10.9686 19.0006 10.8518C18.9818 10.7349 18.8679 10.6562 18.7463 10.6759C18.6247 10.6956 18.5414 10.8062 18.5603 10.9229Z" fill="#1B232B"/>
<path d="M18.961 11.6755C18.9901 11.8562 19.1942 11.9735 19.4168 11.9376C19.6393 11.9016 19.7961 11.7261 19.7669 11.5454C19.7378 11.3647 19.5337 11.2474 19.3111 11.2833C19.0887 11.3192 18.9319 11.4948 18.961 11.6755Z" fill="#FC9797"/>
<path d="M18.628 12.7828C18.6159 12.7828 18.6037 12.7826 18.5915 12.7819C18.5659 12.7807 18.5462 12.759 18.5474 12.7334C18.5486 12.7079 18.571 12.6873 18.5959 12.6894C18.9482 12.7048 19.1465 12.4365 19.1484 12.4338C19.1635 12.4131 19.1923 12.4082 19.2131 12.4234C19.2339 12.4383 19.2385 12.4673 19.2236 12.4881C19.2145 12.5005 19.0062 12.7828 18.628 12.7828Z" fill="#1B232B"/>
<path d="M18.759 11.3555L18.3586 11.0322C18.3586 11.0322 18.1738 11.4898 17.9614 11.6534C17.9614 11.6534 17.8882 11.7547 18.0366 11.7805C18.3028 11.8268 18.616 11.8262 18.616 11.8262L18.759 11.3555Z" fill="#C98F67"/>
<path d="M20.7504 13.6406C20.7504 13.6406 22.3403 13.2005 23.0886 12.4072C23.0886 12.4072 22.5463 13.3406 21.1258 13.9468L20.8177 14.0577C20.8177 14.0577 20.7378 13.6579 20.7504 13.6406Z" fill="#9B6642"/>
<path d="M24.251 14.2233C24.1908 14.2433 24.1548 14.3047 24.1666 14.3668C24.2579 14.8514 24.6188 16.7924 24.5441 16.8174C24.0555 16.9803 20.5631 18.1254 20.5631 18.1254L20.4298 15.699C20.425 15.613 20.3466 15.5501 20.2615 15.5643L20.0096 15.6063C19.9491 15.6164 19.9016 15.6631 19.891 15.7235C19.8085 16.1931 19.454 18.1908 19.6531 19.0353C20.1578 21.1774 21.1637 22.2035 21.7674 22.8473C22.0424 23.1407 23.4977 24.3563 24.1743 24.9215C24.543 25.2294 28.3083 21.932 29.093 21.2379C29.1645 21.1746 29.1554 21.0612 29.0749 21.01C28.6115 20.7154 27.2752 19.8409 26.762 19.2344C26.1364 18.4951 25.7477 17.2296 25.6908 16.8315C25.6424 16.4923 24.9235 14.6285 24.7819 14.1815C24.7606 14.1141 24.6882 14.0774 24.6212 14.0999L24.251 14.2233Z" fill="#EEF982"/>
<path d="M39.7757 6.03662C39.7757 6.03662 38.327 6.15727 38.1762 6.24785C38.0252 6.33843 39.001 7.24376 39.9971 7.09291C39.9971 7.09291 39.9869 6.06681 39.7757 6.03662Z" fill="#C98F67"/>
<path d="M37.2095 7.12358C37.2095 7.12358 37.7829 6.21814 37.9037 6.09749C38.0243 5.97683 38.7826 5.5694 38.8091 5.67502C38.8695 5.91645 38.2357 6.27865 38.1451 6.58046C38.0545 6.88228 37.6623 7.75752 37.6623 7.75752L37.2095 7.12358Z" fill="#C98F67"/>
<path d="M37.9345 7.55162C37.93 7.55162 37.9254 7.55102 37.9209 7.54959C37.8964 7.54207 37.8827 7.51617 37.8902 7.49183C37.964 7.25135 38.2089 6.46191 38.2612 6.39938C38.277 6.38028 38.3213 6.34794 38.4199 6.27646C38.6284 6.12525 39.0623 5.81067 39.1177 5.6307C39.122 5.61674 39.121 5.61113 39.121 5.61113C39.0585 5.58523 38.6498 5.7905 38.4056 5.91366C38.2645 5.98479 38.1313 6.05186 38.0237 6.09923C38.0003 6.1095 37.9729 6.09888 37.9627 6.07548C37.9524 6.05209 37.963 6.02476 37.9864 6.01438C38.0919 5.96808 38.224 5.90149 38.3639 5.83095C38.8569 5.58249 39.0985 5.47353 39.1845 5.54597C39.2049 5.56315 39.2252 5.59657 39.2062 5.65803C39.1468 5.85124 38.7972 6.11725 38.4743 6.3514C38.4099 6.39806 38.3433 6.4464 38.3323 6.45881C38.2956 6.51227 38.096 7.13762 37.9789 7.51892C37.9726 7.53885 37.9543 7.55162 37.9345 7.55162Z" fill="#9B6642"/>
<path d="M39.8982 7.1228C39.8217 7.1228 39.6996 7.11516 39.5619 7.07769C39.42 7.03902 39.3327 6.9698 39.2557 6.90858C39.2065 6.86956 39.164 6.83578 39.1133 6.81406C38.9867 6.75976 38.879 6.62204 38.8435 6.57311C38.8016 6.56607 38.7133 6.54471 38.6686 6.48611C38.6456 6.45604 38.6367 6.41976 38.6432 6.38157C38.664 6.25614 39.2651 6.1004 39.7655 5.9918C39.7905 5.98631 39.8151 6.0023 39.8206 6.02713C39.826 6.05219 39.8102 6.07677 39.7851 6.08226C39.3134 6.18466 38.7768 6.33634 38.7324 6.40293C38.7323 6.40986 38.7346 6.42012 38.7421 6.42978C38.7664 6.46177 38.8363 6.48003 38.8746 6.48397C38.8883 6.48528 38.9007 6.4928 38.9083 6.50437C38.9095 6.50604 39.0234 6.67479 39.1496 6.72885C39.2117 6.75547 39.261 6.79461 39.3133 6.83602C39.3867 6.89426 39.4627 6.95465 39.5862 6.9883C39.7955 7.04535 39.9696 7.02733 39.9714 7.02721C39.9966 7.0247 40.0196 7.04272 40.0225 7.06814C40.0253 7.09356 40.007 7.11647 39.9816 7.11922C39.9785 7.1197 39.9479 7.1228 39.8982 7.1228Z" fill="#9B6642"/>
<path d="M38.3877 8.33195C38.3637 8.33195 38.3436 8.31357 38.3415 8.28934L38.2057 6.5842C38.2037 6.55866 38.2228 6.53634 38.2482 6.53431C38.2743 6.5324 38.2961 6.55126 38.2981 6.57668L38.4339 8.28183C38.4359 8.30736 38.4168 8.32968 38.3914 8.33171C38.3901 8.33183 38.3889 8.33195 38.3877 8.33195Z" fill="#9B6642"/>
<path d="M30.681 27.9838C30.6594 27.9838 30.6401 27.9686 30.6357 27.9467C30.6307 27.9216 30.6469 27.8971 30.672 27.8921C30.6918 27.8882 32.6869 27.4703 35.8931 25.366C35.9146 25.3519 35.9433 25.3579 35.9572 25.3793C35.9713 25.4006 35.9653 25.4294 35.944 25.4434C32.7206 27.5589 30.71 27.9789 30.6901 27.9829C30.6871 27.9834 30.684 27.9838 30.681 27.9838Z" fill="#DFE6FF"/>
<path d="M23.7317 8.5795C23.2997 7.7323 22.5401 7.27176 21.8735 7.17235C21.3919 7.10051 20.0774 7.04788 19.2027 7.75772C19.1964 7.75772 19.1907 7.75712 19.1842 7.75712C19.1842 7.75712 17.9518 7.78958 17.7896 9.34627C17.7896 9.34627 17.7247 9.73544 17.7896 9.7679C17.8302 9.78819 19.0793 9.84667 20.0073 9.8876C20.1589 10.0411 20.3133 10.2182 20.4656 10.4264C21.0604 11.2401 21.2129 11.259 21.406 11.2828C21.4375 11.2868 21.4701 11.2907 21.5066 11.2994L21.5181 11.2516C22.1434 11.77 22.8414 12.104 23.5243 12.0717C23.5243 12.0717 24.3627 9.81683 23.7317 8.5795ZM21.4173 11.1909C21.2464 11.1698 21.1113 11.153 20.5403 10.3718C20.4078 10.1905 20.2744 10.0336 20.1426 9.89345C20.1794 9.895 20.2157 9.89667 20.2509 9.89822C20.3501 9.99561 20.4461 10.1017 20.5361 10.2193C20.8106 10.5779 21.1209 10.9117 21.4524 11.1957C21.4406 11.194 21.4287 11.1924 21.4173 11.1909Z" fill="#373952"/>
<g opacity="0.45">
<path d="M22.9952 8.30136C22.9842 8.30136 22.9732 8.29754 22.9645 8.28979C21.701 7.17335 20.2324 7.63055 20.2177 7.6352C20.1935 7.6432 20.1674 7.62971 20.1595 7.60537C20.1516 7.58102 20.1649 7.55488 20.1893 7.54701C20.2045 7.54211 21.7235 7.0694 23.0258 8.22033C23.045 8.23728 23.0468 8.26652 23.0299 8.28573C23.0207 8.29599 23.0079 8.30136 22.9952 8.30136Z" fill="#9DA0BA"/>
</g>
<g opacity="0.45">
<path d="M20.001 8.32962C19.9835 8.32962 19.9667 8.31959 19.9588 8.30265C19.9482 8.27937 19.9582 8.25193 19.9815 8.24119C19.9938 8.23558 21.2226 7.6804 22.3723 8.21374C22.3955 8.22448 22.4056 8.25204 22.3948 8.2752C22.3842 8.29835 22.3564 8.30849 22.3334 8.29775C21.2231 7.78268 20.0322 8.31971 20.0204 8.3252C20.0141 8.32818 20.0074 8.32962 20.001 8.32962Z" fill="#9DA0BA"/>
</g>
<path d="M21.5171 11.3474C21.5171 11.3474 21.8796 10.8453 22.3334 10.8164C22.7871 10.7875 22.8606 11.4263 22.4846 11.7532C22.1085 12.0801 21.5171 11.3474 21.5171 11.3474Z" fill="#C98F67"/>
<path d="M22.0703 11.6435C22.069 11.6435 22.0677 11.6434 22.0663 11.6434C22.0408 11.6413 22.0219 11.6188 22.0241 11.5934C22.0529 11.2562 22.2997 11.0311 22.31 11.0216C22.329 11.0046 22.3582 11.006 22.3754 11.0252C22.3925 11.0442 22.3909 11.0734 22.372 11.0906C22.3697 11.0927 22.1419 11.3015 22.1163 11.6012C22.1143 11.6253 22.094 11.6435 22.0703 11.6435Z" fill="#1B232B"/>
<path d="M22.4748 11.4389C22.4628 11.4389 22.4509 11.4343 22.4418 11.425C22.4392 11.4222 22.1724 11.1542 21.9376 11.2273C21.9132 11.235 21.8872 11.2214 21.8796 11.1969C21.8719 11.1724 21.8855 11.1465 21.91 11.1389C22.199 11.049 22.4955 11.3475 22.508 11.3603C22.5259 11.3785 22.5256 11.4079 22.5073 11.4257C22.4984 11.4345 22.4865 11.4389 22.4748 11.4389Z" fill="#1B232B"/>
</g>
<defs>
<clipPath id="clip0_1150_20664">
<rect width="54.06" height="54.06" fill="white"/>
</clipPath>
</defs>
</svg>
